<?xml version="1.0" standalone="no"?>
<!DOCTYPE svg PUBLIC "-//W3C//DTD SVG 20010904//EN"
 "http://www.w3.org/TR/2001/REC-SVG-20010904/DTD/svg10.dtd">
<svg version="1.0" xmlns="http://www.w3.org/2000/svg"
 width="1080.000000pt" height="918.000000pt" viewBox="0 0 1080.000000 918.000000"
 preserveAspectRatio="xMidYMid meet">

<g transform="translate(0.000000,918.000000) scale(0.100000,-0.100000)"
fill="#000000" stroke="none">
<path d="M7294 7768 c-4 -6 -9 -43 -11 -82 -5 -98 -12 -136 -24 -136 -5 0 -9
6 -8 13 4 35 -3 66 -17 71 -26 10 -41 -10 -54 -76 -6 -35 -21 -80 -32 -102
-24 -46 -22 -70 18 -218 l29 -107 -34 -41 c-25 -32 -34 -52 -34 -84 -1 -31
-23 -83 -90 -215 -49 -96 -103 -188 -120 -205 -16 -17 -39 -51 -50 -76 -11
-25 -43 -79 -72 -120 -115 -168 -150 -216 -165 -227 -37 -30 -128 -77 -160
-82 -25 -5 -41 -16 -58 -41 -29 -44 -51 -55 -143 -75 -88 -19 -169 -53 -169
-72 0 -16 -48 -17 -117 -3 -140 27 -191 31 -234 14 -32 -13 -43 -14 -49 -4 -4
7 -16 9 -29 5 -27 -8 -26 -4 4 40 58 86 108 277 108 413 0 58 -4 97 -11 104
-9 9 -12 9 -12 0 0 -7 -3 -12 -7 -12 -5 0 -9 25 -10 56 -3 106 -78 211 -192
268 -60 31 -75 33 -41 6 l25 -20 -39 13 c-49 17 -84 3 -115 -46 -11 -18 -32
-48 -45 -69 -21 -29 -22 -37 -11 -42 19 -7 19 -41 0 -70 -9 -13 -16 -47 -18
-77 -2 -52 -1 -54 30 -64 27 -9 30 -13 21 -30 -15 -26 -27 -33 -47 -28 -9 2
-29 -8 -45 -22 -16 -14 -43 -34 -61 -44 -44 -23 -71 -51 -58 -59 5 -4 11 -27
11 -52 1 -25 8 -49 14 -55 7 -5 15 -19 17 -30 3 -20 3 -20 -20 0 l-22 20 6
-23 c3 -15 1 -22 -6 -19 -7 2 -12 8 -13 13 -1 9 -8 29 -25 72 -5 12 -13 22
-19 22 -14 0 -13 -12 6 -49 9 -18 13 -35 10 -38 -3 -3 -8 2 -12 11 -8 20 -28
21 -44 1 -10 -12 -10 -21 -1 -42 6 -14 10 -27 8 -29 -2 -2 -21 1 -42 7 -42 12
-83 4 -163 -32 -23 -10 -53 -19 -67 -19 -13 0 -30 -6 -37 -12 -19 -19 -92 -21
-134 -3 -20 8 -45 15 -55 15 -10 0 -33 8 -51 18 -18 10 -52 18 -77 18 -38 -1
-48 -6 -72 -36 -46 -56 -70 -140 -78 -268 -5 -95 -4 -115 9 -122 11 -7 8 -10
-14 -16 -16 -4 -31 -2 -35 3 -9 15 -207 27 -216 14 -4 -7 10 -11 42 -11 53 0
183 -30 183 -42 0 -4 -4 -8 -9 -8 -12 0 -21 -39 -10 -46 5 -3 5 -12 0 -23 -11
-19 -8 -38 16 -114 10 -34 19 -47 29 -43 19 7 18 0 -4 -22 -21 -21 -66 -21
-147 2 -33 9 -73 21 -90 26 l-30 8 33 1 c17 1 32 5 32 10 0 16 -150 46 -285
57 -44 3 -84 8 -89 11 -17 11 -390 22 -408 12 -24 -13 -124 -138 -133 -167 -3
-12 -18 -30 -32 -39 -39 -26 -93 -103 -93 -133 0 -15 7 -47 15 -70 16 -46 14
-60 -7 -42 -7 5 -74 29 -148 51 -151 47 -216 68 -245 82 -11 5 -47 10 -80 11
l-60 3 -3 -75 c-2 -41 1 -158 7 -259 12 -217 13 -219 119 -244 126 -30 592
-108 611 -102 30 9 41 51 41 152 l0 97 33 -31 c17 -16 40 -33 49 -36 9 -3 26
-24 37 -46 25 -48 55 -71 95 -71 22 0 42 -13 80 -51 32 -32 72 -59 106 -73 32
-13 56 -29 58 -39 2 -10 -10 -36 -27 -59 -30 -41 -31 -42 -12 -62 10 -12 27
-45 37 -74 23 -64 73 -117 102 -108 14 5 18 13 15 26 -8 30 14 24 25 -7 6 -16
27 -66 46 -113 37 -89 36 -104 -9 -108 -34 -2 -95 -34 -120 -62 -30 -33 -89
-60 -132 -60 -66 0 -325 -29 -393 -44 -36 -8 -117 -24 -180 -35 -63 -12 -148
-34 -189 -51 -40 -16 -86 -30 -101 -30 -15 0 -62 -11 -104 -25 -42 -14 -89
-25 -104 -25 -38 0 -88 -33 -107 -71 -15 -28 -20 -30 -48 -24 -18 4 -40 8 -50
8 -16 1 -17 3 -2 13 14 10 15 61 11 485 -5 542 -14 923 -26 1089 -7 97 -8 83
-5 -93 1 -115 0 -217 -2 -227 -3 -11 -14 -20 -24 -22 -11 -2 -20 -6 -19 -10 0
-5 0 -19 0 -33 0 -16 6 -25 15 -25 17 0 21 -26 4 -32 -7 -2 -7 -11 0 -28 5
-14 10 -19 10 -12 1 17 21 15 21 -3 0 -8 -4 -15 -10 -15 -5 0 -10 -7 -10 -16
0 -9 5 -12 12 -8 8 5 9 -2 5 -26 -4 -18 -7 -39 -7 -46 0 -8 -12 -19 -26 -24
-21 -8 -25 -15 -22 -42 2 -28 8 -34 31 -36 25 -3 27 -7 29 -50 2 -75 -4 -327
-8 -331 -2 -2 -4 46 -4 108 0 72 -4 110 -10 106 -5 -3 -10 -48 -10 -98 0 -123
-13 -167 -21 -72 -5 70 -5 70 -7 -27 -1 -53 2 -99 7 -103 11 -6 9 -40 -4 -69
-5 -12 -3 -21 6 -27 10 -6 10 -9 2 -9 -9 0 -13 -17 -13 -52 0 -29 -4 -59 -9
-66 -5 -8 -7 99 -4 240 6 451 6 1161 -1 1223 -13 110 -8 105 -179 154 -84 24
-253 75 -377 113 -124 39 -274 85 -335 103 -197 58 -559 176 -618 200 l-57 24
0 -39 c0 -112 45 -323 112 -528 43 -133 163 -379 244 -502 48 -73 49 -77 49
-151 0 -88 1 -86 -156 -284 -115 -146 -227 -319 -294 -457 -42 -84 -52 -114
-43 -120 10 -6 9 -8 -3 -8 -17 0 -34 -40 -21 -51 4 -3 45 -11 92 -18 340 -47
622 -84 660 -86 25 -1 74 -7 110 -13 36 -7 73 -12 83 -12 22 0 22 17 -1 23
-14 4 -14 5 3 6 11 0 25 -7 32 -18 9 -14 29 -20 95 -25 89 -7 180 -19 323 -43
50 -8 131 -21 180 -29 50 -8 92 -19 93 -24 4 -12 42 -14 42 -2 0 4 29 8 63 10
l64 2 29 -77 c46 -123 68 -135 419 -242 99 -30 169 -43 296 -56 52 -5 79 -14
118 -39 28 -19 73 -39 99 -46 26 -7 67 -17 91 -24 33 -8 48 -19 61 -43 10 -18
22 -38 28 -45 5 -7 14 -33 19 -58 6 -32 15 -48 33 -57 16 -8 27 -8 31 -2 3 5
13 -8 21 -30 18 -45 58 -76 87 -66 41 13 125 163 114 204 -3 11 2 30 11 43 9
12 16 38 16 58 l-1 35 -16 -45 c-16 -46 -38 -73 -84 -102 -26 -17 -27 -17 -21
5 3 12 20 39 39 60 19 21 39 49 45 62 14 31 37 39 73 25 20 -8 37 -7 61 2 26
9 39 9 59 0 30 -14 29 -36 -3 -40 -12 -2 -22 -5 -22 -7 0 -17 27 -55 46 -66
32 -16 37 -37 24 -95 -12 -54 -8 -96 16 -144 17 -33 14 -111 -5 -134 -12 -14
-21 -66 -25 -137 -2 -41 -11 -71 -34 -111 -19 -33 -32 -70 -32 -90 0 -19 -13
-62 -30 -96 -73 -151 -56 -231 95 -434 74 -100 125 -142 204 -165 48 -14 65
-14 115 -4 119 25 231 103 290 205 21 36 42 66 46 66 28 0 91 59 122 113 43
73 108 262 108 311 0 25 8 42 30 63 29 26 30 31 26 89 -3 34 -18 106 -35 160
-46 146 -42 175 33 272 24 32 52 77 64 102 l20 45 1 -36 c1 -19 8 -82 16 -138
18 -117 40 -160 110 -210 24 -17 46 -40 50 -50 3 -11 13 -22 21 -25 8 -3 13
-10 9 -16 -8 -12 20 -66 56 -108 16 -17 36 -58 44 -90 43 -155 70 -199 142
-236 32 -16 90 -21 129 -10 36 10 57 72 57 167 -1 71 -5 92 -28 138 -16 30
-33 76 -39 104 -9 39 -16 50 -35 55 l-23 5 22 20 c42 38 53 73 46 146 -4 37
-16 93 -27 124 -16 47 -18 60 -7 73 10 11 13 84 14 306 0 237 3 298 16 331 9
23 14 65 13 99 -2 50 0 59 16 63 22 6 25 19 7 27 -7 3 1 3 17 0 17 -3 59 -9
95 -13 45 -6 59 -10 45 -15 -29 -10 -27 -71 5 -113 13 -18 26 -31 28 -28 3 3
-2 13 -11 23 -9 10 -18 29 -19 43 -3 22 0 24 35 21 44 -3 47 2 10 22 l-28 15
31 1 c58 0 107 -95 58 -114 -19 -7 -18 -26 1 -26 9 0 20 11 26 24 13 29 4 112
-14 123 -14 9 121 29 262 39 95 7 95 7 137 50 59 58 72 105 55 197 -8 40 -19
105 -25 145 -6 41 -14 70 -18 66 -5 -4 -8 6 -8 23 0 70 -80 240 -158 337 -76
92 -73 86 -57 133 8 22 17 71 20 109 3 38 12 110 19 160 l13 92 64 58 c35 33
145 136 244 229 351 331 706 660 713 663 4 1 81 -41 172 -94 90 -53 173 -97
184 -98 29 -4 66 -24 66 -37 0 -22 18 3 24 33 3 18 15 40 25 48 10 8 22 26 25
40 l7 25 -20 -25 c-12 -14 -25 -29 -31 -35 -36 -37 -51 -48 -56 -42 -11 11 96
135 278 323 60 61 108 115 108 120 0 8 -212 -203 -306 -306 -56 -61 -124 -125
-124 -117 0 4 16 25 36 47 35 39 36 41 18 55 -10 8 -51 28 -90 44 -74 31 -204
102 -203 111 0 3 31 32 69 65 37 33 134 122 215 198 82 75 154 137 161 137 7
0 32 25 56 55 23 30 49 55 56 55 8 0 12 6 9 14 -3 8 1 20 10 28 9 7 48 51 87
98 39 47 77 90 85 96 17 13 9 42 -14 50 -22 9 -62 -24 -320 -266 -127 -118
-314 -291 -415 -385 -101 -93 -220 -204 -265 -246 -44 -42 -129 -121 -190
-176 -60 -55 -236 -219 -390 -365 -154 -146 -281 -263 -282 -259 0 3 -9 50
-19 105 -11 64 -26 111 -41 133 -22 32 -23 48 -5 48 9 0 167 113 211 151 20
17 63 49 96 71 65 44 287 251 374 348 29 33 62 78 73 100 11 22 38 60 60 85
80 90 213 328 243 435 10 33 28 71 40 85 13 14 36 63 51 110 35 110 50 140 73
140 17 0 45 32 63 70 5 11 7 11 7 2 2 -26 21 0 21 28 0 19 -8 35 -26 47 l-26
19 26 30 c14 17 53 48 86 69 56 35 60 41 55 66 -5 21 -1 32 13 45 22 19 20 33
-12 78 -18 27 -18 29 -2 23 49 -19 233 170 199 204 -16 16 -67 -12 -138 -74
-71 -63 -87 -70 -112 -52 -17 13 -17 14 3 37 42 45 134 194 140 225 6 29 3 34
-20 43 -15 5 -29 10 -31 10 -2 0 -35 -47 -75 -105 -39 -58 -76 -105 -83 -105
-7 0 -6 -4 3 -10 12 -8 12 -10 1 -10 -23 0 -40 33 -34 65 3 17 26 81 50 142
48 120 50 146 16 151 -28 4 -61 -42 -98 -133 -51 -130 -58 -144 -76 -161 -17
-16 -18 -10 -12 148 l5 164 -36 1 c-20 1 -39 -4 -42 -9z m-15 -302 c8 -10 9
-16 1 -21 -5 -3 -10 0 -10 9 0 8 -6 17 -12 19 -8 4 -9 6 -2 6 6 1 17 -5 23
-13z m41 -154 c54 -35 58 -43 36 -62 -8 -6 -13 -17 -10 -25 3 -7 1 -16 -5 -19
-5 -4 -12 2 -16 13 -3 11 -16 21 -28 23 -18 2 -23 11 -25 42 -2 22 -10 49 -18
60 -8 11 -14 30 -14 41 0 16 4 14 15 -10 9 -17 38 -45 65 -63z m470 55 c0 -2
-10 -12 -22 -23 l-23 -19 19 23 c18 21 26 27 26 19z m-400 -163 c0 -8 -4 -12
-10 -9 -5 3 -10 13 -10 21 0 8 5 12 10 9 6 -3 10 -13 10 -21z m77 -36 c53 -23
83 -49 83 -72 0 -30 -5 -33 -40 -28 -18 2 -32 12 -35 23 -4 11 -11 16 -17 13
-8 -5 -9 3 -5 25 6 27 3 33 -16 41 -12 5 -17 9 -10 9 7 1 25 -4 40 -11z m-245
-57 c2 -17 1 -28 -4 -25 -8 5 -12 54 -4 54 2 0 6 -13 8 -29z m-22 -15 c0 -3
-4 -8 -10 -11 -5 -3 -10 -1 -10 4 0 6 5 11 10 11 6 0 10 -2 10 -4z m205 -316
c3 -5 1 -10 -4 -10 -6 0 -11 5 -11 10 0 6 2 10 4 10 3 0 8 -4 11 -10z m-345
-25 c0 -8 -4 -15 -9 -15 -14 0 -22 -31 -11 -45 6 -7 7 -32 4 -59 -5 -35 -11
-46 -25 -46 -41 0 -42 56 -3 131 26 49 44 63 44 34z m-1560 -431 c0 -13 -4
-24 -10 -24 -5 0 -10 14 -10 31 0 17 4 28 10 24 6 -3 10 -17 10 -31z m1070
-274 c0 -5 -4 -10 -10 -10 -5 0 -10 5 -10 10 0 6 5 10 10 10 6 0 10 -4 10 -10z
m-57 -15 c-3 -9 -8 -14 -10 -11 -3 3 -2 9 2 15 9 16 15 13 8 -4z m-64 -64
c-27 -23 -39 -26 -39 -11 0 6 6 10 14 10 7 0 19 7 26 15 7 9 15 13 18 10 3 -2
-6 -13 -19 -24z m-49 -15 c0 -2 -7 -6 -15 -10 -8 -3 -15 -1 -15 4 0 6 7 10 15
10 8 0 15 -2 15 -4z m-40 -30 c0 -3 -4 -8 -10 -11 -5 -3 -10 -1 -10 4 0 6 5
11 10 11 6 0 10 -2 10 -4z m-69 -63 c-8 -15 -10 -15 -11 -2 0 17 10 32 18 25
2 -3 -1 -13 -7 -23z m-41 -22 c-6 -12 -16 -21 -22 -21 -7 0 -6 5 2 15 7 8 9
15 4 15 -5 0 -2 4 6 10 20 12 24 6 10 -19z m-1483 5 c2 -2 1 -10 -3 -19 -5
-15 -8 -15 -21 -2 -17 17 -33 18 -86 6 -38 -9 -54 -1 -41 20 5 8 29 10 77 5
39 -4 72 -8 74 -10z m1313 -60 c0 -3 -4 -8 -10 -11 -5 -3 -10 -1 -10 4 0 6 5
11 10 11 6 0 10 -2 10 -4z m-71 -39 c-9 -7 -18 -21 -20 -31 -6 -28 -26 -31
-39 -6 -14 26 -4 43 20 35 10 -3 21 -1 25 5 3 5 12 10 18 10 7 -1 5 -6 -4 -13z
m51 -7 c0 -5 -4 -10 -9 -10 -6 0 -13 5 -16 10 -3 6 1 10 9 10 9 0 16 -4 16
-10z m-1470 -14 c0 -3 -4 -8 -10 -11 -5 -3 -10 -1 -10 4 0 6 5 11 10 11 6 0
10 -2 10 -4z m-144 -17 c3 -6 15 -9 25 -6 30 8 22 -7 -14 -23 -20 -9 -33 -24
-35 -37 -2 -13 -7 -23 -12 -23 -5 0 -17 -3 -27 -6 -16 -5 -16 -4 -3 8 8 7 14
23 12 35 -2 12 5 31 15 42 21 23 29 25 39 10z m549 -60 c-9 -14 -62 17 -68 40
-4 16 1 21 22 23 20 2 29 -3 39 -25 7 -15 10 -32 7 -38z m940 61 c3 -5 1 -10
-4 -10 -6 0 -11 5 -11 10 0 6 2 10 4 10 3 0 8 -4 11 -10z m-930 -100 c3 -6 -1
-7 -9 -4 -18 7 -21 14 -7 14 6 0 13 -4 16 -10z m14 -21 c39 -14 41 -46 7 -123
-24 -55 -54 -76 -88 -63 -7 3 -3 6 10 6 13 1 22 7 22 17 0 10 -6 14 -15 10 -8
-3 -15 -1 -15 4 0 11 11 13 34 4 9 -3 13 -11 9 -17 -3 -6 -1 -7 6 -3 7 4 10
13 8 19 -2 7 2 17 10 22 8 6 16 31 18 56 4 37 1 45 -13 47 -9 1 -35 5 -57 8
-37 7 -38 8 -15 15 36 10 44 10 79 -2z m-575 -18 c-22 -21 -27 -21 -18 3 3 9
13 16 22 16 13 0 12 -3 -4 -19z m203 -3 c-3 -8 -6 -5 -6 6 -1 11 2 17 5 13 3
-3 4 -12 1 -19z m137 7 c7 -21 -4 -25 -58 -24 l-51 2 40 7 c42 7 34 16 -20 23
-16 2 -4 4 27 4 37 0 59 -4 62 -12z m323 -42 c-3 -10 -5 -2 -5 17 0 19 2 27 5
18 2 -10 2 -26 0 -35z m367 2 c-26 -34 -24 -44 6 -25 8 5 19 5 25 1 5 -5 19
-11 30 -15 11 -3 3 -3 -17 0 -22 3 -38 1 -38 -5 0 -5 -15 -9 -34 -8 l-33 2 35
43 c41 50 64 57 26 7z m208 -18 c-12 -28 -28 -46 -42 -50 l-22 -6 19 22 c11
12 28 36 39 54 25 45 29 33 6 -20z m-1306 -28 c-9 -22 -15 -27 -15 -16 -1 21
18 61 25 54 3 -3 -2 -20 -10 -38z m411 -86 c15 -11 12 -13 -15 -13 -22 0 -32
5 -32 15 0 13 -7 15 -35 9 -30 -5 -35 -4 -35 13 0 23 18 43 34 37 7 -3 20 12
31 33 l19 38 8 -60 c5 -35 16 -65 25 -72z m-337 71 c0 -8 -4 -12 -10 -9 -5 3
-10 10 -10 16 0 5 5 9 10 9 6 0 10 -7 10 -16z m1328 -41 c-12 -43 -29 -63 -55
-63 -17 1 -16 2 2 15 39 28 45 36 45 60 0 14 4 25 9 25 6 0 5 -15 -1 -37z
m-4738 17 c18 -12 2 -12 -25 0 -13 6 -15 9 -5 9 8 0 22 -4 30 -9z m3855 -21
c11 -4 14 -8 7 -8 -7 -1 -10 -5 -7 -11 3 -5 1 -10 -5 -10 -12 0 -90 38 -90 45
0 5 70 -6 95 -16z m745 8 c0 -7 -10 -23 -23 -37 -12 -14 -28 -38 -35 -54 -7
-16 -15 -26 -18 -23 -7 7 55 127 67 127 5 0 9 -6 9 -13z m-4525 -7 c13 -5 14
-9 5 -9 -8 0 -24 4 -35 9 -13 5 -14 9 -5 9 8 0 24 -4 35 -9z m3913 -40 c-13
-21 -45 -36 -55 -26 -3 3 6 10 20 15 14 5 28 15 32 20 3 6 8 11 11 11 2 0 -1
-9 -8 -20z m-378 0 c12 -8 9 -10 -12 -10 -16 0 -28 5 -28 10 0 13 20 13 40 0z
m467 -87 c-3 -10 -5 -4 -5 12 0 17 2 24 5 18 2 -7 2 -21 0 -30z m443 -2 c0 -5
-12 -13 -27 -19 -34 -13 -93 -14 -93 -2 0 14 38 22 70 15 19 -4 30 -3 30 4 0
6 5 11 10 11 6 0 10 -4 10 -9z m-150 -41 c0 -5 -5 -10 -11 -10 -5 0 -7 5 -4
10 3 6 8 10 11 10 2 0 4 -4 4 -10z m-682 -42 c23 1 42 -3 42 -8 0 -6 3 -9 8
-7 4 1 7 -2 7 -8 0 -11 -8 -13 -76 -18 -54 -5 -89 6 -89 28 0 9 4 14 8 11 4
-2 14 -1 22 4 8 5 19 6 25 2 5 -4 29 -6 53 -4z m188 -96 c-11 -10 -13 3 -7 48
l6 45 3 -44 c2 -23 1 -46 -2 -49z m454 64 c0 -3 -4 -8 -10 -11 -5 -3 -10 -1
-10 4 0 6 5 11 10 11 6 0 10 -2 10 -4z m-1938 -38 c-8 -8 -17 -8 -34 0 -22 10
-21 11 12 11 26 1 31 -2 22 -11z m78 -13 c-7 -9 -15 -13 -18 -10 -3 2 1 11 8
20 7 9 15 13 18 10 3 -2 -1 -11 -8 -20z m123 12 c2 -6 1 -21 -3 -32 -7 -19 -7
-19 -18 1 -6 12 -9 23 -7 25 2 3 -8 4 -23 3 -20 -1 -26 -6 -24 -20 2 -15 1
-16 -7 -4 -6 8 -6 19 -1 25 13 15 77 17 83 2z m1707 3 c0 -5 -7 -10 -15 -10
-8 0 -15 5 -15 10 0 6 7 10 15 10 8 0 15 -4 15 -10z m-1678 -22 c-7 -7 -12 -8
-12 -2 0 14 12 26 19 19 2 -3 -1 -11 -7 -17z m58 3 c0 -6 -4 -13 -10 -16 -5
-3 -10 1 -10 9 0 9 5 16 10 16 6 0 10 -4 10 -9z m-290 -11 c0 -5 -2 -10 -4
-10 -3 0 -8 5 -11 10 -3 6 -1 10 4 10 6 0 11 -4 11 -10z m396 3 c-4 -4 -19 -8
-34 -8 -15 0 -33 -4 -39 -8 -8 -5 -13 -3 -13 7 0 12 11 16 47 16 25 0 43 -3
39 -7z m221 -11 c-26 -28 -21 -46 22 -85 38 -34 42 -35 98 -30 34 4 68 14 82
25 13 10 26 16 29 13 9 -8 -28 -43 -74 -70 -51 -30 -65 -32 -33 -6 l24 19 -27
-5 c-47 -9 -93 6 -132 41 -34 32 -36 37 -24 58 16 29 39 58 46 58 3 0 -2 -8
-11 -18z m-522 -20 c-3 -3 -11 0 -18 7 -9 10 -8 11 6 5 10 -3 15 -9 12 -12z
m-95 -2 c0 -5 -2 -10 -4 -10 -3 0 -8 5 -11 10 -3 6 -1 10 4 10 6 0 11 -4 11
-10z m390 0 c0 -5 -4 -10 -10 -10 -5 0 -10 5 -10 10 0 6 5 10 10 10 6 0 10 -4
10 -10z m-207 -7 c-7 -2 -21 -2 -30 0 -10 3 -4 5 12 5 17 0 24 -2 18 -5z m57
-3 c0 -5 -2 -10 -4 -10 -3 0 -8 5 -11 10 -3 6 -1 10 4 10 6 0 11 -4 11 -10z
m129 -16 c10 -9 -75 -3 -89 6 -10 7 1 8 35 4 28 -4 52 -8 54 -10z m1022 -61
c-8 -15 -10 -15 -11 -2 0 17 10 32 18 25 2 -3 -1 -13 -7 -23z m985 -222 c88
-61 292 -274 393 -408 117 -157 188 -293 152 -293 -4 0 -24 32 -46 72 -66 123
-183 267 -358 441 -93 92 -174 167 -180 167 -18 0 -87 52 -81 61 12 20 55 6
120 -40z m-1892 -64 c23 -23 25 -26 6 -14 -47 32 -74 39 -130 33 -34 -4 -68
-16 -89 -31 -40 -28 -55 -24 -23 6 39 36 82 48 146 42 47 -5 64 -12 90 -36z
m-650 -123 c6 -68 4 -96 -8 -83 -8 9 -15 159 -7 159 4 0 11 -34 15 -76z m1816
-3 c-8 -17 -20 -21 -58 -21 l-47 0 30 16 c32 17 78 33 83 28 2 -1 -1 -12 -8
-23z m-980 -35 c0 -3 -4 -8 -10 -11 -5 -3 -10 -1 -10 4 0 6 5 11 10 11 6 0 10
-2 10 -4z m-1 -99 c-2 -2 -24 -7 -49 -11 -42 -6 -44 -5 -25 9 11 9 31 14 45
11 14 -3 19 -3 13 0 -7 3 -13 11 -13 17 0 6 8 4 17 -6 9 -9 15 -18 12 -20z
m1501 0 c14 -25 13 -28 -13 -54 -31 -32 -36 -27 -7 7 24 27 26 42 5 34 -11 -5
-13 -2 -9 10 9 23 -13 20 -26 -4 -6 -11 -15 -18 -20 -15 -11 7 32 56 45 52 6
-2 17 -16 25 -30z m-1660 -37 c0 -5 -7 -7 -15 -4 -8 4 -15 1 -15 -5 0 -6 5
-11 10 -11 6 0 10 -4 10 -10 0 -5 -7 -7 -15 -4 -18 7 -20 -7 -4 -23 6 -6 8
-16 4 -23 -5 -8 -11 -6 -21 7 -14 19 -19 65 -7 76 10 11 53 8 53 -3z m235 -21
c9 -17 14 -36 12 -42 -3 -9 -37 54 -37 69 0 12 12 0 25 -27z m1380 11 c-3 -5
-12 -7 -20 -3 -21 7 -19 13 6 13 11 0 18 -4 14 -10z m85 1 c0 -5 -7 -11 -15
-15 -8 -3 -15 -15 -15 -28 0 -16 -3 -19 -11 -11 -9 9 -8 18 5 37 16 26 36 35
36 17z m-1540 -36 c0 -8 -4 -15 -10 -15 -5 0 -7 7 -4 15 4 8 8 15 10 15 2 0 4
-7 4 -15z m1531 -8 c-10 -9 -11 -8 -5 6 3 10 9 15 12 12 3 -3 0 -11 -7 -18z
m62 -8 c5 -4 -4 -18 -19 -32 -35 -33 -40 -28 -19 18 10 19 20 32 24 28 3 -4
10 -11 14 -14z m-963 -43 l-25 -14 33 -19 c17 -10 32 -21 32 -24 0 -9 -49 -21
-59 -14 -11 6 -62 -20 -62 -31 2 -17 -34 -9 -37 9 -6 28 26 67 71 88 48 21 85
25 47 5z m67 8 c-3 -3 -12 -4 -19 -1 -8 3 -5 6 6 6 11 1 17 -2 13 -5z m-567
-12 c0 -5 -23 -14 -51 -20 -73 -17 -82 -14 -19 8 66 22 70 22 70 12z m1515
-12 c0 -8 -11 -17 -24 -18 -15 -2 -21 0 -17 7 4 6 2 11 -4 11 -6 0 -8 5 -5 11
10 15 50 7 50 -11z m-970 0 c3 -5 -1 -10 -9 -10 -8 0 -18 5 -21 10 -3 6 1 10
9 10 8 0 18 -4 21 -10z m935 -30 c12 -8 11 -10 -7 -10 -12 0 -25 5 -28 10 -8
13 15 13 35 0z m72 -43 c-15 -18 -4 -50 14 -43 18 7 18 -8 0 -23 -11 -9 -15
-6 -20 14 -4 16 -13 25 -26 25 -28 0 -32 15 -10 42 11 14 18 28 16 30 -1 3 6
-3 17 -13 16 -14 18 -21 9 -32z m-1747 33 c-3 -5 -15 -10 -26 -10 -10 0 -19 5
-19 10 0 6 12 10 26 10 14 0 23 -4 19 -10z m1805 -90 c0 -22 -16 -35 -25 -20
-3 5 -1 10 6 10 6 0 9 8 6 20 -3 11 -1 18 4 14 5 -3 9 -14 9 -24z m40 -50 c0
-11 -9 -24 -19 -29 -15 -9 -20 -7 -24 11 -7 26 1 38 12 19 6 -9 11 -10 15 -2
4 6 4 16 0 23 -4 7 -3 8 4 4 7 -4 12 -16 12 -26z m-1220 -20 c0 -5 -2 -10 -4
-10 -3 0 -8 5 -11 10 -3 6 -1 10 4 10 6 0 11 -4 11 -10z m1270 2 c0 -8 -53
-42 -66 -42 -4 0 3 11 16 25 23 24 50 33 50 17z m-3895 -52 c3 -5 1 -10 -4
-10 -6 0 -11 5 -11 10 0 6 2 10 4 10 3 0 8 -4 11 -10z m2675 -53 c0 -5 -4 -5
-10 -2 -5 3 -10 14 -10 23 0 15 2 15 10 2 5 -8 10 -19 10 -23z m-94 -47 c10 0
13 -6 10 -17 -3 -10 -2 -23 2 -29 9 -14 71 -24 78 -12 3 4 -2 8 -12 8 -13 0
-11 5 10 25 15 14 37 25 49 25 21 -1 21 -1 3 -15 -10 -8 -23 -16 -27 -17 -12
-4 9 -78 21 -78 6 0 10 -4 10 -10 0 -5 -7 -7 -15 -4 -8 4 -15 12 -15 20 0 7
-10 16 -22 18 -38 8 -131 18 -168 18 -30 0 -32 1 -14 10 11 5 25 23 32 40 8
22 16 29 27 24 9 -3 23 -6 31 -6z m74 -15 c-7 -8 -16 -12 -21 -9 -13 8 -1 24
18 24 13 0 13 -3 3 -15z m-3192 -41 c57 -8 116 -20 130 -27 l27 -13 -2 -174
c-2 -97 -7 -178 -13 -184 -10 -10 -442 38 -485 54 -14 5 -27 21 -31 37 -10 40
22 283 39 301 34 33 122 35 335 6z m3277 16 c3 -6 -1 -13 -10 -16 -19 -8 -30
0 -20 15 8 14 22 14 30 1z m-2405 -100 c-8 -34 -8 -33 -9 15 0 34 3 45 9 35 4
-9 5 -31 0 -50z m2438 19 c14 0 13 -2 -3 -9 -31 -13 -34 -12 -30 18 5 38 7 40
12 15 2 -13 12 -23 21 -24z m-2650 -8 c74 -15 77 -22 75 -180 -1 -97 -6 -150
-17 -175 -14 -35 -17 -36 -66 -36 -86 0 -334 31 -349 43 -11 9 -13 42 -8 172
2 88 8 169 13 179 7 18 16 19 158 12 83 -3 171 -10 194 -15z m2129 -23 c-3 -8
-6 -5 -6 6 -1 11 2 17 5 13 3 -3 4 -12 1 -19z m569 4 c5 -5 42 -19 82 -31 60
-19 79 -22 112 -13 22 5 40 6 40 2 0 -22 -98 -26 -143 -6 -18 8 -49 19 -69 26
-21 6 -40 16 -43 21 -8 11 8 12 21 1z m-522 -68 c5 -14 4 -15 -9 -4 -17 14
-19 20 -6 20 5 0 12 -7 15 -16z m-1967 -31 c-3 -10 -5 -4 -5 12 0 17 2 24 5
18 2 -7 2 -21 0 -30z m1440 -28 c8 -22 -6 -33 -17 -15 -13 20 -12 30 0 30 6 0
13 -7 17 -15z m223 11 c0 -3 -4 -8 -10 -11 -5 -3 -10 -1 -10 4 0 6 5 11 10 11
6 0 10 -2 10 -4z m-1653 -38 c-3 -8 -6 -5 -6 6 -1 11 2 17 5 13 3 -3 4 -12 1
-19z m-30 -40 c-2 -13 -4 -5 -4 17 -1 22 1 32 4 23 2 -10 2 -28 0 -40z m1199
21 c41 -45 10 -222 -49 -279 -34 -33 -51 -31 -107 17 -74 63 -119 187 -87 237
18 27 80 43 173 45 40 1 55 -3 70 -20z m-1199 -81 c-3 -8 -6 -5 -6 6 -1 11 2
17 5 13 3 -3 4 -12 1 -19z m2433 -34 c0 -13 -4 -24 -10 -24 -5 0 -10 14 -10
31 0 17 4 28 10 24 6 -3 10 -17 10 -31z m230 -5 c0 -16 -4 -28 -9 -25 -13 8
-42 -4 -35 -15 7 -13 -68 -11 -86 2 -11 8 -7 9 20 6 41 -5 86 15 95 43 9 29
15 25 15 -11z m-3940 0 c74 -11 173 -24 220 -28 188 -18 543 -66 513 -69 -18
-2 -74 2 -125 8 -51 6 -154 17 -228 25 -172 18 -253 29 -420 59 -167 29 -142
33 40 5z m1288 -65 c-3 -48 -18 -43 -18 7 0 25 4 38 10 34 6 -4 9 -22 8 -41z
m2489 40 c-3 -3 -12 -4 -19 -1 -8 3 -5 6 6 6 11 1 17 -2 13 -5z m1158 -14 c4
-6 -11 -10 -34 -10 -23 0 -41 4 -41 8 0 12 68 13 75 2z m-4018 -74 c172 -23
182 -24 291 -40 70 -11 116 -13 143 -7 38 9 39 8 39 -17 0 -20 -3 -23 -12 -14
-15 15 -108 16 -108 1 0 -8 -4 -8 -14 1 -16 13 -79 24 -221 40 -103 11 -255
37 -263 45 -9 8 31 6 145 -9z m2823 -475 c0 -12 -42 -42 -49 -36 -5 6 29 45
41 45 4 0 8 -4 8 -9z m-1110 -65 c0 -2 -7 -7 -16 -10 -8 -3 -12 -2 -9 4 6 10
25 14 25 6z m-36 -31 c4 -11 -2 -15 -24 -15 -17 0 -30 5 -30 11 0 6 9 8 21 4
15 -5 19 -4 15 4 -4 6 -3 11 2 11 6 0 12 -7 16 -15z m41 5 c3 -5 1 -10 -4 -10
-6 0 -11 5 -11 10 0 6 2 10 4 10 3 0 8 -4 11 -10z m45 -164 c0 -2 -7 -7 -16
-10 -8 -3 -12 -2 -9 4 6 10 25 14 25 6z m77 -58 c-3 -7 -5 -2 -5 12 0 14 2 19
5 13 2 -7 2 -19 0 -25z m818 -13 c29 -13 28 -13 -38 -14 -38 -1 -77 -6 -89
-12 -34 -18 -32 -1 3 20 39 24 81 26 124 6z m105 -19 c0 -21 -85 -111 -128
-135 l-37 -21 35 30 c19 16 38 30 42 30 4 0 8 5 8 11 0 6 -15 1 -34 -10 -41
-26 -46 -26 -46 -1 0 25 1 25 -62 -8 -55 -29 -92 -31 -102 -6 -8 20 46 40 133
48 65 5 92 15 111 37 7 8 63 38 73 39 4 0 7 -6 7 -14z m-980 -31 c7 -8 8 -15
2 -15 -5 0 -15 7 -22 15 -7 8 -8 15 -2 15 5 0 15 -7 22 -15z m999 -72 c17 -10
31 -20 31 -23 0 -3 -19 -25 -42 -48 -32 -34 -46 -42 -62 -36 -12 4 -38 6 -58
6 -21 -1 -38 0 -38 2 0 2 16 13 35 25 19 11 35 27 35 35 0 14 45 56 61 56 4 0
21 -8 38 -17z m-396 -20 c-7 -2 -19 -2 -25 0 -7 3 -2 5 12 5 14 0 19 -2 13 -5z
m1035 -198 c2 -2 -1 -6 -6 -9 -5 -3 -18 4 -28 16 -19 21 -19 21 6 8 14 -7 26
-14 28 -15z m172 5 c0 -16 -6 -20 -32 -19 -18 0 -26 3 -18 6 8 4 21 12 28 20
18 18 22 17 22 -7z m50 16 c0 -2 -7 -7 -16 -10 -8 -3 -12 -2 -9 4 6 10 25 14
25 6z m-128 -48 c-11 -11 -82 -2 -82 10 0 4 21 6 46 3 31 -2 43 -6 36 -13z"/>
<path d="M7335 7270 c3 -5 8 -10 11 -10 2 0 4 5 4 10 0 6 -5 10 -11 10 -5 0
-7 -4 -4 -10z"/>
<path d="M4700 4270 c0 -5 5 -10 10 -10 6 0 10 5 10 10 0 6 -4 10 -10 10 -5 0
-10 -4 -10 -10z"/>
<path d="M5756 4234 c-4 -10 -1 -14 6 -12 15 5 23 28 10 28 -5 0 -13 -7 -16
-16z"/>
<path d="M4580 3906 c0 -2 7 -6 15 -10 8 -3 15 -1 15 4 0 6 -7 10 -15 10 -8 0
-15 -2 -15 -4z"/>
<path d="M1195 3893 c-23 -6 -35 -21 -35 -43 0 -13 1 -13 10 0 8 11 12 12 18
3 10 -15 52 -13 52 3 0 7 3 19 6 28 6 17 -9 19 -51 9z"/>
<path d="M1151 3773 c1 -62 6 -56 11 15 2 23 0 42 -4 42 -5 0 -7 -26 -7 -57z"/>
<path d="M1141 3684 c0 -11 3 -14 6 -6 3 7 2 16 -1 19 -3 4 -6 -2 -5 -13z"/>
<path d="M3355 3623 c-52 -13 -58 -50 -21 -128 23 -50 104 -145 122 -145 21 0
86 184 82 228 -2 17 -9 22 -30 22 -18 0 -28 5 -28 15 0 10 -9 15 -27 14 -27 0
-27 -1 -5 -9 25 -11 25 -12 12 -61 -11 -41 -50 -62 -50 -28 0 10 -7 19 -15 19
-8 0 -15 7 -15 15 0 8 7 15 15 15 9 0 15 9 15 25 0 26 -10 29 -55 18z"/>
<path d="M8710 7411 c14 -5 46 -9 71 -10 25 -1 54 -7 64 -15 14 -10 25 -11 42
-3 41 19 24 27 -56 27 -43 0 -94 2 -112 5 -29 4 -30 3 -9 -4z"/>
<path d="M9533 7083 c-7 -2 -13 -13 -13 -24 0 -10 -6 -19 -13 -19 -18 0 -47
-32 -47 -51 0 -8 -13 -29 -30 -47 -35 -39 -36 -42 -11 -35 10 2 28 18 40 33
15 21 32 30 64 35 45 7 140 61 144 82 2 7 -5 17 -15 22 -18 9 -98 12 -119 4z"/>
<path d="M9380 6886 c0 -24 2 -25 20 -16 11 6 20 16 20 22 0 6 -3 8 -7 5 -3
-4 -12 -2 -20 4 -10 9 -13 6 -13 -15z"/>
<path d="M5326 6873 c-4 -8 -2 -21 4 -28 5 -6 7 -14 5 -17 -3 -3 22 -8 55 -12
34 -4 68 -10 75 -12 10 -4 13 1 11 18 -1 13 -5 29 -9 35 -7 12 -57 5 -57 -8 0
-5 -9 -9 -20 -9 -11 0 -20 6 -20 13 0 7 -9 18 -19 24 -16 10 -20 9 -25 -4z"/>
<path d="M9280 6611 c-56 -8 -76 -22 -134 -94 -26 -31 -50 -57 -54 -57 -9 0
-35 -91 -28 -98 3 -2 20 -2 38 2 31 6 124 88 226 198 52 57 47 62 -48 49z"/>
<path d="M8227 6552 c-8 -9 -26 -39 -39 -67 -14 -27 -37 -70 -51 -95 -15 -25
-27 -48 -27 -52 0 -18 17 -5 40 30 13 20 30 44 38 52 7 8 19 24 27 35 14 20
14 20 15 -3 0 -15 9 -26 26 -32 14 -6 44 -29 66 -51 35 -35 45 -40 71 -35 17
3 32 8 35 10 9 10 -35 76 -91 136 -82 88 -91 94 -110 72z"/>
<path d="M10024 6462 c-21 -16 -53 -35 -69 -43 -30 -14 -43 -47 -15 -40 8 2
27 5 41 6 14 2 36 9 49 16 26 16 79 70 80 82 0 17 -50 5 -86 -21z"/>
<path d="M10143 6405 c-22 -19 -24 -24 -10 -25 23 0 22 -12 -6 -42 -13 -14
-21 -31 -19 -38 3 -7 0 -10 -7 -6 -6 4 -8 18 -5 32 5 19 2 24 -14 24 -44 0
-52 -9 -45 -56 6 -46 -4 -55 -37 -34 -13 8 -12 10 3 10 9 0 17 7 17 15 0 8 -6
15 -14 15 -16 0 -79 -21 -86 -29 -3 -3 -17 -12 -32 -20 -16 -8 -28 -19 -28
-24 0 -5 5 -5 13 1 6 6 32 17 56 26 41 14 45 13 72 -6 l28 -21 54 36 c29 20
73 44 98 53 24 9 45 18 46 19 8 5 -20 74 -27 70 -6 -3 -7 1 -4 9 9 25 -21 19
-53 -9z"/>
<path d="M9837 6363 c-4 -3 -7 -11 -7 -17 0 -6 5 -5 12 2 6 6 9 14 7 17 -3 3
-9 2 -12 -2z"/>
<path d="M9889 6353 c-13 -15 -12 -15 9 -4 23 12 28 21 13 21 -5 0 -15 -7 -22
-17z"/>
<path d="M8850 6210 c0 -39 23 -66 39 -47 14 18 -1 71 -22 75 -13 3 -17 -4
-17 -28z"/>
<path d="M9726 6128 c-26 -37 -18 -52 9 -19 14 16 36 32 48 34 16 3 13 5 -10
6 -23 1 -36 -5 -47 -21z"/>
<path d="M4942 6064 c10 -10 20 -15 24 -12 3 4 -5 12 -18 18 -22 12 -22 12 -6
-6z"/>
<path d="M753 6049 c29 -17 632 -230 646 -228 16 1 -122 57 -259 104 -85 29
-186 65 -225 80 -119 46 -206 69 -162 44z"/>
<path d="M8090 6049 c0 -5 5 -7 10 -4 6 3 10 8 10 11 0 2 -4 4 -10 4 -5 0 -10
-5 -10 -11z"/>
<path d="M8787 6008 c-31 -24 -56 -48 -57 -54 0 -5 -16 -25 -35 -44 -40 -38
-47 -78 -15 -75 11 1 26 7 32 13 7 7 22 12 34 12 13 0 26 5 29 10 4 6 10 8 15
5 21 -13 60 22 97 88 43 77 42 87 -13 87 -20 0 -49 -14 -87 -42z"/>
<path d="M9615 6040 c-33 -13 -93 -108 -63 -97 7 2 18 -3 25 -12 11 -14 12
-13 13 7 0 17 6 22 26 22 21 0 24 -3 19 -21 -4 -12 -1 -32 6 -46 10 -19 10
-28 1 -44 -8 -12 -8 -19 -2 -19 18 0 35 49 22 62 -20 20 -13 49 23 94 37 45
41 54 24 54 -5 0 -8 -4 -4 -9 3 -5 1 -12 -5 -16 -5 -3 -15 3 -22 15 -14 21
-30 24 -63 10z"/>
<path d="M732 6009 c2 -8 67 -35 143 -60 223 -74 227 -76 223 -113 -3 -30 -5
-31 -44 -29 -22 2 -102 23 -178 48 -156 51 -146 48 -146 35 0 -5 6 -10 13 -10
16 0 253 -87 287 -106 35 -19 2 -18 -43 1 -20 8 -46 15 -58 15 -20 0 -20 -2 7
-22 16 -13 33 -22 38 -20 5 2 12 -2 16 -8 4 -6 21 -12 39 -12 30 -1 61 -31 47
-45 -7 -7 -212 52 -274 78 -63 27 -81 25 -79 -8 3 -30 2 -30 227 -101 52 -16
174 -57 270 -90 172 -58 363 -119 570 -181 122 -37 457 -150 482 -163 10 -5
15 -15 11 -24 -3 -8 3 -24 13 -35 16 -18 18 -36 17 -125 -2 -61 2 -104 7 -104
6 0 11 10 12 23 0 12 2 27 3 32 2 6 4 42 5 80 1 39 4 64 7 58 2 -7 9 -13 15
-13 6 0 5 7 -3 16 -8 9 -12 27 -11 39 2 13 -2 26 -7 30 -6 3 -11 27 -11 53 0
33 3 43 9 32 6 -8 8 -17 5 -21 -2 -4 0 -10 6 -14 6 -4 10 9 10 34 0 30 -5 43
-19 51 -18 9 -19 12 -4 41 8 17 16 41 17 55 0 13 5 24 9 24 5 0 58 -11 119
-25 61 -14 115 -24 122 -22 6 2 -15 10 -46 17 -33 7 -55 17 -51 23 4 6 -4 7
-21 3 -16 -4 -25 -3 -22 2 3 6 -4 12 -17 15 -68 15 -190 52 -331 100 -88 30
-166 53 -173 50 -7 -3 -13 -1 -13 5 0 10 -89 41 -275 97 -49 15 -187 61 -305
102 -557 194 -626 216 -618 192z m630 -225 c112 -36 204 -66 204 -67 1 -1 -2
-24 -6 -52 -5 -27 -9 -71 -9 -97 -1 -27 -4 -48 -7 -48 -23 0 -404 133 -414
145 -12 14 -4 85 10 85 5 0 3 15 -2 34 -11 35 -6 66 11 66 5 0 101 -30 213
-66z m-272 -34 c0 -11 -2 -20 -4 -20 -2 0 -6 9 -9 20 -3 11 -1 20 4 20 5 0 9
-9 9 -20z m667 -96 c175 -58 171 -56 167 -96 -1 -18 -3 -57 -3 -87 l-1 -54
-42 7 c-48 8 -256 71 -277 85 -10 6 -12 19 -6 47 10 54 12 56 53 38 58 -25
145 -55 172 -60 44 -7 -49 34 -137 61 -82 25 -83 26 -83 59 0 29 6 46 17 46 1
0 65 -21 140 -46z m-472 -74 c13 -6 15 -9 5 -9 -8 0 -22 4 -30 9 -18 12 -2 12
25 0z m818 -36 c173 -52 184 -58 179 -101 -5 -37 -13 -39 -79 -18 -36 12 -27
-11 12 -29 28 -14 35 -23 35 -46 0 -21 -5 -30 -16 -30 -25 0 -206 48 -248 65
l-38 16 6 72 c3 40 6 80 6 90 0 23 5 22 143 -19z"/>
<path d="M1168 5763 c7 -3 16 -2 19 1 4 3 -2 6 -13 5 -11 0 -14 -3 -6 -6z"/>
<path d="M1165 5743 c14 -15 75 -34 75 -24 0 5 -11 12 -24 15 -13 3 -32 9 -43
12 -12 5 -15 4 -8 -3z"/>
<path d="M1328 5683 c6 -2 18 -2 25 0 6 3 1 5 -13 5 -14 0 -19 -2 -12 -5z"/>
<path d="M1410 5665 c0 -3 12 -11 28 -18 30 -16 117 -32 92 -18 -20 12 -120
41 -120 36z"/>
<path d="M1455 5610 c3 -5 16 -10 28 -9 21 0 21 1 2 9 -28 12 -37 12 -30 0z"/>
<path d="M1430 5586 c0 -2 7 -7 16 -10 8 -3 12 -2 9 4 -6 10 -25 14 -25 6z"/>
<path d="M1860 5520 c8 -5 22 -10 30 -10 13 0 13 1 0 10 -8 5 -22 10 -30 10
-13 0 -13 -1 0 -10z"/>
<path d="M1990 5484 c0 -7 66 -34 82 -33 7 0 -5 9 -27 19 -43 20 -55 23 -55
14z"/>
<path d="M1971 5424 c0 -11 3 -14 6 -6 3 7 2 16 -1 19 -3 4 -6 -2 -5 -13z"/>
<path d="M7998 5863 c-144 -146 -186 -193 -169 -193 5 0 13 5 16 10 10 16 34
11 45 -9 12 -23 3 -51 -16 -51 -10 0 -14 -10 -12 -31 3 -40 14 -46 23 -12 6
24 8 25 22 11 13 -13 13 -22 4 -51 -7 -19 -18 -38 -26 -41 -8 -3 -15 -10 -15
-16 0 -15 50 -60 66 -60 14 0 44 27 44 40 0 5 23 23 50 41 59 38 100 112 100
181 0 26 7 51 18 64 21 25 87 74 100 74 5 0 28 14 50 30 23 17 46 30 51 30 5
0 11 23 13 51 4 61 -8 71 -69 59 -26 -4 -44 -3 -46 3 -4 12 -104 -31 -111 -48
-6 -17 -46 -39 -46 -26 0 6 11 22 25 37 22 23 32 44 22 44 -2 0 -64 -62 -139
-137z"/>
<path d="M1442 5805 c8 -9 181 -65 197 -65 9 1 -29 16 -84 35 -97 33 -124 40
-113 30z"/>
<path d="M7741 5755 c-33 -37 -36 -45 -23 -45 5 0 23 18 41 40 39 49 25 53
-18 5z"/>
<path d="M7747 5568 c-8 -30 -1 -38 27 -25 15 7 21 17 18 29 -6 25 -38 23 -45
-4z"/>
<path d="M7634 5437 c-32 -34 -108 -119 -169 -187 -60 -68 -153 -172 -205
-230 -496 -547 -830 -926 -830 -942 0 -19 18 -4 60 53 62 82 151 166 180 171
19 2 25 9 26 28 0 14 13 44 28 67 l28 41 20 -20 c11 -11 23 -17 26 -13 4 4 -1
12 -11 20 -15 11 -15 14 -2 25 8 7 12 17 8 23 -4 6 0 8 10 4 11 -4 17 -1 17 7
0 8 7 17 16 20 8 3 13 10 10 15 -3 5 2 15 11 22 18 16 18 16 40 -6 13 -13 17
-14 24 -3 5 7 14 13 21 13 18 0 39 46 35 76 -2 18 1 25 9 22 15 -5 26 34 10
41 -7 3 -4 10 8 20 25 20 37 20 30 1 -8 -19 10 -20 25 -1 13 16 4 49 -12 39
-6 -4 -7 -1 -2 6 4 7 15 11 25 8 9 -2 25 0 34 5 10 5 16 5 16 0 0 -6 20 -13
45 -16 24 -4 47 -11 50 -16 5 -8 21 -8 50 1 15 4 59 -12 67 -25 14 -21 8 -53
-17 -82 -25 -29 -28 -51 -6 -46 7 1 21 -8 31 -20 19 -23 19 -23 35 -3 9 11 14
15 11 8 -4 -6 -1 -15 5 -19 8 -5 10 1 7 20 -5 22 -2 26 13 21 14 -5 17 -2 13
8 -3 10 2 18 14 21 11 4 27 17 35 29 8 12 27 36 43 52 16 17 29 33 29 37 0 11
44 58 54 58 5 0 11 9 14 20 3 12 0 20 -8 20 -7 0 -18 6 -24 13 -12 16 -94 5
-146 -19 -42 -18 -70 -21 -68 -7 2 7 -6 17 -17 23 -13 7 -20 21 -20 40 0 25 4
30 25 30 14 0 25 -5 25 -11 0 -6 9 -8 20 -4 11 3 32 9 47 11 15 3 35 12 44 20
8 7 38 18 65 23 37 7 55 17 76 43 15 18 36 42 45 53 10 11 17 23 15 28 -1 4
10 12 25 18 21 8 24 13 13 18 -8 3 -15 12 -16 19 -3 34 -4 37 -13 23 -11 -17
-39 -8 -48 14 -5 15 13 63 29 75 3 3 10 18 13 33 6 21 4 27 -10 27 -14 0 -14
3 4 26 12 15 21 34 21 43 0 28 -24 71 -39 71 -10 0 -7 8 9 25 13 14 21 27 18
30 -2 3 -31 -23 -64 -58z m-327 -482 c0 -8 -6 -15 -13 -15 -8 0 -11 6 -8 15 4
8 9 15 13 15 4 0 8 -7 8 -15z m-29 -86 c24 1 27 -6 11 -29 -8 -11 -12 -12 -16
-2 -2 6 -15 12 -28 12 -25 0 -39 12 -28 24 4 4 14 4 22 0 9 -4 26 -6 39 -5z"/>
<path d="M2625 5400 c-3 -5 -1 -10 4 -10 6 0 11 5 11 10 0 6 -2 10 -4 10 -3 0
-8 -4 -11 -10z"/>
<path d="M9535 5390 c3 -5 8 -10 11 -10 2 0 4 5 4 10 0 6 -5 10 -11 10 -5 0
-7 -4 -4 -10z"/>
<path d="M7806 5179 c-18 -26 -12 -46 17 -51 56 -10 78 26 35 56 -29 21 -34
20 -52 -5z"/>
<path d="M7730 5154 c0 -14 3 -14 15 -4 8 7 15 14 15 16 0 2 -7 4 -15 4 -8 0
-15 -7 -15 -16z"/>
<path d="M9050 4905 c-23 -25 -16 -37 8 -13 7 7 12 8 12 4 0 -5 7 -3 15 4 8 7
15 16 15 21 0 17 -27 9 -50 -16z"/>
<path d="M2322 4880 c0 -19 2 -27 5 -17 2 9 2 25 0 35 -3 9 -5 1 -5 -18z"/>
<path d="M6900 4871 c-9 -9 -24 -28 -33 -43 -14 -23 -15 -26 -2 -22 8 4 15 10
15 15 0 5 9 18 21 30 11 11 19 24 17 28 -2 5 -10 1 -18 -8z"/>
<path d="M2330 4706 c0 -14 0 -29 -1 -33 0 -4 4 -9 10 -11 14 -5 15 55 1 63
-6 4 -10 -5 -10 -19z"/>
<path d="M8592 4674 c-18 -8 -35 -21 -38 -29 -3 -7 -13 -11 -22 -8 -13 4 -14
3 -3 -5 9 -7 24 -3 50 15 27 19 43 23 68 18 27 -5 33 -3 33 11 0 13 -3 14 -14
5 -10 -8 -16 -9 -21 -1 -8 12 -12 12 -53 -6z"/>
<path d="M8530 4600 c0 -7 -8 -9 -20 -5 -11 4 -20 2 -20 -4 0 -13 30 -14 49
-2 9 6 10 11 2 15 -6 4 -11 2 -11 -4z"/>
<path d="M8534 4459 c-19 -22 -19 -22 4 -10 12 6 22 16 22 21 0 15 -5 12 -26
-11z"/>
<path d="M2342 4220 c0 -14 2 -19 5 -12 2 6 2 18 0 25 -3 6 -5 1 -5 -13z"/>
<path d="M2310 4140 c0 -40 3 -71 6 -67 7 7 7 128 -1 135 -3 3 -5 -28 -5 -68z"/>
<path d="M535 3290 c3 -5 23 -10 43 -9 33 1 34 2 12 9 -36 12 -62 12 -55 0z"/>
<path d="M620 3280 c0 -12 101 -20 119 -10 13 8 12 10 -9 11 -14 1 -44 2 -67
4 -24 1 -43 -1 -43 -5z"/>
<path d="M795 3261 c32 -13 115 -22 115 -12 0 11 -33 18 -90 19 -32 1 -39 -1
-25 -7z"/>
<path d="M937 3255 c-15 -11 -13 -13 20 -18 21 -3 90 -9 153 -13 92 -5 113 -4
103 6 -10 11 -93 20 -223 24 -14 0 -27 3 -30 7 -3 4 -13 2 -23 -6z"/>
<path d="M1255 3221 c-3 -6 2 -12 12 -12 10 -1 29 -3 43 -5 43 -7 54 -7 104
-6 67 3 55 9 -29 17 -39 3 -82 8 -97 11 -14 3 -29 0 -33 -5z"/>
<path d="M1500 3203 c-23 -12 -22 -13 25 -12 28 1 41 4 30 6 -11 3 -22 8 -25
12 -3 4 -16 1 -30 -6z"/>
<path d="M1698 3205 c-3 -3 -31 -6 -62 -6 -31 -1 -53 -5 -50 -10 3 -5 36 -9
74 -9 58 0 68 3 64 15 -6 15 -16 19 -26 10z"/>
<path d="M1825 3175 c50 -8 129 -15 177 -16 48 0 90 -4 93 -9 8 -13 45 -13 45
-1 0 12 -29 23 -41 15 -5 -3 -9 -1 -9 4 0 11 -79 10 -97 -1 -6 -4 -13 -3 -15
2 -1 5 -57 11 -123 15 l-120 5 90 -14z"/>
<path d="M2185 3170 c-4 -6 5 -10 19 -10 14 0 26 5 26 10 0 6 -9 10 -19 10
-11 0 -23 -4 -26 -10z"/>
<path d="M2290 3168 c0 -7 4 -19 9 -27 11 -17 23 1 15 23 -7 19 -24 21 -24 4z"/>
<path d="M2332 3118 c-7 -7 -12 -16 -12 -20 0 -10 57 -9 90 2 24 8 24 8 -7 9
-17 1 -35 6 -38 11 -8 13 -18 13 -33 -2z"/>
<path d="M2495 3120 c3 -5 8 -10 11 -10 2 0 4 5 4 10 0 6 -5 10 -11 10 -5 0
-7 -4 -4 -10z"/>
<path d="M2165 2900 c-3 -5 -1 -10 4 -10 6 0 11 5 11 10 0 6 -2 10 -4 10 -3 0
-8 -4 -11 -10z"/>
<path d="M2271 2901 c-11 -7 -9 -10 8 -16 24 -7 44 2 36 16 -8 11 -26 11 -44
0z"/>
<path d="M3435 2763 c-451 -115 -858 -227 -1330 -368 -125 -37 -166 -42 -617
-71 -54 -4 -95 -10 -92 -15 3 -5 -8 -9 -24 -9 -22 0 -36 -9 -56 -35 -15 -19
-34 -35 -42 -35 -7 0 -14 -5 -14 -11 0 -7 11 -9 28 -6 15 2 47 2 71 -2 43 -6
44 -7 26 -24 -15 -16 -27 -18 -71 -12 -47 6 -54 4 -64 -14 -6 -13 -21 -21 -36
-21 -19 0 -25 -4 -21 -14 8 -20 -21 -29 -31 -9 -8 14 -10 13 -16 -2 -3 -9 -4
-20 -1 -25 16 -26 324 -35 349 -10 6 6 27 10 47 10 29 0 39 -5 44 -20 5 -17
15 -20 69 -20 44 0 67 -5 76 -15 7 -8 10 -15 8 -15 -24 0 -176 -45 -195 -57
-23 -16 -26 -15 -35 0 -10 18 -43 23 -52 8 -3 -5 0 -21 8 -36 8 -15 12 -33 10
-40 -7 -17 -100 -26 -149 -15 -53 13 -112 12 -120 0 -12 -19 -45 -11 -45 10 0
18 -5 20 -53 16 -74 -6 -107 -16 -107 -32 0 -8 -7 -14 -15 -14 -9 0 -18 -7
-21 -15 -4 -8 -17 -15 -30 -15 -24 0 -33 -15 -13 -22 8 -3 6 -9 -4 -20 -15
-15 -15 -17 1 -23 37 -15 63 -15 91 0 29 15 30 14 51 -21 16 -26 27 -33 39
-28 9 4 25 6 36 5 71 -5 143 1 198 19 34 11 86 24 116 30 30 6 59 15 66 20 6
5 15 7 18 4 7 -7 135 34 142 47 10 15 87 31 145 30 30 -1 86 4 123 11 67 11
68 12 62 39 -4 15 -1 37 5 48 9 17 15 19 37 10 15 -5 39 -7 54 -4 15 3 30 1
34 -4 3 -6 -1 -11 -9 -11 -22 0 -20 -29 2 -37 9 -4 20 -11 24 -16 6 -9 98 9
98 20 0 2 -7 14 -15 27 -15 23 -15 25 12 44 15 10 46 22 68 26 82 15 145 62
145 109 0 5 11 20 25 33 21 20 29 21 57 12 79 -25 139 -17 179 23 11 11 29 19
42 19 13 0 32 7 43 15 10 8 33 15 49 15 17 0 46 11 65 24 19 13 58 26 85 30
72 10 117 26 143 49 23 21 30 47 12 47 -5 0 -10 5 -10 12 0 9 3 9 11 1 12 -12
49 -6 49 8 0 5 7 9 15 9 8 0 15 4 15 10 0 5 14 8 30 6 33 -4 51 10 26 20 -22
8 -7 35 18 32 15 -2 22 3 24 20 2 12 7 20 12 17 10 -6 36 34 32 48 -1 5 2 6 8
2 13 -8 13 1 -1 26 -8 16 -7 20 3 18 30 -4 44 2 54 25 8 18 8 28 1 35 -8 8 -7
11 1 11 7 0 12 6 11 13 -4 29 4 37 49 51 39 12 42 15 17 14 -16 0 -57 -7 -90
-15z m-222 -183 c6 -5 23 -18 36 -28 52 -40 -15 -58 -75 -21 -24 15 -34 28
-34 46 0 23 3 25 30 19 17 -3 36 -10 43 -16z m-1641 -324 c12 -18 9 -46 -4
-47 -74 -3 -116 -7 -129 -13 -23 -10 -31 7 -19 38 6 16 21 28 42 34 38 11 100
4 110 -12z m-601 -449 c-10 -9 -11 -8 -5 6 3 10 9 15 12 12 3 -3 0 -11 -7 -18z"/>
<path d="M2250 2600 c0 -5 5 -10 11 -10 5 0 7 5 4 10 -3 6 -8 10 -11 10 -2 0
-4 -4 -4 -10z"/>
<path d="M3386 2554 c-9 -23 -2 -28 13 -10 7 8 8 17 3 20 -6 3 -13 -1 -16 -10z"/>
<path d="M3185 2380 c-3 -5 -1 -10 4 -10 6 0 11 5 11 10 0 6 -2 10 -4 10 -3 0
-8 -4 -11 -10z"/>
<path d="M1018 2343 c6 -2 18 -2 25 0 6 3 1 5 -13 5 -14 0 -19 -2 -12 -5z"/>
<path d="M480 2079 c0 -10 5 -21 10 -24 6 -3 10 -1 10 4 0 6 3 10 8 9 15 -3
62 15 62 24 0 5 -20 8 -45 7 -35 -2 -45 -7 -45 -20z"/>
<path d="M545 2002 c-38 -7 -40 -9 -38 -39 2 -17 16 -64 32 -105 26 -64 33
-73 53 -70 13 2 29 7 37 12 7 4 39 2 70 -5 l57 -12 -1 26 c0 14 -13 52 -28 84
-21 44 -25 61 -17 76 6 12 6 22 1 25 -16 10 -124 15 -166 8z"/>
<path d="M850 1650 c19 -13 30 -13 30 0 0 6 -10 10 -22 10 -19 0 -20 -2 -8
-10z"/>
<path d="M838 1622 c-16 -2 -28 -8 -28 -13 0 -10 23 -10 60 0 31 9 8 18 -32
13z"/>
<path d="M640 1615 c1 -6 10 -26 21 -45 15 -26 18 -29 13 -10 -7 27 -34 71
-34 55z"/>
<path d="M2276 1441 c-3 -5 6 -8 20 -8 19 0 22 2 13 8 -18 11 -26 11 -33 0z"/>
<path d="M2115 1370 c-3 -5 -1 -10 4 -10 6 0 11 5 11 10 0 6 -2 10 -4 10 -3 0
-8 -4 -11 -10z"/>
<path d="M2170 1365 c0 -9 -4 -14 -8 -11 -4 2 -8 -4 -8 -14 0 -10 4 -16 8 -14
4 3 8 -2 8 -10 0 -22 17 -20 25 3 6 20 56 38 74 26 6 -3 7 -13 4 -21 -5 -13
-1 -15 18 -9 13 4 26 11 29 15 3 4 16 10 30 13 14 3 33 12 44 20 16 12 3 14
-103 16 -104 1 -121 -1 -121 -14z"/>
<path d="M2072 1344 c-12 -14 -22 -30 -22 -35 0 -6 -6 -9 -12 -8 -24 3 -38 -1
-38 -11 0 -17 36 -11 64 11 21 17 26 18 26 5 0 -9 8 -16 19 -16 28 0 35 17 10
23 -12 3 -18 10 -14 16 3 6 2 17 -2 25 -7 12 -12 10 -31 -10z"/>
<path d="M2120 1341 c0 -6 5 -13 10 -16 6 -3 10 1 10 9 0 9 -4 16 -10 16 -5 0
-10 -4 -10 -9z"/>
<path d="M1887 1273 c-22 -6 -12 -23 14 -23 10 0 19 7 19 15 0 15 -2 16 -33 8z"/>
<path d="M1846 1255 c-3 -8 -1 -15 4 -15 6 0 10 7 10 15 0 8 -2 15 -4 15 -2 0
-6 -7 -10 -15z"/>
<path d="M1497 1190 c-15 -17 -15 -20 -1 -20 8 0 13 -4 10 -8 -3 -5 8 -6 25
-4 16 2 29 10 29 18 0 17 -12 18 -27 3 -9 -9 -10 -7 -6 10 7 26 -7 27 -30 1z"/>
<path d="M1400 1154 c-25 -7 -50 -12 -57 -9 -16 5 -93 -26 -93 -38 0 -6 25 -7
68 -3 37 4 93 10 125 13 68 7 85 20 19 14 l-47 -3 19 21 c11 11 17 21 15 20
-2 0 -24 -7 -49 -15z"/>
<path d="M1562 1150 c-57 -13 -49 -21 14 -14 69 8 105 22 53 21 -18 0 -49 -3
-67 -7z"/>
<path d="M1138 1083 c7 -3 16 -2 19 1 4 3 -2 6 -13 5 -11 0 -14 -3 -6 -6z"/>
</g>
</svg>
