<?xml version="1.0" standalone="no"?>
<!DOCTYPE svg PUBLIC "-//W3C//DTD SVG 20010904//EN"
 "http://www.w3.org/TR/2001/REC-SVG-20010904/DTD/svg10.dtd">
<svg version="1.0" xmlns="http://www.w3.org/2000/svg"
 width="1080.000000pt" height="901.000000pt" viewBox="0 0 1080.000000 901.000000"
 preserveAspectRatio="xMidYMid meet">

<g transform="translate(0.000000,901.000000) scale(0.100000,-0.100000)"
fill="#000000" stroke="none">
<path d="M2806 8504 c-248 -40 -471 -106 -706 -211 -223 -100 -478 -256 -645
-395 -227 -189 -518 -520 -612 -698 -13 -25 -40 -72 -60 -105 -37 -62 -95
-176 -130 -255 -88 -199 -195 -545 -195 -630 0 -24 -4 -53 -10 -63 -6 -12 -6
-17 0 -14 5 4 20 -6 33 -21 13 -14 16 -20 6 -12 -15 11 -20 11 -27 1 -6 -11
-9 -11 -13 0 -4 10 -6 8 -6 -4 -1 -13 4 -17 17 -13 21 7 49 -8 34 -18 -6 -4
-8 -14 -5 -23 5 -11 3 -14 -6 -8 -10 6 -11 3 -2 -13 9 -16 8 -24 -5 -36 -14
-15 -14 -17 0 -22 22 -8 20 -27 -4 -49 -25 -23 -25 -31 -1 -31 11 0 17 5 14
14 -4 9 2 12 20 8 15 -2 31 1 37 9 6 7 20 10 32 7 14 -3 19 -1 14 6 -4 7 3 7
23 -1 16 -6 27 -16 24 -23 -2 -6 3 -14 12 -18 9 -3 14 -2 11 3 -8 12 29 20 45
10 8 -4 19 -3 26 3 9 7 17 7 27 -1 8 -6 18 -11 22 -10 27 5 34 -1 24 -21 -12
-22 -50 -28 -50 -7 0 8 -3 9 -8 1 -7 -11 -41 -15 -40 -5 2 19 -3 33 -9 27 -5
-4 -8 -11 -8 -14 0 -4 -4 -13 -8 -19 -5 -8 -3 -13 4 -13 7 0 10 -3 6 -6 -3 -4
0 -18 7 -33 7 -14 11 -32 9 -38 -7 -19 8 -16 22 4 11 15 15 15 43 -5 l31 -22
6 21 c6 19 7 19 20 2 11 -15 11 -22 -1 -44 -13 -25 -12 -26 13 -26 14 0 29 -6
33 -13 4 -6 11 -10 16 -9 17 6 53 42 49 49 -2 4 7 6 22 4 15 -1 30 -10 35 -18
5 -9 16 -16 24 -16 9 0 12 5 8 13 -4 6 3 3 16 -8 13 -11 20 -15 17 -9 -4 7 0
17 8 24 10 9 15 9 15 1 0 -6 -4 -11 -9 -11 -14 0 -7 -28 13 -51 15 -18 20 -19
34 -7 15 12 16 11 4 -4 -11 -14 -10 -17 5 -20 15 -4 13 -7 -9 -18 -19 -9 -28
-21 -28 -37 0 -26 17 -31 26 -8 4 8 11 12 16 9 6 -4 5 -10 -3 -15 -11 -7 -11
-9 2 -9 9 0 19 -7 23 -15 3 -8 12 -12 20 -9 8 3 12 12 10 19 -3 7 -1 16 5 20
6 3 9 0 6 -8 -3 -7 3 -22 15 -32 11 -10 20 -24 20 -32 0 -8 5 -11 11 -8 6 4 8
13 5 21 -3 8 0 11 10 7 8 -3 13 -12 10 -19 -4 -10 0 -11 17 -5 24 9 31 11 47
11 6 0 10 6 10 14 0 9 12 16 33 18 22 2 31 8 29 18 -3 12 -1 12 15 -1 28 -25
84 -41 99 -28 9 7 15 6 21 -5 4 -8 23 -16 41 -19 29 -5 48 -15 97 -51 9 -7 23
-1 45 18 25 21 35 24 46 15 8 -6 14 -8 14 -3 1 23 22 37 61 41 24 3 44 5 45 6
10 16 11 69 0 79 -7 7 -15 32 -18 56 -8 54 -109 250 -141 273 -14 10 12 49 33
49 10 0 22 5 25 10 13 21 55 -33 55 -72 0 -20 7 -44 16 -53 9 -9 21 -34 26
-57 9 -43 31 -67 61 -68 9 0 17 -3 18 -7 0 -5 1 -24 3 -44 3 -38 35 -79 62
-79 11 0 13 -6 9 -19 -3 -11 -1 -22 5 -26 6 -3 17 -22 25 -41 8 -19 21 -37 30
-40 8 -3 15 -12 15 -20 0 -7 16 -25 35 -40 28 -21 33 -29 25 -44 -14 -26 -12
-43 3 -37 22 8 92 -36 92 -58 0 -22 40 -68 67 -78 9 -3 18 -16 20 -29 2 -16
11 -24 28 -27 29 -4 40 -17 35 -43 -2 -10 1 -18 8 -17 35 4 67 -2 64 -13 -1
-7 5 -13 13 -13 8 0 15 6 15 14 0 22 48 31 65 13 13 -14 12 -15 -1 -10 -9 3
-22 2 -30 -3 -12 -8 -12 -10 0 -18 7 -5 21 -6 31 -4 25 7 34 -14 16 -33 -9 -8
-16 -20 -16 -25 0 -13 24 -11 38 3 10 10 15 10 20 1 10 -17 67 -20 86 -4 9 7
16 9 16 4 0 -12 56 -44 63 -36 4 3 9 -2 13 -11 3 -9 10 -13 15 -10 5 3 7 10 4
15 -10 14 0 11 24 -10 16 -14 18 -21 9 -24 -8 -4 -7 -6 5 -6 24 -1 32 3 29 14
-2 5 6 1 18 -10 13 -11 17 -21 10 -23 -8 -3 -8 -8 1 -18 16 -19 30 -18 22 3
-4 11 -3 14 5 9 7 -4 15 -1 18 8 5 12 11 13 24 6 20 -11 36 2 25 20 -3 6 -2
10 4 10 5 0 12 -6 14 -12 4 -10 6 -10 6 0 1 6 9 12 19 12 10 0 24 6 31 13 11
10 12 9 6 -3 -8 -13 -6 -13 8 -1 11 9 15 21 11 37 -5 19 -2 24 12 24 14 0 15
-3 6 -8 -7 -5 -10 -16 -7 -25 8 -20 -12 -58 -28 -52 -6 3 -18 -5 -26 -17 -7
-13 -10 -20 -6 -16 5 4 15 2 23 -5 13 -10 15 -9 8 8 -6 16 -5 18 5 8 7 -7 24
-13 37 -13 13 0 21 -3 19 -7 -3 -5 1 -14 8 -20 11 -10 15 -9 20 6 3 10 4 25 3
32 -2 8 5 14 17 14 14 0 19 -6 18 -20 -2 -22 31 -50 47 -40 5 3 7 12 3 20 -3
8 0 15 6 15 6 0 11 5 11 11 0 6 -9 8 -21 4 -15 -5 -19 -4 -15 4 4 6 22 11 39
11 18 0 41 7 51 15 18 14 19 15 2 15 -12 0 -16 5 -12 16 3 9 6 18 6 20 0 2 9
4 21 4 13 0 18 -4 13 -12 -6 -10 -5 -10 8 -1 8 7 18 11 22 8 3 -3 2 1 -4 7
-16 20 -11 32 7 17 10 -8 3 4 -16 26 -18 22 -49 60 -69 85 -100 122 -140 168
-146 164 -3 -2 -4 -1 -1 2 7 10 -48 76 -145 176 l-85 87 -40 -9 c-48 -11 -168
-2 -210 15 -76 32 -116 44 -129 39 -8 -3 -30 1 -48 9 -18 8 -59 17 -90 20 -31
3 -70 12 -85 21 -15 8 -43 22 -62 30 -22 11 -31 21 -27 31 3 10 -1 15 -12 15
-16 1 -16 1 0 10 11 7 25 6 42 -2 19 -8 32 -8 50 0 19 9 27 8 36 -4 17 -20 30
-18 30 5 0 24 19 39 57 47 41 8 51 -11 24 -47 l-22 -29 26 0 c14 0 34 -5 44
-12 16 -9 24 -6 53 25 20 20 38 33 42 30 3 -3 11 -1 18 4 19 15 66 24 72 15 3
-5 30 -17 59 -26 34 -11 59 -25 66 -39 9 -18 10 -10 6 43 -3 39 1 85 9 115 13
51 13 51 -11 53 -27 2 -48 -34 -31 -55 6 -7 5 -14 -2 -18 -14 -9 -32 4 -24 18
4 7 4 9 -1 5 -4 -4 -13 -4 -19 1 -6 4 -30 6 -53 3 -30 -3 -44 -9 -48 -23 -8
-24 -22 -24 -64 2 l-33 20 6 -26 c7 -26 6 -26 -41 -20 -26 2 -74 7 -106 9 -31
3 -61 8 -66 11 -5 3 -31 7 -58 10 -26 3 -67 10 -91 16 -23 7 -45 9 -49 6 -3
-4 -15 -2 -25 4 -14 8 -23 8 -31 0 -8 -8 -6 -11 6 -11 18 0 101 -70 92 -78 -2
-3 1 -12 8 -21 6 -8 -1 -5 -17 7 -17 13 -43 22 -65 22 -25 1 -46 10 -71 30
-35 30 -32 35 18 33 6 -1 12 3 12 8 0 5 -4 9 -10 9 -5 0 -10 6 -10 14 0 9 -27
17 -90 26 -68 10 -90 16 -88 27 2 8 -15 24 -37 36 -22 12 -42 26 -43 30 -2 4
-36 32 -75 62 -191 146 -345 280 -333 292 7 7 -34 83 -45 83 -5 0 -9 7 -9 15
0 8 6 12 14 9 17 -7 24 12 31 87 3 39 1 60 -8 67 -7 6 -14 36 -15 66 l-2 56
37 1 c21 1 41 1 46 0 4 0 7 3 7 9 0 17 18 11 43 -15 25 -28 52 -26 62 5 7 24
111 100 135 100 11 0 25 9 32 20 7 11 21 20 31 20 10 0 38 16 61 35 43 35 90
48 80 22 -3 -8 3 -20 12 -28 16 -12 17 -12 11 5 -6 16 -5 17 8 6 18 -15 63 -1
111 35 29 22 74 34 74 20 0 -4 -7 -19 -15 -34 -8 -16 -11 -31 -8 -34 3 -4 -1
-9 -10 -13 -42 -16 -73 -114 -46 -141 9 -9 7 -16 -6 -29 -23 -23 -4 -30 36
-14 16 7 42 10 57 7 21 -4 33 0 45 13 9 11 45 34 79 51 35 17 65 35 66 40 2 5
11 9 20 9 8 0 23 6 31 14 26 22 129 56 173 56 22 0 61 -7 87 -15 25 -8 79 -20
120 -26 105 -16 70 -27 -70 -21 -72 3 -124 1 -131 -5 -7 -6 -30 -13 -50 -17
-22 -4 -38 -13 -38 -20 0 -8 -10 -17 -22 -21 -13 -4 -25 -8 -28 -9 -3 -2 -17
-6 -32 -10 -16 -5 -28 -13 -28 -20 0 -6 -20 -31 -45 -54 -25 -23 -45 -46 -45
-51 0 -5 -8 -12 -18 -15 -14 -5 -19 -17 -20 -46 -1 -26 -10 -48 -27 -66 -29
-31 -30 -34 -11 -59 12 -16 11 -21 -8 -37 -21 -18 -21 -18 12 -12 25 5 32 3
32 -10 0 -9 8 -16 20 -16 11 0 36 -9 55 -20 33 -19 40 -19 78 -6 23 7 66 12
95 10 38 -2 52 0 52 10 0 22 24 38 37 25 8 -8 15 -6 24 9 10 16 18 18 35 12
23 -9 88 5 113 24 8 6 25 9 38 8 14 -2 48 2 76 9 29 7 56 12 61 11 5 -2 6 5 2
13 -18 47 97 70 197 40 42 -13 51 -13 71 0 14 10 41 13 81 11 33 -2 84 3 114
11 30 7 75 12 99 11 58 -4 65 20 16 57 -30 23 -42 26 -95 23 -56 -3 -60 -4
-56 -25 7 -36 -5 -45 -41 -32 -18 6 -32 14 -32 18 0 13 24 31 43 31 24 0 17
24 -8 29 -10 2 -24 -4 -30 -12 -8 -11 -21 -13 -49 -8 -34 5 -37 8 -23 19 9 8
21 11 27 7 6 -4 19 0 28 8 9 8 34 20 55 27 20 6 37 15 37 18 0 4 -14 15 -31
25 -23 13 -53 17 -123 17 -78 0 -96 3 -110 19 -16 18 -16 19 19 23 19 2 47 -1
63 -7 15 -7 35 -10 46 -7 10 3 22 -1 26 -8 6 -10 17 -9 51 8 28 14 47 18 53
12 15 -15 36 -12 36 4 0 8 7 17 16 20 21 8 21 8 27 -13 3 -14 11 -17 31 -14
14 3 26 10 26 15 0 5 14 14 30 19 21 8 30 17 30 32 0 29 -15 51 -29 43 -6 -4
-14 0 -17 8 -3 9 -12 16 -20 16 -9 0 -14 11 -14 29 0 33 -14 42 -46 30 -21 -8
-38 -1 -41 16 -1 6 -5 18 -8 28 -4 10 -3 17 4 17 6 0 11 6 11 14 0 10 -27 14
-113 18 -76 4 -122 10 -142 21 -30 16 -30 16 39 17 38 0 66 3 62 8 -4 4 -11 8
-14 8 -4 1 -22 7 -39 15 -37 15 -43 29 -14 29 11 0 23 5 26 10 3 6 11 10 16
10 6 0 8 -4 5 -9 -8 -12 21 -34 45 -36 27 -2 24 3 -13 18 l-33 13 22 19 c12
10 20 22 17 27 -13 21 9 26 54 13 63 -19 139 -17 175 5 19 12 25 20 17 25 -8
5 -1 18 20 40 25 25 44 35 81 40 41 6 47 10 40 23 -13 22 -148 33 -161 12 -4
-7 -76 -9 -212 -6 -234 5 -263 12 -263 61 0 27 3 30 36 33 33 3 36 6 37 35 1
46 72 92 84 55 6 -16 38 -2 38 17 0 8 9 24 20 35 11 11 20 27 20 35 0 33 47 3
52 -34 2 -14 12 -27 26 -32 19 -7 26 -3 47 31 14 22 30 40 35 40 17 0 11 25
-8 35 -70 38 -74 39 -91 28 -13 -8 -31 -9 -60 -2 -46 10 -61 6 -61 -17 0 -19
-13 -18 -43 6 -14 11 -34 20 -45 20 -24 0 -38 30 -20 42 10 7 10 10 -3 18 -9
5 -24 21 -33 35 -17 25 -16 28 9 61 26 34 65 46 65 20 0 -13 37 -33 44 -24 2
1 13 30 24 63 17 51 24 60 45 61 27 1 88 46 98 73 4 9 4 28 2 44 -4 20 -2 27
11 27 9 0 16 -8 16 -17 1 -16 2 -16 15 1 8 11 15 30 15 43 0 12 9 27 19 33 11
5 21 22 23 37 2 21 9 29 28 31 14 2 37 8 53 14 20 8 31 7 41 -1 12 -10 20 -9
38 3 22 14 68 84 69 103 1 5 17 14 37 22 38 15 61 37 62 58 0 13 -48 25 -214
53 -177 30 -514 27 -720 -6z m-1630 -1649 c4 -8 12 -15 20 -15 8 0 14 -4 14
-8 0 -5 16 -17 35 -28 20 -10 38 -29 42 -41 3 -13 9 -23 14 -23 5 0 9 -6 9
-14 0 -7 6 -19 14 -25 30 -25 23 -97 -9 -85 -11 4 -14 18 -13 46 3 34 -1 41
-27 56 -16 9 -32 21 -34 25 -2 5 -16 20 -31 34 -16 14 -26 31 -23 38 2 8 -5
20 -16 27 -22 14 -28 28 -11 28 6 0 13 -7 16 -15z m-686 -701 c0 -8 -19 -13
-24 -6 -3 5 1 9 9 9 8 0 15 -2 15 -3z m24 -210 c3 -8 2 -12 -4 -9 -6 3 -10 10
-10 16 0 14 7 11 14 -7z m156 -14 c0 -5 -7 -7 -15 -4 -8 4 -15 8 -15 10 0 2 7
4 15 4 8 0 15 -4 15 -10z m170 -75 c0 -2 -5 -16 -12 -30 -11 -25 -28 -34 -28
-14 0 5 -5 7 -11 3 -7 -4 -10 -1 -7 7 3 8 10 15 16 15 7 1 17 2 23 3 5 0 7 6
4 11 -3 6 -1 10 4 10 6 0 11 -2 11 -5z m-100 -41 c0 -8 -9 -14 -20 -14 -23 0
-25 6 -7 24 14 16 27 11 27 -10z m164 15 c14 -7 23 -15 21 -20 -3 -4 -19 -1
-35 8 -47 23 -34 34 14 12z m-19 -72 c0 -7 8 -11 18 -9 9 2 17 -1 17 -5 0 -14
-39 -43 -45 -33 -3 4 0 10 7 12 6 2 8 10 4 17 -6 9 -11 9 -22 0 -21 -18 -26
-6 -8 20 16 22 29 21 29 -2z m70 3 c3 -5 -1 -10 -10 -10 -9 0 -13 5 -10 10 3
6 8 10 10 10 2 0 7 -4 10 -10z m125 -20 c0 -5 -5 -10 -11 -10 -5 0 -7 5 -4 10
3 6 8 10 11 10 2 0 4 -4 4 -10z m1917 -645 c3 -9 3 -19 -1 -22 -8 -9 -37 18
-30 28 8 14 24 11 31 -6z m-325 -64 c10 -9 18 -18 18 -22 0 -13 -29 -18 -36
-7 -5 7 -2 8 7 4 8 -4 5 0 -5 8 -11 9 -16 16 -12 16 5 0 2 8 -5 17 -12 14 -12
16 1 8 8 -5 22 -16 32 -24z m78 11 c0 -7 -39 -53 -47 -55 -10 -2 -11 34 -1 48
6 10 48 16 48 7z m540 -2 c0 -13 -20 -13 -40 0 -12 8 -9 10 13 10 15 0 27 -4
27 -10z m-153 -16 c-3 -3 -12 -4 -19 -1 -8 3 -5 6 6 6 11 1 17 -2 13 -5z m56
-9 c-3 -9 -8 -14 -10 -11 -3 3 -2 9 2 15 9 16 15 13 8 -4z m184 -19 c6 -5 -46
-5 -77 1 -23 5 -24 6 -5 13 18 6 71 -2 82 -14z m-181 -30 c19 -19 18 -26 -4
-26 -10 0 -23 -5 -30 -12 -9 -9 -11 -4 -9 20 2 34 19 41 43 18z m124 -16 c0
-5 -2 -10 -4 -10 -3 0 -8 5 -11 10 -3 6 -1 10 4 10 6 0 11 -4 11 -10z m-134
-50 c0 -13 -5 -19 -14 -15 -7 3 -16 5 -18 5 -12 0 -1 19 14 23 9 3 17 5 17 6
1 0 1 -8 1 -19z"/>
<path d="M3790 8430 c0 -5 -6 -10 -13 -10 -7 0 -18 -9 -24 -19 -10 -16 -9 -18
9 -13 11 2 32 15 45 28 25 23 25 24 4 24 -11 0 -21 -4 -21 -10z"/>
<path d="M3705 8329 c-11 -17 1 -21 15 -4 8 9 8 15 2 15 -6 0 -14 -5 -17 -11z"/>
<path d="M3964 8288 c-8 -26 -29 -49 -37 -41 -8 7 -52 -10 -144 -55 -79 -38
-97 -65 -38 -55 27 4 36 2 41 -11 4 -10 2 -22 -5 -29 -18 -18 -13 -24 22 -32
54 -13 91 -12 115 2 13 8 31 11 41 8 10 -3 24 1 31 10 7 8 25 15 41 15 16 0
29 5 29 11 0 7 12 10 30 7 17 -3 30 -1 30 4 0 4 15 14 33 22 44 20 70 44 92
88 27 52 14 63 -59 51 -41 -7 -58 -7 -68 3 -7 7 -43 15 -80 19 -63 6 -67 5
-74 -17z m-95 -159 c-7 -4 -17 -5 -22 -2 -5 3 -3 9 4 14 7 4 17 5 22 2 5 -3 3
-9 -4 -14z"/>
<path d="M7599 8229 c-12 -8 -12 -10 1 -20 11 -8 7 -9 -20 -6 -45 6 -140 -9
-154 -24 -8 -9 -4 -10 17 -7 15 3 30 2 33 -3 3 -5 -13 -12 -36 -15 -46 -8 -61
-22 -36 -36 16 -9 16 -11 0 -23 -17 -12 -15 -14 20 -29 21 -9 45 -16 52 -16 8
0 13 -4 12 -9 -2 -5 6 -17 17 -26 11 -9 14 -14 7 -10 -13 7 -45 -19 -35 -29 4
-3 -1 -6 -9 -6 -9 0 -18 5 -20 10 -5 16 -118 -10 -158 -38 -19 -13 -33 -27
-30 -30 3 -4 31 -7 63 -7 32 0 61 -6 65 -12 4 -6 20 -15 35 -18 16 -4 25 -11
20 -16 -13 -13 -126 -13 -150 0 -12 6 -31 11 -42 11 -12 0 -21 5 -21 11 0 20
-29 40 -54 36 -27 -3 -48 -17 -26 -17 10 0 10 -3 -1 -17 -13 -15 -11 -16 23
-10 44 7 68 -11 68 -49 0 -25 -1 -25 -62 -18 -44 5 -72 14 -91 30 -28 24 -25
24 -107 -3 -27 -8 20 -33 64 -33 40 0 41 -1 41 -35 0 -30 -3 -33 -21 -29 -12
3 -25 1 -29 -5 -4 -7 -12 -8 -24 -2 -10 6 -37 16 -59 24 -39 14 -42 13 -42 -4
0 -10 8 -22 18 -28 16 -9 16 -10 -3 -17 -64 -23 -85 -35 -85 -48 0 -9 9 -16
20 -16 11 0 19 -6 17 -12 -1 -7 7 -13 18 -13 11 -1 19 -7 17 -14 -6 -28 20
-42 62 -35 23 3 38 3 34 -1 -9 -9 25 -29 66 -39 61 -15 9 -24 -112 -20 -125 5
-194 -4 -234 -31 -15 -10 -14 -13 10 -27 32 -19 73 -24 127 -15 59 10 285 17
323 11 l33 -6 -28 -18 c-16 -9 -57 -22 -92 -28 -73 -13 -66 -9 -75 -44 -6 -25
-3 -28 31 -37 21 -6 58 -11 83 -11 57 0 84 -15 43 -23 -15 -3 -41 -11 -58 -18
-16 -7 -41 -11 -55 -11 l-25 2 24 -10 c38 -16 12 -36 -28 -22 -17 6 -31 7 -31
2 0 -4 -3 -16 -6 -25 -6 -14 0 -15 35 -11 54 6 52 -1 -4 -15 -34 -9 -43 -15
-35 -24 8 -9 -2 -11 -42 -8 -62 5 -161 23 -156 28 2 2 36 6 75 8 81 5 100 12
83 32 -7 8 -9 23 -5 35 3 11 3 20 -2 21 -57 6 -96 7 -136 3 -38 -5 -47 -9 -42
-21 4 -12 2 -13 -7 -6 -7 6 -20 10 -28 11 -40 1 -101 10 -107 16 -3 3 -13 6
-21 6 -9 0 -12 -3 -9 -6 3 -4 -5 -16 -19 -27 -19 -15 -34 -18 -62 -14 -20 4
-66 2 -102 -4 -160 -26 -209 -27 -226 -5 -12 18 -15 18 -48 2 -19 -9 -42 -16
-51 -16 -12 0 -15 -5 -10 -22 9 -27 54 -70 66 -62 5 3 9 1 9 -4 0 -5 -9 -12
-21 -15 -12 -3 -19 -12 -17 -23 2 -12 -7 -20 -31 -26 -30 -8 -33 -12 -29 -39
5 -30 -2 -34 -45 -31 -10 1 -27 -3 -39 -9 -16 -9 -24 -7 -42 10 -17 16 -32 20
-62 18 -69 -7 -159 -30 -167 -44 -4 -7 -24 -20 -43 -28 -31 -13 -39 -13 -64 0
-16 8 -42 15 -58 15 -16 0 -46 7 -65 15 -41 17 -113 20 -122 5 -3 -5 -29 -16
-57 -25 -28 -8 -57 -24 -65 -35 -8 -11 -18 -20 -23 -20 -5 0 -21 -5 -37 -11
l-28 -11 23 -9 c13 -5 21 -13 18 -18 -3 -5 15 -11 42 -14 58 -6 122 -17 141
-23 14 -4 156 21 191 34 8 3 18 4 23 4 4 -1 7 3 7 9 0 6 6 9 14 6 8 -3 17 -3
20 1 4 3 30 7 59 8 29 1 81 8 116 14 56 10 65 10 73 -4 5 -9 20 -16 33 -16 13
0 27 -5 30 -10 4 -6 20 -9 37 -8 18 1 33 -3 36 -10 5 -16 52 -15 125 2 56 14
75 7 40 -13 -16 -9 -15 -10 5 -11 12 0 25 -6 28 -14 5 -14 40 -30 59 -26 25 4
-16 -22 -46 -30 -80 -21 -174 -58 -171 -69 1 -7 -15 -11 -43 -11 -52 0 -120
-24 -110 -40 8 -13 61 -26 163 -41 45 -6 82 -15 82 -19 0 -14 91 -40 137 -40
24 0 43 -4 43 -8 0 -19 90 -44 178 -49 94 -6 126 -21 50 -25 -94 -5 -115 -4
-154 3 -37 7 -99 10 -159 8 -21 -1 -170 14 -290 30 -38 5 -81 13 -95 19 -14 6
-71 18 -128 27 -89 14 -104 14 -117 2 -17 -17 -10 -27 19 -27 41 0 0 -19 -76
-34 -95 -20 -138 -20 -138 -3 0 8 -14 13 -37 14 -26 1 -32 -2 -22 -9 10 -7 9
-8 -6 -3 -40 14 -92 17 -99 6 -5 -7 6 -11 31 -12 36 -1 36 -2 -17 -14 -30 -7
-63 -16 -73 -20 -15 -6 -18 -4 -15 11 2 14 -4 20 -22 22 -14 2 -34 12 -45 21
-26 23 -79 41 -121 41 -37 0 -47 -19 -11 -21 20 -1 20 -2 2 -6 -11 -3 -25 -9
-32 -15 -16 -13 -27 10 -13 27 9 11 9 15 1 15 -6 0 -11 -5 -11 -10 0 -6 -10
-4 -22 4 -53 34 -150 24 -199 -20 -16 -14 -21 -13 -59 12 -47 31 -160 48 -160
24 0 -8 8 -10 25 -6 14 4 25 2 25 -4 0 -5 -8 -10 -17 -10 -10 -1 -29 -7 -42
-14 -22 -12 -26 -11 -45 10 -15 18 -32 25 -61 25 -40 1 -102 -17 -93 -27 3 -2
17 0 32 6 49 18 62 9 16 -11 -24 -11 -59 -31 -77 -45 -18 -14 -33 -20 -33 -14
0 5 -15 19 -32 30 -35 21 -117 26 -153 9 -16 -7 -14 -8 10 -4 17 3 44 1 60 -3
27 -8 25 -9 -27 -14 -31 -4 -68 -14 -83 -24 -25 -16 -29 -16 -39 -2 -17 23
-66 30 -101 13 l-30 -14 38 5 c24 4 37 2 37 -5 0 -6 -10 -11 -23 -11 -24 0
-55 -18 -101 -59 l-30 -26 21 36 21 37 -23 -7 c-13 -3 -37 -18 -53 -33 -25
-22 -35 -25 -64 -19 -19 5 -44 4 -56 0 -33 -12 -27 -19 11 -13 24 4 28 3 17
-5 -8 -6 -23 -11 -33 -11 -10 0 -38 -12 -63 -26 -30 -18 -52 -24 -71 -20 -16
3 -41 -1 -58 -9 -16 -7 -25 -14 -18 -14 17 -1 9 -32 -13 -50 -11 -9 -27 -27
-37 -41 -21 -30 -22 -16 -2 41 l16 43 -27 -25 c-14 -13 -34 -40 -45 -60 -15
-30 -23 -36 -42 -32 -25 5 -68 -20 -127 -75 -19 -17 -40 -32 -47 -32 -47 0
-92 -59 -94 -123 l-1 -32 -10 29 c-8 22 -7 36 6 63 12 25 13 34 4 31 -20 -6
-68 -114 -75 -167 -11 -93 2 -130 81 -237 41 -54 117 -141 170 -193 53 -52 96
-102 97 -110 0 -11 2 -12 6 -3 4 10 9 9 24 -4 21 -19 26 -40 7 -28 -7 4 -8 3
-4 -5 4 -6 11 -9 16 -6 5 3 40 -32 79 -77 38 -46 86 -101 106 -123 l37 -40
-33 45 c-18 25 -46 60 -63 77 -16 18 -27 33 -23 33 4 0 2 10 -4 23 -12 21 -11
21 7 7 16 -13 16 -11 -3 20 -12 19 -28 35 -35 35 -7 1 -12 7 -10 14 1 7 -4 24
-13 37 -8 13 -12 24 -9 24 9 0 23 -19 80 -103 31 -45 51 -66 61 -63 8 3 13 0
11 -7 -3 -13 117 -177 128 -177 3 0 -9 18 -26 40 -24 31 -29 44 -21 54 6 7 7
16 3 21 -19 20 39 -17 67 -44 18 -16 35 -31 39 -33 4 -2 6 -6 5 -10 -2 -4 3
-5 11 -2 8 3 23 -8 37 -27 13 -18 17 -29 10 -25 -11 7 -11 4 -1 -15 16 -31 25
-39 17 -16 -6 15 -3 17 16 11 27 -8 37 -22 37 -52 0 -41 26 -87 49 -89 11 -1
21 0 21 1 0 2 -12 25 -26 52 -139 263 -265 524 -254 524 6 0 29 -38 52 -84 23
-47 46 -82 51 -79 6 3 7 1 3 -5 -9 -16 165 -368 196 -397 8 -7 9 -6 4 2 -4 7
-9 22 -11 33 -2 12 -16 35 -30 52 -16 18 -22 34 -16 37 11 7 -53 155 -96 223
-13 21 -23 41 -23 45 0 5 -20 44 -45 87 -25 43 -43 82 -39 85 3 3 11 -2 18
-13 6 -10 21 -33 33 -51 11 -18 23 -41 25 -52 2 -10 9 -17 16 -16 6 2 9 -3 6
-10 -2 -7 2 -21 11 -32 12 -17 14 -17 9 -2 -5 13 -2 16 10 11 19 -7 20 -16 4
-33 -11 -11 -10 -12 1 -6 11 6 13 4 8 -9 -4 -11 0 -29 11 -44 10 -15 24 -41
31 -59 14 -36 41 -64 41 -44 0 7 5 9 11 6 5 -4 3 10 -5 30 -22 53 -19 67 5 22
17 -32 22 -36 39 -27 14 7 20 7 20 0 0 -5 6 -10 14 -10 8 0 17 -12 20 -26 4
-15 9 -24 11 -22 3 2 -6 35 -19 72 -13 38 -27 62 -30 54 -3 -7 -4 -1 -1 15 7
36 -51 210 -82 247 -15 18 -23 40 -22 61 1 32 3 29 34 -36 32 -68 72 -182 130
-372 19 -60 33 -89 41 -86 7 2 15 -5 19 -17 4 -12 9 -20 11 -17 2 2 -2 24 -10
48 -8 24 -36 112 -61 194 -26 83 -58 182 -71 220 -25 73 -31 121 -14 110 6 -3
10 -14 10 -23 0 -9 20 -78 44 -152 24 -74 51 -162 60 -194 13 -45 20 -56 27
-45 8 10 9 8 4 -8 -3 -13 -2 -31 4 -40 6 -10 11 -13 11 -8 0 6 5 3 11 -5 8
-11 9 -6 4 20 l-6 35 16 -27 c8 -15 19 -64 24 -110 9 -89 32 -158 53 -158 10
0 9 -3 -1 -9 -12 -8 -12 -12 -2 -25 7 -9 17 -13 22 -10 5 3 9 -2 9 -10 0 -8 4
-17 9 -20 8 -5 -4 68 -14 85 -3 4 -7 26 -10 49 -3 24 -7 46 -10 50 -5 9 -85
319 -85 332 0 19 18 -3 24 -29 9 -39 46 -178 64 -240 8 -29 18 -50 23 -47 5 3
6 -10 4 -28 -5 -27 -4 -30 5 -13 9 18 10 17 7 -7 -2 -15 0 -25 4 -22 12 7 11
21 -2 67 -5 21 -14 35 -20 32 -5 -4 -8 2 -7 12 3 41 -3 74 -12 68 -7 -4 -9 9
-6 37 5 37 4 39 -4 13 -9 -28 -9 -27 -5 10 5 44 -16 130 -29 118 -5 -4 -6 8
-2 27 5 27 4 31 -4 15 -8 -15 -9 -11 -5 20 4 25 2 35 -3 27 -7 -11 -10 -9 -15
7 -3 12 -1 19 4 15 5 -3 9 0 9 5 0 6 -4 11 -9 11 -4 0 -6 11 -3 25 6 34 -11
32 -25 -2 l-11 -28 -1 33 c-1 22 4 32 14 32 19 0 19 5 -1 101 -9 43 -14 86
-12 96 2 10 10 -13 17 -52 6 -38 20 -99 30 -135 11 -36 38 -146 61 -245 23
-99 46 -189 51 -200 7 -16 7 -15 3 6 -7 32 16 44 43 23 10 -9 12 -13 6 -9 -8
4 -13 -1 -13 -13 0 -11 8 -23 18 -27 16 -6 16 -7 0 -16 -19 -11 -25 -49 -8
-49 6 0 10 -4 10 -10 0 -5 -7 -10 -15 -10 -8 0 -15 8 -15 17 0 9 -3 14 -6 10
-3 -3 0 -32 7 -64 14 -68 30 -103 25 -58 -2 17 1 33 6 36 5 3 6 13 2 22 -3 9
-10 14 -15 11 -5 -3 -9 -1 -9 5 0 5 6 11 13 14 17 5 47 -4 47 -15 0 -5 -5 -6
-12 -2 -7 5 -8 3 -3 -5 5 -8 11 -9 17 -3 6 6 5 57 -2 143 -7 74 -13 162 -15
197 -2 34 -7 68 -13 75 -5 7 -12 44 -15 82 -4 39 -9 82 -13 98 -4 16 -2 27 4
27 5 0 12 -15 15 -32 2 -18 14 -94 25 -168 12 -74 28 -212 37 -305 8 -94 22
-213 29 -265 8 -52 17 -126 21 -163 4 -37 9 -66 12 -64 7 7 -17 259 -27 287
-5 14 -11 95 -14 180 -4 136 -26 459 -41 604 -3 37 -2 47 7 38 6 -6 15 -55 19
-109 34 -428 61 -728 66 -733 3 -3 2 35 -2 84 -5 70 -4 90 6 97 10 6 11 9 2 9
-7 0 -13 8 -13 18 0 14 2 15 10 2 8 -12 10 -12 11 5 0 12 3 15 6 7 4 -10 11
-8 28 8 26 25 45 19 45 -12 0 -12 3 -19 6 -15 3 3 8 39 10 79 2 40 8 125 14
188 5 63 10 134 12 157 2 24 7 43 12 43 8 0 6 -39 -19 -410 -16 -234 -26 -432
-20 -410 2 8 11 101 20 205 9 105 27 280 40 390 13 110 26 232 30 270 3 39 8
87 11 109 4 27 3 36 -5 32 -7 -5 -11 5 -10 31 2 30 3 32 6 11 5 -33 23 -37 23
-5 0 12 5 29 10 37 14 22 13 -19 -5 -115 -18 -99 -19 -116 -5 -95 5 8 10 29
10 46 0 30 25 64 47 64 6 0 14 25 18 55 3 30 10 53 15 50 5 -3 7 -11 5 -18 -2
-7 -6 -33 -9 -59 -4 -37 -2 -48 8 -48 8 0 16 5 18 11 7 22 48 -9 48 -36 0 -30
-28 -116 -42 -130 -10 -9 -8 24 4 75 6 29 -25 15 -35 -15 -13 -39 -27 -56 -39
-49 -6 4 -14 1 -18 -6 -6 -9 -12 -5 -23 15 -14 27 -14 26 -21 -46 -4 -41 -14
-138 -22 -216 -9 -78 -14 -150 -11 -160 3 -10 5 -1 6 21 1 33 4 38 20 33 13
-3 21 1 24 12 3 11 5 9 6 -6 0 -13 -4 -23 -9 -23 -7 0 -6 -8 1 -23 7 -12 12
-24 11 -27 -1 -3 4 -5 11 -5 6 0 12 -6 12 -14 0 -23 22 -24 28 -1 3 13 0 20
-9 20 -15 0 -19 16 -6 24 4 2 17 -9 27 -25 11 -16 24 -29 28 -29 4 0 2 -10 -4
-22 -12 -22 -11 -22 13 -6 18 12 29 13 42 6 11 -6 16 -6 13 -1 -3 5 3 10 14
10 10 1 19 -3 19 -8 0 -6 -4 -7 -10 -4 -5 3 -10 -1 -10 -10 0 -12 4 -14 19 -6
10 6 21 17 25 26 3 8 15 15 26 15 12 0 19 4 16 9 -3 5 4 11 15 14 20 5 21 10
14 114 -4 78 -3 105 5 97 6 -6 14 -99 20 -232 6 -121 14 -231 19 -244 8 -20
10 -16 11 22 0 25 7 149 15 275 8 127 19 318 26 425 6 107 14 211 19 230 l8
35 1 -45 c0 -25 -8 -193 -19 -375 -11 -181 -19 -361 -18 -400 l1 -70 7 60 c4
34 7 46 8 28 1 -22 6 -31 15 -27 15 5 19 36 7 44 -4 3 -2 11 6 18 12 10 14 10
14 -3 0 -8 5 -15 11 -15 5 0 8 -4 5 -9 -3 -5 1 -14 9 -21 12 -10 15 -10 15 3
0 9 -5 19 -10 22 -8 5 -7 11 0 20 6 8 10 24 9 37 -2 13 1 23 6 23 6 0 9 -4 7
-9 -2 -5 4 -4 12 3 12 10 15 8 18 -16 2 -18 8 -3 16 47 8 41 20 95 28 119 8
26 10 47 5 50 -5 4 -4 25 3 53 12 49 25 72 27 47 0 -8 9 32 19 89 22 121 28
140 29 90 1 -42 -10 -100 -46 -243 -51 -203 -63 -267 -52 -284 8 -13 9 -11 3
8 -4 15 -2 21 4 17 6 -4 15 17 22 51 7 32 21 87 31 123 45 157 79 291 79 309
0 11 3 22 8 24 4 3 29 72 56 154 61 183 67 198 59 153 -3 -19 -26 -93 -50
-165 -25 -71 -48 -146 -53 -165 -7 -34 -81 -319 -120 -465 -20 -74 -29 -140
-19 -140 3 0 13 -6 22 -13 14 -12 18 -8 36 32 12 25 25 62 30 83 7 32 9 33 10
11 1 -15 -3 -38 -9 -53 -7 -19 -7 -24 1 -19 8 4 9 -1 4 -17 -5 -17 -4 -21 4
-14 6 6 12 22 13 35 2 14 10 31 18 38 9 8 10 11 2 7 -10 -5 -9 1 2 24 9 17 19
31 22 31 2 0 -1 -10 -7 -22 -6 -13 -7 -19 -1 -13 6 6 30 55 55 110 24 55 55
118 69 140 14 22 28 50 32 62 4 11 14 27 22 34 14 12 14 9 0 -26 -9 -21 -20
-43 -25 -49 -6 -7 -3 -19 6 -31 15 -19 15 -19 8 4 -4 14 -3 21 2 18 5 -3 15
10 22 29 7 19 17 32 22 28 6 -3 7 4 4 19 -4 14 -2 28 4 31 7 5 9 0 5 -11 -5
-15 -4 -16 5 -3 10 15 55 135 57 155 2 19 63 143 74 150 5 3 -4 -25 -21 -62
-17 -37 -33 -77 -34 -88 -4 -29 -69 -193 -98 -251 -48 -93 -113 -259 -98 -249
5 3 19 -6 32 -19 18 -19 28 -22 41 -15 10 5 18 15 18 22 1 18 60 93 60 76 0
-8 -16 -38 -35 -68 -40 -61 -39 -58 -20 -58 8 0 11 5 8 11 -4 6 1 5 10 -3 26
-21 41 -8 85 76 22 43 48 87 56 98 15 19 16 19 6 -7 -5 -15 -19 -46 -30 -69
-12 -22 -19 -43 -16 -46 2 -3 12 9 21 26 9 17 43 72 76 121 33 50 57 95 54
100 -4 6 -1 9 6 8 6 -2 14 3 17 11 3 9 0 11 -8 6 -9 -6 -11 -4 -6 4 5 7 10 10
13 7 6 -6 75 85 174 229 70 102 89 125 100 125 5 0 -1 -11 -13 -25 -27 -31
-150 -227 -145 -231 2 -2 33 26 69 64 36 37 74 74 84 82 30 23 -23 -37 -112
-126 -45 -44 -98 -110 -119 -145 -20 -35 -61 -102 -90 -149 -29 -47 -51 -87
-49 -89 2 -3 19 9 37 25 17 16 26 22 20 14 -16 -17 -17 -34 -2 -24 8 4 8 0 0
-15 -7 -12 -9 -26 -6 -31 3 -6 2 -10 -4 -10 -18 0 -23 20 -10 38 12 15 12 15
-7 -1 -11 -9 -24 -14 -29 -10 -4 5 -5 2 -1 -4 4 -8 2 -13 -6 -13 -10 0 -10 -2
1 -9 12 -7 6 -19 -26 -58 -22 -26 -48 -61 -58 -78 -9 -16 -11 -23 -4 -14 8 9
21 14 29 12 12 -4 12 -3 2 5 -11 7 -8 11 13 16 29 7 49 0 39 -15 -3 -5 -9 -7
-13 -5 -4 3 -8 -1 -8 -8 0 -8 12 -21 27 -30 l27 -15 74 77 c41 42 103 110 139
150 57 64 265 260 356 335 45 38 41 3 -4 -37 -44 -38 -51 -46 -82 -87 -14 -18
-58 -68 -98 -112 -48 -52 -71 -85 -67 -95 4 -12 3 -13 -10 -2 -13 11 -14 10
-9 -5 5 -12 4 -16 -3 -12 -6 4 -17 -1 -25 -11 -24 -28 -29 -40 -18 -47 6 -4
10 -3 9 2 -4 22 3 32 19 27 14 -5 15 -4 2 5 -8 6 -10 11 -5 11 15 -1 46 -26
39 -32 -3 -3 13 -5 36 -5 27 1 46 -5 58 -17 9 -11 12 -16 5 -12 -8 4 -8 0 0
-19 11 -24 27 -34 27 -17 0 4 16 7 35 6 19 -1 38 3 42 9 4 6 1 7 -7 2 -9 -5
-11 -4 -6 4 4 7 17 11 28 9 12 -2 23 3 25 10 3 7 -1 10 -11 6 -11 -4 -19 2
-25 17 -13 34 -1 46 19 19 17 -22 18 -22 28 -4 7 11 12 13 12 6 0 -7 5 -10 10
-7 6 4 7 11 4 17 -4 7 -2 8 4 4 6 -4 9 -13 6 -20 -8 -21 13 -28 31 -10 8 9 24
14 35 11 13 -3 17 -1 13 9 -3 8 0 14 5 14 6 0 14 -10 18 -22 6 -19 7 -19 16
-5 7 13 14 15 27 7 10 -5 21 -6 25 -2 4 3 4 -1 0 -11 -6 -16 5 -22 30 -18 4 1
15 -4 23 -10 11 -10 13 -10 11 1 -2 8 2 14 9 15 6 0 14 3 18 6 8 9 45 -1 45
-12 0 -5 -9 -9 -20 -9 -23 0 -26 -13 -6 -29 11 -9 15 -7 19 9 9 35 36 35 75
-1 20 -19 31 -27 24 -18 -14 18 -7 29 19 29 19 0 33 26 19 35 -14 9 -12 22 3
28 8 3 14 -1 15 -9 1 -8 3 -20 4 -27 1 -8 7 -14 13 -14 7 0 10 8 7 19 -3 12 1
18 12 18 10 0 15 -4 12 -9 -3 -5 15 -6 39 -3 38 4 44 2 40 -11 -4 -9 -14 -13
-27 -9 -14 3 -19 1 -16 -8 6 -20 129 -20 146 0 9 9 11 10 7 1 -5 -9 1 -8 19 4
14 10 26 23 26 30 0 9 13 12 48 9 26 -2 52 -6 58 -8 6 -3 22 1 35 8 13 7 29
13 34 15 6 1 26 11 45 23 62 38 141 78 136 69 -3 -4 1 -8 9 -8 8 0 12 4 9 9
-3 4 -1 8 5 8 6 0 8 8 5 18 -5 13 -4 14 4 3 9 -12 15 -12 44 2 76 36 83 37 85
10 0 -14 7 -30 13 -37 10 -8 11 -8 6 1 -5 9 -2 11 8 7 14 -5 14 -8 1 -21 -8
-8 -24 -15 -35 -16 -15 -1 -20 -7 -17 -19 3 -10 0 -21 -5 -25 -6 -3 -8 -1 -5
4 9 14 -35 25 -47 13 -7 -7 -6 -10 3 -10 7 0 10 -4 7 -9 -3 -4 -17 -6 -31 -3
-15 2 -25 0 -25 -7 0 -7 4 -10 9 -7 4 3 16 -3 26 -14 16 -18 16 -19 -3 -17
-11 0 -19 4 -16 8 2 4 -6 9 -18 12 -13 4 -26 1 -30 -6 -4 -7 -8 -9 -8 -5 0 5
-11 -2 -25 -14 -28 -24 -24 -38 11 -38 31 0 32 -27 2 -40 -13 -5 -17 -9 -9 -9
11 -1 11 -4 1 -16 -7 -8 -8 -15 -3 -15 6 0 14 10 20 22 l9 22 22 -22 c19 -19
22 -20 22 -4 0 9 7 26 15 36 8 11 15 27 15 37 0 9 6 22 14 29 8 6 12 18 9 26
-7 19 12 18 28 -3 12 -15 12 -16 -1 -8 -9 5 -12 5 -7 -1 5 -5 12 -9 15 -9 4 0
13 -4 20 -8 11 -8 16 3 13 28 -1 6 4 3 11 -5 16 -19 43 -20 44 -2 1 6 2 19 3
27 0 8 4 14 9 14 26 -4 41 3 36 16 -4 8 -2 15 4 15 14 0 23 -28 11 -35 -5 -4
-6 -11 -3 -17 4 -7 9 -6 14 2 5 8 15 10 26 5 32 -14 54 -15 54 -4 0 7 -9 9
-21 6 -12 -3 -22 0 -26 9 -3 8 -11 14 -19 14 -8 0 -14 5 -14 10 0 12 17 13 24
1 3 -4 16 -6 30 -4 13 3 27 0 30 -6 4 -6 12 -11 18 -11 6 0 5 7 -3 17 -8 10
-9 14 -2 10 6 -4 14 -3 18 3 3 5 0 10 -7 11 -7 0 -26 2 -42 2 -16 1 -31 9 -33
17 -4 13 -3 13 7 0 10 -13 11 -13 7 0 -2 8 -13 20 -25 26 -12 6 -19 14 -15 17
3 4 -2 7 -13 7 -18 1 -18 1 -1 11 26 15 21 30 -8 23 -15 -4 -25 -2 -25 5 0 6
5 11 11 11 5 0 7 5 4 10 -3 6 0 10 8 10 9 0 34 16 56 35 l42 34 -33 17 c-42
21 -79 54 -72 65 3 5 0 18 -7 30 -6 12 -12 31 -13 43 -3 20 2 21 76 21 l79 1
-3 -31 c-2 -20 1 -29 10 -27 7 1 29 4 49 7 20 2 38 6 40 9 3 2 23 -2 46 -10
31 -11 49 -12 71 -4 68 24 50 -9 -20 -36 -25 -9 -41 -20 -37 -24 13 -12 96
-29 126 -26 20 2 35 -5 57 -27 30 -31 41 -55 18 -41 -34 21 -92 -3 -81 -33 4
-11 2 -14 -5 -9 -7 4 -12 13 -12 19 0 15 -47 21 -55 7 -4 -6 1 -13 9 -16 23
-9 20 -41 -5 -54 -15 -9 -24 -8 -35 1 -12 10 -13 9 -8 -4 3 -9 20 -19 37 -23
36 -7 69 -32 61 -45 -3 -5 1 -9 8 -10 7 0 0 -7 -17 -14 -16 -7 -34 -11 -39 -7
-5 3 -6 0 -2 -6 4 -6 22 -14 41 -18 19 -3 35 -10 35 -15 0 -13 34 -11 48 3 9
9 12 7 12 -9 0 -20 31 -41 52 -35 4 1 3 -10 -2 -24 -7 -18 -7 -24 3 -23 33 4
47 -2 47 -22 0 -11 5 -17 10 -14 6 4 7 12 3 18 -7 12 27 -12 38 -26 3 -4 12
-1 19 8 12 14 11 18 -1 26 -12 7 -11 9 3 9 9 0 18 -6 21 -12 3 -10 7 -10 19 0
10 8 35 11 67 9 48 -4 64 4 41 18 -16 10 -12 22 10 28 18 5 26 -7 21 -35 0 -4
11 -2 24 4 14 6 24 17 21 23 -2 6 7 11 23 11 14 -1 25 4 24 10 -2 12 26 12 45
0 7 -4 9 -13 5 -19 -3 -7 3 -4 15 7 12 10 19 23 15 29 -3 6 -1 7 5 3 6 -4 9
-13 5 -21 -3 -11 -1 -13 10 -9 10 4 24 -7 41 -33 14 -21 26 -32 26 -24 0 11 3
11 15 1 13 -10 15 -9 15 8 0 23 -27 55 -40 47 -4 -3 -13 2 -20 10 -7 8 -17 12
-24 8 -6 -3 -5 0 3 8 11 11 14 11 18 1 4 -9 10 -7 23 9 21 24 44 16 37 -12 -3
-11 -1 -17 4 -13 13 8 11 48 -3 62 -7 7 -27 12 -46 12 -30 0 -33 -2 -21 -16
10 -13 10 -17 -1 -24 -17 -11 -30 -4 -30 15 0 8 -6 12 -13 9 -20 -7 -45 25
-28 35 16 10 14 19 -10 53 -10 14 -19 31 -19 36 0 13 -69 67 -95 75 -46 14
-75 15 -75 4 0 -8 -3 -7 -9 1 -5 8 -17 12 -27 10 -28 -6 -91 28 -97 52 -5 20
-2 21 41 19 63 -2 66 -1 52 16 -18 21 -5 45 24 45 15 0 27 7 30 18 8 24 89 46
117 31 12 -6 23 -8 26 -5 10 10 -19 36 -39 36 -28 0 -128 104 -128 134 0 19
112 96 138 96 13 0 37 11 54 25 16 14 35 25 42 25 6 0 19 8 27 18 9 11 26 26
39 35 l22 15 -32 30 -33 29 39 1 c21 1 52 2 68 2 20 0 39 11 60 34 33 37 102
86 119 86 6 0 -5 -17 -25 -37 -19 -21 -34 -43 -32 -49 3 -5 -7 -21 -21 -34
-14 -13 -25 -32 -25 -42 0 -10 -22 -40 -48 -66 -43 -43 -48 -53 -44 -82 4 -29
2 -32 -13 -26 -18 7 -80 -9 -99 -26 -6 -5 -20 -15 -31 -22 -16 -12 -17 -16 -6
-29 7 -9 10 -21 6 -27 -3 -5 5 -14 18 -19 14 -6 28 -15 32 -20 3 -6 15 -11 26
-11 10 0 19 -7 19 -15 0 -10 11 -15 33 -16 90 -2 141 -23 107 -44 -6 -4 -8
-10 -5 -15 8 -12 65 -40 83 -40 30 0 -42 -45 -90 -56 -5 -1 -11 -2 -15 -3 -5
-2 1 -6 12 -11 11 -5 61 -9 110 -9 121 0 272 -11 317 -22 20 -5 41 -8 46 -7 5
2 21 -9 35 -24 18 -19 31 -25 48 -21 19 4 21 3 9 -6 -13 -9 -12 -11 5 -12 l20
0 -20 -9 c-14 -5 -26 -2 -40 9 -24 21 -62 17 -45 -4 8 -10 6 -15 -10 -20 -34
-11 -17 -30 27 -31 22 -1 46 -5 53 -9 9 -5 11 -4 6 3 -4 8 0 12 11 12 15 0 16
2 3 10 -12 8 -10 10 8 10 13 0 31 -4 40 -9 11 -6 21 -4 30 5 10 11 10 14 0 14
-9 0 -9 3 2 9 16 11 33 4 25 -9 -3 -5 8 -5 25 0 16 5 30 6 30 3 0 -3 9 4 20
17 21 24 26 35 12 26 -4 -2 -14 -1 -22 5 -11 6 -6 9 18 9 32 0 42 16 22 36 -6
6 0 11 20 12 17 1 30 -3 30 -8 0 -6 -6 -8 -12 -4 -9 5 -9 2 1 -9 15 -19 56
-23 67 -5 5 7 2 8 -7 3 -8 -5 -11 -5 -7 0 12 13 70 11 75 -3 3 -7 0 -18 -6
-26 -13 -15 -2 -15 61 -2 44 9 63 29 63 65 0 15 5 25 13 24 6 -2 12 3 12 10 1
14 62 47 88 47 10 0 27 15 37 33 24 38 25 52 5 53 -23 0 -74 16 -87 26 -8 6
-13 2 -18 -11 -3 -12 -11 -21 -16 -21 -5 0 -9 -8 -9 -18 0 -10 -5 -23 -12 -30
-7 -7 -8 -12 -2 -12 5 0 2 -5 -6 -10 -10 -6 -11 -10 -2 -10 18 0 15 -37 -4
-44 -22 -9 -22 -9 -26 20 -2 21 -9 28 -32 30 -15 2 -25 0 -22 -3 11 -11 -16
-34 -28 -24 -6 5 -15 9 -21 9 -19 1 -16 23 4 29 11 3 18 9 15 14 -3 5 6 9 20
9 14 0 26 5 26 10 0 6 -7 10 -15 10 -8 0 -15 3 -15 8 0 4 -11 8 -25 8 -15 1
-22 -2 -18 -9 3 -6 1 -7 -5 -3 -9 5 -9 13 -2 27 9 15 7 19 -5 19 -8 0 -15 7
-15 15 0 8 -7 15 -16 15 -11 0 -14 5 -10 17 7 18 -29 59 -39 44 -3 -5 1 -12 7
-14 18 -8 -10 -27 -39 -27 -13 0 -23 -6 -24 -12 0 -7 -2 -24 -5 -37 -4 -23 -3
-24 44 -18 45 5 51 3 71 -21 26 -33 27 -63 1 -80 -16 -10 -20 -10 -18 0 2 7
-7 14 -19 16 -13 2 -23 -1 -23 -7 0 -6 7 -11 15 -11 8 0 15 -6 15 -14 0 -18
-48 -18 -77 1 -24 16 -31 5 -10 -16 10 -10 9 -11 -5 -6 -10 4 -18 11 -18 17 0
5 -24 8 -52 6 -29 -1 -60 2 -68 7 -8 5 -22 10 -30 10 -8 0 -15 5 -15 10 0 6
-4 16 -9 24 -6 9 -5 12 2 7 7 -4 11 7 10 33 0 44 8 64 24 55 6 -4 8 -2 4 4 -3
6 -2 13 3 16 5 4 8 14 6 24 -1 9 8 31 21 48 18 25 20 34 11 45 -10 11 -9 11 6
0 14 -12 22 -12 45 -1 29 13 27 15 -29 24 -60 10 -58 38 6 81 29 19 58 35 63
35 5 0 12 7 16 15 3 8 15 15 26 15 35 0 19 32 -27 54 -31 15 -43 27 -47 51 -4
17 -2 31 4 33 5 2 10 10 10 17 0 24 35 75 51 75 8 0 20 5 27 12 9 9 16 7 32
-10 18 -19 23 -20 57 -8 43 15 63 11 63 -11 0 -9 -3 -13 -7 -10 -7 7 -33 -11
-33 -23 0 -4 26 -10 57 -13 48 -5 63 -2 92 15 32 20 47 22 198 20 121 -1 163
2 163 11 0 36 -82 250 -138 362 -214 429 -620 809 -1067 1000 -272 116 -655
177 -655 104 0 -4 9 -9 20 -12 32 -8 23 -27 -12 -25 -18 1 -37 4 -43 7 -5 3
-28 4 -50 2 l-40 -2 28 26 c38 36 34 51 -18 74 -76 34 -123 80 -191 190 -131
210 -329 442 -478 560 -78 62 -98 72 -117 60z m12 -252 c-1 -12 -15 -9 -19 4
-3 6 1 10 8 8 6 -3 11 -8 11 -12z m194 -57 c3 -5 1 -10 -4 -10 -6 0 -11 5 -11
10 0 6 2 10 4 10 3 0 8 -4 11 -10z m410 -420 c3 -5 -1 -10 -10 -10 -9 0 -13 5
-10 10 3 6 8 10 10 10 2 0 7 -4 10 -10z m398 -197 c-7 -2 -21 -2 -30 0 -10 3
-4 5 12 5 17 0 24 -2 18 -5z m-1763 -103 c0 -5 -2 -10 -4 -10 -3 0 -8 5 -11
10 -3 6 -1 10 4 10 6 0 11 -4 11 -10z m60 -10 c12 -8 9 -10 -13 -10 -16 0 -26
4 -22 10 8 12 16 12 35 0z m345 -60 c4 -6 -11 -10 -37 -10 -31 0 -39 3 -28 10
20 13 57 13 65 0z m2565 -614 c0 -10 7 -12 23 -8 23 6 12 -8 -98 -123 l-39
-40 52 -9 c29 -5 52 -12 52 -16 0 -4 -35 -13 -77 -19 -85 -13 -96 -18 -70 -32
9 -6 17 -19 17 -29 0 -12 9 -22 24 -26 16 -4 22 -11 19 -23 -2 -9 5 -25 16
-35 31 -28 25 -41 -19 -42 -24 -1 -38 2 -37 9 1 6 -6 13 -16 15 -9 2 -41 28
-69 59 -49 51 -55 54 -88 48 -38 -7 -77 -8 -125 -3 -35 4 -47 35 -20 55 15 10
16 15 6 27 -7 8 -15 33 -17 54 -5 39 5 52 41 57 6 1 21 7 35 12 35 15 48 -1
29 -34 -15 -24 -15 -27 3 -45 32 -32 95 -9 182 69 39 35 82 66 96 69 14 3 34
9 45 14 29 12 35 12 35 -4z m-4980 -10 c0 -3 -24 -12 -54 -20 -29 -9 -59 -23
-66 -31 -7 -8 -19 -15 -28 -15 -22 0 34 58 62 63 30 6 86 8 86 3z m562 -70
c10 -7 15 -16 12 -19 -4 -3 11 -4 32 -1 l39 4 -35 -14 c-37 -14 -52 -9 -71 26
-11 21 -1 23 23 4z m-1142 0 c0 -3 -4 -8 -10 -11 -5 -3 -10 -1 -10 4 0 6 5 11
10 11 6 0 10 -2 10 -4z m1293 -27 c26 -17 47 -35 47 -40 0 -16 -15 -10 -27 11
-7 11 -30 28 -50 39 -21 11 -33 20 -27 21 6 0 32 -14 57 -31z m-393 -39 c-6
-11 -12 -20 -14 -20 -2 0 -2 9 1 20 3 11 9 20 15 20 5 0 4 -9 -2 -20z m540 -9
l-35 -7 35 -9 35 -9 -55 -7 c-36 -5 -59 -4 -68 4 -23 18 15 37 72 36 47 -2 48
-2 16 -8z m-720 -69 c0 -35 -11 -52 -36 -52 -33 0 -43 42 -19 86 l18 33 18
-23 c11 -13 19 -33 19 -44z m851 22 c13 -14 33 -29 43 -34 18 -6 17 -7 -7 -12
-21 -4 -27 -1 -27 13 0 9 -12 27 -26 38 -15 12 -22 21 -17 21 5 0 20 -12 34
-26z m-721 -79 c-7 -20 -14 -35 -16 -32 -2 2 1 18 7 36 9 24 8 35 -2 49 -12
16 -12 16 5 1 16 -15 17 -21 6 -54z m-913 -2 c-3 -10 -5 -4 -5 12 0 17 2 24 5
18 2 -7 2 -21 0 -30z m480 15 c-3 -8 -6 -5 -6 6 -1 11 2 17 5 13 3 -3 4 -12 1
-19z m664 -29 c-11 -24 -20 -41 -20 -37 -1 12 31 89 35 85 3 -2 -4 -24 -15
-48z m491 -1 c-7 -7 -12 -8 -12 -2 0 14 12 26 19 19 2 -3 -1 -11 -7 -17z
m-345 -50 c-3 -8 -6 -5 -6 6 -1 11 2 17 5 13 3 -3 4 -12 1 -19z m573 12 c0 -5
3 -15 6 -24 4 -11 1 -16 -10 -16 -9 0 -16 7 -16 15 0 8 -4 15 -10 15 -19 0
-10 16 10 17 11 1 20 -2 20 -7z m-2330 -22 c0 -13 3 -34 7 -48 3 -14 2 -22 -2
-18 -11 11 -24 88 -14 88 5 0 9 -10 9 -22z m2040 -29 c-7 -11 -14 -18 -17 -15
-3 3 0 12 7 21 18 21 23 19 10 -6z m448 -10 c18 -16 32 -33 30 -37 -2 -4 -19
10 -39 31 -44 44 -38 49 9 6z m-2288 17 c0 -2 -8 -10 -17 -17 -16 -13 -17 -12
-4 4 13 16 21 21 21 13z m-263 -28 c-3 -8 -6 -5 -6 6 -1 11 2 17 5 13 3 -3 4
-12 1 -19z m2078 -27 c-3 -6 -11 -11 -17 -11 -6 0 -6 6 2 15 14 17 26 13 15
-4z m555 -17 c0 -2 -9 0 -20 6 -11 6 -20 13 -20 16 0 2 9 0 20 -6 11 -6 20
-13 20 -16z m2404 -5 c-10 -20 -14 -43 -10 -63 5 -28 3 -33 -24 -43 -30 -11
-40 -36 -19 -49 6 -3 34 -6 62 -7 51 0 52 0 22 -12 -16 -7 -33 -11 -38 -8 -17
10 -19 -29 -2 -41 10 -7 15 -18 11 -24 -3 -5 6 -19 21 -30 25 -18 26 -21 10
-27 -30 -12 -130 32 -160 70 -15 19 -35 35 -43 35 -13 0 -13 3 0 22 20 28 20
38 1 38 -42 0 13 73 82 110 21 11 49 29 63 40 36 28 43 25 24 -11z m-2756 -4
c-3 -3 -9 2 -12 12 -6 14 -5 15 5 6 7 -7 10 -15 7 -18z m0 -59 c-13 -20 -30
-35 -38 -35 -10 0 -11 2 -3 5 7 3 22 21 34 40 12 19 23 33 26 30 2 -2 -6 -20
-19 -40z m3140 7 c-2 -10 -13 -19 -26 -21 -21 -3 -57 -54 -46 -65 3 -3 0 -8
-7 -13 -9 -5 -10 -1 -5 17 4 13 8 32 9 42 1 9 16 26 32 36 38 25 47 25 43 4z
m-3217 -30 c13 -15 12 -15 -8 -4 -24 12 -29 21 -14 21 5 0 15 -7 22 -17z
m-1249 -11 c-1 -7 -5 -47 -9 -88 -3 -42 -9 -70 -14 -63 -6 10 -11 10 -23 0
-14 -12 -16 -5 -18 70 -1 71 -2 75 -5 25 -2 -32 -10 -64 -16 -71 -8 -7 -38
-11 -87 -9 -41 2 -85 3 -98 4 -12 0 -26 8 -30 18 -4 12 -10 3 -18 -33 l-12
-50 -1 49 -1 49 -19 -22 c-14 -16 -26 -21 -40 -16 -14 4 -23 1 -27 -9 -10 -27
-23 -18 -29 22 -9 54 -26 88 -19 37 3 -22 8 -47 10 -56 3 -9 -2 -19 -11 -23
-19 -7 -55 27 -55 53 0 11 -4 23 -10 26 -5 3 -8 0 -6 -7 20 -62 19 -64 -35
-64 -43 1 -51 4 -55 23 -3 12 -3 27 1 32 3 6 1 11 -4 11 -6 0 -11 -15 -11 -33
0 -29 -3 -33 -29 -35 -24 -2 -30 3 -39 30 -9 25 -10 27 -7 6 3 -14 7 -32 10
-40 4 -9 -7 -20 -30 -31 -20 -9 -37 -17 -39 -17 -1 0 -8 18 -15 41 -9 28 -17
39 -27 35 -8 -3 -14 -3 -14 -1 0 10 97 46 153 56 34 6 73 16 87 22 26 11 93
20 268 36 107 10 174 19 205 27 13 4 17 -1 17 -21 0 -16 4 -24 10 -20 6 4 8
15 5 25 -4 14 0 20 17 23 40 8 73 3 70 -11z m132 4 c-3 -7 -14 -12 -26 -12
-11 1 -23 -5 -26 -13 -3 -10 2 -13 22 -9 l27 5 -7 -56 c-3 -31 -7 -57 -8 -58
0 -1 -13 1 -28 4 -22 4 -28 11 -29 32 -1 19 -3 16 -10 -14 -15 -74 -12 -85 20
-85 25 0 30 5 34 28 2 15 4 -2 5 -38 0 -36 -3 -74 -8 -85 -8 -19 -9 -19 -9 1
-1 21 -18 34 -47 34 -9 0 -14 -11 -14 -32 0 -18 -5 -40 -10 -48 -7 -11 -10 -1
-10 35 0 28 -3 68 -6 90 -4 27 -3 36 4 26 6 -9 9 15 6 70 -4 132 -3 134 66
136 45 2 58 -1 54 -11z m74 -4 c-25 -2 -38 -8 -38 -17 0 -15 46 -32 57 -21 4
4 13 -4 20 -16 9 -17 12 -19 13 -6 0 17 4 17 53 3 30 -8 39 -48 12 -59 -14 -5
-14 -9 2 -32 16 -25 16 -27 -2 -40 -30 -22 -42 -17 -58 29 -12 31 -16 36 -16
18 -1 -20 -3 -21 -16 -11 -8 7 -25 10 -37 7 -12 -4 -27 -2 -34 4 -9 7 -13 -1
-15 -33 l-4 -44 47 0 c27 0 50 -3 53 -5 2 -3 6 -21 7 -40 3 -32 1 -34 -29 -37
-24 -2 -34 2 -43 17 -6 12 -19 21 -29 21 -19 0 -36 36 -22 45 5 2 11 48 14
102 8 129 8 130 60 123 l42 -5 -37 -3z m150 -54 c-1 -54 -2 -56 -5 -18 -5 56
-15 68 -61 73 -30 3 -26 4 16 5 l52 2 -2 -62z m-1828 38 c0 -2 -8 -10 -17 -17
-16 -13 -17 -12 -4 4 13 16 21 21 21 13z m1925 -16 c33 -10 53 -19 44 -19 -9
-1 -36 6 -59 14 -53 19 -50 19 -50 -6 0 -11 5 -17 10 -14 15 9 12 -4 -5 -21
-13 -14 -15 -11 -15 25 0 23 3 41 8 41 4 0 34 -9 67 -20z m1063 -25 c-9 -19
-18 -25 -42 -24 -30 2 -30 2 -3 6 15 2 32 13 37 24 15 28 22 23 8 -6z m309 8
c-14 -4 -16 -8 -6 -19 8 -9 8 -14 1 -14 -6 0 -16 9 -22 20 -10 18 -8 20 17 19
18 -1 22 -3 10 -6z m1933 -13 c0 -11 7 -20 15 -20 8 0 15 -4 15 -8 0 -4 15
-13 33 -20 l32 -13 -25 -19 c-14 -11 -31 -25 -38 -30 -8 -8 -22 -6 -47 6 -19
9 -42 14 -50 11 -17 -7 -53 59 -39 73 8 8 77 36 97 39 4 0 7 -8 7 -19z m-3313
-40 c8 0 28 -9 43 -20 25 -18 27 -23 17 -46 -10 -20 -18 -24 -39 -21 -17 2
-29 -2 -33 -10 -3 -10 -13 -12 -27 -8 -13 4 -18 3 -12 -2 9 -6 8 -11 -2 -21
-12 -11 -14 -8 -15 15 -2 24 -2 25 -6 6 -9 -44 -23 -22 -23 35 0 38 3 52 9 43
8 -12 12 -12 25 -2 9 8 16 20 16 27 0 8 6 23 13 35 12 19 12 19 15 -6 2 -14
10 -25 19 -25z m131 43 c-10 -2 -26 -2 -35 0 -10 3 -2 5 17 5 19 0 27 -2 18
-5z m49 -9 c-3 -3 -12 -4 -19 -1 -8 3 -5 6 6 6 11 1 17 -2 13 -5z m806 -11
c-7 -2 -21 -2 -30 0 -10 3 -4 5 12 5 17 0 24 -2 18 -5z m146 -108 l26 -30 -33
30 c-19 17 -40 42 -48 57 -22 42 -17 47 7 8 12 -19 33 -48 48 -65z m-704 55
c3 -6 -1 -7 -9 -4 -18 7 -21 14 -7 14 6 0 13 -4 16 -10z m1105 -41 c0 -17 -9
-9 -24 24 l-16 32 20 -24 c11 -13 20 -27 20 -32z m-2785 -54 c22 -52 43 -95
48 -95 4 0 7 2 7 4 0 2 3 12 6 21 4 10 2 15 -6 13 -7 -2 -14 2 -17 9 -5 15 44
10 60 -6 23 -23 39 -13 33 22 -6 31 -6 31 13 -8 29 -62 50 -126 57 -175 3 -25
12 -65 19 -90 20 -68 24 -91 15 -85 -4 3 -11 20 -14 40 -4 19 -11 37 -17 40
-6 4 -8 -4 -4 -22 l6 -28 -17 30 c-10 17 -16 32 -15 34 2 2 -1 7 -6 10 -4 3
-16 24 -26 46 l-18 40 20 -25 c14 -17 21 -20 21 -10 1 8 7 2 15 -15 14 -29 14
-29 8 20 -6 51 -32 117 -33 83 0 -9 -5 -20 -12 -24 -7 -4 -8 -3 -4 4 4 7 3 20
-3 29 -7 13 -6 22 4 33 13 14 11 16 -17 18 -30 3 -31 2 -14 -22 22 -34 20 -43
-4 -21 -20 18 -20 18 -15 -16 5 -30 4 -31 -5 -10 l-10 24 -24 -22 c-17 -16
-32 -21 -52 -17 -16 2 -37 5 -46 5 -10 1 -27 19 -38 41 -26 52 -33 51 -14 -2
8 -22 12 -43 9 -46 -3 -3 -5 -1 -5 5 0 5 -28 11 -61 12 -35 1 -72 9 -85 18
-14 8 -34 13 -47 10 -23 -6 -56 7 -45 19 4 3 -4 23 -17 45 l-25 38 30 21 c35
25 140 62 157 56 6 -3 13 0 16 7 3 11 75 34 112 36 16 1 28 -18 60 -94z m2495
68 c0 -10 -12 -31 -26 -48 l-26 -30 21 32 c12 17 21 38 21 47 0 9 2 16 5 16 3
0 5 -8 5 -17z m-2490 -14 c0 -6 -4 -7 -10 -4 -5 3 -10 11 -10 16 0 6 5 7 10 4
6 -3 10 -11 10 -16z m1637 -21 c-3 -8 -6 -5 -6 6 -1 11 2 17 5 13 3 -3 4 -12
1 -19z m1153 -8 c0 -5 -2 -10 -4 -10 -3 0 -8 5 -11 10 -3 6 -1 10 4 10 6 0 11
-4 11 -10z m-1650 -15 c0 -9 -6 -12 -16 -8 -13 5 -13 7 -2 14 17 11 18 11 18
-6z m-45 -4 c3 -5 1 -12 -5 -16 -5 -3 -10 1 -10 9 0 18 6 21 15 7z m-898 -48
c-3 -10 -5 -4 -5 12 0 17 2 24 5 18 2 -7 2 -21 0 -30z m292 -34 c0 -70 -10
-72 -15 -3 -3 42 1 64 11 64 2 0 4 -28 4 -61z m741 52 c0 -6 -4 -13 -10 -16
-5 -3 -10 1 -10 9 0 9 5 16 10 16 6 0 10 -4 10 -9z m-1609 -41 c6 -16 14 -30
18 -30 4 0 7 -9 8 -20 1 -13 -2 -18 -9 -14 -8 5 -9 1 -4 -12 21 -51 21 -50 4
-36 -9 7 -19 23 -22 36 -5 20 -43 47 -71 51 -5 1 -25 -9 -42 -22 -18 -13 -33
-20 -33 -16 0 4 21 23 45 41 31 24 51 32 67 28 13 -3 17 -3 10 0 -6 3 -10 10
-6 15 10 17 25 9 35 -21z m1156 -22 c-2 -13 -4 -5 -4 17 -1 22 1 32 4 23 2
-10 2 -28 0 -40z m-559 -63 c0 -38 -1 -39 -8 -10 -4 17 -8 44 -8 60 -1 25 1
27 8 10 5 -11 8 -38 8 -60z m2510 40 c-3 -3 -9 2 -12 12 -6 14 -5 15 5 6 7 -7
10 -15 7 -18z m-3299 -19 c-10 -9 -69 -36 -69 -32 0 7 52 35 64 36 5 0 7 -2 5
-4z m1063 -68 c-9 -9 -12 -7 -12 12 0 19 3 21 12 12 9 -9 9 -15 0 -24z m1029
1 c-5 -13 -10 -19 -10 -12 -1 15 10 45 15 40 3 -2 0 -15 -5 -28z m-1805 -4
c24 -26 44 -58 44 -71 0 -3 -18 13 -40 37 -38 42 -48 59 -34 59 4 0 17 -11 30
-25z m3054 1 c0 -13 -9 -34 -20 -47 l-21 -24 16 32 c8 18 15 39 15 48 0 8 2
15 5 15 3 0 5 -11 5 -24z m-2736 -26 c6 -31 5 -33 -8 -20 -10 9 -13 24 -9 38
7 28 8 26 17 -18z m-701 9 c4 -16 3 -18 -9 -8 -7 6 -11 15 -8 20 8 13 11 11
17 -12z m1087 -34 c0 -17 -2 -17 -10 -5 -5 8 -10 24 -10 35 0 17 2 17 10 5 5
-8 10 -24 10 -35z m-1064 -37 c-6 -4 -23 6 -38 23 -38 41 -35 44 11 11 24 -17
34 -30 27 -34z m2564 26 c-8 -8 -23 -20 -34 -26 -19 -10 -18 -8 3 16 26 27 53
37 31 10z m-1493 -36 c-3 -8 -6 -5 -6 6 -1 11 2 17 5 13 3 -3 4 -12 1 -19z
m2393 -22 c0 -2 -24 -23 -52 -46 l-53 -42 50 46 c50 46 55 49 55 42z m-3495
-16 c3 -5 1 -10 -4 -10 -6 0 -11 5 -11 10 0 6 2 10 4 10 3 0 8 -4 11 -10z
m1830 -329 c-4 -117 -11 -198 -16 -190 -9 15 -2 424 9 479 12 60 15 -62 7
-289z m4531 252 c-10 -10 -19 5 -10 18 6 11 8 11 12 0 2 -7 1 -15 -2 -18z
m-3906 3 c0 -16 -50 -79 -57 -72 -5 5 44 86 52 86 3 0 5 -6 5 -14z m869 -60
c-2 -2 -15 -9 -29 -15 -24 -11 -24 -11 -6 3 16 13 49 24 35 12z m-359 -41 c0
-2 -10 -10 -22 -16 -21 -11 -22 -11 -9 4 13 16 31 23 31 12z m3780 -44 c0 -14
-19 -18 -54 -12 l-31 5 35 7 c19 3 38 7 43 8 4 0 7 -3 7 -8z m-6062 -82 c-3
-8 -7 -3 -11 10 -4 17 -3 21 5 13 5 -5 8 -16 6 -23z m2156 16 c-4 -8 -11 -15
-16 -15 -6 0 -5 6 2 15 7 8 14 15 16 15 2 0 1 -7 -2 -15z m-246 -80 c-6 -14
-16 -25 -23 -25 -6 0 -28 -18 -50 -40 -21 -22 -41 -37 -44 -34 -4 4 116 122
126 124 2 0 -3 -11 -9 -25z m-447 -66 c-5 -13 -10 -19 -10 -12 -1 15 10 45 15
40 3 -2 0 -15 -5 -28z m-132 -1 c-1 -7 -5 -24 -9 -38 -7 -22 -8 -21 -9 13 -1
20 4 37 9 37 6 0 10 -6 9 -12z m681 8 c0 -2 -8 -10 -17 -17 -16 -13 -17 -12
-4 4 13 16 21 21 21 13z m1903 -15 c2 -10 1 -24 -3 -30 -4 -7 -7 1 -8 18 -1
35 3 40 11 12z m567 -11 c0 -5 -2 -10 -4 -10 -3 0 -8 5 -11 10 -3 6 -1 10 4
10 6 0 11 -4 11 -10z m384 -13 c-3 -8 -11 -14 -19 -14 -11 0 -12 4 -4 14 6 7
15 13 20 13 5 0 6 -6 3 -13z m-3391 -27 c-3 -11 -7 -20 -9 -20 -2 0 -4 9 -4
20 0 11 4 20 9 20 5 0 7 -9 4 -20z m1337 16 c0 -2 -7 -6 -15 -10 -8 -3 -15 -1
-15 4 0 6 7 10 15 10 8 0 15 -2 15 -4z m1053 -11 c-3 -9 -8 -14 -10 -11 -3 3
-2 9 2 15 9 16 15 13 8 -4z m687 5 c0 -5 -2 -10 -4 -10 -3 0 -8 5 -11 10 -3 6
-1 10 4 10 6 0 11 -4 11 -10z m-2763 -22 c-3 -8 -6 -5 -6 6 -1 11 2 17 5 13 3
-3 4 -12 1 -19z m-750 -13 c-20 -19 -34 -19 -34 0 0 8 3 12 7 10 3 -2 12 0 20
5 21 13 25 4 7 -15z m2797 1 c-3 -8 -14 -16 -23 -19 -14 -3 -17 0 -14 14 3 10
9 16 14 13 5 -3 9 0 9 6 0 6 4 9 10 5 5 -3 7 -12 4 -19z m-2574 -7 c0 -5 -4
-9 -8 -9 -5 0 -9 7 -9 15 0 8 4 12 9 9 4 -3 8 -9 8 -15z m3725 12 c3 -5 1 -12
-5 -16 -5 -3 -10 1 -10 9 0 18 6 21 15 7z m-2555 -17 c0 -8 -5 -12 -10 -9 -6
4 -8 11 -5 16 9 14 15 11 15 -7z m50 2 c0 -11 -19 -15 -25 -6 -3 5 1 10 9 10
9 0 16 -2 16 -4z m579 -36 c0 -10 -3 -8 -9 5 -12 27 -12 43 0 25 5 -8 9 -22 9
-30z m-776 16 c7 -17 -20 -30 -29 -14 -4 7 -3 8 4 4 7 -4 12 -1 12 8 0 20 6
20 13 2z m2266 -5 c9 -6 6 -8 -13 -8 -14 0 -23 3 -20 8 7 11 15 11 33 0z
m-2606 -34 c-2 -4 -9 -5 -14 -2 -5 4 -12 -1 -15 -9 -3 -9 -11 -16 -17 -16 -5
0 -3 8 6 18 10 10 17 24 17 31 0 9 3 9 14 -1 8 -7 12 -16 9 -21z m820 -3 c-3
-8 -7 -14 -10 -14 -3 0 -3 6 0 14 3 7 0 20 -6 27 -10 11 -9 11 5 0 9 -7 14
-19 11 -27z m173 -11 c-10 -10 -19 5 -10 18 6 11 8 11 12 0 2 -7 1 -15 -2 -18z
m1694 13 c0 -3 -4 -8 -10 -11 -5 -3 -10 -1 -10 4 0 6 5 11 10 11 6 0 10 -2 10
-4z m-2210 -32 c0 -22 -26 -16 -27 5 -1 14 3 18 13 14 8 -3 14 -11 14 -19z
m2100 1 c0 -8 -2 -15 -4 -15 -2 0 -6 7 -10 15 -3 8 -1 15 4 15 6 0 10 -7 10
-15z m-2637 -22 c-5 -13 -3 -15 13 -9 15 6 17 5 7 -5 -15 -15 -40 2 -29 20 11
17 16 13 9 -6z m73 -55 c5 -7 3 -8 -6 -3 -10 6 -12 4 -7 -9 4 -10 3 -15 -4
-11 -5 4 -16 2 -24 -5 -10 -9 -13 -7 -11 6 2 15 12 22 43 33 1 1 5 -4 9 -11z"/>
<path d="M9445 6261 c-3 -5 -1 -12 5 -16 12 -7 30 2 30 16 0 12 -27 12 -35 0z"/>
<path d="M4307 5918 c-19 -50 -19 -54 -2 -37 9 9 15 25 13 35 -5 18 -5 18 -11
2z"/>
<path d="M4251 5904 c0 -11 3 -14 6 -6 3 7 2 16 -1 19 -3 4 -6 -2 -5 -13z"/>
<path d="M4690 5862 c0 -12 3 -12 15 -2 8 7 15 13 15 15 0 1 -7 2 -15 2 -8 0
-15 -7 -15 -15z"/>
<path d="M3743 5813 c-20 -7 -15 -22 7 -20 20 1 27 12 13 20 -5 2 -14 2 -20 0z"/>
<path d="M3647 5753 c8 -23 33 -60 33 -50 0 11 -29 67 -35 67 -2 0 -2 -8 2
-17z"/>
<path d="M3492 5656 c7 -8 17 -12 22 -9 4 3 2 9 -5 14 -22 13 -31 11 -17 -5z"/>
<path d="M3754 7949 c-3 -6 -15 -9 -25 -6 -24 6 -25 -11 -2 -20 10 -4 19 -1
21 7 3 9 10 6 23 -11 17 -23 18 -23 39 -4 20 18 20 20 4 32 -22 16 -50 17 -60
2z"/>
<path d="M3522 7912 c-10 -10 -27 -22 -37 -25 -16 -7 -16 -9 -3 -25 9 -9 15
-24 15 -32 1 -8 4 -23 8 -33 7 -17 6 -17 -26 -4 -23 9 -42 11 -58 5 l-24 -9
33 -34 c39 -40 63 -44 84 -13 11 15 19 18 28 11 14 -11 96 -33 122 -33 8 0 24
10 36 22 11 12 20 16 20 10 0 -16 25 -15 60 3 19 10 30 23 30 37 0 17 3 19 12
10 14 -14 28 -16 28 -3 0 13 -146 81 -175 81 -8 0 -31 11 -51 25 -44 30 -77
32 -102 7z"/>
<path d="M6830 7801 c0 -10 77 -22 96 -14 8 3 11 9 8 14 -7 12 -104 12 -104 0z"/>
<path d="M6675 7761 c-11 -5 -23 -7 -27 -5 -4 3 -10 -1 -14 -7 -9 -15 64 -5
80 11 12 12 -9 13 -39 1z"/>
<path d="M3515 7731 c-7 -12 12 -24 25 -16 11 7 4 25 -10 25 -5 0 -11 -4 -15
-9z"/>
<path d="M6663 7632 c-23 -2 -30 -7 -27 -17 7 -17 101 -13 118 6 8 8 5 9 -12
4 -13 -4 -28 -3 -35 2 -7 5 -26 7 -44 5z"/>
<path d="M5703 7480 c-30 -12 -20 -54 11 -44 39 11 69 29 68 39 -2 13 -51 16
-79 5z"/>
<path d="M5848 7483 c7 -3 16 -2 19 1 4 3 -2 6 -13 5 -11 0 -14 -3 -6 -6z"/>
<path d="M5599 7458 c-26 -10 -24 -13 14 -22 20 -5 27 -3 27 8 0 8 6 16 13 19
6 3 2 4 -10 4 -12 -1 -32 -5 -44 -9z"/>
<path d="M5965 7418 c-37 -13 -65 -37 -65 -55 0 -17 78 -9 153 14 l48 16 -31
18 c-34 21 -60 23 -105 7z"/>
<path d="M6140 7409 c0 -5 5 -7 10 -4 6 3 10 8 10 11 0 2 -4 4 -10 4 -5 0 -10
-5 -10 -11z"/>
<path d="M5170 7361 l-55 -17 55 -9 c83 -12 123 -11 127 3 3 7 -5 12 -21 12
-14 0 -26 4 -26 9 0 18 -26 18 -80 2z"/>
<path d="M6990 7370 c0 -5 4 -10 9 -10 6 0 13 5 16 10 3 6 -1 10 -9 10 -9 0
-16 -4 -16 -10z"/>
<path d="M4917 7364 c-6 -7 -199 -14 -324 -13 -42 0 -73 -4 -73 -9 0 -6 6 -12
13 -15 26 -9 -5 -19 -104 -33 -56 -8 -107 -18 -113 -23 -6 -5 -26 -12 -43 -16
-18 -3 -33 -12 -33 -20 0 -8 -21 -15 -57 -20 -32 -4 -76 -13 -98 -21 -22 -8
-60 -17 -85 -20 -62 -7 -70 -11 -70 -31 0 -10 -9 -25 -20 -33 -31 -22 -54 -72
-38 -82 13 -8 17 -9 56 -13 26 -3 25 -2 43 -37 l14 -27 35 17 c19 10 51 27 70
40 22 13 42 19 55 15 11 -3 40 -7 64 -8 39 -3 50 1 76 26 19 20 37 28 49 25
10 -3 32 2 48 10 26 13 28 19 22 49 -6 33 -5 34 28 34 83 1 150 20 206 57 19
13 41 24 49 24 8 0 29 6 46 14 18 7 52 22 77 32 25 11 53 27 62 37 15 14 60
23 92 18 17 -3 46 11 41 20 -7 10 -78 13 -88 3z m-579 -262 c2 -7 -2 -10 -12
-6 -9 3 -16 11 -16 16 0 13 23 5 28 -10z"/>
<path d="M6750 7290 c0 -5 5 -10 11 -10 5 0 7 5 4 10 -3 6 -8 10 -11 10 -2 0
-4 -4 -4 -10z"/>
<path d="M6505 7280 c-4 -6 5 -10 19 -10 14 0 26 5 26 10 0 6 -9 10 -19 10
-11 0 -23 -4 -26 -10z"/>
<path d="M4985 7206 c-16 -7 -54 -16 -83 -19 -29 -3 -66 -15 -82 -27 -15 -11
-43 -23 -62 -26 -48 -9 -158 -48 -158 -56 0 -15 126 -13 145 1 14 12 102 32
160 38 28 3 78 11 113 19 35 8 74 14 88 14 17 0 27 8 34 25 5 14 15 26 22 27
36 4 44 3 50 -6 4 -6 10 -7 15 -3 16 17 -26 27 -117 26 -55 0 -108 -5 -125
-13z"/>
<path d="M5599 7125 c23 -14 47 -25 52 -25 5 0 33 -11 62 -25 45 -22 58 -24
82 -15 23 9 26 13 15 20 -8 5 -23 7 -33 4 -10 -3 -29 1 -42 10 -13 9 -33 16
-43 16 -11 0 -31 9 -45 20 -14 11 -40 20 -59 20 l-33 0 44 -25z"/>
<path d="M5524 7085 c-16 -12 -16 -14 -3 -15 9 0 22 7 29 15 16 19 0 19 -26 0z"/>
<path d="M5550 7052 c0 -15 44 -30 66 -21 40 14 33 25 -17 28 -27 1 -49 -2
-49 -7z"/>
<path d="M3846 6984 c-8 -22 -9 -21 17 -21 42 -1 47 -3 47 -22 0 -14 5 -18 19
-14 12 3 18 13 17 28 -1 17 -4 21 -13 13 -10 -8 -13 -5 -13 13 0 19 -2 21 -10
9 -6 -10 -10 -11 -10 -2 0 18 -47 15 -54 -4z"/>
<path d="M4822 6975 c-71 -26 -83 -34 -56 -34 11 -1 37 -4 60 -7 34 -5 45 -2
71 20 17 14 36 26 42 26 6 0 11 5 11 10 0 16 -61 9 -128 -15z"/>
<path d="M4975 6990 c3 -5 12 -7 20 -3 21 7 19 13 -6 13 -11 0 -18 -4 -14 -10z"/>
<path d="M3625 6940 c-12 -19 11 -33 41 -26 28 8 24 19 -13 30 -12 4 -24 2
-28 -4z"/>
<path d="M3775 6880 c-3 -5 1 -10 9 -10 8 0 18 5 21 10 3 6 -1 10 -9 10 -8 0
-18 -4 -21 -10z"/>
<path d="M3720 6870 c0 -5 4 -10 9 -10 6 0 13 5 16 10 3 6 -1 10 -9 10 -9 0
-16 -4 -16 -10z"/>
<path d="M4336 6849 c-44 -11 -84 -23 -90 -28 -6 -5 -31 -12 -56 -16 -53 -8
-114 -39 -210 -107 -57 -40 -66 -62 -35 -82 25 -16 27 -16 68 17 58 47 209 80
253 56 23 -12 27 -10 49 16 14 15 25 31 25 35 0 7 36 20 44 17 2 -1 14 7 25
18 15 13 37 19 69 20 31 0 47 4 46 13 -1 6 -2 19 -2 28 -1 10 -8 14 -17 11 -8
-4 -27 0 -42 8 -34 18 -29 18 -127 -6z"/>
<path d="M3915 6830 c-11 -5 -34 -9 -51 -9 -27 -1 -90 -37 -74 -42 15 -5 70
-11 105 -11 41 0 152 52 138 65 -9 10 -94 7 -118 -3z"/>
<path d="M5615 6830 c-3 -5 1 -10 9 -10 9 0 16 5 16 10 0 6 -4 10 -9 10 -6 0
-13 -4 -16 -10z"/>
<path d="M3681 6766 c-7 -8 -23 -17 -37 -20 -45 -12 -104 -55 -104 -76 0 -31
64 -28 85 4 8 12 38 35 65 50 53 29 60 40 34 50 -23 9 -30 8 -43 -8z"/>
<path d="M4570 6770 c-12 -8 -9 -10 13 -10 15 0 27 5 27 10 0 13 -20 13 -40 0z"/>
<path d="M3762 6668 c-69 -43 -71 -69 -4 -64 55 4 87 18 102 46 31 58 -17 67
-98 18z"/>
<path d="M5067 6694 c-13 -13 5 -24 41 -24 22 0 32 4 27 9 -14 13 -59 23 -68
15z"/>
<path d="M4460 6660 c-12 -8 -10 -10 8 -10 13 0 20 4 17 10 -7 12 -6 12 -25 0z"/>
<path d="M5220 6655 c-9 -11 -7 -16 9 -25 16 -8 28 -7 52 5 36 19 36 20 -13
28 -25 4 -40 1 -48 -8z"/>
<path d="M4703 6653 c-22 -8 -14 -23 11 -23 13 0 26 -6 29 -12 4 -10 7 -10 18
0 20 19 -27 48 -58 35z"/>
<path d="M4224 6468 l-19 -23 25 20 c14 11 27 21 29 22 2 2 0 3 -6 3 -5 0 -18
-10 -29 -22z"/>
<path d="M5195 6450 c-3 -6 1 -7 9 -4 18 7 21 14 7 14 -6 0 -13 -4 -16 -10z"/>
<path d="M5428 6453 c7 -3 16 -2 19 1 4 3 -2 6 -13 5 -11 0 -14 -3 -6 -6z"/>
<path d="M2610 6380 c0 -12 28 -25 36 -17 3 3 -4 10 -15 17 -15 7 -21 7 -21 0z"/>
<path d="M2306 6283 c-3 -3 -34 -9 -68 -12 -67 -7 -78 -17 -51 -50 18 -22 97
-38 107 -22 3 4 20 6 37 3 28 -4 31 -2 25 13 -7 18 3 18 49 -1 19 -8 19 -7 4
16 -16 24 -92 63 -103 53z"/>
<path d="M3067 6064 c-35 -33 -35 -45 1 -13 15 13 29 25 31 27 2 1 2 4 0 7 -3
2 -17 -7 -32 -21z"/>
<path d="M412 5895 c0 -16 2 -22 5 -12 2 9 2 23 0 30 -3 6 -5 -1 -5 -18z"/>
<path d="M590 5890 c0 -5 7 -7 15 -4 8 4 15 8 15 10 0 2 -7 4 -15 4 -8 0 -15
-4 -15 -10z"/>
<path d="M520 5871 c0 -5 7 -11 14 -14 10 -4 13 -1 9 9 -6 15 -23 19 -23 5z"/>
<path d="M486 5833 c-6 -14 -5 -15 5 -6 7 7 10 15 7 18 -3 3 -9 -2 -12 -12z"/>
<path d="M10350 5840 c-51 -27 -101 -43 -162 -52 -38 -6 -78 -18 -89 -27 -20
-16 -20 -17 12 -19 58 -5 247 50 263 76 9 14 -8 30 -24 22z"/>
<path d="M555 5810 c-19 -7 -19 -7 3 -14 27 -9 34 -5 24 10 -4 7 -16 8 -27 4z"/>
<path d="M560 5739 c0 -5 5 -7 10 -4 6 3 10 8 10 11 0 2 -4 4 -10 4 -5 0 -10
-5 -10 -11z"/>
<path d="M1036 5651 c-4 -7 -5 -15 -2 -18 9 -9 19 4 14 18 -4 11 -6 11 -12 0z"/>
<path d="M10360 5648 c-19 -5 -52 -14 -73 -19 -21 -5 -35 -14 -32 -18 6 -11
-14 -28 -40 -33 -11 -2 -21 -9 -21 -16 -1 -6 -2 -16 -3 -22 0 -5 -17 -10 -36
-10 -19 0 -35 -4 -35 -10 0 -5 24 -10 53 -10 30 0 57 -3 60 -6 9 -9 -37 -44
-57 -44 -9 0 -16 -4 -16 -10 0 -5 21 -10 46 -10 58 0 90 -16 74 -36 -10 -11
-9 -15 4 -20 9 -3 16 -15 16 -27 0 -11 8 -29 17 -39 16 -18 16 -19 -3 -13 -18
6 -18 6 1 -7 17 -11 19 -20 14 -48 -3 -19 -7 -29 -8 -22 0 6 -9 12 -18 12 -15
-1 -14 -4 6 -21 15 -12 31 -17 40 -13 9 4 23 6 32 6 11 0 15 7 13 24 -1 13 2
24 7 24 5 0 6 13 3 29 -4 18 0 42 10 62 10 20 16 58 16 100 0 71 -20 210 -30
208 -3 0 -21 -5 -40 -11z m35 -368 c3 -5 2 -10 -4 -10 -5 0 -13 5 -16 10 -3 6
-2 10 4 10 5 0 13 -4 16 -10z"/>
<path d="M2835 5635 l-40 -12 35 -8 c19 -4 40 -12 47 -17 7 -5 21 -8 33 -6 21
3 20 4 -7 29 -26 24 -31 25 -68 14z"/>
<path d="M1068 5622 c-16 -7 -16 -8 3 -20 16 -10 19 -10 13 -1 -5 9 -2 11 9 6
11 -4 14 -2 10 9 -6 15 -9 16 -35 6z"/>
<path d="M885 5580 c-3 -5 -1 -10 4 -10 6 0 11 5 11 10 0 6 -2 10 -4 10 -3 0
-8 -4 -11 -10z"/>
<path d="M830 5555 c-10 -12 -10 -15 2 -15 8 0 15 7 15 15 0 8 -1 15 -2 15 -2
0 -8 -7 -15 -15z"/>
<path d="M8690 5534 l-25 -13 27 -1 c15 0 29 4 33 9 10 17 -10 20 -35 5z"/>
<path d="M1095 5510 c3 -5 8 -10 11 -10 2 0 4 5 4 10 0 6 -5 10 -11 10 -5 0
-7 -4 -4 -10z"/>
<path d="M1195 5490 c-3 -6 1 -7 9 -4 18 7 21 14 7 14 -6 0 -13 -4 -16 -10z"/>
<path d="M1948 5398 c-27 -29 -37 -58 -20 -58 21 1 47 34 47 60 1 17 1 30 0
30 0 -1 -12 -15 -27 -32z"/>
<path d="M9530 5275 c-10 -13 -9 -15 8 -15 15 0 20 5 16 15 -4 8 -7 15 -9 15
-1 0 -8 -7 -15 -15z"/>
<path d="M10253 5273 c-7 -2 -10 -10 -7 -17 3 -8 -4 -16 -17 -19 -13 -4 -21
-9 -17 -12 8 -8 56 15 62 31 6 15 -4 23 -21 17z"/>
<path d="M7907 5226 c-8 -19 14 -26 57 -19 34 5 50 22 24 24 -7 1 -20 2 -28 3
-8 0 -18 -3 -22 -9 -5 -6 -8 -5 -8 3 0 17 -17 15 -23 -2z"/>
<path d="M10270 5203 c0 -7 9 -17 19 -23 11 -5 23 -19 26 -30 8 -26 36 -26 58
1 18 21 18 21 -10 15 -28 -6 -55 4 -54 20 1 5 -5 9 -11 9 -7 0 -16 5 -20 10
-5 6 -8 5 -8 -2z"/>
<path d="M5536 5143 c-6 -14 -5 -15 5 -6 7 7 10 15 7 18 -3 3 -9 -2 -12 -12z"/>
<path d="M3335 5130 c10 -11 20 -20 23 -20 3 0 -3 9 -13 20 -10 11 -20 20 -23
20 -3 0 3 -9 13 -20z"/>
<path d="M5206 5135 c-3 -9 -6 -24 -5 -33 0 -9 5 -4 10 12 9 32 6 48 -5 21z"/>
<path d="M6130 5015 c-47 -47 -81 -85 -76 -85 5 0 46 38 92 85 46 47 80 85 76
85 -4 0 -45 -38 -92 -85z"/>
<path d="M9373 5085 c-8 -23 7 -33 18 -12 6 9 15 14 21 11 7 -4 8 -2 4 4 -10
17 -36 15 -43 -3z"/>
<path d="M10056 5092 c-3 -5 1 -9 9 -9 8 0 12 4 9 9 -3 4 -7 8 -9 8 -2 0 -6
-4 -9 -8z"/>
<path d="M3385 5070 c10 -11 20 -20 23 -20 3 0 -3 9 -13 20 -10 11 -20 20 -23
20 -3 0 3 -9 13 -20z"/>
<path d="M3470 5050 c11 -16 26 -33 32 -36 7 -4 -1 9 -16 29 -34 44 -46 50
-16 7z"/>
<path d="M5812 5060 c-18 -29 -15 -38 4 -12 9 13 14 25 12 27 -2 2 -9 -5 -16
-15z"/>
<path d="M5487 5051 c-4 -17 -3 -21 5 -13 5 5 8 16 6 23 -3 8 -7 3 -11 -10z"/>
<path d="M8883 5055 c-9 -10 -6 -15 14 -24 13 -6 28 -9 33 -6 5 3 10 0 12 -6
4 -11 28 -17 97 -23 55 -5 111 20 84 37 -5 3 -44 6 -88 8 -44 2 -93 8 -110 15
-24 9 -32 9 -42 -1z"/>
<path d="M9720 5059 c0 -5 5 -7 10 -4 6 3 10 8 10 11 0 2 -4 4 -10 4 -5 0 -10
-5 -10 -11z"/>
<path d="M5417 4978 c-28 -61 -34 -84 -26 -92 8 -7 10 -7 6 -1 -3 6 8 31 24
55 16 24 27 50 24 58 -3 7 0 23 6 34 6 11 9 22 6 24 -2 2 -20 -33 -40 -78z"/>
<path d="M3550 5040 c-9 -6 -10 -10 -3 -10 6 0 15 5 18 10 8 12 4 12 -15 0z"/>
<path d="M5466 5005 c-9 -26 -7 -32 5 -12 6 10 9 21 6 23 -2 3 -7 -2 -11 -11z"/>
<path d="M3594 4995 c-16 -12 -17 -14 -3 -15 9 0 19 7 23 15 7 19 5 19 -20 0z"/>
<path d="M2035 4990 c-8 -13 9 -20 24 -11 10 6 9 10 -3 14 -8 3 -18 2 -21 -3z"/>
<path d="M3514 4947 c16 -20 30 -37 33 -37 7 0 -36 58 -49 66 -7 4 1 -9 16
-29z"/>
<path d="M5437 4928 c-9 -23 -15 -43 -13 -45 2 -2 11 15 20 38 9 23 15 43 13
45 -2 2 -11 -15 -20 -38z"/>
<path d="M4041 4935 c0 -5 4 -17 9 -25 7 -11 10 -11 10 -2 0 7 4 10 10 7 6 -3
7 1 3 10 -4 12 -8 13 -13 5 -6 -9 -9 -9 -13 1 -3 8 -6 10 -6 4z"/>
<path d="M3500 4895 c13 -14 26 -25 28 -25 3 0 -5 11 -18 25 -13 14 -26 25
-28 25 -3 0 5 -11 18 -25z"/>
<path d="M3618 4906 c3 -6 17 -27 30 -46 l24 -35 -7 30 c-4 17 -14 35 -21 41
-8 6 -12 13 -9 16 3 2 -2 5 -10 5 -8 0 -11 -5 -7 -11z"/>
<path d="M3370 4890 c0 -5 5 -10 10 -10 6 0 10 5 10 10 0 6 -4 10 -10 10 -5 0
-10 -4 -10 -10z"/>
<path d="M5930 4808 c-47 -51 -90 -97 -97 -101 -7 -4 -13 -13 -13 -20 0 -7 14
3 31 21 16 17 34 32 40 32 5 0 9 7 9 15 0 8 16 27 35 42 30 23 93 103 82 103
-2 0 -41 -42 -87 -92z"/>
<path d="M3609 4862 c5 -10 18 -25 28 -33 12 -10 11 -5 -6 19 -24 35 -38 43
-22 14z"/>
<path d="M5374 4872 c3 -5 0 -13 -6 -15 -9 -4 -10 -6 -1 -6 17 -1 25 16 12 25
-7 4 -9 3 -5 -4z"/>
<path d="M2975 4860 c-3 -6 1 -7 9 -4 18 7 21 14 7 14 -6 0 -13 -4 -16 -10z"/>
<path d="M4563 4835 c0 -22 2 -30 4 -17 2 12 2 30 0 40 -3 9 -5 -1 -4 -23z"/>
<path d="M3091 4844 c0 -11 3 -14 6 -6 3 7 2 16 -1 19 -3 4 -6 -2 -5 -13z"/>
<path d="M4211 4844 c0 -11 3 -14 6 -6 3 7 2 16 -1 19 -3 4 -6 -2 -5 -13z"/>
<path d="M3558 4823 c11 -16 30 -37 43 -48 13 -11 6 1 -15 28 -42 51 -59 64
-28 20z"/>
<path d="M5426 4835 c-9 -26 -7 -32 5 -12 6 10 9 21 6 23 -2 3 -7 -2 -11 -11z"/>
<path d="M3990 4835 c0 -5 5 -17 10 -25 5 -8 10 -10 10 -5 0 6 -5 17 -10 25
-5 8 -10 11 -10 5z"/>
<path d="M5122 4820 c0 -14 2 -19 5 -12 2 6 2 18 0 25 -3 6 -5 1 -5 -13z"/>
<path d="M5150 4823 c0 -13 5 -23 10 -23 13 0 13 11 0 30 -8 12 -10 11 -10 -7z"/>
<path d="M7848 4833 c6 -2 18 -2 25 0 6 3 1 5 -13 5 -14 0 -19 -2 -12 -5z"/>
<path d="M8163 4825 c-3 -9 -3 -18 -1 -21 3 -3 8 4 11 16 6 23 -1 27 -10 5z"/>
<path d="M8670 4830 c-13 -8 -12 -10 3 -10 9 0 17 5 17 10 0 12 -1 12 -20 0z"/>
<path d="M7806 4822 c-3 -6 -1 -14 5 -17 15 -10 25 3 12 16 -7 7 -13 7 -17 1z"/>
<path d="M3607 4808 c40 -53 176 -218 180 -218 5 0 -3 12 -102 139 -38 49 -74
90 -79 90 -5 1 -4 -5 1 -11z"/>
<path d="M7875 4810 c-3 -5 1 -10 9 -10 9 0 16 5 16 10 0 6 -4 10 -9 10 -6 0
-13 -4 -16 -10z"/>
<path d="M3659 4794 c6 -11 25 -35 42 -54 l31 -35 -33 48 c-34 49 -60 76 -40
41z"/>
<path d="M5306 4742 c-16 -40 -27 -75 -24 -78 4 -3 12 10 19 30 7 19 16 33 19
31 4 -2 14 12 24 31 9 20 12 33 7 30 -5 -4 -11 2 -13 11 -2 9 -16 -15 -32 -55z"/>
<path d="M5654 4795 c-10 -8 -14 -15 -8 -15 6 0 17 7 24 15 16 19 9 19 -16 0z"/>
<path d="M6030 4793 c0 -13 5 -23 10 -23 13 0 13 11 0 30 -8 12 -10 11 -10 -7z"/>
<path d="M8102 4790 c-16 -27 -15 -35 3 -20 13 11 14 10 9 -4 -3 -9 -2 -16 4
-16 13 0 23 27 16 45 -8 20 -17 19 -32 -5z"/>
<path d="M8672 4798 c2 -6 10 -14 16 -16 7 -2 10 2 6 12 -7 18 -28 22 -22 4z"/>
<path d="M8740 4800 c0 -5 0 -11 1 -12 0 -2 -4 -15 -10 -30 -8 -22 -8 -28 3
-28 16 0 38 24 30 32 -2 3 2 8 11 12 9 3 13 2 10 -4 -3 -6 -1 -10 4 -10 18 0
12 18 -11 34 -26 18 -38 20 -38 6z"/>
<path d="M7687 4793 c-13 -13 -7 -25 7 -14 7 6 22 9 32 5 16 -5 16 -4 4 5 -17
12 -34 14 -43 4z"/>
<path d="M3700 4786 c0 -2 8 -10 18 -17 15 -13 16 -12 3 4 -13 16 -21 21 -21
13z"/>
<path d="M4041 4778 c0 -7 4 -22 8 -32 7 -19 8 -18 14 4 3 13 4 27 1 32 -8 12
-24 10 -23 -4z"/>
<path d="M4641 4767 c-13 -21 -12 -21 5 -5 10 10 16 20 13 22 -3 3 -11 -5 -18
-17z"/>
<path d="M5152 4760 c0 -19 2 -27 5 -17 2 9 2 25 0 35 -3 9 -5 1 -5 -18z"/>
<path d="M6090 4780 c0 -5 7 -7 15 -4 8 4 15 8 15 10 0 2 -7 4 -15 4 -8 0 -15
-4 -15 -10z"/>
<path d="M7894 4771 c0 -15 3 -17 13 -9 9 7 18 7 30 -3 15 -13 15 -12 2 9 -17
27 -45 29 -45 3z"/>
<path d="M7955 4780 c3 -5 10 -10 16 -10 5 0 9 5 9 10 0 6 -7 10 -16 10 -8 0
-12 -4 -9 -10z"/>
<path d="M8163 4778 c-25 -12 -31 -28 -10 -28 8 0 7 -4 -3 -10 -11 -7 -8 -10
16 -10 39 0 47 8 28 28 -13 12 -13 16 -2 23 19 12 -3 10 -29 -3z"/>
<path d="M7850 4767 c0 -8 6 -20 14 -26 12 -10 13 -8 9 9 -7 25 -23 37 -23 17z"/>
<path d="M8270 4761 c0 -6 5 -13 10 -16 6 -3 10 1 10 9 0 9 -4 16 -10 16 -5 0
-10 -4 -10 -9z"/>
<path d="M8480 4760 c0 -5 5 -10 11 -10 5 0 7 5 4 10 -3 6 -8 10 -11 10 -2 0
-4 -4 -4 -10z"/>
<path d="M4475 4668 c-4 -51 -5 -104 -3 -118 2 -14 7 26 11 89 4 63 6 116 3
118 -2 2 -7 -38 -11 -89z"/>
<path d="M5030 4751 c0 -5 7 -11 14 -14 10 -4 13 -1 9 9 -6 15 -23 19 -23 5z"/>
<path d="M5356 4745 c-9 -26 -7 -32 5 -12 6 10 9 21 6 23 -2 3 -7 -2 -11 -11z"/>
<path d="M5375 4707 c-9 -29 -19 -58 -22 -65 -3 -7 8 -1 23 13 24 22 26 28 14
37 -13 8 -12 9 2 5 9 -3 23 0 33 6 14 11 14 15 -9 34 l-25 22 -16 -52z"/>
<path d="M5491 4737 c-13 -21 -12 -21 5 -5 10 10 16 20 13 22 -3 3 -11 -5 -18
-17z"/>
<path d="M5875 4688 c-39 -39 -63 -67 -54 -60 9 7 20 8 24 4 5 -4 5 -1 1 6 -4
7 -1 12 9 12 9 0 14 4 11 9 -7 10 18 33 27 26 4 -3 5 -2 2 2 -7 8 36 54 45 48
4 -2 7 2 7 10 0 8 -1 15 -1 15 -1 0 -33 -32 -71 -72z"/>
<path d="M8683 4745 c0 -8 4 -12 9 -9 5 3 6 10 3 15 -9 13 -12 11 -12 -6z"/>
<path d="M7903 4735 c-10 -7 -15 -17 -10 -21 4 -4 7 -2 7 5 0 7 9 9 25 5 14
-3 25 -2 25 4 0 17 -27 21 -47 7z"/>
<path d="M8236 4742 c-2 -4 -1 -14 3 -21 6 -10 10 -9 14 3 6 16 -8 32 -17 18z"/>
<path d="M4552 4710 c0 -19 2 -27 5 -17 2 9 2 25 0 35 -3 9 -5 1 -5 -18z"/>
<path d="M6440 4730 c0 -5 5 -10 10 -10 6 0 10 5 10 10 0 6 -4 10 -10 10 -5 0
-10 -4 -10 -10z"/>
<path d="M8530 4730 c-23 -7 -23 -8 -3 -9 12 -1 25 4 28 9 3 6 5 10 3 9 -2 -1
-14 -5 -28 -9z"/>
<path d="M3640 4726 c0 -2 8 -10 18 -17 15 -13 16 -12 3 4 -13 16 -21 21 -21
13z"/>
<path d="M5452 4668 c-12 -23 -20 -43 -17 -46 2 -2 9 7 16 21 6 14 17 23 24
21 9 -4 11 3 8 20 -3 14 -6 26 -7 26 0 0 -11 -19 -24 -42z"/>
<path d="M8415 4701 c-3 -5 0 -13 6 -17 7 -4 9 -3 5 4 -3 5 0 13 6 15 9 4 10
6 1 6 -6 1 -14 -3 -18 -8z"/>
<path d="M8460 4693 c0 -10 4 -14 8 -8 4 6 11 13 16 18 5 4 2 7 -7 7 -10 0
-17 -8 -17 -17z"/>
<path d="M5120 4673 c0 -10 -3 -29 -5 -43 -5 -22 -3 -21 9 5 18 36 20 55 6 55
-5 0 -10 -8 -10 -17z"/>
<path d="M5155 4660 c-4 -17 -5 -34 -2 -36 3 -3 8 9 12 26 4 17 5 34 2 36 -3
3 -8 -9 -12 -26z"/>
<path d="M4312 4650 c0 -19 2 -27 5 -17 2 9 2 25 0 35 -3 9 -5 1 -5 -18z"/>
<path d="M5321 4657 c-17 -42 -13 -67 5 -28 8 19 13 39 10 45 -2 6 -9 -2 -15
-17z"/>
<path d="M5905 4660 c-3 -5 -1 -10 4 -10 6 0 11 5 11 10 0 6 -2 10 -4 10 -3 0
-8 -4 -11 -10z"/>
<path d="M8440 4666 c0 -2 7 -6 15 -10 8 -3 15 -1 15 4 0 6 -7 10 -15 10 -8 0
-15 -2 -15 -4z"/>
<path d="M5241 4644 c0 -11 3 -14 6 -6 3 7 2 16 -1 19 -3 4 -6 -2 -5 -13z"/>
<path d="M4115 4610 c-3 -5 -1 -10 4 -10 6 0 11 5 11 10 0 6 -2 10 -4 10 -3 0
-8 -4 -11 -10z"/>
<path d="M4322 4590 c0 -14 2 -19 5 -12 2 6 2 18 0 25 -3 6 -5 1 -5 -13z"/>
<path d="M5290 4586 c0 -8 4 -17 9 -20 5 -4 7 3 4 14 -6 23 -13 26 -13 6z"/>
<path d="M5102 4555 c0 -16 2 -22 5 -12 2 9 2 23 0 30 -3 6 -5 -1 -5 -18z"/>
<path d="M5645 4538 l-40 -43 43 40 c39 36 47 45 39 45 -2 0 -21 -19 -42 -42z"/>
<path d="M5553 4558 c-23 -30 -24 -41 -2 -21 12 12 20 25 17 28 -3 3 -10 0
-15 -7z"/>
<path d="M5266 4525 c-9 -26 -7 -32 5 -12 6 10 9 21 6 23 -2 3 -7 -2 -11 -11z"/>
<path d="M5287 4511 c-4 -17 -3 -21 5 -13 5 5 8 16 6 23 -3 8 -7 3 -11 -10z"/>
<path d="M5246 4473 c-6 -14 -5 -15 5 -6 7 7 10 15 7 18 -3 3 -9 -2 -12 -12z"/>
<path d="M4493 4415 c0 -27 2 -38 4 -22 2 15 2 37 0 50 -2 12 -4 0 -4 -28z"/>
<path d="M5195 4409 c-4 -6 -5 -12 -2 -15 2 -3 7 2 10 11 7 17 1 20 -8 4z"/>
<path d="M5379 4398 c-7 -12 -19 -33 -27 -45 -8 -13 -12 -23 -9 -23 8 0 59 82
54 87 -3 2 -11 -6 -18 -19z"/>
<path d="M4483 4275 c0 -22 2 -30 4 -17 2 12 2 30 0 40 -3 9 -5 -1 -4 -23z"/>
<path d="M4450 3778 c0 -7 4 -29 10 -48 6 -20 6 -38 1 -43 -6 -6 -4 -24 4 -46
26 -76 38 -151 24 -167 -8 -10 -15 -11 -24 -4 -9 8 -14 6 -18 -4 -9 -23 12
-30 33 -11 17 16 19 15 30 -5 11 -21 40 -108 40 -122 0 -5 -9 -8 -20 -8 -27 0
-60 35 -60 63 0 30 -15 51 -29 42 -9 -5 -9 -10 0 -21 7 -9 8 -18 2 -26 -5 -7
-9 -22 -8 -33 1 -11 2 -35 3 -52 2 -26 7 -34 27 -38 14 -3 37 -7 51 -11 22 -4
25 -2 20 11 -3 9 -1 26 6 38 11 22 12 22 24 -8 16 -36 19 -78 4 -55 -12 20
-19 10 -22 -33 -2 -29 -7 -36 -19 -32 -19 6 -35 -27 -44 -98 l-6 -48 33 6 c39
7 37 17 37 -142 0 -57 -4 -115 -9 -129 -6 -15 -10 -64 -9 -111 1 -46 -1 -87
-4 -90 -13 -13 15 -44 36 -41 20 3 22 9 23 78 0 86 10 155 26 188 9 17 20 22
47 22 20 0 41 -4 47 -8 13 -8 34 -138 24 -149 -4 -5 -4 -33 -1 -63 5 -47 9
-55 29 -58 28 -4 30 1 37 133 5 103 9 117 38 128 15 5 38 110 27 121 -6 6 -10
18 -10 28 0 14 -4 13 -25 -8 -34 -33 -45 -23 -43 37 2 47 4 50 28 48 43 -2 45
0 47 55 2 45 -1 58 -22 80 -14 16 -30 23 -39 20 -9 -3 -16 -1 -16 5 0 6 4 11
9 11 5 0 9 6 8 13 -1 36 6 44 48 55 37 10 48 19 65 52 38 74 41 88 23 105 -14
15 -17 14 -35 -12 -11 -15 -23 -38 -28 -50 -5 -13 -15 -23 -22 -23 -36 1 -35
17 13 135 26 66 55 149 64 185 10 36 22 75 28 87 6 13 7 26 4 29 -4 4 -11 -4
-15 -17 -8 -21 -15 -23 -72 -24 -56 0 -63 -2 -66 -21 -3 -18 3 -23 30 -28 37
-7 66 0 66 17 0 6 2 8 5 5 3 -2 1 -18 -4 -34 -5 -16 -14 -49 -21 -74 -13 -48
-37 -122 -50 -155 -28 -73 -27 -72 -58 -67 -27 4 -30 7 -29 39 1 39 -29 73
-64 73 -32 0 -61 -38 -57 -74 3 -31 2 -32 -30 -32 -32 1 -34 3 -52 66 -15 50
-50 230 -50 260 0 3 28 4 62 3 35 -1 53 1 41 4 -32 6 -29 23 5 23 48 1 2 18
-58 21 -42 3 -54 1 -52 -9 1 -8 -2 -11 -8 -7 -5 3 -10 17 -10 30 0 13 -4 27
-10 30 -5 3 -10 0 -10 -7z m449 -72 c-12 -10 -79 -16 -79 -6 0 5 19 10 42 10
23 0 39 -2 37 -4z m-27 -428 c-11 -11 -32 -3 -32 12 0 4 9 6 21 3 13 -4 17 -9
11 -15z m-220 -31 c-2 -19 1 -27 11 -27 13 0 13 -4 4 -25 -15 -32 -29 -32 -21
-1 4 19 1 26 -16 31 -14 4 -19 12 -16 22 3 8 6 19 6 25 0 5 8 8 18 6 12 -2 16
-11 14 -31z m99 -104 c-8 -15 -10 -15 -11 -2 0 17 10 32 18 25 2 -3 -1 -13 -7
-23z m-71 -43 c0 -5 -8 -10 -17 -10 -15 0 -16 2 -3 10 19 12 20 12 20 0z m-13
-272 c-3 -8 -6 -5 -6 6 -1 11 2 17 5 13 3 -3 4 -12 1 -19z m-77 -38 c0 -5 -4
-10 -10 -10 -5 0 -10 5 -10 10 0 6 5 10 10 10 6 0 10 -4 10 -10z"/>
<path d="M4660 3760 c0 -6 23 -10 52 -10 62 0 60 5 -4 13 -29 4 -48 3 -48 -3z"/>
<path d="M4818 3743 c6 -2 18 -2 25 0 6 3 1 5 -13 5 -14 0 -19 -2 -12 -5z"/>
<path d="M4703 3683 c9 -2 23 -2 30 0 6 3 -1 5 -18 5 -16 0 -22 -2 -12 -5z"/>
<path d="M4932 3487 c-10 -12 -9 -16 4 -21 10 -4 14 -13 11 -26 -3 -13 0 -20
9 -20 16 0 16 4 0 49 -10 28 -14 31 -24 18z"/>
<path d="M4400 3415 c0 -8 5 -15 10 -15 6 0 10 7 10 15 0 8 -4 15 -10 15 -5 0
-10 -7 -10 -15z"/>
<path d="M725 1550 c-19 -7 -19 -7 1 -18 12 -6 24 -8 28 -5 3 3 6 -3 6 -13 0
-25 55 -80 64 -65 4 6 3 11 -2 11 -4 0 -18 17 -30 39 -28 49 -42 60 -67 51z"/>
<path d="M3066 1413 c-4 -9 -2 -21 4 -27 7 -7 10 -6 10 3 0 8 7 10 20 6 16 -5
20 -2 20 14 0 26 -45 29 -54 4z"/>
<path d="M2403 1348 c-28 -14 -29 -24 -3 -31 11 -3 20 -10 20 -15 0 -6 -9 -14
-20 -17 -11 -3 -20 -11 -20 -16 0 -5 -7 -9 -16 -9 -10 0 -14 -6 -10 -15 3 -8
2 -16 -2 -16 -12 -3 -66 -9 -82 -10 -18 -2 -86 8 -110 16 -63 20 -155 22 -177
4 -10 -9 -17 -9 -21 -2 -18 27 -187 38 -217 13 -12 -10 -16 -8 -25 14 -5 15
-17 26 -27 25 -17 -1 -17 -2 0 -6 9 -2 17 -9 17 -14 0 -11 -27 -12 -34 -1 -2
4 -32 7 -65 5 -34 -1 -61 1 -61 6 0 4 -56 7 -125 6 -69 -1 -125 3 -125 7 0 5
-38 6 -85 2 -62 -5 -85 -4 -85 5 0 11 -29 8 -70 -6 -22 -7 15 -21 60 -22 26
-1 31 -4 20 -11 -11 -7 -11 -10 -2 -10 7 0 10 -5 7 -10 -5 -8 -11 -7 -20 0 -8
7 -19 9 -24 6 -5 -4 -13 -2 -16 4 -4 6 -14 10 -23 9 -23 -4 -62 10 -62 22 0
13 -44 11 -58 -3 -9 -9 -16 -8 -29 4 -10 8 -27 18 -38 23 -28 10 -175 16 -175
6 0 -16 49 -60 72 -65 12 -3 68 -7 123 -10 55 -3 116 -8 135 -11 113 -16 132
-16 146 2 13 17 14 17 8 1 -5 -16 1 -18 44 -18 27 0 65 -3 83 -6 25 -4 30 -3
19 4 -8 6 -18 8 -22 6 -4 -3 -8 1 -8 9 0 10 8 13 25 9 14 -2 25 -11 25 -18 0
-17 1 -17 37 -2 15 6 32 10 38 9 5 -1 48 -3 95 -3 96 0 140 -6 140 -18 0 -5
-60 -7 -132 -5 -99 2 -125 0 -103 -7 17 -5 107 -11 200 -11 94 -1 157 -4 140
-7 l-30 -6 30 -6 c17 -4 33 -2 37 5 7 11 74 11 246 1 82 -5 92 -4 92 11 0 11
-7 16 -22 15 -37 -3 -50 -1 -44 9 4 5 23 5 48 -1 24 -5 51 -7 61 -4 15 4 18 0
15 -18 -4 -22 0 -24 46 -30 78 -9 138 -7 131 4 -3 5 -1 18 5 27 11 17 11 16 5
-1 -3 -11 0 -23 7 -28 20 -12 28 -9 22 10 -5 15 -4 16 8 1 7 -9 36 -19 68 -23
183 -21 168 -21 175 6 4 14 5 40 3 56 -2 17 0 30 3 29 3 -1 13 4 23 12 9 8 19
11 23 8 3 -4 12 1 20 11 14 16 14 16 9 0 -3 -11 0 -18 8 -18 19 0 26 -23 26
-80 0 -45 2 -49 28 -54 47 -11 267 -14 278 -4 8 5 17 3 27 -7 20 -19 37 -19
37 0 0 8 5 15 10 15 6 0 10 -8 8 -17 -2 -14 5 -19 35 -21 27 -2 37 1 37 12 0
8 8 16 18 18 31 6 72 -4 72 -18 0 -9 11 -14 30 -14 20 0 30 5 30 15 0 8 5 15
10 15 6 0 10 -7 10 -15 0 -19 56 -21 64 -2 3 8 8 7 16 -5 9 -15 25 -18 85 -18
54 0 75 4 75 13 0 9 12 11 40 9 26 -3 40 -9 40 -18 0 -14 14 -16 115 -20 121
-4 112 -1 118 -41 4 -20 2 -43 -3 -52 -8 -14 -9 -13 -10 4 0 11 -4 16 -8 10
-4 -6 -20 -15 -36 -20 -16 -6 -31 -16 -34 -22 -5 -18 25 -16 32 2 7 19 36 20
36 1 0 -8 7 -16 15 -20 9 -3 15 0 15 10 0 8 10 25 21 37 17 17 21 18 16 5 -5
-13 -1 -18 13 -18 13 0 17 -5 14 -14 -4 -10 1 -14 14 -13 20 1 20 1 1 29 -14
20 -17 33 -11 44 5 9 7 26 4 37 -5 18 -2 19 25 14 22 -4 37 -1 52 12 28 25 15
34 -21 15 -35 -18 -44 -14 -28 16 10 18 9 22 -9 27 -32 8 -14 23 26 23 41 0
40 8 -2 16 -15 3 -33 6 -39 7 -6 1 -17 8 -26 16 -13 13 -15 12 -18 -5 -7 -40
-12 -48 -24 -36 -7 7 -24 12 -38 12 -20 0 -28 7 -35 32 -6 17 -16 33 -22 36
-20 6 -16 -39 5 -55 15 -13 11 -14 -35 -9 -29 3 -53 2 -53 -3 0 -4 -14 -8 -30
-8 -18 0 -29 5 -27 11 2 6 -4 23 -14 37 -14 20 -24 25 -48 21 -27 -4 -31 -8
-31 -36 -1 -26 -2 -29 -13 -15 -7 9 -18 14 -26 11 -7 -2 -17 2 -22 9 -5 8 -9
10 -9 4 0 -5 -15 -11 -32 -11 -62 -3 -93 -9 -100 -19 -4 -5 -10 -2 -14 8 -3 9
-15 17 -25 17 -13 0 -19 7 -20 23 -1 17 -2 18 -6 4 -2 -10 -10 -17 -16 -16 -7
1 -20 -1 -30 -6 -10 -4 -28 -3 -40 2 -14 7 -32 7 -50 0 -20 -6 -32 -6 -40 2
-6 6 -15 11 -21 11 -6 0 -5 -5 2 -12 14 -14 16 -38 3 -38 -5 0 -12 16 -15 36
l-7 36 -26 -26 c-14 -14 -31 -26 -37 -26 -6 0 -4 5 4 10 11 7 1 9 -32 6 -47
-4 -48 -3 -48 24 0 16 5 32 10 35 6 3 10 -3 10 -14 0 -16 6 -21 28 -21 15 0
34 5 42 11 13 9 12 10 -2 5 -13 -4 -18 0 -18 13 0 26 -66 45 -124 37 -25 -4
-61 -4 -80 -1 -32 7 -35 9 -29 36 7 35 -4 38 -17 5 -11 -29 -40 -29 -51 0 -4
10 -8 14 -8 9 -1 -6 -9 -11 -18 -12 -10 -1 -27 -3 -37 -5 -10 -2 -21 3 -23 10
-3 6 3 12 13 12 9 0 15 3 11 6 -3 3 -21 0 -41 -7 -33 -12 -38 -11 -62 12 -25
23 -26 23 -20 3 6 -21 4 -21 -66 -19 -41 2 -74 8 -76 14 -2 6 -10 11 -18 11
-8 0 -14 5 -14 10 0 12 -8 12 -37 -2z m127 -82 c0 -2 -7 -6 -15 -10 -8 -3 -15
-1 -15 4 0 6 7 10 15 10 8 0 15 -2 15 -4z m-755 -26 c3 -6 -1 -13 -10 -16 -19
-8 -30 0 -20 15 8 14 22 14 30 1z m1165 -35 c0 -11 12 -15 43 -16 23 -1 34 -3
25 -6 -10 -2 -18 -8 -18 -13 0 -12 -104 26 -108 39 -2 6 9 11 27 11 21 0 31
-5 31 -15z m-886 -15 c-6 -6 -19 -7 -30 -3 -17 6 -17 8 6 13 29 8 38 4 24 -10z
m971 -30 c3 -5 20 -10 36 -10 20 0 29 -4 27 -12 -7 -20 -44 -21 -62 -3 -9 9
-16 12 -16 6 0 -6 -7 -11 -15 -11 -13 0 -13 3 -3 20 14 22 24 25 33 10z m-135
-39 c0 -5 -16 -9 -35 -9 -19 0 -35 4 -35 9 0 5 16 9 35 9 19 0 35 -4 35 -9z
m60 5 c0 -2 -11 -6 -25 -8 -14 -3 -25 -1 -25 3 0 5 11 9 25 9 14 0 25 -2 25
-4z m1020 -6 c0 -5 -9 -10 -20 -10 -11 0 -20 5 -20 10 0 6 9 10 20 10 11 0 20
-4 20 -10z m90 -30 c0 -5 -9 -10 -19 -10 -11 0 -26 -6 -33 -13 -7 -7 -19 -12
-25 -11 -7 1 -19 2 -25 3 -7 1 -1 7 14 15 46 24 88 32 88 16z m-200 -23 c0 -9
-10 -12 -30 -9 -16 2 -30 8 -30 13 0 5 14 9 30 9 18 0 30 -5 30 -13z"/>
<path d="M2677 1343 c-4 -3 -7 -11 -7 -17 0 -6 5 -5 12 2 6 6 9 14 7 17 -3 3
-9 2 -12 -2z"/>
<path d="M3080 1300 c0 -40 13 -53 24 -24 11 29 7 64 -9 64 -11 0 -15 -11 -15
-40z"/>
<path d="M3278 1273 c6 -2 18 -2 25 0 6 3 1 5 -13 5 -14 0 -19 -2 -12 -5z"/>
<path d="M3515 1260 c3 -5 8 -10 11 -10 2 0 4 5 4 10 0 6 -5 10 -11 10 -5 0
-7 -4 -4 -10z"/>
<path d="M3740 1261 c0 -17 18 -21 24 -6 3 9 0 15 -9 15 -8 0 -15 -4 -15 -9z"/>
<path d="M3952 1249 c2 -6 8 -10 13 -10 5 0 11 4 13 10 2 6 -4 11 -13 11 -9 0
-15 -5 -13 -11z"/>
<path d="M3550 1189 c0 -5 5 -7 10 -4 6 3 10 8 10 11 0 2 -4 4 -10 4 -5 0 -10
-5 -10 -11z"/>
<path d="M2160 1170 c0 -5 5 -10 10 -10 6 0 10 5 10 10 0 6 -4 10 -10 10 -5 0
-10 -4 -10 -10z"/>
<path d="M1908 1153 c7 -3 16 -2 19 1 4 3 -2 6 -13 5 -11 0 -14 -3 -6 -6z"/>
<path d="M1953 1143 c9 -2 23 -2 30 0 6 3 -1 5 -18 5 -16 0 -22 -2 -12 -5z"/>
<path d="M4225 1140 c-4 -6 3 -10 14 -10 25 0 27 6 6 13 -8 4 -17 2 -20 -3z"/>
<path d="M2678 1111 c-4 -27 -2 -29 34 -35 22 -4 43 -4 49 -1 17 11 -11 45
-36 45 -14 0 -25 5 -25 10 0 23 -18 8 -22 -19z"/>
<path d="M1620 1120 c0 -5 5 -10 11 -10 5 0 7 5 4 10 -3 6 -8 10 -11 10 -2 0
-4 -4 -4 -10z"/>
<path d="M2333 1123 c9 -2 25 -2 35 0 9 3 1 5 -18 5 -19 0 -27 -2 -17 -5z"/>
<path d="M4490 1115 l-25 -14 28 -1 c17 0 27 5 27 15 0 18 1 18 -30 0z"/>
<path d="M1905 1110 c-3 -5 1 -10 10 -10 9 0 13 5 10 10 -3 6 -8 10 -10 10 -2
0 -7 -4 -10 -10z"/>
<path d="M921 1106 c21 -18 48 -24 57 -13 8 9 2 12 -25 14 -19 1 -33 0 -32 -1z"/>
<path d="M1010 1093 c0 -7 7 -13 15 -13 8 0 15 6 15 13 0 8 -7 14 -15 14 -8 0
-15 -6 -15 -14z"/>
<path d="M1056 1095 c-3 -8 -1 -15 4 -15 13 0 22 18 11 24 -5 3 -11 -1 -15 -9z"/>
<path d="M1115 1099 c-16 -6 -14 -8 13 -8 33 -1 41 4 20 12 -7 2 -22 1 -33 -4z"/>
<path d="M2596 1095 c-19 -15 -19 -15 1 -15 11 0 26 7 33 15 17 20 -7 20 -34
0z"/>
<path d="M4146 1102 c-3 -6 3 -12 15 -15 12 -3 19 -1 16 6 -5 15 -24 20 -31 9z"/>
<path d="M4373 1093 c15 -2 37 -2 50 0 12 2 0 4 -28 4 -27 0 -38 -2 -22 -4z"/>
<path d="M1410 1081 c0 -10 26 -9 36 2 4 4 -2 7 -14 7 -12 0 -22 -4 -22 -9z"/>
<path d="M1876 1081 c-5 -7 -3 -18 3 -24 14 -14 20 -6 11 17 -5 15 -9 16 -14
7z"/>
<path d="M4204 1082 c14 -6 16 -11 8 -16 -21 -13 -13 -26 16 -26 23 1 25 2 11
13 -9 7 -16 17 -17 22 -1 6 -9 11 -19 12 -16 3 -15 2 1 -5z"/>
<path d="M2780 1070 c0 -5 9 -10 20 -10 11 0 20 5 20 10 0 6 -9 10 -20 10 -11
0 -20 -4 -20 -10z"/>
<path d="M4283 1063 c-19 -7 -16 -20 6 -26 14 -3 17 0 14 14 -3 11 -6 19 -7
18 0 0 -7 -3 -13 -6z"/>
<path d="M4348 1063 c-9 -2 -19 -10 -21 -17 -4 -9 1 -12 13 -9 10 3 21 11 24
19 3 8 4 13 3 13 -1 -1 -9 -3 -19 -6z"/>
<path d="M4385 1060 c-3 -5 -2 -10 4 -10 5 0 13 5 16 10 3 6 2 10 -4 10 -5 0
-13 -4 -16 -10z"/>
<path d="M920 1056 c0 -9 40 -13 46 -5 3 5 -6 9 -20 9 -14 0 -26 -2 -26 -4z"/>
<path d="M1218 1047 c24 -7 36 -7 44 1 9 9 1 12 -32 11 l-45 -1 33 -11z"/>
<path d="M1110 1040 c0 -5 5 -10 11 -10 5 0 7 5 4 10 -3 6 -8 10 -11 10 -2 0
-4 -4 -4 -10z"/>
<path d="M2187 1039 c7 -7 15 -10 18 -7 3 3 -2 9 -12 12 -14 6 -15 5 -6 -5z"/>
<path d="M3258 1023 c12 -2 30 -2 40 0 9 3 -1 5 -23 4 -22 0 -30 -2 -17 -4z"/>
<path d="M3450 1011 c0 -10 30 -24 37 -17 3 3 2 9 -2 15 -8 13 -35 15 -35 2z"/>
<path d="M3516 1008 c6 -10 84 -11 84 0 0 4 -20 7 -45 8 -24 0 -42 -3 -39 -8z"/>
<path d="M3535 950 c-20 -22 -7 -32 22 -17 17 10 18 14 8 24 -10 9 -17 8 -30
-7z"/>
<path d="M2087 949 c7 -7 15 -10 18 -7 3 3 -2 9 -12 12 -14 6 -15 5 -6 -5z"/>
<path d="M2120 946 c0 -8 5 -18 10 -21 6 -3 10 1 10 9 0 8 -4 18 -10 21 -5 3
-10 -1 -10 -9z"/>
<path d="M3613 943 c4 -3 -1 -12 -11 -19 -15 -12 -9 -13 43 -13 l60 -1 -44 20
c-45 21 -59 25 -48 13z"/>
<path d="M3465 930 c3 -5 8 -10 11 -10 2 0 4 5 4 10 0 6 -5 10 -11 10 -5 0 -7
-4 -4 -10z"/>
<path d="M3840 929 c0 -5 5 -7 10 -4 6 3 10 8 10 11 0 2 -4 4 -10 4 -5 0 -10
-5 -10 -11z"/>
<path d="M1500 919 c0 -5 5 -7 10 -4 6 3 10 8 10 11 0 2 -4 4 -10 4 -5 0 -10
-5 -10 -11z"/>
<path d="M1560 910 c0 -5 5 -10 11 -10 5 0 7 5 4 10 -3 6 -8 10 -11 10 -2 0
-4 -4 -4 -10z"/>
<path d="M1180 896 c0 -13 -6 -15 -25 -10 -16 4 -25 2 -25 -6 0 -7 6 -10 13
-7 6 2 23 0 37 -5 43 -17 80 -15 86 5 3 10 3 21 0 24 -3 4 -6 1 -6 -6 0 -10
-7 -8 -27 4 -25 17 -26 17 -19 -1 7 -17 6 -17 -14 1 -18 16 -20 16 -20 1z"/>
<path d="M2445 890 c-3 -5 -2 -10 4 -10 5 0 13 5 16 10 3 6 2 10 -4 10 -5 0
-13 -4 -16 -10z"/>
<path d="M2529 891 c7 -5 11 -13 7 -19 -6 -10 23 -26 32 -17 3 3 0 5 -6 5 -7
0 -12 9 -12 20 0 12 -7 20 -17 20 -14 0 -15 -2 -4 -9z"/>
<path d="M2310 886 c0 -2 7 -7 16 -10 8 -3 12 -2 9 4 -6 10 -25 14 -25 6z"/>
<path d="M3370 879 c0 -5 5 -7 10 -4 6 3 10 8 10 11 0 2 -4 4 -10 4 -5 0 -10
-5 -10 -11z"/>
<path d="M1281 857 c-13 -19 -12 -21 1 -10 8 7 18 9 22 5 4 -4 17 -8 29 -9 77
-7 110 -12 115 -17 3 -3 0 -6 -6 -6 -7 0 -12 -4 -12 -9 0 -6 9 -9 19 -8 11 1
17 6 14 14 -3 9 0 11 10 7 8 -3 18 0 22 6 6 9 10 9 16 -1 7 -11 9 -10 9 3 0
23 -20 34 -31 17 -6 -10 -11 -11 -16 -3 -8 11 -22 13 -117 14 -28 0 -53 5 -56
10 -3 5 -12 -1 -19 -13z"/>
<path d="M2776 867 c3 -10 9 -15 12 -12 3 3 0 11 -7 18 -10 9 -11 8 -5 -6z"/>
<path d="M1685 857 c-7 -18 -61 -21 -72 -4 -2 4 -11 3 -19 -4 -11 -9 -18 -9
-26 -1 -17 17 -33 15 -18 -3 14 -17 50 -20 50 -4 0 6 7 4 15 -5 8 -8 13 -20
12 -28 -2 -7 -2 -10 0 -5 3 4 10 4 15 1 7 -5 8 -2 3 6 -8 13 -7 13 78 -5 11
-3 17 2 17 16 0 21 -20 27 -20 7 -1 -7 -7 1 -14 17 -12 25 -15 27 -21 12z"/>
<path d="M2250 866 c0 -2 9 -6 20 -9 11 -3 18 -1 14 4 -5 9 -34 13 -34 5z"/>
<path d="M3520 855 c-10 -12 -10 -15 4 -15 9 0 16 7 16 15 0 8 -2 15 -4 15 -2
0 -9 -7 -16 -15z"/>
<path d="M3796 861 c-4 -5 -2 -12 3 -15 5 -4 12 -2 15 3 4 5 2 12 -3 15 -5 4
-12 2 -15 -3z"/>
<path d="M1967 825 c-9 -19 -13 -35 -8 -35 5 0 16 -3 24 -6 20 -7 26 16 12 49
l-11 27 -17 -35z"/>
<path d="M2310 849 c0 -5 5 -9 11 -9 6 0 17 -7 26 -16 12 -11 13 -18 4 -27 -8
-8 -11 -8 -11 1 0 18 -14 15 -27 -6 -10 -17 -7 -18 43 -16 50 3 54 1 54 -19 1
-20 2 -20 11 -4 5 9 19 17 31 17 17 0 18 3 8 14 -6 8 -17 13 -24 10 -7 -3 -25
0 -40 6 -25 9 -27 12 -15 28 12 15 12 16 -2 4 -14 -10 -18 -10 -22 1 -6 16
-47 30 -47 16z"/>
<path d="M2420 849 c0 -5 5 -7 10 -4 6 3 10 8 10 11 0 2 -4 4 -10 4 -5 0 -10
-5 -10 -11z"/>
<path d="M3725 850 c7 -12 32 -13 39 -2 2 4 -7 9 -20 10 -15 1 -22 -2 -19 -8z"/>
<path d="M1803 818 c5 -18 39 -16 44 2 4 13 3 13 -6 0 -7 -10 -11 -11 -11 -2
0 6 -7 12 -16 12 -9 0 -14 -6 -11 -12z"/>
<path d="M1885 820 c-3 -5 -2 -10 4 -10 5 0 13 5 16 10 3 6 2 10 -4 10 -5 0
-13 -4 -16 -10z"/>
<path d="M1909 803 c-8 -15 -15 -19 -19 -12 -10 15 -42 8 -48 -11 -5 -13 -3
-13 13 0 11 9 16 10 11 2 -5 -8 -2 -11 11 -8 44 10 61 19 66 35 6 26 -19 21
-34 -6z"/>
<path d="M2027 823 c-4 -3 -7 -11 -7 -16 0 -6 3 -7 7 -4 3 4 12 2 20 -5 18
-15 29 -2 13 17 -14 16 -23 19 -33 8z"/>
<path d="M2264 810 c0 -21 22 -35 31 -19 4 5 0 16 -9 24 -19 20 -22 19 -22 -5z"/>
<path d="M2745 820 c-3 -5 -1 -10 4 -10 6 0 11 5 11 10 0 6 -2 10 -4 10 -3 0
-8 -4 -11 -10z"/>
<path d="M2960 815 c-11 -13 -9 -15 15 -15 16 0 25 5 23 12 -7 19 -24 20 -38
3z"/>
<path d="M2115 811 c-11 -5 -29 -19 -40 -31 l-20 -23 22 7 c17 6 22 4 18 -7
-4 -8 1 -14 10 -14 9 0 14 6 10 14 -19 46 -19 46 -3 40 10 -3 19 0 22 9 3 8 4
14 3 13 -1 0 -11 -4 -22 -8z"/>
<path d="M1360 804 c0 -7 27 -34 34 -34 4 0 1 9 -6 20 -12 19 -28 27 -28 14z"/>
<path d="M1524 798 c-3 -5 -3 -12 0 -15 10 -10 76 -14 76 -5 0 13 -69 32 -76
20z"/>
<path d="M2210 788 c-1 -22 -1 -23 -15 -4 -8 11 -15 14 -15 8 0 -7 -8 -12 -18
-12 -13 0 -22 -12 -30 -39 -14 -46 -15 -61 -2 -41 8 12 10 10 10 -8 0 -18 -4
-22 -19 -17 -11 3 -22 1 -26 -5 -6 -10 7 -14 33 -11 6 1 12 -3 12 -10 0 -6 10
1 21 16 13 16 18 30 12 33 -6 4 -16 18 -23 31 -10 21 -10 23 3 18 8 -3 19 -1
25 5 13 13 35 0 28 -18 -6 -16 10 -28 25 -18 8 4 7 9 -2 16 -9 6 -10 11 -3 14
12 5 6 64 -7 64 -5 0 -9 -10 -9 -22z"/>
<path d="M2494 781 c20 -22 26 -25 26 -13 0 4 -10 13 -22 21 -23 14 -23 14 -4
-8z"/>
<path d="M3085 790 c-3 -5 -1 -10 4 -10 6 0 11 5 11 10 0 6 -2 10 -4 10 -3 0
-8 -4 -11 -10z"/>
<path d="M1283 783 c-22 -8 -14 -30 12 -36 19 -3 29 1 36 16 7 13 7 17 1 13
-6 -3 -13 -2 -17 4 -7 11 -13 11 -32 3z"/>
<path d="M2540 768 c0 -13 5 -30 10 -38 7 -11 8 -6 4 18 -4 21 -3 32 5 32 6 0
11 -7 11 -17 0 -9 3 -13 7 -10 3 4 12 2 19 -4 9 -8 11 -5 7 10 -4 16 -29 30
-55 31 -5 0 -8 -10 -8 -22z"/>
<path d="M2627 783 c-25 -6 -11 -23 19 -23 15 0 24 5 22 12 -5 14 -17 17 -41
11z"/>
<path d="M2690 771 c0 -11 39 -26 47 -17 8 8 3 12 -24 20 -13 4 -23 3 -23 -3z"/>
<path d="M3680 776 c0 -3 9 -10 20 -16 11 -6 20 -8 20 -6 0 3 -9 10 -20 16
-11 6 -20 8 -20 6z"/>
<path d="M1423 753 c-3 -10 -8 -22 -11 -28 -3 -5 4 -1 16 9 24 20 28 36 12 36
-6 0 -13 -8 -17 -17z"/>
<path d="M1950 760 c0 -5 6 -10 14 -10 8 0 18 5 21 10 3 6 -3 10 -14 10 -12 0
-21 -4 -21 -10z"/>
<path d="M2258 745 c-4 -20 -3 -23 8 -14 16 13 19 39 5 39 -5 0 -11 -11 -13
-25z"/>
<path d="M2731 744 c-13 -13 -21 -30 -18 -39 4 -8 1 -14 -6 -12 -7 1 -12 -5
-12 -13 0 -10 8 -14 24 -12 18 3 22 0 18 -12 -4 -9 -2 -16 3 -16 6 0 10 10 10
23 0 12 4 17 8 11 12 -17 39 -23 39 -9 0 8 -5 13 -11 12 -6 -1 -10 4 -8 11 1
8 -2 11 -8 7 -5 -3 -10 -1 -10 6 0 7 10 9 24 7 17 -3 23 -1 19 8 -3 8 2 11 16
7 11 -3 22 -12 24 -22 4 -13 5 -13 6 3 1 11 6 16 15 13 10 -4 12 0 9 14 -7 24
-20 33 -28 19 -5 -8 -13 -6 -26 6 -18 16 -19 16 -26 -2 -8 -22 -24 -35 -35
-28 -15 9 -8 23 8 17 11 -4 15 -2 12 7 -7 21 -21 20 -47 -6z"/>
<path d="M1513 739 c-1 -12 1 -19 4 -15 3 3 13 0 21 -7 11 -9 11 -4 -2 16 -22
32 -21 32 -23 6z"/>
<path d="M1832 751 c-10 -6 -10 -10 3 -21 14 -11 19 -10 38 8 l21 22 -24 0
c-14 0 -31 -4 -38 -9z"/>
<path d="M2889 744 c-6 -8 -6 -14 0 -18 5 -3 12 0 14 6 4 9 6 8 6 -2 1 -10 11
-15 30 -15 18 0 26 4 21 10 -5 6 -10 14 -12 19 -5 14 -48 14 -59 0z"/>
<path d="M1570 727 c-12 -21 -12 -21 6 -7 10 8 20 15 22 16 2 1 -1 4 -5 7 -5
3 -15 -4 -23 -16z"/>
<path d="M2435 741 c-4 -7 -3 -16 2 -20 6 -3 13 -13 16 -21 5 -13 5 -13 6 0 0
8 -4 24 -8 34 -6 15 -10 16 -16 7z"/>
<path d="M2511 745 c1 -19 18 -51 18 -35 0 8 -4 22 -9 30 -5 8 -9 11 -9 5z"/>
<path d="M2986 736 c4 -10 12 -15 19 -13 6 3 17 -4 24 -15 10 -17 8 -23 -14
-46 -23 -23 -29 -24 -46 -13 -15 8 -24 9 -33 2 -7 -6 -16 -8 -19 -4 -4 3 -7 1
-7 -5 0 -7 -4 -12 -10 -12 -17 0 1 28 23 36 40 13 68 12 63 -2 -3 -8 -1 -14 3
-14 12 0 21 25 13 36 -11 16 -62 15 -68 -1 -4 -8 -13 -15 -20 -15 -8 0 -17 -7
-20 -15 -4 -8 -14 -15 -23 -16 -9 0 0 -7 19 -14 47 -18 50 -18 50 5 0 11 5 20
10 20 6 0 10 -6 9 -12 -4 -36 3 -46 34 -51 18 -2 35 0 39 7 4 6 7 2 6 -9 -1
-11 2 -31 6 -45 7 -20 6 -23 -5 -12 -18 17 -32 15 -25 -4 3 -9 2 -12 -5 -8 -6
3 -8 17 -4 32 l6 26 -19 -25 c-13 -16 -17 -28 -11 -35 12 -15 58 -24 65 -13 3
5 15 2 28 -6 12 -8 26 -12 29 -8 4 3 14 -2 22 -13 15 -19 15 -19 8 0 -4 13 -3
17 5 12 18 -11 15 5 -5 26 -23 25 -3 47 21 22 9 -9 20 -14 23 -10 4 3 -2 13
-13 20 -14 11 -16 17 -7 26 14 15 33 5 33 -18 0 -12 3 -13 12 -4 9 9 8 16 -8
30 -23 22 -50 18 -57 -9 -3 -10 -10 -19 -17 -19 -7 0 -9 8 -5 21 5 14 3 19 -3
15 -6 -4 -19 5 -28 19 -9 13 -20 22 -25 19 -5 -3 -9 -1 -9 5 0 5 8 12 18 14
16 4 16 5 0 6 -18 1 -26 21 -9 21 23 0 16 28 -13 47 -47 33 -68 39 -60 19z
m41 -118 c-3 -8 -6 -5 -6 6 -1 11 2 17 5 13 3 -3 4 -12 1 -19z m-22 -8 c-3 -5
-12 -7 -20 -3 -21 7 -19 13 6 13 11 0 18 -4 14 -10z m86 -53 c14 -10 15 -16 4
-30 -14 -20 -29 -23 -22 -4 2 6 -2 20 -11 30 -12 14 -13 17 -1 17 8 0 21 -6
30 -13z"/>
<path d="M3055 740 c-3 -6 1 -13 10 -16 19 -8 30 0 20 15 -8 14 -22 14 -30 1z"/>
<path d="M3120 730 c0 -11 5 -20 10 -20 6 0 10 9 10 20 0 11 -4 20 -10 20 -5
0 -10 -9 -10 -20z"/>
<path d="M3155 723 c-12 -18 -14 -28 -7 -31 8 -2 7 -8 -3 -18 -8 -8 -12 -21
-8 -30 5 -14 15 -13 63 4 12 5 11 2 -2 -11 -20 -20 -16 -37 12 -55 26 -16 25
-8 -2 19 l-23 22 28 -7 c17 -4 27 -2 27 4 0 6 -4 8 -10 5 -5 -3 -10 -2 -10 3
0 5 11 10 24 10 16 0 23 -5 19 -14 -3 -9 4 -12 24 -10 15 1 34 -2 41 -7 8 -6
12 -6 12 2 0 6 5 11 10 11 6 0 3 -11 -7 -24 -10 -13 -21 -22 -26 -19 -4 2 -20
6 -35 9 -19 3 -23 2 -12 -5 8 -5 17 -8 21 -5 4 2 9 -6 13 -18 4 -18 8 -20 18
-10 6 6 21 12 31 12 16 0 17 3 8 14 -14 17 -2 27 27 21 25 -4 118 40 103 50
-6 3 -15 3 -21 0 -5 -3 -10 1 -10 9 0 18 13 20 40 6 16 -8 18 -8 14 5 -3 8 -9
13 -13 11 -4 -3 -20 4 -37 15 -31 20 -94 26 -94 9 0 -6 9 -20 20 -32 10 -12
16 -26 13 -31 -4 -6 -11 -1 -16 12 -6 12 -16 20 -24 17 -7 -3 -13 1 -13 11 0
12 -3 13 -14 4 -12 -10 -17 -8 -26 8 -11 21 -40 29 -40 11 0 -5 7 -10 16 -10
17 0 15 -21 -4 -28 -6 -2 -16 15 -23 37 -15 49 -29 52 -48 11 -14 -32 -34 -35
-39 -7 -3 12 1 15 13 11 13 -5 16 -2 14 11 -6 29 -25 28 -44 -2z m85 -40 c0
-5 -5 -15 -10 -23 -7 -12 -9 -10 -7 8 1 19 17 33 17 15z m100 -33 c0 -5 -4
-10 -10 -10 -5 0 -10 5 -10 10 0 6 5 10 10 10 6 0 10 -4 10 -10z m110 -20 c8
-5 11 -10 5 -10 -5 0 -17 5 -25 10 -8 5 -10 10 -5 10 6 0 17 -5 25 -10z"/>
<path d="M1450 729 c0 -5 5 -7 10 -4 6 3 10 8 10 11 0 2 -4 4 -10 4 -5 0 -10
-5 -10 -11z"/>
<path d="M1616 728 c3 -5 14 -6 25 -3 22 7 25 -5 7 -24 -7 -8 0 -6 15 4 15 10
25 20 22 24 -10 9 -75 8 -69 -1z"/>
<path d="M2670 733 c0 -4 5 -15 10 -23 8 -13 10 -13 10 2 0 9 -4 20 -10 23 -5
3 -10 3 -10 -2z"/>
<path d="M2283 716 c4 -9 0 -12 -13 -9 -10 3 -20 0 -24 -5 -3 -6 9 -9 29 -9
19 1 35 2 35 3 0 12 -14 34 -22 34 -6 0 -8 -6 -5 -14z"/>
<path d="M2360 720 c0 -5 5 -10 11 -10 5 0 7 5 4 10 -3 6 -8 10 -11 10 -2 0
-4 -4 -4 -10z"/>
<path d="M2635 710 c-10 -11 -16 -22 -13 -25 3 -3 13 6 22 20 20 30 16 32 -9
5z"/>
<path d="M3320 715 c0 -8 2 -15 4 -15 2 0 6 7 10 15 3 8 1 15 -4 15 -6 0 -10
-7 -10 -15z"/>
<path d="M3467 713 c12 -2 34 -18 48 -35 30 -36 35 -34 24 8 -8 27 -12 30 -51
31 -24 0 -33 -1 -21 -4z"/>
<path d="M2087 699 c7 -7 15 -10 18 -7 3 3 -2 9 -12 12 -14 6 -15 5 -6 -5z"/>
<path d="M2415 700 c3 -5 8 -10 11 -10 2 0 4 5 4 10 0 6 -5 10 -11 10 -5 0 -7
-4 -4 -10z"/>
<path d="M2480 701 c0 -10 19 -25 25 -20 1 2 -3 10 -11 17 -8 7 -14 8 -14 3z"/>
<path d="M1980 688 c0 -6 8 -20 17 -30 14 -15 14 -21 3 -31 -10 -10 -12 -9 -7
6 4 10 3 16 -2 12 -5 -3 -12 1 -15 7 -3 7 -3 1 0 -14 5 -21 2 -28 -10 -28 -9
0 -16 -4 -16 -10 0 -5 7 -10 15 -10 8 0 15 4 15 9 0 5 9 13 20 16 25 8 29 70
4 79 -22 8 -24 8 -24 -6z"/>
<path d="M2195 679 c-6 -17 -2 -26 16 -40 27 -20 32 -19 23 5 -3 9 -14 16 -23
16 -14 0 -14 2 -1 10 11 7 12 12 3 21 -8 8 -13 5 -18 -12z"/>
<path d="M3093 688 c-11 -18 -12 -67 -2 -74 5 -3 9 0 9 7 0 8 4 8 15 -1 13
-10 15 -9 15 9 0 11 -4 21 -9 21 -4 0 -7 11 -6 25 3 27 -9 33 -22 13z"/>
<path d="M3577 684 c5 -13 43 -7 43 7 0 5 -11 8 -24 7 -14 -1 -22 -7 -19 -14z"/>
<path d="M1405 681 c-3 -5 -1 -12 5 -16 5 -3 10 1 10 9 0 18 -6 21 -15 7z"/>
<path d="M1567 679 c7 -7 15 -10 18 -7 3 3 -2 9 -12 12 -14 6 -15 5 -6 -5z"/>
<path d="M2550 677 c0 -5 8 -7 18 -5 21 5 51 -26 47 -50 -1 -9 0 -11 2 -4 3 8
13 11 26 7 21 -5 21 -5 2 6 -12 5 -25 20 -30 32 -7 15 -19 22 -37 22 -16 1
-28 -3 -28 -8z"/>
<path d="M2657 684 c-7 -8 14 -54 25 -54 5 0 4 9 -2 20 -6 11 -8 25 -5 30 7
11 -8 14 -18 4z"/>
<path d="M1435 670 c3 -5 8 -10 11 -10 2 0 4 5 4 10 0 6 -5 10 -11 10 -5 0 -7
-4 -4 -10z"/>
<path d="M1460 670 c0 -5 5 -10 10 -10 6 0 10 5 10 10 0 6 -4 10 -10 10 -5 0
-10 -4 -10 -10z"/>
<path d="M1618 673 c7 -3 16 -2 19 1 4 3 -2 6 -13 5 -11 0 -14 -3 -6 -6z"/>
<path d="M1818 662 c-4 -14 -2 -20 5 -15 6 4 8 0 5 -9 -4 -8 -1 -15 6 -15 6 0
12 8 12 18 0 10 -3 16 -7 13 -4 -2 -9 4 -11 13 -3 15 -5 14 -10 -5z"/>
<path d="M1940 659 c0 -11 4 -18 10 -14 5 3 7 12 3 20 -7 21 -13 19 -13 -6z"/>
<path d="M2030 674 c0 -16 30 -54 43 -54 8 0 9 3 1 8 -5 4 -18 18 -27 32 -9
13 -17 20 -17 14z"/>
<path d="M2280 660 c0 -7 -7 -10 -15 -6 -8 3 -15 1 -15 -5 0 -14 39 -70 59
-85 15 -12 9 -44 -8 -44 -6 0 -8 6 -5 13 4 10 -3 12 -26 9 -16 -2 -33 -9 -36
-14 -4 -6 1 -8 13 -4 11 3 33 0 49 -8 16 -8 42 -18 57 -22 l28 -7 -25 28 c-14
15 -26 31 -26 35 0 16 28 30 46 23 16 -6 17 -5 6 9 -16 20 2 34 19 15 15 -15
75 -1 83 20 3 7 2 12 -2 12 -22 -4 -32 3 -33 24 l0 22 -9 -22 c-9 -23 -30 -32
-30 -13 0 6 -4 10 -10 10 -5 0 -9 -5 -7 -11 1 -6 -4 -14 -12 -17 -10 -3 -12 0
-8 12 4 9 3 14 -2 11 -5 -3 -13 0 -17 6 -4 7 -12 -1 -21 -20 -15 -30 -33 -42
-33 -21 0 6 4 10 9 10 5 0 12 7 15 16 5 12 1 14 -15 9 -14 -5 -19 -3 -15 3 3
6 2 13 -4 17 -5 3 -10 1 -10 -5z m0 -30 c0 -5 -2 -10 -4 -10 -3 0 -8 5 -11 10
-3 6 -1 10 4 10 6 0 11 -4 11 -10z m59 -41 c-22 -14 -33 -10 -19 6 7 8 17 12
22 9 6 -4 5 -10 -3 -15z"/>
<path d="M1640 650 c0 -5 5 -10 11 -10 5 0 7 5 4 10 -3 6 -8 10 -11 10 -2 0
-4 -4 -4 -10z"/>
<path d="M2565 638 c-14 -21 -14 -23 0 -26 9 -2 14 -11 13 -19 -2 -9 2 -18 9
-20 8 -3 9 6 3 31 -5 23 -4 36 3 39 8 2 8 5 0 10 -7 4 -19 -3 -28 -15z"/>
<path d="M1480 640 c-12 -8 -11 -10 6 -10 11 0 25 -5 32 -12 9 -9 15 -9 25 1
10 10 9 11 -4 6 -10 -4 -19 0 -22 9 -7 18 -16 20 -37 6z"/>
<path d="M2516 641 c-4 -7 -5 -15 -2 -18 9 -9 19 4 14 18 -4 11 -6 11 -12 0z"/>
<path d="M2809 633 c-13 -16 -12 -17 4 -4 16 13 21 21 13 21 -2 0 -10 -8 -17
-17z"/>
<path d="M1906 625 c4 -8 10 -12 15 -9 11 6 2 24 -11 24 -5 0 -7 -7 -4 -15z"/>
<path d="M2090 630 c0 -5 5 -10 11 -10 5 0 7 5 4 10 -3 6 -8 10 -11 10 -2 0
-4 -4 -4 -10z"/>
<path d="M1630 628 c0 -2 9 -11 20 -21 11 -9 20 -13 20 -7 0 5 -9 14 -20 20
-11 6 -20 9 -20 8z"/>
<path d="M1695 619 c-9 -13 0 -22 25 -26 19 -3 19 -2 3 17 -20 23 -20 23 -28
9z"/>
<path d="M1760 615 c0 -8 5 -15 10 -15 6 0 10 5 10 11 0 6 7 3 16 -5 17 -17
49 -22 39 -6 -3 6 -13 10 -21 10 -8 0 -14 5 -14 10 0 6 -9 10 -20 10 -11 0
-20 -7 -20 -15z"/>
<path d="M2704 618 c-3 -5 -12 -7 -20 -4 -9 4 -18 -3 -23 -16 -5 -14 -10 -18
-15 -10 -7 13 -26 7 -26 -7 0 -16 44 -4 51 15 7 18 8 18 8 0 1 -10 9 -25 19
-33 16 -13 15 -14 -6 -10 -19 4 -21 3 -12 -8 7 -8 9 -19 6 -24 -4 -5 -2 -12 4
-16 5 -3 10 2 10 11 0 14 3 15 12 6 15 -15 38 -16 38 -2 0 6 -8 10 -17 10 -15
0 -16 2 -3 10 21 14 28 12 33 -7 4 -15 5 -15 6 2 1 14 8 20 26 20 14 0 25 -5
25 -12 0 -6 8 -9 19 -6 12 3 17 11 14 19 -3 8 0 14 6 14 6 0 11 5 11 11 0 8
-4 8 -15 -1 -8 -7 -32 -10 -55 -8 -22 2 -42 -1 -44 -7 -3 -5 -5 -5 -5 2 -1 7
-7 10 -15 7 -7 -3 -16 1 -18 8 -4 10 4 12 33 10 35 -4 39 -2 39 18 0 19 -2 20
-15 10 -8 -7 -15 -8 -15 -2 0 12 -48 13 -56 0z"/>
<path d="M2832 618 c5 -15 28 -23 28 -10 0 5 -7 13 -16 16 -10 4 -14 1 -12 -6z"/>
<path d="M1610 611 c0 -5 -3 -16 -6 -25 -4 -10 -1 -16 10 -16 10 0 13 5 9 17
-5 12 -3 14 8 8 12 -8 12 -6 0 8 -15 19 -21 21 -21 8z"/>
<path d="M2163 613 c-18 -7 -16 -23 2 -23 8 0 15 7 15 15 0 8 -1 15 -2 14 -2
0 -9 -3 -15 -6z"/>
<path d="M2063 597 c-13 -5 -23 -14 -23 -19 0 -4 10 -8 23 -8 18 0 19 2 7 11
-12 9 -11 10 8 6 12 -3 22 -1 22 3 0 15 -14 18 -37 7z"/>
<path d="M2810 600 c0 -5 5 -10 11 -10 5 0 7 5 4 10 -3 6 -8 10 -11 10 -2 0
-4 -4 -4 -10z"/>
<path d="M2896 601 c-3 -5 1 -11 9 -15 9 -3 15 0 15 9 0 16 -16 20 -24 6z"/>
<path d="M2186 563 c-6 -14 -5 -15 5 -6 7 7 10 15 7 18 -3 3 -9 -2 -12 -12z"/>
<path d="M2527 573 c-12 -11 -8 -23 7 -23 8 0 16 7 20 15 5 15 -14 21 -27 8z"/>
<path d="M2886 554 c-4 -15 -3 -31 3 -37 5 -5 7 -15 5 -22 -3 -7 2 -15 10 -18
16 -6 12 16 -8 42 -7 10 -6 17 8 26 10 8 15 18 11 24 -11 18 -23 12 -29 -15z"/>
<path d="M1640 556 c0 -17 32 -15 38 2 2 7 -6 12 -17 12 -12 0 -21 -6 -21 -14z"/>
<path d="M1690 559 c0 -3 10 -19 22 -34 19 -25 25 -27 70 -21 47 7 49 6 38
-14 -8 -15 -8 -20 3 -20 7 0 18 5 24 11 8 8 14 5 23 -11 19 -36 22 -16 4 23
-10 20 -21 34 -25 31 -4 -2 -17 5 -28 17 -23 25 -44 17 -36 -14 5 -17 4 -18
-4 -8 -7 11 -13 12 -23 3 -8 -6 -19 -7 -27 -3 -9 6 -7 10 8 14 36 9 26 35 -14
34 -19 -1 -35 -4 -35 -8z m125 -37 c-8 -8 -25 10 -19 20 4 6 9 5 15 -3 4 -7 6
-15 4 -17z"/>
<path d="M2250 559 c0 -5 5 -7 10 -4 6 3 10 8 10 11 0 2 -4 4 -10 4 -5 0 -10
-5 -10 -11z"/>
<path d="M2413 551 c-23 -19 -29 -31 -15 -31 4 0 15 12 25 25 21 30 19 31 -10
6z"/>
<path d="M2041 544 c0 -11 3 -14 6 -6 3 7 2 16 -1 19 -3 4 -6 -2 -5 -13z"/>
<path d="M2943 553 c-7 -2 -13 -9 -13 -15 0 -7 5 -7 13 1 8 6 17 8 20 4 4 -3
7 -1 7 5 0 13 -7 14 -27 5z"/>
<path d="M3270 545 c0 -8 5 -15 10 -15 6 0 10 7 10 15 0 8 -4 15 -10 15 -5 0
-10 -7 -10 -15z"/>
<path d="M1928 530 c-21 -23 -33 -60 -19 -60 6 0 11 6 11 13 0 7 3 8 8 2 12
-17 40 -14 37 4 -3 20 14 43 26 35 5 -3 9 1 9 9 0 20 -52 18 -72 -3z m42 0 c0
-5 -4 -10 -10 -10 -5 0 -10 5 -10 10 0 6 5 10 10 10 6 0 10 -4 10 -10z m-20
-31 c0 -6 -4 -7 -10 -4 -5 3 -10 11 -10 16 0 6 5 7 10 4 6 -3 10 -11 10 -16z"/>
<path d="M2074 531 c11 -11 28 -21 40 -21 18 0 18 2 6 14 -8 8 -26 17 -40 21
-25 8 -25 8 -6 -14z"/>
<path d="M2636 535 c4 -8 10 -15 15 -15 4 0 6 7 3 15 -4 8 -10 15 -15 15 -4 0
-6 -7 -3 -15z"/>
<path d="M2453 533 c-7 -3 -13 -10 -13 -16 0 -8 3 -8 11 0 9 9 15 8 25 -2 19
-19 17 -25 -7 -25 -11 0 -17 -5 -14 -10 4 -6 10 -8 15 -5 4 3 12 -1 18 -8 11
-13 12 -17 12 -43 0 -13 3 -14 13 -5 8 6 17 8 20 4 4 -3 7 1 7 11 0 13 -5 16
-21 11 -16 -5 -19 -4 -14 5 4 7 1 16 -6 21 -9 6 -10 12 -4 17 6 4 11 18 13 32
1 19 0 21 -7 11 -7 -11 -13 -12 -23 -4 -7 6 -19 8 -25 6z"/>
<path d="M2150 515 c-14 -16 -10 -18 14 -9 9 3 16 10 16 15 0 14 -16 11 -30
-6z"/>
<path d="M2793 510 c1 -12 7 -18 14 -16 7 3 13 0 13 -7 0 -8 4 -6 10 3 14 22
12 30 -5 24 -8 -4 -15 -1 -15 5 0 6 -4 11 -9 11 -6 0 -9 -9 -8 -20z"/>
<path d="M3183 515 c-9 -24 4 -30 33 -15 23 13 24 15 7 21 -27 11 -33 10 -40
-6z"/>
<path d="M2003 495 c-6 -14 -7 -23 -2 -19 5 3 9 1 9 -4 0 -15 29 -9 47 10 16
18 16 18 0 12 -11 -4 -19 0 -23 10 -9 22 -17 20 -31 -9z"/>
<path d="M2256 512 c-3 -6 -1 -14 5 -17 15 -10 25 3 12 16 -7 7 -13 7 -17 1z"/>
<path d="M2535 500 c-4 -6 -1 -10 5 -10 6 0 8 -5 4 -11 -4 -7 -1 -10 6 -7 8 2
15 9 17 15 5 14 -25 25 -32 13z"/>
<path d="M2614 493 c-8 -8 -18 -12 -24 -8 -6 3 -7 -1 -4 -9 7 -17 24 -22 24
-7 0 5 18 8 40 6 34 -3 39 -1 31 13 -11 20 -49 23 -67 5z"/>
<path d="M3161 494 c0 -11 3 -14 6 -6 3 7 2 16 -1 19 -3 4 -6 -2 -5 -13z"/>
<path d="M2705 491 c-3 -5 0 -13 6 -17 7 -4 9 -3 5 4 -3 5 0 13 6 15 9 4 10 6
1 6 -6 1 -14 -3 -18 -8z"/>
<path d="M2098 483 c7 -3 16 -2 19 1 4 3 -2 6 -13 5 -11 0 -14 -3 -6 -6z"/>
<path d="M2163 483 c9 -2 15 -8 12 -13 -3 -5 -13 -6 -21 -3 -13 5 -15 1 -9
-16 4 -15 1 -29 -11 -42 -9 -10 -12 -19 -6 -19 6 0 14 5 17 11 5 6 11 4 19 -6
14 -19 43 -11 49 13 2 10 0 28 -5 40 -4 13 -6 27 -4 30 2 4 -10 8 -27 8 -18 1
-24 -1 -14 -3z"/>
<path d="M2234 475 c2 -7 2 -16 -1 -19 -3 -3 -7 -22 -8 -43 -1 -21 0 -32 2
-25 4 9 9 10 17 3 9 -8 26 -5 57 9 64 30 74 37 72 49 -2 6 4 11 13 11 8 0 12
4 9 10 -12 19 -55 7 -61 -17 -3 -12 -12 -27 -20 -33 -10 -9 -16 -4 -27 23 -9
19 -24 37 -37 40 -15 4 -20 2 -16 -8z m126 -35 c0 -5 -4 -10 -10 -10 -5 0 -10
5 -10 10 0 6 5 10 10 10 6 0 10 -4 10 -10z m-90 -30 c0 -5 -4 -10 -10 -10 -5
0 -10 5 -10 10 0 6 5 10 10 10 6 0 10 -4 10 -10z"/>
<path d="M2765 470 c-8 -13 3 -68 16 -76 5 -3 12 3 16 12 4 10 2 19 -4 21 -5
2 -8 15 -5 28 4 25 -11 34 -23 15z"/>
<path d="M2066 461 c-4 -5 -1 -21 5 -35 9 -20 15 -23 25 -15 7 6 18 8 23 5 5
-4 12 -2 15 3 4 5 1 13 -5 16 -5 4 -8 13 -5 21 3 8 0 11 -10 7 -7 -3 -14 -10
-14 -17 0 -6 -7 -3 -14 7 -8 10 -17 14 -20 8z"/>
<path d="M2727 464 c-8 -8 1 -24 12 -24 4 0 8 7 8 15 0 16 -9 20 -20 9z"/>
<path d="M2803 453 c0 -10 6 -27 13 -38 12 -17 14 -17 14 -2 0 9 -5 17 -12 17
-13 0 -2 14 13 16 22 3 23 5 9 14 -23 15 -37 12 -37 -7z"/>
<path d="M2946 462 c-3 -4 4 -9 15 -9 23 -2 25 3 4 10 -8 4 -16 3 -19 -1z"/>
<path d="M2990 461 c0 -6 4 -13 10 -16 6 -3 7 1 4 9 -7 18 -14 21 -14 7z"/>
<path d="M3020 455 c0 -8 4 -15 10 -15 5 0 7 7 4 15 -4 8 -8 15 -10 15 -2 0
-4 -7 -4 -15z"/>
<path d="M2441 438 c-14 -23 -14 -31 2 -25 17 6 47 -11 47 -27 0 -9 9 -13 25
-11 31 3 40 11 26 20 -6 3 -11 1 -11 -4 0 -6 -5 -11 -11 -11 -5 0 -7 5 -4 10
3 6 0 10 -7 10 -15 0 -41 37 -34 49 3 4 -1 8 -8 8 -7 0 -18 -9 -25 -19z"/>
<path d="M1965 440 c-3 -5 1 -10 9 -10 9 0 16 5 16 10 0 6 -4 10 -9 10 -6 0
-13 -4 -16 -10z"/>
<path d="M2410 434 c0 -8 5 -12 10 -9 6 3 10 10 10 16 0 5 -4 9 -10 9 -5 0
-10 -7 -10 -16z"/>
<path d="M2000 430 c0 -5 5 -10 11 -10 5 0 7 5 4 10 -3 6 -8 10 -11 10 -2 0
-4 -4 -4 -10z"/>
<path d="M2610 433 c0 -4 9 -19 20 -33 17 -21 21 -23 30 -10 9 13 11 13 20 0
7 -11 12 -12 21 -3 17 17 3 30 -29 25 -18 -2 -35 2 -45 13 -10 9 -17 13 -17 8z"/>
<path d="M2640 436 c0 -2 7 -7 16 -10 8 -3 12 -2 9 4 -6 10 -25 14 -25 6z"/>
<path d="M2560 421 c0 -5 9 -12 19 -16 11 -3 18 -12 15 -19 -3 -7 2 -13 11
-13 19 0 19 2 -1 32 -16 24 -44 34 -44 16z"/>
<path d="M2742 410 c7 -11 16 -20 19 -20 4 0 5 9 2 20 -3 11 -12 20 -19 20
-12 0 -12 -4 -2 -20z"/>
<path d="M2370 404 c-19 -21 -3 -35 25 -22 14 6 25 14 25 18 0 15 -39 18 -50
4z"/>
<path d="M2330 390 c0 -5 5 -10 10 -10 6 0 10 5 10 10 0 6 -4 10 -10 10 -5 0
-10 -4 -10 -10z"/>
<path d="M2448 393 c-10 -2 -18 -9 -18 -14 0 -13 13 -11 36 6 19 14 14 17 -18
8z"/>
</g>
</svg>
