<?xml version="1.0" standalone="no"?>
<!DOCTYPE svg PUBLIC "-//W3C//DTD SVG 20010904//EN"
 "http://www.w3.org/TR/2001/REC-SVG-20010904/DTD/svg10.dtd">
<svg version="1.0" xmlns="http://www.w3.org/2000/svg"
 width="1080.000000pt" height="892.000000pt" viewBox="0 0 1080.000000 892.000000"
 preserveAspectRatio="xMidYMid meet">

<g transform="translate(0.000000,892.000000) scale(0.100000,-0.100000)"
fill="#000000" stroke="none">
<path d="M6220 8569 c-25 -5 -85 -14 -135 -20 -209 -24 -342 -64 -555 -166
-175 -84 -335 -187 -459 -296 -66 -59 -94 -77 -133 -86 -107 -24 -230 -8 -308
40 -14 9 -65 41 -115 71 -249 155 -698 311 -986 344 -32 4 -59 4 -59 0 0 -4 6
-22 14 -41 13 -31 20 -35 65 -41 44 -6 56 -13 93 -55 90 -100 122 -138 130
-153 6 -11 26 -15 80 -15 40 0 79 4 88 9 28 15 82 -37 86 -83 5 -64 55 -127
75 -96 10 16 48 -8 96 -62 45 -50 89 -70 121 -56 18 8 25 8 32 -3 11 -18 3
-31 -15 -23 -8 3 -15 0 -15 -6 0 -6 -7 -11 -16 -11 -13 0 -14 -3 -4 -15 6 -8
9 -19 5 -25 -3 -5 -1 -10 4 -10 6 0 11 -12 11 -28 0 -26 32 -67 44 -55 3 3 8
-2 12 -11 3 -9 17 -16 30 -16 17 0 22 4 18 15 -5 11 -2 13 10 9 18 -7 23 -74
6 -74 -5 0 -10 -7 -10 -15 0 -10 10 -15 30 -15 23 0 30 -5 30 -19 0 -32 39
-89 76 -111 19 -12 35 -27 35 -33 1 -7 2 -19 3 -27 0 -8 9 -16 18 -18 17 -3
209 -191 258 -252 l28 -36 -44 -73 c-24 -40 -44 -75 -44 -77 0 -3 11 -2 25 2
18 4 25 2 25 -8 0 -8 -11 -25 -25 -38 -28 -27 -32 -40 -10 -40 29 0 14 -16
-25 -26 -37 -10 -39 -10 -29 8 17 31 6 41 -21 20 -30 -23 -76 -39 -66 -23 4 6
12 11 17 11 16 0 41 29 35 39 -3 5 3 11 13 14 11 2 29 23 40 46 l21 41 -31 0
c-25 0 -42 11 -84 55 -30 30 -59 55 -66 55 -13 0 -49 -38 -49 -52 0 -13 21
-33 43 -41 23 -9 22 -27 -3 -27 -11 0 -20 -7 -20 -15 0 -8 3 -15 8 -15 4 0 20
-16 35 -35 l28 -35 -26 -12 c-18 -8 -25 -18 -22 -30 3 -10 1 -21 -4 -24 -5 -3
-9 -10 -9 -16 0 -6 8 -4 19 6 10 9 25 14 35 10 9 -3 23 -1 31 6 26 21 28 3 6
-43 -11 -24 -21 -53 -21 -65 0 -25 28 -41 39 -23 5 7 8 0 9 -18 0 -17 -4 -34
-10 -37 -6 -4 -8 2 -4 17 6 22 6 23 -7 7 -17 -22 -27 -23 -27 -3 0 12 -3 13
-19 3 -16 -10 -23 -7 -43 17 -20 22 -28 26 -44 18 -10 -6 -36 -11 -56 -11 -29
-1 -38 3 -38 15 0 9 -18 31 -40 50 -22 19 -40 41 -40 50 0 11 -6 14 -22 9 -13
-3 -27 -6 -33 -6 -12 0 29 -29 70 -50 30 -15 33 -38 5 -32 -8 1 -56 4 -107 5
-79 3 -96 6 -116 25 -13 12 -36 22 -51 22 -20 0 -38 11 -61 36 -32 35 -34 36
-70 24 -27 -9 -52 -9 -98 -1 -34 5 -82 13 -107 16 -25 3 -61 15 -80 27 -23 13
-53 21 -86 22 -45 0 -53 4 -67 28 -9 16 -25 28 -37 28 -11 0 -20 5 -20 10 0
19 -37 10 -60 -15 -13 -14 -29 -25 -37 -25 -22 0 -14 25 14 42 l27 16 -33 19
c-18 10 -40 24 -49 31 -16 13 -16 13 1 8 12 -4 17 0 17 12 0 27 -43 96 -67
108 -16 7 -19 14 -12 21 12 12 -4 53 -21 53 -5 0 -34 33 -63 73 -30 41 -67 83
-81 94 -14 12 -26 27 -26 35 0 31 -25 69 -42 64 -27 -7 -32 13 -6 24 35 14 58
35 58 52 0 9 -16 50 -35 92 -19 42 -55 133 -81 203 -25 70 -50 136 -56 146 -9
18 -11 18 -32 -2 -12 -12 -28 -21 -34 -21 -21 0 -25 30 -8 49 16 17 16 22 -4
77 -11 32 -20 68 -20 81 0 12 -6 40 -14 60 -12 35 -25 85 -42 172 -6 33 -7 33
-48 28 -136 -18 -416 -98 -550 -157 l-49 -22 7 -87 c9 -113 34 -283 51 -346 7
-27 19 -84 25 -125 7 -41 18 -102 25 -135 8 -33 25 -125 40 -205 22 -123 30
-148 50 -165 19 -16 27 -36 34 -90 13 -85 39 -178 76 -265 30 -73 39 -88 142
-253 41 -64 82 -137 92 -160 26 -60 72 -97 187 -147 54 -24 205 -94 334 -155
129 -62 281 -129 337 -150 89 -33 100 -39 87 -52 -22 -23 -7 -33 49 -33 47 0
49 1 31 15 -18 14 -17 15 11 9 17 -3 53 -16 80 -29 64 -30 236 -103 342 -145
45 -18 90 -38 100 -45 16 -12 15 -13 -10 -8 -28 5 -35 -5 -17 -23 14 -14 -6
-31 -40 -38 -37 -7 -100 -35 -100 -45 0 -4 9 -16 20 -26 l21 -19 -26 -14 c-14
-7 -34 -10 -44 -7 -23 7 -61 -37 -61 -70 0 -33 -27 -50 -78 -48 -37 1 -45 -2
-49 -18 -6 -21 -17 -21 -135 -3 -24 4 -38 2 -38 -5 0 -6 -6 -11 -14 -11 -23 0
-27 -29 -6 -50 23 -23 41 -25 58 -8 9 9 12 7 12 -10 0 -12 9 -26 20 -32 11 -6
20 -8 20 -5 0 3 9 1 21 -6 15 -7 18 -14 11 -21 -21 -21 9 -57 65 -78 30 -11
62 -20 71 -20 21 0 92 -47 92 -60 0 -6 0 -13 0 -17 0 -20 -119 11 -168 45 -43
29 -80 42 -120 42 -20 0 -60 11 -89 24 -43 20 -236 66 -277 66 -7 0 -21 -6
-31 -14 -18 -13 -17 -15 27 -37 34 -16 45 -26 38 -34 -6 -7 -21 -10 -35 -8
-48 10 -72 -47 -27 -64 23 -9 24 -11 7 -13 -55 -6 -144 -2 -175 8 l-35 11 48
-3 c46 -3 47 -2 43 23 -2 14 -5 31 -5 38 -1 6 -22 15 -47 19 -38 5 -49 3 -68
-15 -12 -11 -27 -21 -32 -21 -18 0 -90 -39 -74 -40 8 -1 2 -6 -15 -11 -23 -7
-34 -5 -50 10 -17 16 -129 51 -163 51 -6 0 -45 16 -87 36 -81 38 -105 66 -29
33 45 -19 48 -19 68 -2 12 10 22 18 24 19 1 1 0 7 -3 15 -3 9 -19 13 -48 12
-26 -1 -54 6 -73 18 -18 11 -39 16 -48 13 -16 -6 -16 -8 1 -26 17 -18 16 -19
-11 -9 -41 16 -59 14 -99 -13 l-36 -25 -45 37 c-65 54 -231 142 -267 142 -22
0 -41 -12 -74 -44 -24 -25 -47 -41 -49 -37 -3 4 6 19 19 31 33 31 31 48 -7 65
-39 16 -51 11 -43 -18 5 -17 4 -19 -4 -7 -6 8 -11 23 -11 33 0 13 -6 17 -21
15 -22 -3 -33 17 -79 139 -8 20 -22 35 -41 42 -16 5 -29 15 -29 20 0 6 -14 26
-31 46 -28 32 -36 35 -85 35 -51 0 -54 2 -54 24 0 56 66 76 97 29 23 -35 101
-113 112 -113 5 0 14 14 20 30 10 29 12 30 75 30 36 0 67 4 71 9 3 6 -7 9 -21
8 -32 -2 -45 22 -16 30 11 2 22 14 25 25 5 16 13 19 54 16 43 -3 48 -5 46 -26
-3 -26 37 -47 74 -37 13 3 33 -1 47 -10 22 -15 24 -14 29 5 3 13 -6 34 -27 60
-24 31 -31 48 -28 73 3 23 -2 38 -17 51 -15 14 -21 31 -21 62 0 24 -4 45 -9
48 -10 7 -3 82 11 109 5 10 13 15 17 12 5 -2 23 0 40 6 24 8 35 8 47 -1 12
-11 19 -10 39 0 17 9 45 11 93 7 54 -5 72 -4 81 7 7 9 42 17 87 21 41 4 74 11
74 15 0 18 -33 40 -59 40 -34 0 -97 47 -105 77 -7 24 -19 30 -98 43 -29 5 -67
12 -84 15 -24 5 -37 1 -61 -19 -28 -24 -34 -25 -79 -16 -77 15 -173 19 -181 7
-8 -14 25 -37 54 -37 14 0 23 -6 23 -15 0 -16 -2 -17 -65 -21 -22 -2 -49 -4
-60 -6 -26 -4 -35 41 -11 54 9 5 16 22 16 38 0 20 5 30 15 30 27 0 16 18 -40
66 -38 33 -52 51 -45 58 8 8 1 19 -22 39 -18 16 -25 26 -16 23 21 -6 71 42 63
62 -2 6 -1 12 4 12 5 0 12 11 15 24 6 25 -33 96 -69 126 -9 8 -23 26 -31 42
-8 15 -28 35 -44 43 -17 9 -30 22 -30 30 0 18 5 18 32 4 14 -8 23 -8 31 0 17
17 42 13 62 -9 17 -19 92 -46 101 -37 2 2 -9 22 -26 45 -16 23 -30 45 -30 49
0 5 -15 15 -33 24 -17 9 -37 26 -43 38 -15 30 -65 81 -79 81 -6 0 -24 13 -40
30 -25 26 -26 31 -14 47 8 10 18 21 23 25 19 13 -24 56 -71 72 -36 13 -57 28
-83 63 -50 68 -62 78 -86 75 -17 -2 -28 7 -45 39 -27 47 -59 72 -66 52 -7 -20
-53 -16 -55 5 0 9 -2 29 -3 45 -1 15 -4 29 -6 30 -55 39 -80 45 -99 22 -10
-12 -10 -18 -1 -29 10 -12 9 -13 -8 -9 -23 6 -64 -33 -172 -163 -92 -111 -176
-229 -221 -314 -19 -36 -53 -99 -76 -140 -117 -217 -248 -632 -277 -881 -19
-162 -29 -375 -21 -441 6 -45 11 -57 32 -66 16 -8 24 -20 24 -36 0 -14 7 -40
16 -58 14 -30 20 -33 62 -34 26 -1 50 4 54 9 5 8 13 6 25 -5 10 -9 30 -15 46
-13 18 2 36 -4 48 -16 24 -24 61 -26 52 -3 -3 8 -12 13 -20 9 -11 -3 -13 -1
-9 10 3 8 1 15 -4 15 -6 0 -10 7 -10 15 0 8 4 15 9 15 4 0 6 11 3 25 -3 16 2
33 12 44 9 10 16 22 15 27 -4 21 2 24 24 12 12 -7 25 -11 28 -11 4 1 9 -10 12
-25 3 -15 16 -43 30 -62 17 -26 21 -39 13 -47 -6 -6 -22 -23 -35 -38 -13 -14
-29 -24 -35 -22 -14 5 -19 -30 -6 -38 4 -3 20 -1 33 4 36 14 52 -7 31 -38 -15
-21 -15 -24 5 -44 12 -13 18 -31 16 -42 -4 -15 7 -29 38 -52 24 -18 49 -33 54
-33 6 0 16 -7 23 -15 18 -21 40 -19 40 4 0 29 18 36 40 16 13 -12 18 -25 14
-41 -4 -16 0 -25 15 -34 28 -14 44 -4 38 26 -5 29 9 32 18 4 3 -10 21 -28 40
-40 29 -18 33 -26 29 -48 -7 -32 25 -78 63 -93 13 -5 21 -14 18 -19 -8 -13 48
-70 69 -70 8 0 40 9 70 21 41 15 60 17 74 10 29 -15 161 -41 212 -41 26 0 51
5 58 12 9 9 12 9 12 -1 0 -8 11 -11 32 -9 30 3 33 0 38 -27 7 -43 66 -70 135
-60 71 9 107 7 119 -6 8 -9 1 -10 -27 -6 -28 4 -37 3 -33 -6 3 -7 9 -20 12
-29 4 -12 17 -18 34 -18 16 0 36 -3 46 -7 11 -4 15 -3 11 4 -14 23 77 1 95
-23 10 -12 33 -26 51 -30 34 -7 85 -42 129 -86 14 -16 37 -28 50 -28 15 0 58
-28 114 -74 50 -40 113 -86 140 -102 27 -15 69 -41 94 -58 132 -90 284 -169
410 -214 47 -16 127 -49 178 -73 l93 -42 62 14 c62 15 62 15 112 -13 38 -20
70 -29 125 -33 77 -6 130 -17 305 -61 168 -43 179 -46 220 -69 22 -13 74 -33
115 -45 68 -20 153 -51 189 -69 16 -8 81 -106 107 -161 9 -19 22 -48 30 -63 9
-18 14 -61 14 -114 l0 -86 53 -52 c66 -67 157 -179 157 -197 1 -7 15 -42 33
-77 25 -50 46 -75 96 -113 35 -27 76 -52 92 -55 15 -3 36 -14 45 -24 12 -14
31 -19 64 -19 35 0 52 -5 66 -21 10 -11 33 -27 51 -34 27 -11 33 -20 33 -43 0
-45 18 -53 98 -46 l70 7 88 -51 c49 -28 139 -72 199 -97 61 -26 171 -75 245
-110 74 -35 169 -73 210 -85 41 -13 86 -27 99 -32 23 -8 23 -9 5 -29 -14 -15
-16 -25 -8 -46 15 -43 77 -41 178 7 45 20 133 60 196 88 63 27 165 74 225 102
61 29 160 75 220 102 61 27 130 62 155 77 25 16 70 36 100 46 30 9 127 52 216
96 89 43 197 94 240 113 98 42 190 85 412 192 96 46 177 84 180 84 3 0 63 27
132 59 69 33 166 78 215 101 50 24 153 74 230 113 77 39 163 82 190 95 28 14
66 38 85 53 19 16 80 64 135 108 181 143 326 309 495 567 64 98 163 307 182
383 6 25 16 55 21 66 10 18 17 48 33 140 3 17 12 44 19 61 8 16 17 50 20 75 5
38 4 41 -7 25 -33 -49 -56 -68 -88 -75 -25 -5 -35 -13 -36 -26 -3 -34 -44
-114 -64 -125 -10 -5 -30 -10 -44 -10 l-26 0 35 -45 c35 -47 65 -127 65 -175
0 -54 -50 -90 -187 -134 -49 -16 -54 -16 -79 0 -17 12 -48 18 -93 18 -94 2
-149 35 -187 111 -23 47 -26 64 -21 111 4 43 2 56 -9 61 -20 8 -17 30 7 47 35
24 62 75 48 92 -16 20 -23 18 -73 -18 -40 -28 -48 -30 -71 -20 -17 8 -36 34
-55 74 -40 84 -47 124 -26 147 12 13 15 27 10 45 -4 17 0 35 11 52 11 16 15
38 12 58 -2 17 2 51 9 76 8 25 14 55 14 67 0 13 13 53 29 90 30 71 61 205 65
284 2 25 6 50 10 57 15 24 114 72 150 72 21 0 49 9 64 20 16 11 52 22 87 26
50 5 64 3 84 -13 21 -17 22 -22 12 -60 -9 -33 -8 -47 5 -79 9 -22 22 -59 29
-84 l12 -45 11 40 c7 22 12 53 12 68 0 15 8 40 17 54 19 29 19 64 1 101 -10
19 -9 25 2 32 35 23 166 1 178 -28 3 -9 -6 -24 -23 -38 l-28 -22 31 -50 32
-49 0 -145 c0 -132 3 -153 31 -249 35 -118 55 -157 72 -140 20 20 4 403 -23
531 -5 25 -14 72 -21 105 -7 33 -18 74 -25 90 -7 17 -17 50 -22 75 -24 108
-106 301 -190 445 -59 103 -204 285 -340 426 -309 323 -773 550 -1202 589 -69
6 -152 18 -185 26 -68 17 -145 63 -171 102 -10 15 -53 82 -95 149 -347 549
-834 872 -1477 983 -122 21 -384 26 -472 9z m-360 -514 c0 -8 -4 -15 -10 -15
-5 0 -10 7 -10 15 0 8 5 15 10 15 6 0 10 -7 10 -15z m-3110 -16 c0 -6 -4 -7
-10 -4 -5 3 -10 11 -10 16 0 6 5 7 10 4 6 -3 10 -11 10 -16z m3064 -4 c-7 -16
-24 -21 -24 -6 0 8 7 13 27 20 1 1 0 -6 -3 -14z m-51 -25 c3 -11 1 -18 -4 -14
-5 3 -9 12 -9 20 0 20 7 17 13 -6z m121 -56 c4 -10 1 -14 -6 -12 -15 5 -23 28
-10 28 5 0 13 -7 16 -16z m-24 -77 l24 -17 -26 0 c-27 0 -48 24 -48 52 1 10 4
9 13 -2 7 -9 23 -24 37 -33z m-1120 -129 c19 -68 3 -54 -19 17 -12 37 -21 72
-21 79 1 16 27 -47 40 -96z m1086 87 c10 -8 31 -15 45 -15 19 0 29 -8 37 -27
12 -28 12 -28 -4 -5 -19 25 -34 29 -34 7 0 -17 -16 -20 -25 -5 -4 7 -13 6 -26
-1 -25 -13 -25 -13 -34 29 -7 36 7 43 41 17z m124 -25 c0 -5 -2 -10 -4 -10 -3
0 -8 5 -11 10 -3 6 -1 10 4 10 6 0 11 -4 11 -10z m1115 -40 c7 -11 -34 -23
-66 -18 -12 2 -24 9 -27 16 -5 15 84 17 93 2z m155 -30 c71 -25 166 -74 212
-109 53 -41 66 -65 16 -30 l-33 23 20 -24 c11 -14 31 -33 45 -44 48 -38 110
-103 110 -116 0 -7 -33 17 -74 54 -58 51 -81 66 -105 66 -30 0 -43 -21 -22
-34 5 -3 6 -27 3 -53 -10 -80 -7 -116 12 -157 l18 -40 -24 16 c-12 8 -26 28
-29 44 -4 16 -7 22 -8 13 -1 -22 -35 -30 -72 -17 -39 14 -50 2 -13 -14 16 -6
30 -13 32 -14 1 0 0 -9 -4 -18 -4 -9 -17 -16 -34 -16 -16 0 -40 -4 -54 -10
-28 -10 -34 -2 -13 19 13 14 1 13 -48 -4 -18 -6 -18 -5 -3 7 9 7 31 21 50 31
l33 19 -37 19 c-21 11 -38 25 -38 31 0 20 32 48 56 48 13 0 26 5 29 10 6 9 0
12 -35 14 -20 1 -26 36 -6 36 8 0 41 10 73 22 l58 21 -30 13 c-16 7 -47 13
-67 14 -21 0 -38 5 -38 10 0 21 -32 9 -64 -24 -22 -23 -46 -37 -72 -41 -21 -3
-49 -10 -61 -15 -14 -6 -25 -6 -29 1 -3 6 4 13 16 16 12 3 19 11 16 19 -6 15
50 34 101 34 17 0 35 5 38 10 7 12 10 11 -78 14 -76 3 -91 11 -62 33 16 11 33
13 80 7 73 -9 125 -9 188 1 50 8 56 15 32 38 -15 15 -31 20 -115 33 -39 6 -42
8 -22 15 23 9 22 29 -2 29 -7 0 -21 6 -32 14 -17 13 -16 14 16 6 19 -4 51 -14
70 -20z m-1272 -16 c-4 -3 -12 5 -18 18 -12 22 -12 22 6 6 10 -10 15 -20 12
-24z m-35 -30 c-4 -11 -9 -12 -19 -3 -18 15 -18 14 5 16 14 1 18 -3 14 -13z
m-26 -62 c13 -46 1 -58 -15 -14 -5 15 -13 35 -18 46 -5 14 -3 17 7 14 7 -2 19
-23 26 -46z m-1087 -54 c18 -46 43 -105 55 -133 47 -102 65 -148 61 -152 -5
-5 -39 53 -66 114 -20 44 -90 237 -90 248 0 17 11 -5 40 -77z m179 -253 l0
-20 -9 20 c-5 11 -9 27 -9 35 -1 13 0 13 9 0 5 -8 9 -24 9 -35z m2021 21 c-19
-13 -37 -20 -39 -14 -4 13 30 37 54 38 15 0 12 -5 -15 -24z m-2030 -120 c0 -4
20 -44 44 -87 25 -43 41 -79 36 -79 -5 0 -19 19 -31 43 -12 23 -37 67 -55 98
-37 61 -46 100 -14 59 11 -14 20 -29 20 -34z m2370 34 c0 -5 -7 -7 -15 -4 -8
4 -15 8 -15 10 0 2 7 4 15 4 8 0 15 -4 15 -10z m404 -11 c8 -9 -2 -10 -44 -6
-30 3 -64 2 -75 -3 -34 -13 91 -25 133 -12 27 9 41 8 66 -4 l31 -14 -42 5
c-24 3 -43 1 -43 -4 0 -5 24 -33 53 -61 52 -51 52 -51 22 -48 -44 3 -42 -14 4
-31 37 -15 87 -69 104 -113 7 -20 61 -25 72 -8 4 6 -5 10 -19 10 -14 0 -26 5
-26 10 0 6 12 10 26 10 22 0 25 2 14 15 -11 13 -8 15 18 15 43 0 62 -9 62 -31
0 -12 10 -21 28 -25 15 -4 39 -15 54 -26 22 -15 27 -26 25 -56 l-2 -37 45 -3
c29 -2 54 -11 70 -26 14 -12 41 -34 60 -48 57 -41 102 -87 96 -97 -3 -5 -34
-12 -68 -16 -35 -4 -67 -11 -73 -15 -13 -9 -235 34 -274 55 -17 8 -40 34 -52
56 -19 37 -23 40 -47 32 -15 -4 -71 -8 -124 -8 -91 1 -98 2 -116 26 -11 14
-36 34 -56 44 -43 23 -45 32 -11 47 31 14 16 28 -32 28 -39 0 -43 16 -9 31 13
6 27 20 29 30 3 12 14 19 30 19 24 0 45 16 35 25 -2 3 -30 -3 -61 -12 -41 -11
-58 -21 -63 -37 -19 -66 -42 -95 -65 -80 -12 7 -11 41 1 49 6 3 10 14 10 23 0
10 -3 13 -8 7 -4 -5 -22 -18 -41 -28 -25 -13 -37 -15 -45 -7 -8 8 -6 14 7 21
25 15 21 27 -15 43 l-33 14 25 10 c14 6 40 24 59 40 34 29 35 30 18 56 -18 27
-32 33 -42 16 -15 -24 -24 -7 -10 19 18 36 35 49 28 21 -4 -15 2 -22 23 -30
34 -13 46 1 41 47 -2 25 2 34 20 42 13 6 23 14 22 18 -1 5 -1 12 0 17 2 13
152 0 165 -15z m-335 -15 c-36 -20 -47 -16 -20 6 12 11 28 17 33 14 6 -4 0
-13 -13 -20z m78 20 c-3 -3 -12 -4 -19 -1 -8 3 -5 6 6 6 11 1 17 -2 13 -5z
m-396 -28 c-28 -30 -77 -54 -123 -62 -29 -4 -28 -3 12 14 25 10 63 30 85 45
50 33 54 33 26 3z m419 -16 c-8 -5 -22 -10 -30 -10 -13 0 -13 1 0 10 8 5 22
10 30 10 13 0 13 -1 0 -10z m-2471 -42 c5 -13 11 -34 15 -48 5 -19 2 -16 -13
10 -20 34 -26 60 -16 60 3 0 9 -10 14 -22z m1935 -47 c3 -5 0 -11 -8 -14 -15
-6 -26 1 -26 15 0 11 27 10 34 -1z m225 -44 c-6 -13 -20 -29 -31 -36 -17 -10
-19 -10 -14 1 3 7 9 21 12 30 3 9 13 19 23 21 9 3 17 5 18 6 2 0 -2 -9 -8 -22z
m991 -17 c8 -5 11 -10 5 -10 -5 0 -17 5 -25 10 -8 5 -10 10 -5 10 6 0 17 -5
25 -10z m-3196 -6 c9 -4 21 -15 27 -27 10 -17 9 -19 -8 -15 -11 3 -28 1 -37
-4 -12 -7 -16 -5 -16 6 0 13 -5 14 -27 5 -16 -6 -38 -20 -50 -31 -29 -27 -30
-15 -2 23 11 16 35 33 52 38 42 12 43 12 61 5z m416 1 c0 -2 -4 -14 -9 -27 -5
-13 -12 -32 -15 -42 -6 -18 -7 -18 -20 -1 -9 13 -15 15 -20 7 -10 -16 -26 -15
-26 1 1 15 31 52 50 60 19 7 40 8 40 2z m-322 -39 c3 -13 -1 -17 -14 -14 -11
2 -20 11 -22 22 -3 13 1 17 14 14 11 -2 20 -11 22 -22z m698 -53 c6 -23 -1
-43 -17 -43 -5 0 -9 15 -9 34 0 19 -4 38 -10 41 -5 3 -10 1 -10 -6 0 -18 -30
-49 -47 -49 -11 0 -10 6 5 28 11 15 23 38 27 52 l8 24 24 -29 c13 -17 26 -40
29 -52z m2475 66 c11 -5 17 -14 14 -20 -10 -15 -23 -11 -35 11 -12 23 -7 25
21 9z m-4991 -14 c0 -8 -7 -15 -15 -15 -8 0 -15 -5 -15 -11 0 -6 -8 -8 -19 -4
-11 3 -22 1 -26 -5 -9 -14 -28 -13 -23 2 5 13 66 48 85 48 7 0 13 -7 13 -15z
m3974 -6 c20 -12 36 -25 36 -30 0 -16 -26 -10 -54 12 -31 24 -40 20 -66 -32
-11 -21 -25 -39 -30 -39 -15 0 -13 5 21 60 17 27 37 50 44 50 8 0 30 -9 49
-21z m-1620 -48 c27 -27 17 -34 -36 -26 -56 8 -73 19 -65 39 9 22 74 14 101
-13z m-648 -16 c-2 -5 -10 -8 -17 -6 -8 3 -28 5 -46 5 -23 1 -29 4 -21 13 21
25 94 15 84 -12z m541 -11 c-10 -10 -37 16 -37 34 0 13 4 12 22 -5 12 -13 19
-25 15 -29z m1693 36 c0 -6 -9 -18 -21 -28 -11 -9 -25 -27 -30 -40 -5 -13 -14
-20 -19 -17 -11 7 20 60 48 83 19 15 22 15 22 2z m-2505 -10 c3 -5 1 -10 -4
-10 -6 0 -11 5 -11 10 0 6 2 10 4 10 3 0 8 -4 11 -10z m2320 0 c-3 -5 -14 -10
-23 -10 -15 0 -15 2 -2 10 20 13 33 13 25 0z m-1795 -47 c0 -15 -4 -22 -11
-18 -13 9 -28 47 -22 58 9 14 33 -15 33 -40z m265 0 c16 -21 46 -53 67 -72 22
-19 44 -44 50 -55 6 -11 -13 1 -42 27 -69 62 -90 74 -90 50 0 -14 -6 -11 -25
12 -34 42 -32 69 6 74 4 1 19 -16 34 -36z m1864 6 c26 -42 36 -100 20 -109
-16 -10 -4 -40 16 -40 20 0 20 -40 -1 -66 -15 -18 -15 -18 -9 4 5 17 1 29 -14
43 -25 23 -31 24 -31 2 0 -12 -3 -14 -11 -6 -16 16 10 96 28 88 17 -6 9 26
-15 63 -14 22 -42 30 -42 12 0 -5 -4 -10 -10 -10 -14 0 -13 23 2 38 21 21 48
13 67 -19z m-4039 -3 c0 -2 3 -11 6 -19 4 -11 0 -14 -13 -11 -13 4 -23 -3 -33
-20 -7 -14 -19 -26 -27 -26 -9 0 -5 13 13 40 15 22 33 40 40 40 8 0 14 -2 14
-4z m1820 -16 c0 -5 -2 -10 -4 -10 -3 0 -8 5 -11 10 -3 6 -1 10 4 10 6 0 11
-4 11 -10z m-1739 -21 c13 -7 18 -16 14 -29 -3 -10 -1 -21 5 -25 5 -3 10 -2
10 3 0 16 54 21 85 8 17 -7 42 -18 58 -24 15 -7 27 -18 27 -26 0 -24 20 -29
35 -10 7 11 16 16 19 13 12 -12 -6 -38 -34 -48 -16 -5 -30 -18 -33 -28 -2 -10
-2 -1 0 20 7 56 -27 91 -42 45 -5 -13 -11 -32 -15 -43 -8 -20 -8 -20 -9 0 -1
25 -58 50 -76 35 -14 -12 -25 -3 -25 22 0 21 -35 25 -44 6 -3 -9 -8 -8 -16 5
-9 14 -15 16 -26 6 -11 -9 -17 -9 -29 1 -19 16 -20 31 -1 24 8 -3 19 3 26 15
14 27 33 27 25 1 -4 -14 -2 -20 9 -20 20 0 31 19 17 33 -24 24 -12 34 20 16z
m2549 -7 c0 -5 -9 -17 -20 -27 -20 -18 -25 -11 -14 19 6 17 34 23 34 8z m-960
-22 c0 -5 -4 -10 -10 -10 -5 0 -10 5 -10 10 0 6 5 10 10 10 6 0 10 -4 10 -10z
m-60 -25 c-7 -9 -15 -13 -18 -10 -3 2 1 11 8 20 7 9 15 13 18 10 3 -2 -1 -11
-8 -20z m-25 -75 c0 -27 -1 -50 -3 -50 -2 0 -7 13 -13 28 -8 24 -14 28 -39 24
-37 -5 -44 -15 -30 -43 8 -14 9 -24 2 -31 -15 -15 -31 22 -25 56 6 29 54 59
79 49 7 -2 15 0 19 6 10 16 10 15 10 -39z m34 3 c0 -25 -1 -25 -8 -8 -5 11 -7
23 -4 28 8 14 13 7 12 -20z m-1158 -31 c15 -13 19 -21 11 -26 -7 -4 -12 -1
-12 9 0 9 -7 15 -16 13 -10 -2 -19 3 -21 10 -7 18 11 15 38 -6z m1248 -146
c28 -38 51 -73 51 -78 0 -6 7 -7 15 -4 19 7 41 -42 26 -57 -7 -7 -14 -1 -20
16 -6 15 -18 27 -27 27 -9 0 -14 -6 -11 -12 15 -41 17 -58 8 -58 -16 0 -25 21
-27 71 -3 50 -22 96 -49 119 -21 18 -55 84 -55 107 0 10 9 0 19 -22 10 -22 42
-71 70 -109z m-1114 114 c3 -5 -1 -10 -9 -10 -9 0 -16 5 -16 10 0 6 4 10 9 10
6 0 13 -4 16 -10z m3725 -3 c0 -17 -44 -59 -53 -51 -8 8 31 64 44 64 5 0 9 -6
9 -13z m86 -22 c9 -22 21 -35 33 -35 17 0 88 -97 78 -107 -3 -2 -20 12 -40 32
-45 45 -96 49 -122 9 -11 -17 -20 -23 -27 -16 -16 16 9 50 43 57 21 5 29 11
25 22 -3 8 -6 19 -6 24 0 20 -31 7 -48 -19 -28 -46 -71 -94 -81 -90 -11 4 61
115 91 141 29 24 37 22 54 -18z m-764 -12 c3 -32 7 -38 27 -38 13 0 26 -4 28
-10 2 -6 -23 -10 -63 -10 l-65 0 6 35 c12 63 62 81 67 23z m165 15 c-3 -8 -6
-5 -6 6 -1 11 2 17 5 13 3 -3 4 -12 1 -19z m216 -4 c11 -14 17 -28 14 -31 -7
-6 -47 34 -47 47 0 17 14 10 33 -16z m131 -12 c7 -12 -7 -29 -31 -36 -12 -4
-24 -17 -26 -29 -4 -22 -5 -22 -12 2 l-8 24 -23 -28 c-13 -16 -26 -27 -29 -23
-3 3 6 19 20 36 14 16 25 35 25 42 0 8 10 9 30 5 19 -4 30 -3 30 4 0 13 17 15
24 3z m-3402 -19 c10 -9 18 -20 18 -25 0 -11 -49 24 -50 35 0 12 12 8 32 -10z
m4562 2 c7 -20 -32 -20 -58 0 -19 14 -18 15 16 15 23 0 38 -6 42 -15z m-3805
-55 c1 -20 -1 -22 -9 -10 -5 8 -9 29 -9 45 0 26 2 27 9 10 5 -11 9 -31 9 -45z
m501 35 c0 -28 -17 -34 -27 -9 -3 9 0 20 8 25 19 12 19 12 19 -16z m1808 -11
c-5 -28 -28 -29 -28 -1 0 13 3 27 7 30 10 11 25 -9 21 -29z m-1916 -50 c7 -5
9 1 4 20 -6 26 -6 26 12 9 10 -10 17 -24 14 -30 -2 -7 1 -13 7 -13 6 0 11 -11
11 -25 0 -89 53 -146 130 -141 87 7 160 18 166 27 3 5 16 9 30 9 13 0 24 4 24
9 0 5 20 9 44 8 43 -2 44 -3 28 -21 -16 -18 -16 -19 8 -12 14 5 48 7 77 7 28
-1 54 2 57 8 7 11 75 -9 111 -33 11 -7 33 -16 49 -20 16 -4 58 -37 96 -75 54
-55 64 -70 52 -77 -13 -9 -12 -12 3 -27 10 -10 23 -16 31 -13 7 3 18 -2 24
-10 7 -8 21 -14 31 -14 10 0 21 -5 25 -11 7 -12 -15 -31 -28 -23 -16 10 -7
-14 12 -31 11 -10 20 -13 20 -7 0 26 31 9 52 -28 23 -40 37 -50 39 -27 1 6 7
-6 13 -28 8 -25 19 -40 29 -40 18 0 97 -101 97 -124 0 -9 14 -29 30 -44 17
-16 30 -35 30 -42 0 -7 7 -18 15 -25 16 -13 40 -88 31 -97 -3 -3 -11 6 -17 21
-7 14 -32 38 -57 52 l-44 26 -21 -20 c-19 -19 -30 -64 -29 -117 1 -74 16 -227
23 -231 10 -6 31 33 59 108 11 29 31 67 45 83 l25 30 18 -23 c24 -30 42 -12
42 43 0 71 45 105 101 75 25 -14 24 -33 -3 -45 -15 -7 -34 -37 -56 -90 -29
-71 -32 -84 -22 -117 6 -20 21 -50 34 -65 13 -15 28 -38 35 -50 16 -31 24 -29
43 13 16 35 16 37 -7 60 -13 13 -31 24 -40 24 -12 0 -15 6 -10 23 12 38 25 44
45 20 10 -13 22 -23 27 -23 12 0 34 -67 40 -120 4 -38 10 -49 35 -63 16 -9 36
-17 43 -17 8 0 19 -10 26 -21 18 -35 -3 -65 -61 -86 -54 -19 -56 -23 -38 -56
7 -12 13 -38 14 -57 1 -19 4 -67 8 -107 7 -86 2 -106 -28 -97 -18 6 -19 5 -7
-10 11 -13 11 -16 0 -16 -8 0 -20 9 -27 20 -18 29 -33 25 -27 -7 4 -26 4 -26
-6 3 -9 25 -16 30 -45 30 -21 0 -34 -5 -34 -13 0 -7 -7 -13 -15 -13 -8 0 -15
9 -15 20 0 14 -7 20 -21 20 -12 0 -23 8 -26 20 -3 11 -12 20 -19 20 -8 0 -23
6 -34 13 -17 10 -26 9 -53 -6 -83 -48 -172 -85 -218 -92 -13 -2 -50 -9 -81
-16 -55 -12 -57 -12 -97 15 -30 21 -53 28 -94 30 -38 1 -62 9 -82 24 -15 12
-40 22 -55 22 -15 0 -39 9 -53 20 -26 21 -67 27 -67 10 0 -5 15 -29 33 -53 32
-43 69 -118 82 -167 6 -27 -8 -35 -110 -62 -22 -6 -56 -19 -76 -29 -45 -23
-65 -24 -135 -3 -41 12 -58 22 -69 44 -18 34 -64 68 -87 65 -9 -2 -26 7 -38
20 -18 19 -19 24 -6 34 15 13 11 40 -8 53 -8 5 -5 18 7 39 20 36 23 120 5 152
-8 14 -11 53 -9 107 3 94 22 130 68 130 37 0 61 -16 154 -104 105 -99 289
-226 329 -226 31 0 91 16 225 60 50 17 128 37 174 45 120 21 131 30 131 111 0
36 5 74 11 85 5 11 9 31 7 45 -3 22 -7 19 -36 -31 -19 -31 -35 -63 -36 -70 -3
-23 -103 -85 -205 -129 -87 -36 -104 -40 -181 -41 -108 0 -192 11 -228 29 -40
21 -97 66 -95 74 3 12 -39 52 -49 46 -20 -13 -118 108 -118 146 0 17 -12 19
-100 23 -52 2 -58 5 -100 50 -57 60 -78 54 -54 -16 9 -26 14 -51 12 -57 -2 -5
-31 3 -66 20 -54 25 -76 30 -140 30 -119 0 -243 -30 -373 -90 -63 -29 -134
-70 -159 -90 -25 -20 -60 -46 -77 -59 -39 -26 -40 -42 -12 -105 l20 -47 -24
-32 c-33 -45 -38 -64 -22 -81 19 -19 19 -36 0 -36 -8 0 -31 22 -50 48 -25 36
-56 61 -113 93 -69 38 -82 50 -101 90 -33 73 -32 91 7 102 36 11 39 22 15 56
-12 18 -13 28 -6 40 8 12 7 28 -3 57 -17 49 -17 47 2 40 12 -5 15 0 12 27 -2
25 1 32 15 31 9 0 35 -1 57 -2 29 -2 43 -7 47 -19 4 -10 13 -22 21 -26 9 -6
12 -18 8 -33 -6 -21 4 -35 59 -90 36 -35 63 -69 60 -74 -11 -17 1 -11 82 40
167 105 211 129 298 158 50 17 137 38 195 47 154 23 215 38 310 79 47 19 97
36 113 36 15 0 27 4 27 9 0 12 173 127 265 175 39 21 75 42 80 48 7 8 6 9 -2
4 -7 -4 -13 -2 -13 5 0 7 8 9 21 6 24 -6 79 11 79 24 0 6 15 16 33 24 19 8 39
21 47 29 14 18 61 21 77 5 9 -9 123 -4 123 6 0 17 -34 60 -47 60 -11 0 -19 9
-21 23 -4 25 1 27 28 10 10 -7 23 -9 27 -4 13 13 -34 44 -94 63 -54 17 -55 17
-70 -2 -11 -14 -17 -16 -20 -7 -8 21 -32 13 -76 -27 -52 -47 -81 -63 -102 -55
-9 4 -24 -1 -35 -11 -18 -16 -20 -17 -20 -2 0 10 -6 17 -13 17 -21 0 -91 -39
-100 -56 -5 -9 -24 -22 -43 -30 -22 -9 -41 -27 -51 -48 -11 -24 -21 -32 -33
-29 -12 3 -23 -3 -31 -19 -6 -12 -18 -27 -25 -31 -8 -4 -14 -16 -14 -25 0 -35
-34 -51 -96 -45 -54 6 -56 5 -50 -15 6 -17 3 -19 -14 -15 -20 5 -21 3 -14 -42
5 -43 4 -47 -12 -41 -10 4 -21 1 -25 -5 -15 -25 -59 -18 -111 17 -79 54 -170
101 -205 107 -32 6 -96 -13 -108 -33 -4 -6 -11 -8 -16 -5 -16 11 -80 -46 -74
-65 5 -15 -2 -19 -39 -22 -44 -3 -45 -2 -39 22 11 48 21 65 67 118 80 93 143
136 260 177 42 15 75 30 72 32 -2 2 -39 -6 -82 -17 -44 -12 -95 -25 -116 -29
-66 -14 -142 -68 -192 -136 -9 -11 -16 -15 -16 -9 0 14 77 132 108 167 58 62
-21 6 -105 -75 -13 -11 -23 -17 -23 -12 2 33 34 116 84 219 71 143 124 204
179 202 39 -1 87 26 87 48 0 21 77 98 90 90 5 -3 10 -1 10 4 0 6 11 11 23 11
31 0 61 33 52 58 -6 22 9 39 20 22 6 -9 58 -5 77 6 4 3 8 12 8 21 0 11 6 14
21 10 15 -4 19 -2 15 10 -3 8 -6 19 -6 24 0 5 -12 4 -26 -2 -33 -12 -34 -10
-41 40 -8 59 -23 61 -23 4 -1 -39 -3 -45 -12 -29 -7 13 -7 39 3 94 7 42 14 71
17 64 6 -20 22 -13 23 11 1 17 3 15 10 -10 5 -18 14 -35 21 -39z m-1002 46 c0
-5 -4 -10 -10 -10 -5 0 -10 5 -10 10 0 6 5 10 10 10 6 0 10 -4 10 -10z m741
-57 c10 -26 29 -31 29 -8 0 8 4 15 9 15 13 0 21 -27 21 -73 l-1 -42 -24 28
c-14 15 -25 35 -25 43 0 8 -4 14 -9 14 -9 0 -61 74 -61 87 0 13 52 -42 61 -64z
m4328 30 c105 -84 179 -183 243 -322 22 -47 48 -104 58 -126 10 -22 23 -53 30
-69 8 -21 14 -26 22 -18 7 7 5 19 -9 39 -26 36 -38 73 -24 73 6 0 11 -5 11
-11 0 -6 8 -8 19 -4 11 3 24 -1 32 -11 12 -15 11 -16 -9 -10 -15 5 -22 3 -22
-5 0 -7 3 -9 7 -6 3 4 12 2 18 -3 9 -7 16 -6 25 5 10 12 10 21 1 43 l-13 27
21 -22 c23 -24 27 -48 10 -58 -6 -4 -7 -19 -4 -35 4 -16 2 -31 -5 -35 -6 -4
-8 -15 -5 -25 9 -29 -16 -36 -37 -10 -32 40 -31 13 2 -34 17 -25 38 -46 47
-46 13 0 14 3 5 12 -22 22 -12 43 40 83 96 75 181 160 218 217 20 32 40 54 46
50 26 -18 102 -126 97 -139 -3 -8 -1 -18 5 -22 16 -10 82 -123 82 -140 -1 -13
-3 -13 -14 2 -8 10 -22 17 -31 15 -9 -2 -23 9 -33 27 -9 17 -21 33 -26 36 -5
4 -6 20 -2 35 6 25 -4 19 -67 -46 -126 -129 -188 -182 -200 -171 -15 12 -206
51 -250 51 -31 0 -169 37 -229 61 -25 10 -42 38 -103 171 -9 20 -18 47 -19 60
-2 13 -7 32 -13 43 -6 11 -13 44 -17 74 -6 43 -3 62 11 88 17 33 17 35 -3 94
-12 33 -19 69 -17 80 8 31 51 23 102 -18z m-4890 5 c18 -6 21 -12 13 -20 -8
-8 -15 -8 -24 0 -7 5 -29 13 -48 17 -28 5 -41 2 -63 -15 -22 -17 -27 -18 -27
-6 0 39 77 51 149 24z m521 -48 c12 -14 31 -43 42 -65 l20 -40 -46 45 c-37 36
-46 41 -46 25 -1 -36 -17 6 -23 60 l-7 50 19 -25 c11 -14 29 -36 41 -50z
m2150 34 c17 -44 12 -69 -21 -93 l-30 -23 16 32 c16 31 16 55 0 93 -5 12 -2
17 9 17 9 0 21 -12 26 -26z m-2596 -25 c-1 -45 -24 -51 -24 -6 0 33 7 50 19
43 3 -2 6 -19 5 -37z m2843 27 c-2 -6 -11 -12 -20 -14 -11 -2 -15 1 -12 11 7
16 37 19 32 3z m-2692 -6 c3 -5 1 -10 -4 -10 -6 0 -11 5 -11 10 0 6 2 10 4 10
3 0 8 -4 11 -10z m-72 -17 c3 -5 -5 -8 -18 -8 -13 0 -21 3 -18 8 2 4 10 7 18
7 8 0 16 -3 18 -7z m1657 -67 c0 -13 57 -75 64 -69 9 10 57 -7 50 -18 -3 -6
-15 -9 -25 -6 -21 6 -19 0 19 -50 17 -23 20 -33 10 -33 -16 0 -37 23 -95 106
-23 34 -60 74 -80 90 -37 28 -37 28 -13 35 19 4 30 0 47 -20 12 -14 22 -30 23
-35z m1444 27 l17 -38 -28 30 c-16 17 -28 33 -26 38 8 15 20 6 37 -30z m-2324
-30 c0 -22 -2 -25 -10 -13 -13 20 -13 40 0 40 6 0 10 -12 10 -27z m1495 -33
c11 -21 23 -30 41 -30 14 0 22 -4 19 -10 -3 -5 -19 -10 -35 -10 -33 0 -64 37
-54 64 8 22 11 21 29 -14z m163 0 c8 0 13 -3 9 -6 -10 -10 -48 7 -40 19 5 8 8
8 11 -1 2 -7 11 -12 20 -12z m-2416 -25 c-5 -18 -11 -25 -16 -17 -4 6 -2 21 4
33 15 28 21 20 12 -16z m2578 -51 c20 -41 27 -114 11 -114 -5 0 -11 22 -13 50
-3 32 -14 61 -31 84 -15 19 -27 43 -27 53 0 15 4 14 20 -7 11 -14 29 -43 40
-66z m-2030 35 c0 -5 -4 -9 -10 -9 -5 0 -10 7 -10 16 0 8 5 12 10 9 6 -3 10
-10 10 -16z m4755 11 c-3 -5 -10 -10 -16 -10 -5 0 -9 5 -9 10 0 6 7 10 16 10
8 0 12 -4 9 -10z m-4724 -37 c-12 -20 -14 -14 -5 12 4 9 9 14 11 11 3 -2 0
-13 -6 -23z m-211 -11 c0 -15 -2 -15 -10 -2 -13 20 -13 33 0 25 6 -3 10 -14
10 -23z m3895 8 c-11 -5 -29 -8 -40 -8 -16 0 -15 2 5 8 34 11 60 11 35 0z m91
-31 c20 -18 21 -24 9 -35 -16 -16 -29 -19 -20 -4 3 6 -2 10 -11 10 -10 0 -14
3 -11 6 3 4 2 15 -4 25 -14 26 8 25 37 -2z m-7236 -5 c0 -8 -4 -12 -10 -9 -5
3 -10 10 -10 16 0 5 5 9 10 9 6 0 10 -7 10 -16z m185 -4 c3 -5 -1 -10 -10 -10
-9 0 -13 5 -10 10 3 6 8 10 10 10 2 0 7 -4 10 -10z m8104 -24 c8 -9 8 -22 2
-38 -19 -49 -61 -61 -61 -17 0 15 -4 18 -16 11 -9 -5 -38 -7 -66 -4 -45 4 -50
3 -46 -14 3 -15 11 -18 41 -16 31 3 37 1 37 -16 0 -11 -6 -25 -14 -31 -12 -10
-14 -9 -9 7 4 15 -1 19 -23 18 -21 -1 -29 -7 -35 -28 -4 -16 -4 -28 0 -28 9 0
8 -31 -3 -48 -9 -15 -16 -15 -36 -2 -13 9 -12 12 4 25 19 15 19 15 -2 15 -29
0 -28 18 1 30 22 10 22 10 -3 7 -19 -1 -25 3 -25 18 0 14 -6 19 -19 17 -30 -5
-10 13 46 41 45 23 69 28 140 29 48 1 84 6 82 10 -3 4 -12 8 -20 8 -8 0 -12 5
-9 10 9 14 20 13 34 -4z m-8126 -30 c7 -8 25 -16 38 -19 19 -3 17 -5 -9 -6
-22 -1 -31 -5 -26 -13 5 -8 0 -9 -17 -3 -13 4 -38 8 -56 9 -37 1 -66 22 -42
30 8 3 30 7 49 9 19 2 38 5 42 5 4 1 13 -4 21 -12z m6987 8 c0 -6 -65 -34 -77
-34 -9 1 58 39 70 40 4 0 7 -2 7 -6z m-4247 -24 c-3 -12 -8 -19 -11 -16 -5 6
5 36 12 36 2 0 2 -9 -1 -20z m1791 4 c8 -21 3 -26 -17 -18 -24 9 -30 34 -8 34
10 0 22 -7 25 -16z m2578 -19 c4 -16 5 -31 3 -33 -9 -9 -35 27 -35 48 0 30 22
20 32 -15z m-6971 -27 c46 -25 50 -37 12 -31 -38 6 -71 23 -77 39 -8 21 21 17
65 -8z m4389 -60 c0 -17 -22 -6 -50 25 -42 46 -37 54 10 15 22 -18 40 -36 40
-40z m2323 50 c-13 -12 -26 -18 -30 -14 -4 4 1 14 11 22 31 22 43 17 19 -8z
m-2281 -5 c10 -9 18 -20 18 -25 0 -13 -20 -9 -36 6 -15 15 -19 36 -7 36 3 0
15 -7 25 -17z m388 -44 c0 -18 -4 -28 -10 -24 -5 3 -10 20 -10 36 0 18 4 28
10 24 6 -3 10 -20 10 -36z m428 13 c2 -7 -3 -12 -12 -12 -9 0 -16 7 -16 16 0
17 22 14 28 -4z m-133 -32 c3 -5 -3 -10 -14 -10 -11 0 -49 -15 -85 -34 -36
-19 -66 -33 -66 -31 0 2 28 22 61 44 61 41 92 50 104 31z m-2575 -51 c0 -17
-28 3 -40 29 l-12 27 26 -24 c14 -14 26 -28 26 -32z m4456 29 c30 -14 70 -86
55 -101 -14 -14 -25 -2 -41 46 -13 42 -28 52 -64 43 -34 -8 -39 -34 -21 -111
8 -36 15 -68 15 -70 0 -9 -75 -55 -89 -55 -10 0 -5 10 14 30 l29 31 -17 67
c-22 88 -22 97 9 121 27 21 65 21 110 -1z m-2571 -19 c14 -22 -3 -18 -26 7
-23 25 -23 26 -2 15 12 -6 25 -16 28 -22z m445 -15 c0 -8 -4 -12 -10 -9 -5 3
-10 10 -10 16 0 5 5 9 10 9 6 0 10 -7 10 -16z m1895 -125 c8 -36 1 -46 -20
-29 -8 7 -15 28 -15 47 0 30 2 34 14 24 8 -7 18 -26 21 -42z m-2735 -29 c0 -5
-5 -10 -11 -10 -5 0 -7 5 -4 10 3 6 8 10 11 10 2 0 4 -4 4 -10z m-5070 -26 c0
-17 -22 -14 -28 4 -2 7 3 12 12 12 9 0 16 -7 16 -16z m8557 0 c-3 -3 -12 -4
-19 -1 -8 3 -5 6 6 6 11 1 17 -2 13 -5z m-8687 -57 c0 -13 -20 -47 -28 -47
-14 0 -30 16 -36 37 -6 20 -4 21 28 20 20 -1 36 -6 36 -10z m6605 -77 c3 -5
-1 -10 -10 -10 -9 0 -13 5 -10 10 3 6 8 10 10 10 2 0 7 -4 10 -10z m-6440 -22
c50 -23 42 -82 -13 -91 -20 -3 -16 -4 12 -6 22 0 98 -10 169 -22 109 -18 143
-28 216 -64 165 -83 212 -94 324 -79 42 6 45 8 36 26 -13 25 -6 33 11 13 7 -9
15 -38 18 -65 4 -41 2 -50 -11 -50 -9 0 -22 -8 -29 -18 -7 -11 -23 -24 -35
-30 -18 -10 -22 -9 -25 4 -3 14 -7 13 -30 -5 -35 -28 -42 -27 -22 4 16 24 15
25 -5 25 -11 0 -21 4 -21 9 0 5 -9 11 -20 14 -11 3 -19 11 -18 19 2 9 -12 14
-47 16 -32 2 -56 10 -67 22 -9 10 -43 28 -75 39 -32 12 -65 24 -73 28 -8 3
-18 5 -23 5 -12 -3 -100 20 -122 31 -23 12 -138 17 -202 10 -33 -4 -43 -10
-43 -23 0 -29 46 -58 108 -69 120 -23 159 -35 223 -68 36 -19 79 -47 94 -63
l29 -30 -24 -25 c-21 -22 -22 -25 -5 -25 22 0 55 -28 55 -46 0 -8 -6 -11 -15
-8 -24 10 -18 0 18 -27 27 -20 47 -25 124 -29 79 -5 96 -9 118 -30 30 -28 33
-44 6 -35 -11 3 -22 1 -26 -5 -3 -5 -14 -10 -23 -10 -14 1 -13 4 7 20 l23 20
-43 0 c-46 -1 -133 -20 -145 -33 -12 -12 -37 -8 -123 19 -45 14 -89 23 -97 20
-18 -7 -18 -4 1 41 15 36 9 52 -17 53 -5 0 -8 9 -8 20 0 13 -10 24 -25 30 -29
11 -33 30 -7 31 9 0 33 1 52 2 51 3 53 31 3 47 -21 6 -53 18 -71 27 -19 8 -53
20 -75 27 -29 8 -43 18 -45 31 -2 13 -21 28 -56 43 -61 27 -77 51 -64 102 10
38 11 85 2 112 -3 12 3 18 26 23 17 4 34 13 37 21 6 17 6 17 38 2z m7014 -11
c13 -16 5 -27 -21 -27 -20 0 -21 1 -12 24 7 20 18 20 33 3z m-982 -73 c26 -13
41 -24 31 -24 -27 0 -97 42 -115 69 l-16 26 26 -24 c14 -13 47 -34 74 -47z
m1113 -41 c77 -71 95 -103 81 -146 -6 -18 -12 -54 -15 -82 l-4 -50 -38 0 c-39
0 -39 1 -46 45 -3 25 -7 85 -7 133 -1 80 -3 90 -26 113 -26 26 -32 44 -16 44
6 0 37 -25 71 -57z m-3680 1 c0 -2 -9 0 -20 6 -11 6 -20 13 -20 16 0 2 9 0 20
-6 11 -6 20 -13 20 -16z m-3000 -76 c0 -6 -7 -7 -16 -4 -9 3 -18 6 -20 6 -3 0
-3 4 1 10 7 11 35 2 35 -12z m3395 -38 c3 -5 1 -10 -4 -10 -6 0 -11 5 -11 10
0 6 2 10 4 10 3 0 8 -4 11 -10z m1960 -11 c6 -19 0 -38 -9 -28 -10 12 -16 49
-7 49 5 0 13 -9 16 -21z m1998 -11 c11 -15 22 -49 25 -77 4 -40 0 -55 -17 -77
-13 -16 -21 -41 -21 -65 0 -31 -6 -43 -37 -68 -21 -17 -43 -31 -49 -31 -6 0
-19 -11 -28 -25 -18 -27 -7 -35 14 -10 7 8 19 15 27 15 8 0 41 27 74 60 37 38
71 63 90 67 16 3 35 16 42 28 7 12 52 57 101 99 90 76 136 96 149 62 7 -17
-71 -126 -199 -275 -17 -20 -48 -65 -69 -101 -21 -36 -61 -101 -89 -145 -70
-112 -95 -165 -95 -200 l0 -30 17 25 c9 14 42 52 73 85 31 33 66 78 77 100 11
22 41 68 66 102 25 33 46 65 46 70 0 5 21 36 46 69 25 32 55 76 66 97 21 42
101 99 133 95 35 -5 28 -35 -30 -131 -31 -52 -76 -140 -99 -195 -50 -115 -91
-179 -172 -269 -98 -109 -263 -334 -300 -411 -31 -64 -50 -86 -113 -129 -2 -2
4 -18 14 -37 18 -33 18 -38 2 -111 -19 -88 -44 -128 -97 -155 -33 -17 -39 -25
-42 -56 -4 -43 -24 -60 -62 -50 -50 12 -76 49 -76 105 0 58 -15 98 -41 106
-21 7 -48 71 -49 117 -4 142 1 198 15 198 8 0 15 6 15 13 -2 37 -78 146 -102
147 -10 0 -18 7 -18 15 0 24 107 265 137 308 41 58 40 57 53 119 9 47 16 59
34 64 18 4 28 21 47 82 17 54 30 80 46 87 12 6 38 43 58 81 20 38 51 83 68
100 18 17 40 40 49 52 12 15 29 22 52 22 28 0 43 9 78 45 24 24 49 43 57 42 8
-1 23 -14 34 -29z m-7278 -78 c-3 -5 -10 -10 -16 -10 -5 0 -9 5 -9 10 0 6 7
10 16 10 8 0 12 -4 9 -10z m232 -43 c-2 -6 -13 -11 -25 -12 -21 -2 -21 -1 -6
16 17 19 38 16 31 -4z m7633 19 c0 -3 -4 -8 -10 -11 -5 -3 -10 -1 -10 4 0 6 5
11 10 11 6 0 10 -2 10 -4z m-8456 -72 c15 -6 15 -8 -1 -19 -21 -16 -34 -10
-26 10 6 17 6 17 27 9z m1095 -49 l0 -20 -9 20 c-5 11 -9 27 -9 35 -1 13 0 13
9 0 5 -8 9 -24 9 -35z m5153 -131 c22 -14 37 -28 34 -31 -9 -10 -75 37 -106
77 -40 50 -39 65 1 17 18 -21 49 -50 71 -63z m-1878 30 c3 -9 6 -37 5 -62 l0
-47 -19 55 c-11 30 -20 58 -20 63 0 14 28 7 34 -9z m2858 -33 c-1 -19 -7 -41
-13 -48 -6 -7 -15 -59 -20 -115 -9 -113 -17 -151 -30 -142 -10 6 1 290 12 322
7 17 15 22 32 20 19 -3 22 -8 19 -37z m-2527 -51 c10 -11 16 -20 13 -20 -3 0
-13 9 -23 20 -10 11 -16 20 -13 20 3 0 13 -9 23 -20z m-1925 -30 c12 -8 11
-10 -7 -10 -12 0 -25 5 -28 10 -8 13 15 13 35 0z m226 -109 c32 -10 75 -22 94
-26 41 -8 190 -68 240 -98 47 -28 120 -86 120 -97 0 -5 -10 -12 -22 -16 -12
-3 -29 -16 -39 -27 -17 -21 -17 -21 -87 30 -72 53 -132 88 -132 78 0 -3 33
-26 73 -52 96 -62 240 -171 251 -192 6 -9 8 -36 7 -61 -2 -25 0 -43 3 -40 3 3
6 22 8 43 2 43 6 44 50 16 22 -14 26 -19 12 -16 -18 4 -20 0 -20 -39 1 -24 0
-44 0 -44 -21 0 -104 52 -198 125 -125 95 -260 186 -335 224 -50 26 -252 99
-300 109 -44 9 -47 20 -17 57 l24 29 98 -24 c88 -21 138 -39 266 -94 37 -16
38 -16 35 5 -3 19 -15 29 -75 61 -18 9 -25 9 -31 0 -5 -9 -18 -8 -53 3 -37 13
-45 20 -45 41 0 29 -1 29 73 5z m593 -84 c-2 -3 -15 10 -28 27 l-24 31 28 -27
c16 -15 27 -29 24 -31z m-719 -77 c0 -5 -2 -10 -4 -10 -3 0 -8 5 -11 10 -3 6
-1 10 4 10 6 0 11 -4 11 -10z m1410 -22 c-18 -34 -71 -87 -103 -105 -46 -23
-41 -10 8 25 25 17 57 49 72 71 30 42 42 47 23 9z m-1245 -38 c3 -5 1 -10 -4
-10 -6 0 -11 5 -11 10 0 6 2 10 4 10 3 0 8 -4 11 -10z m1991 -71 c16 -5 58
-40 95 -77 37 -37 88 -86 113 -109 42 -39 58 -75 39 -86 -13 -7 -73 5 -73 14
0 5 7 9 15 9 8 0 15 5 15 11 0 13 -60 2 -78 -15 -10 -10 -9 -16 2 -31 8 -11
20 -20 27 -20 11 0 92 -135 85 -142 -1 -2 -20 6 -42 16 -91 45 -145 56 -261
55 -82 -1 -122 -6 -148 -18 -22 -11 -47 -15 -67 -11 -21 4 -53 -2 -88 -15 -30
-11 -73 -20 -95 -20 -22 0 -49 -6 -60 -13 -65 -44 -75 -50 -70 -34 10 24 80
76 147 107 35 16 70 34 78 39 8 5 36 17 62 26 25 9 58 27 73 40 14 14 33 25
42 25 9 0 14 3 10 6 -3 4 11 41 32 83 21 42 42 87 46 100 9 30 45 71 61 71 7
0 25 -5 40 -11z m-677 -113 c-9 -8 -10 -7 -5 7 3 10 7 24 7 30 1 7 3 4 6 -7 3
-10 -1 -23 -8 -30z m-109 9 c30 -15 59 -55 41 -55 -5 0 -13 -10 -17 -22 -4
-13 -14 -28 -23 -34 -13 -10 -13 -14 -2 -28 11 -14 11 -16 -4 -16 -21 0 -14
-24 8 -28 10 -2 17 3 17 12 0 34 28 14 40 -28 11 -42 7 -86 -9 -86 -11 0 -52
45 -65 72 -8 15 -32 29 -79 43 -37 12 -73 27 -79 33 -7 7 -19 12 -28 12 -9 0
-19 3 -23 6 -11 11 22 62 56 88 62 47 116 57 167 31z m2860 -132 c0 -15 -49
52 -50 67 0 8 11 -2 25 -22 14 -20 25 -41 25 -45z m-619 12 c-1 -15 -24 -12
-29 3 -3 9 2 13 12 10 10 -1 17 -7 17 -13z m23 -31 c13 -5 14 -9 5 -20 -17
-21 -39 -17 -39 6 0 21 8 24 34 14z m-3704 -106 c0 -10 4 -18 9 -18 5 0 9 -16
9 -35 0 -19 -2 -35 -5 -35 -17 0 -43 24 -43 39 0 10 -6 24 -14 31 -15 12 -12
33 8 58 8 11 12 11 23 -4 7 -10 13 -26 13 -36z m3720 42 c0 -5 -4 -10 -10 -10
-5 0 -10 5 -10 10 0 6 5 10 10 10 6 0 10 -4 10 -10z m-1103 -15 c17 -6 10
-114 -8 -126 -19 -12 -33 -6 -38 17 -2 10 -12 38 -22 61 -10 23 -19 46 -19 52
0 9 53 6 87 -4z m-2560 -21 c-3 -3 -12 -4 -19 -1 -8 3 -5 6 6 6 11 1 17 -2 13
-5z m3063 -106 c0 -27 -4 -48 -10 -48 -17 0 -33 76 -25 117 l8 38 13 -30 c7
-16 13 -51 14 -77z m-585 32 c-4 -17 -11 -30 -16 -30 -15 0 -23 30 -10 43 6 6
11 20 11 32 1 19 1 19 11 2 6 -10 7 -31 4 -47z m-2375 30 c0 -5 -4 -10 -10
-10 -5 0 -10 5 -10 10 0 6 5 10 10 10 6 0 10 -4 10 -10z m58 -28 c2 -7 -2 -10
-11 -6 -9 3 -21 -4 -30 -16 -9 -13 -18 -17 -21 -11 -4 5 -14 7 -23 4 -11 -4
-14 -2 -11 8 3 8 14 13 26 12 11 -1 26 4 33 13 13 16 31 14 37 -4z m116 3 c-4
-8 -8 -15 -10 -15 -2 0 -4 7 -4 15 0 8 4 15 10 15 5 0 7 -7 4 -15z m136 -86
c0 -6 -4 -7 -10 -4 -5 3 -10 11 -10 16 0 6 5 7 10 4 6 -3 10 -11 10 -16z
m2048 -34 c3 -25 2 -27 -12 -16 -19 16 -22 55 -3 49 6 -3 14 -17 15 -33z m-6
-52 c9 -22 12 -24 15 -10 5 18 28 23 37 8 3 -5 19 -11 36 -13 24 -4 30 -1 30
13 0 15 6 17 29 13 16 -4 32 -1 35 5 4 6 16 11 27 11 14 0 19 -7 19 -25 0 -16
6 -25 16 -25 10 0 14 -8 13 -22 -3 -22 27 -96 72 -179 21 -40 25 -64 9 -54 -5
3 -19 1 -31 -5 -18 -10 -20 -18 -15 -74 2 -34 6 -67 7 -72 1 -5 0 -16 -4 -24
-3 -8 -13 -36 -23 -62 -9 -27 -21 -48 -25 -48 -5 0 -9 -7 -9 -15 0 -8 -7 -15
-16 -15 -14 0 -14 -3 -4 -15 14 -16 6 -18 -25 -6 -16 6 -20 17 -20 56 0 29 -5
50 -13 53 -7 2 -12 12 -12 22 0 10 -5 22 -10 25 -6 3 -7 23 -4 44 4 27 2 40
-10 50 -9 7 -16 19 -16 27 0 7 -9 18 -20 24 -11 6 -20 17 -20 25 0 23 -20 18
-29 -7 -8 -21 -10 -21 -16 -5 -4 10 0 28 10 43 19 30 19 31 -15 36 -20 2 -26
-2 -28 -19 -2 -13 -7 -23 -12 -23 -4 0 -11 -15 -14 -33 -3 -19 -20 -47 -37
-63 l-32 -29 7 30 c15 62 18 167 7 208 -11 39 -10 47 19 110 34 72 54 83 72
40z m-1905 -45 c-3 -8 -6 -5 -6 6 -1 11 2 17 5 13 3 -3 4 -12 1 -19z m40 -20
c-3 -8 -6 -5 -6 6 -1 11 2 17 5 13 3 -3 4 -12 1 -19z m43 -38 c0 -5 -2 -10 -4
-10 -3 0 -8 5 -11 10 -3 6 -1 10 4 10 6 0 11 -4 11 -10z m2208 -72 c17 -17 15
-31 -3 -24 -11 4 -15 -1 -15 -17 l-1 -22 -19 24 c-11 13 -20 29 -20 37 0 17
41 19 58 2z m-485 -44 c-10 -25 -23 -15 -23 19 1 30 2 31 15 14 7 -11 11 -25
8 -33z m-39 -119 c3 -9 0 -15 -9 -15 -16 0 -27 14 -18 24 10 10 21 7 27 -9z
m-46 -64 c3 -19 -1 -22 -20 -19 -23 3 -24 1 -11 -43 5 -18 -19 -31 -41 -23
-31 12 -27 38 11 75 43 41 56 43 61 10z m522 -1 c0 -5 -2 -10 -4 -10 -3 0 -8
5 -11 10 -3 6 -1 10 4 10 6 0 11 -4 11 -10z m-642 -122 c-48 -30 -52 -17 -11
33 l28 32 5 -24 c5 -19 0 -28 -22 -41z m449 -93 c1 -5 -8 -11 -22 -11 -25 -2
-32 6 -18 20 9 9 36 3 40 -9z m-1093 -31 c4 -10 1 -14 -6 -12 -15 5 -23 28
-10 28 5 0 13 -7 16 -16z m1043 -7 c15 6 53 -23 53 -41 0 -6 -5 -5 -12 2 -16
16 -45 15 -51 0 -3 -10 -9 -9 -22 4 -11 10 -15 23 -11 34 5 12 10 14 18 6 6
-6 17 -8 25 -5z m-67 -27 c0 -5 -5 -10 -11 -10 -5 0 -7 5 -4 10 3 6 8 10 11
10 2 0 4 -4 4 -10z m1334 -145 c3 -8 1 -15 -3 -15 -5 0 -11 7 -15 15 -3 8 -1
15 3 15 5 0 11 -7 15 -15z m-2345 -102 c-1 -34 -2 -35 -9 -13 -11 36 -11 50 0
50 6 0 10 -17 9 -37z m46 -73 c-3 -5 -12 -10 -18 -10 -7 0 -6 4 3 10 19 12 23
12 15 0z m2440 -50 c3 -5 1 -10 -4 -10 -6 0 -11 5 -11 10 0 6 2 10 4 10 3 0 8
-4 11 -10z m-153 -317 c-6 -3 -10 -8 -8 -12 3 -4 -4 -7 -15 -7 -19 0 -18 1 3
17 12 10 25 15 28 12 3 -3 -1 -8 -8 -10z m-196 -62 c-4 -5 -1 -11 6 -13 7 -3
-1 -9 -18 -15 -27 -10 -31 -9 -30 5 0 10 6 20 11 24 14 11 37 10 31 -1z m-151
-121 c-28 -12 -37 -12 -30 0 3 6 16 10 28 9 21 0 21 -1 2 -9z"/>
<path d="M7635 7110 c-3 -5 0 -10 9 -10 8 0 16 -5 18 -12 3 -7 9 -8 18 -3 10
6 9 11 -5 22 -22 16 -32 16 -40 3z"/>
<path d="M7720 6950 c0 -13 48 -35 57 -27 8 8 -26 36 -44 37 -7 0 -13 -5 -13
-10z"/>
<path d="M7753 6793 c9 -2 23 -2 30 0 6 3 -1 5 -18 5 -16 0 -22 -2 -12 -5z"/>
<path d="M3450 6810 c0 -13 49 -32 67 -26 7 3 13 12 13 21 0 11 -11 15 -40 15
-22 0 -40 -5 -40 -10z"/>
<path d="M5086 5836 c3 -8 12 -12 21 -9 12 5 12 7 1 14 -20 13 -28 11 -22 -5z"/>
<path d="M6033 5720 c-78 -18 -215 -67 -310 -112 -54 -25 -163 -111 -185 -146
-68 -106 78 -370 249 -450 50 -23 70 -27 153 -27 122 0 212 27 313 95 101 68
133 105 147 177 30 141 -29 376 -107 431 -65 45 -153 56 -260 32z"/>
<path d="M5170 5637 c0 -24 25 -48 43 -41 23 8 22 31 -2 44 -26 14 -41 13 -41
-3z"/>
<path d="M4705 5593 c-19 -21 -33 -39 -31 -41 2 -2 26 11 54 27 27 17 54 31
60 31 6 0 14 5 17 10 4 6 -8 10 -30 10 -29 0 -43 -7 -70 -37z"/>
<path d="M5471 5304 c0 -11 3 -14 6 -6 3 7 2 16 -1 19 -3 4 -6 -2 -5 -13z"/>
<path d="M9353 6426 c11 -28 83 -130 107 -151 l23 -20 -13 25 c-7 14 -33 53
-57 87 -46 65 -72 90 -60 59z"/>
<path d="M9270 6196 c0 -12 94 -76 112 -76 10 0 36 -12 58 -26 22 -15 43 -24
46 -22 3 3 -30 25 -73 48 -43 24 -93 52 -110 62 -18 11 -33 17 -33 14z"/>
<path d="M9675 6040 c-3 -5 -1 -10 4 -10 6 0 11 5 11 10 0 6 -2 10 -4 10 -3 0
-8 -4 -11 -10z"/>
<path d="M8133 5443 c-17 -6 -17 -53 0 -53 21 0 35 20 30 41 -5 20 -9 21 -30
12z"/>
<path d="M6030 4432 c0 -12 19 -26 26 -19 2 2 -2 10 -11 17 -9 8 -15 8 -15 2z"/>
<path d="M6080 4430 c0 -5 5 -10 10 -10 6 0 10 5 10 10 0 6 -4 10 -10 10 -5 0
-10 -4 -10 -10z"/>
<path d="M4035 7879 c-4 -6 -5 -13 -2 -16 7 -7 27 6 27 18 0 12 -17 12 -25 -2z"/>
<path d="M4130 7765 c0 -17 35 -55 51 -55 10 0 24 -9 31 -20 7 -11 18 -20 24
-20 16 0 28 34 13 39 -6 2 -19 12 -27 22 -9 11 -24 19 -34 19 -9 0 -20 5 -23
10 -6 10 -35 14 -35 5z"/>
<path d="M1294 7679 c-6 -11 12 -55 31 -74 6 -6 25 -21 43 -34 41 -29 57 -16
53 39 -1 20 -118 83 -127 69z"/>
<path d="M1489 7509 c-8 -16 -8 -28 0 -46 10 -23 12 -23 36 -7 30 19 32 35 7
57 -24 22 -29 21 -43 -4z"/>
<path d="M4054 7475 c-4 -8 -12 -15 -20 -15 -22 0 -16 -16 11 -34 14 -9 23
-21 20 -26 -3 -5 -1 -11 4 -15 6 -3 8 -12 4 -20 -5 -16 -4 -16 37 -21 14 -2
37 -6 52 -10 21 -5 27 -2 33 15 8 26 0 40 -31 51 -13 5 -24 16 -24 24 0 12
-60 66 -75 66 -3 0 -8 -7 -11 -15z"/>
<path d="M1680 7415 c-26 -31 27 -94 70 -80 28 9 25 26 -13 63 -38 37 -40 37
-57 17z"/>
<path d="M4502 6888 c-22 -22 -13 -36 23 -36 38 0 43 8 19 32 -19 19 -26 20
-42 4z"/>
<path d="M4443 6813 c9 -2 25 -2 35 0 9 3 1 5 -18 5 -19 0 -27 -2 -17 -5z"/>
<path d="M4505 6800 c3 -5 11 -10 16 -10 6 0 7 5 4 10 -3 6 -11 10 -16 10 -6
0 -7 -4 -4 -10z"/>
<path d="M3270 6090 c0 -5 4 -10 9 -10 5 0 18 -3 28 -7 16 -6 16 -5 4 10 -15
19 -41 23 -41 7z"/>
<path d="M2191 6071 c-12 -21 -5 -31 20 -31 19 0 29 17 21 38 -6 18 -30 15
-41 -7z"/>
<path d="M3820 5875 c33 -19 50 -18 26 0 -11 8 -27 15 -35 15 -10 -1 -7 -6 9
-15z"/>
<path d="M2097 5753 c-3 -5 -2 -15 2 -22 7 -10 10 -10 16 -1 4 6 3 16 -3 22
-5 5 -12 6 -15 1z"/>
<path d="M9868 5679 c-11 -6 -18 -22 -18 -38 0 -16 -14 -46 -34 -72 -27 -36
-35 -58 -44 -124 -6 -44 -9 -100 -6 -125 3 -25 6 -55 7 -67 1 -13 5 -23 8 -23
12 0 19 30 13 58 -4 19 -1 32 10 41 8 7 13 18 10 25 -3 8 10 35 28 62 18 27
34 58 35 69 5 51 21 113 36 141 15 30 15 33 -2 48 -20 19 -20 19 -43 5z"/>
<path d="M1945 5521 c7 -14 22 -34 33 -44 20 -18 21 -18 46 0 14 10 26 21 26
24 0 15 -34 33 -75 39 l-44 7 14 -26z"/>
<path d="M460 5393 c0 -18 76 -18 83 1 4 10 -5 14 -39 13 -30 0 -44 -5 -44
-14z"/>
<path d="M2740 5290 c0 -5 5 -10 11 -10 5 0 7 5 4 10 -3 6 -8 10 -11 10 -2 0
-4 -4 -4 -10z"/>
<path d="M2790 5279 c0 -5 5 -7 10 -4 6 3 10 8 10 11 0 2 -4 4 -10 4 -5 0 -10
-5 -10 -11z"/>
<path d="M551 5241 c-12 -8 -12 -12 2 -26 10 -9 17 -20 17 -25 0 -18 114 -38
124 -21 3 5 15 7 25 4 10 -3 22 0 25 6 4 6 0 11 -8 11 -9 0 -16 3 -16 8 0 21
-145 58 -169 43z"/>
<path d="M2922 5218 c3 -7 20 -14 39 -16 32 -3 33 -3 14 12 -24 19 -58 21 -53
4z"/>
<path d="M9776 5144 c-4 -9 -4 -19 -1 -22 2 -3 7 3 11 12 4 9 4 19 1 22 -2 3
-7 -3 -11 -12z"/>
<path d="M2892 5146 c3 -4 23 -12 43 -16 22 -5 34 -5 28 1 -10 10 -81 25 -71
15z"/>
<path d="M1000 5113 c0 -22 26 -73 37 -73 17 0 16 10 -2 33 -7 11 -11 25 -8
33 3 8 -1 14 -11 14 -9 0 -16 -3 -16 -7z"/>
<path d="M1934 4725 c11 -8 27 -15 35 -15 13 1 12 4 -3 15 -11 8 -27 15 -35
15 -13 -1 -12 -4 3 -15z"/>
<path d="M2315 4603 c15 -16 55 -26 55 -14 0 6 -6 11 -14 11 -8 0 -23 3 -33 6
-12 5 -15 4 -8 -3z"/>
<path d="M965 1860 c-18 -7 -18 -8 8 -15 30 -8 43 -2 32 14 -7 13 -12 13 -40
1z"/>
<path d="M806 1841 c-3 -5 1 -11 9 -14 9 -4 12 -1 8 9 -6 16 -10 17 -17 5z"/>
<path d="M540 1760 c0 -5 12 -10 26 -10 14 0 23 4 19 10 -3 6 -15 10 -26 10
-10 0 -19 -4 -19 -10z"/>
<path d="M533 1694 c-10 -27 12 -37 46 -20 41 22 39 36 -4 36 -23 0 -38 -6
-42 -16z"/>
<path d="M1030 1675 c0 -8 7 -15 15 -15 8 0 15 4 15 9 0 5 -7 11 -15 15 -9 3
-15 0 -15 -9z"/>
<path d="M935 1660 c-3 -5 -1 -10 4 -10 6 0 11 5 11 10 0 6 -2 10 -4 10 -3 0
-8 -4 -11 -10z"/>
<path d="M1118 1613 c7 -3 16 -2 19 1 4 3 -2 6 -13 5 -11 0 -14 -3 -6 -6z"/>
<path d="M560 1601 c0 -5 7 -14 15 -21 12 -10 19 -9 38 3 12 8 32 17 42 20 11
2 -6 5 -37 6 -32 0 -58 -3 -58 -8z"/>
<path d="M740 1570 c0 -5 7 -7 15 -4 8 4 15 8 15 10 0 2 -7 4 -15 4 -8 0 -15
-4 -15 -10z"/>
<path d="M856 1549 c-13 -10 -32 -19 -42 -19 -17 0 -17 -1 -2 -16 12 -12 35
-17 82 -17 99 -1 115 28 31 56 -41 15 -46 14 -69 -4z"/>
<path d="M1781 1516 c-17 -20 -6 -36 24 -36 21 0 23 3 16 22 -10 28 -25 33
-40 14z"/>
<path d="M620 1487 c0 -18 58 -125 103 -189 26 -38 47 -58 61 -59 64 -3 106
-4 106 -1 0 2 -12 15 -26 29 l-26 26 22 17 c19 15 20 18 6 23 -9 4 -21 18 -26
32 -6 16 -17 25 -31 25 -17 0 -20 4 -16 21 6 21 4 21 -54 16 -57 -7 -59 -6
-59 17 0 17 -9 29 -30 40 -21 10 -30 11 -30 3z"/>
<path d="M1150 1410 c0 -5 5 -10 10 -10 6 0 10 5 10 10 0 6 -4 10 -10 10 -5 0
-10 -4 -10 -10z"/>
<path d="M2038 1380 c-15 -17 -15 -19 8 -24 14 -4 36 0 52 8 l27 14 -28 11
c-36 14 -38 13 -59 -9z"/>
<path d="M1470 1360 c0 -5 5 -10 10 -10 6 0 10 5 10 10 0 6 -4 10 -10 10 -5 0
-10 -4 -10 -10z"/>
<path d="M1415 1350 c-4 -6 3 -10 14 -10 25 0 27 6 6 13 -8 4 -17 2 -20 -3z"/>
<path d="M974 1286 c14 -23 14 -26 -1 -41 -10 -10 -25 -14 -38 -11 -17 4 -32
-2 -54 -23 -17 -16 -31 -34 -31 -40 0 -20 40 -12 63 12 34 37 64 49 86 37 14
-7 29 -6 53 5 29 12 31 21 4 16 -5 -1 -6 5 -3 13 8 20 -35 56 -67 56 -28 0
-28 -1 -12 -24z"/>
<path d="M1305 1295 c-18 -14 -16 -15 35 -9 60 7 78 14 37 14 -14 0 -31 2 -39
5 -7 3 -22 -1 -33 -10z"/>
<path d="M1447 1302 c-9 -2 -15 -8 -12 -13 8 -12 45 -12 45 0 0 13 -12 18 -33
13z"/>
<path d="M1108 1280 c27 -29 28 -40 3 -40 -14 0 -18 -5 -14 -20 4 -16 13 -19
55 -17 52 2 58 -2 104 -68 13 -18 27 -20 132 -21 268 -3 261 -3 282 -24 11
-11 20 -16 20 -11 0 5 10 13 22 17 21 6 21 7 3 20 -10 8 -35 14 -54 14 l-36 0
33 17 c18 8 31 17 30 19 -9 9 -95 11 -110 3 -14 -7 -20 -6 -24 5 -9 23 -67 31
-95 13 -32 -20 -147 -50 -165 -43 -26 10 -14 26 20 26 18 0 39 7 46 15 10 12
8 16 -11 24 -13 5 -37 21 -53 35 -36 32 -39 32 -70 1 -16 -16 -36 -25 -56 -25
-35 0 -39 11 -8 25 32 15 33 32 1 38 -15 3 -39 9 -52 13 l-25 7 22 -23z m432
-125 c-16 -19 -31 -19 -56 0 -18 13 -16 14 25 15 37 0 42 -2 31 -15z"/>
<path d="M1860 1260 c0 -5 5 -10 11 -10 5 0 7 5 4 10 -3 6 -8 10 -11 10 -2 0
-4 -4 -4 -10z"/>
<path d="M2325 1260 c-3 -5 1 -10 9 -10 8 0 18 5 21 10 3 6 -1 10 -9 10 -8 0
-18 -4 -21 -10z"/>
<path d="M1415 1221 c-8 -27 -2 -36 13 -18 6 7 7 18 3 26 -7 10 -10 8 -16 -8z"/>
<path d="M2395 1189 c-11 -17 1 -21 15 -4 8 9 8 15 2 15 -6 0 -14 -5 -17 -11z"/>
<path d="M3172 1159 c16 -11 95 -12 101 -1 3 4 -22 7 -54 8 -35 0 -54 -3 -47
-7z"/>
<path d="M890 1120 c-18 -11 -11 -18 29 -30 33 -9 43 4 19 28 -14 14 -28 15
-48 2z"/>
<path d="M1030 1040 c0 -23 31 -27 49 -7 14 17 4 27 -26 27 -16 0 -23 -6 -23
-20z"/>
<path d="M1467 1023 c-4 -3 -7 -11 -7 -17 0 -6 5 -5 12 2 6 6 9 14 7 17 -3 3
-9 2 -12 -2z"/>
<path d="M1148 1011 c-142 -7 -160 -18 -108 -61 41 -35 51 -36 74 -11 24 27
148 36 218 15 91 -27 180 -79 113 -66 -14 2 -25 0 -25 -6 0 -5 15 -12 33 -16
17 -3 44 -9 60 -12 22 -5 27 -3 27 13 0 20 16 29 120 69 l35 13 -34 1 c-33 0
-34 1 -15 15 18 13 17 14 -19 15 -45 0 -101 -22 -114 -45 -9 -15 -12 -15 -41
2 -17 10 -36 28 -42 41 -9 20 -16 23 -43 19 -21 -3 -38 1 -50 11 -16 14 -19
14 -27 2 -7 -12 -12 -12 -22 -2 -6 6 -14 11 -17 10 -4 -1 -59 -4 -123 -7z"/>
<path d="M2050 980 c0 -5 4 -10 9 -10 6 0 13 5 16 10 3 6 -1 10 -9 10 -9 0
-16 -4 -16 -10z"/>
<path d="M3595 980 c-4 -6 -22 -17 -41 -25 -36 -15 -40 -21 -23 -45 8 -11 12
-12 16 -2 2 6 21 12 40 12 31 0 34 2 22 16 -10 12 -10 20 -1 35 7 10 8 19 3
19 -6 0 -13 -5 -16 -10z"/>
<path d="M3925 960 c3 -5 10 -10 16 -10 5 0 9 5 9 10 0 6 -7 10 -16 10 -8 0
-12 -4 -9 -10z"/>
<path d="M1756 951 c-17 -6 -16 -9 10 -19 56 -21 91 -24 97 -8 6 14 -4 21 -25
17 -5 0 -8 3 -8 7 0 11 -48 12 -74 3z"/>
<path d="M1970 920 c-33 -18 -33 -19 -10 -19 30 -1 54 13 49 27 -3 6 -18 3
-39 -8z"/>
<path d="M3702 935 c15 -15 68 -23 77 -11 8 10 0 13 -36 15 -26 1 -44 -1 -41
-4z"/>
<path d="M1880 890 c0 -12 8 -12 35 0 18 8 17 9 -7 9 -16 1 -28 -3 -28 -9z"/>
<path d="M1180 860 c0 -5 12 -17 28 -27 15 -10 33 -24 41 -31 11 -11 18 -10
40 4 72 47 87 64 56 64 -8 0 -15 -5 -15 -11 0 -8 -12 -10 -35 -6 -19 3 -37 1
-40 -4 -4 -5 -13 -3 -21 6 -17 17 -54 20 -54 5z"/>
<path d="M2705 790 c-3 -6 1 -7 9 -4 18 7 21 14 7 14 -6 0 -13 -4 -16 -10z"/>
<path d="M3670 790 c0 -5 11 -10 24 -10 14 0 28 5 31 10 4 6 -7 10 -24 10 -17
0 -31 -4 -31 -10z"/>
<path d="M1500 782 c0 -15 46 -52 63 -52 25 0 21 19 -7 30 -13 5 -27 14 -31
19 -7 13 -25 15 -25 3z"/>
<path d="M2170 783 c0 -16 35 -43 70 -53 47 -14 49 -4 4 15 -21 9 -46 23 -56
32 -10 9 -18 12 -18 6z"/>
<path d="M2549 730 c-20 -16 -21 -19 -7 -20 9 0 21 6 25 14 4 7 15 16 23 19
13 4 12 6 -1 6 -9 1 -27 -8 -40 -19z"/>
<path d="M1400 720 c-13 -8 -12 -12 6 -30 20 -20 22 -20 38 -5 9 10 15 22 13
29 -5 15 -38 19 -57 6z"/>
<path d="M2420 700 c20 -13 77 -13 85 0 4 6 -14 10 -47 10 -38 0 -49 -3 -38
-10z"/>
<path d="M2195 679 c-4 -6 -5 -13 -2 -16 7 -7 27 6 27 18 0 12 -17 12 -25 -2z"/>
<path d="M2000 676 c0 -2 9 -6 20 -9 11 -3 20 -1 20 4 0 5 -9 9 -20 9 -11 0
-20 -2 -20 -4z"/>
<path d="M3454 666 c-27 -20 -12 -30 33 -21 35 6 37 8 18 21 -23 17 -27 17
-51 0z"/>
<path d="M1480 656 c0 -14 37 -33 46 -23 2 2 2 12 -2 21 -8 20 -44 21 -44 2z"/>
<path d="M1920 652 c-19 -9 -36 -25 -38 -34 -5 -26 8 -22 52 17 43 39 39 44
-14 17z"/>
<path d="M2041 634 c-28 -29 -38 -34 -63 -29 -29 7 -63 -10 -53 -26 3 -4 3
-20 -1 -34 -5 -19 -12 -25 -28 -23 -11 2 -20 10 -18 17 2 9 -3 11 -15 6 -10
-4 -30 -10 -45 -13 -64 -10 -9 -59 81 -72 50 -7 61 -5 99 18 41 23 45 24 75
10 28 -13 35 -14 54 -1 19 13 28 12 73 -4 l52 -18 19 24 c23 28 16 39 -38 57
-24 8 -59 11 -95 7 -60 -6 -79 1 -99 38 -8 15 -2 21 37 38 26 12 53 21 60 21
8 0 14 5 14 10 0 6 -17 10 -37 10 -30 -1 -45 -8 -72 -36z m179 -115 c0 -10
-14 -13 -45 -9 -24 2 -29 6 -21 18 6 11 66 3 66 -9z m-90 -9 c0 -5 -4 -10 -10
-10 -5 0 -10 5 -10 10 0 6 5 10 10 10 6 0 10 -4 10 -10z"/>
<path d="M3114 569 c-10 -17 7 -26 62 -34 57 -7 74 3 48 30 -12 12 -19 13 -29
5 -10 -8 -19 -8 -34 -1 -25 14 -38 14 -47 0z"/>
<path d="M2286 421 c-14 -5 -16 -10 -8 -15 15 -9 52 2 52 15 0 11 -17 11 -44
0z"/>
<path d="M2436 421 c5 -5 19 -12 32 -16 16 -5 22 -2 22 9 0 11 -10 16 -32 16
-19 0 -28 -4 -22 -9z"/>
</g>
</svg>
