<?xml version="1.0" standalone="no"?>
<!DOCTYPE svg PUBLIC "-//W3C//DTD SVG 20010904//EN"
 "http://www.w3.org/TR/2001/REC-SVG-20010904/DTD/svg10.dtd">
<svg version="1.0" xmlns="http://www.w3.org/2000/svg"
 width="1080.000000pt" height="1001.000000pt" viewBox="0 0 1080.000000 1001.000000"
 preserveAspectRatio="xMidYMid meet">

<g transform="translate(0.000000,1001.000000) scale(0.100000,-0.100000)"
fill="#000000" stroke="none">
<path d="M6560 9690 c-255 -23 -548 -115 -774 -241 -103 -58 -255 -160 -278
-187 -10 -11 -20 -58 -27 -132 -7 -63 -16 -149 -21 -190 -5 -41 -11 -198 -14
-348 l-4 -272 25 -6 c14 -4 34 -14 43 -23 9 -9 25 -22 36 -29 18 -12 17 -12
-6 -7 -100 23 -150 28 -258 27 -87 0 -122 3 -119 11 5 16 42 25 105 26 28 1
52 6 52 11 0 6 11 10 24 10 l23 0 5 403 c3 221 4 404 2 406 -2 3 -55 -48 -117
-111 -61 -64 -128 -124 -147 -134 -47 -24 -162 -25 -207 -1 -17 9 -89 57 -158
107 -213 151 -388 239 -623 314 -330 104 -723 108 -1052 10 -230 -68 -415
-150 -639 -283 -476 -282 -983 -804 -1279 -1316 -126 -216 -282 -537 -254
-522 11 6 43 -31 32 -38 -13 -8 11 -45 29 -45 9 0 10 4 4 13 -6 6 -13 34 -16
60 l-5 48 24 -22 c20 -19 21 -23 8 -36 -17 -17 -19 -27 -2 -17 8 5 9 2 5 -9
-8 -22 16 -17 25 5 4 11 14 15 27 11 16 -4 21 -1 21 16 0 12 6 21 16 21 8 0
13 4 10 9 -4 5 0 12 6 14 10 4 10 6 0 6 -7 1 -10 6 -7 12 5 7 14 4 28 -8 11
-10 17 -12 13 -5 -10 16 46 16 62 0 10 -10 15 -10 21 0 7 11 10 10 14 -3 4 -9
3 -13 -3 -10 -6 3 -10 2 -10 -4 0 -22 50 -37 62 -18 6 9 8 8 8 -3 1 -12 4 -11
15 4 20 26 28 15 15 -18 -6 -18 -6 -25 0 -21 6 3 10 -2 10 -11 0 -10 3 -14 7
-11 3 4 14 0 24 -9 16 -14 18 -14 24 5 8 26 -4 49 -15 31 -15 -25 -32 2 -28
44 3 29 0 45 -11 53 -14 11 -12 12 11 13 27 0 47 -15 27 -22 -6 -2 -13 -20
-16 -41 -4 -36 -3 -38 19 -32 16 4 29 1 38 -10 9 -11 15 -13 20 -4 6 8 9 8 14
0 4 -6 -2 -15 -14 -19 -21 -8 -21 -8 -1 -30 17 -20 20 -21 23 -6 2 10 14 18
33 19 17 2 24 1 17 -2 -6 -3 -10 -8 -7 -13 3 -5 -3 -11 -14 -15 -14 -4 -19
-15 -19 -41 l0 -36 22 21 c26 25 36 26 36 6 0 -8 5 -15 10 -15 6 0 10 -9 10
-19 0 -11 5 -23 10 -26 6 -4 10 5 10 19 0 31 3 31 36 10 14 -10 24 -13 23 -8
-4 25 2 35 20 29 14 -4 21 0 26 15 6 20 8 21 26 4 10 -9 16 -20 14 -24 -3 -4
2 -11 11 -14 8 -3 13 -10 10 -15 -3 -4 6 -7 19 -5 14 1 25 -2 25 -6 0 -5 14
-7 31 -5 25 4 29 2 20 -9 -9 -11 -4 -14 29 -14 28 -1 43 4 47 14 4 12 10 9 24
-13 11 -15 17 -34 14 -40 -2 -7 0 -13 4 -13 5 0 9 15 9 34 0 44 7 55 32 49 22
-6 26 -19 7 -26 -6 -2 -5 -3 4 -2 9 1 23 -1 30 -6 12 -8 11 -11 -1 -19 -13 -9
-13 -11 0 -19 9 -7 17 -6 21 1 4 7 9 7 13 -1 4 -6 5 -15 2 -19 -2 -4 4 -9 15
-9 10 -1 19 2 19 8 0 5 7 9 15 9 21 0 19 -13 -5 -30 -11 -8 -20 -18 -20 -22 0
-11 44 -5 52 7 5 6 8 2 8 -9 0 -10 -8 -25 -17 -32 -10 -7 -15 -16 -11 -20 5
-4 18 5 31 19 27 32 58 37 50 8 -3 -11 -13 -21 -24 -24 -10 -3 -19 -11 -18
-19 0 -10 2 -10 6 0 7 18 60 14 80 -7 10 -10 28 -20 39 -23 18 -5 21 -1 20 18
0 14 -6 22 -13 20 -13 -5 -22 13 -16 31 3 9 11 8 29 -3 20 -14 27 -14 41 -3
15 13 16 11 11 -13 -4 -23 -2 -28 14 -28 16 0 17 -3 7 -22 -11 -21 -12 -21
-25 -3 -8 10 -17 16 -20 12 -4 -4 -1 -13 6 -22 9 -11 9 -15 1 -15 -7 0 -9 -5
-6 -11 5 -7 14 -4 27 7 16 16 21 16 28 4 15 -23 12 -41 -7 -56 -10 -7 -14 -16
-10 -21 5 -4 13 0 18 10 8 14 14 15 31 6 17 -9 20 -9 15 4 -3 9 1 17 13 20 13
3 17 11 13 26 -6 22 3 26 25 12 11 -7 10 -12 -5 -27 -19 -19 -43 -66 -43 -84
0 -6 5 -10 11 -10 6 0 9 6 6 14 -3 7 4 21 14 30 17 14 22 15 34 2 8 -7 11 -17
7 -21 -4 -5 -2 -5 5 -1 13 7 57 -30 49 -42 -2 -4 3 -8 12 -8 14 0 17 7 14 33
-3 22 0 33 8 33 7 0 10 -8 7 -20 -7 -26 14 -42 31 -24 7 7 12 17 12 21 0 15
33 8 38 -7 3 -8 1 -12 -3 -8 -4 4 -16 3 -27 -3 -14 -8 -17 -14 -9 -23 6 -7 7
-17 3 -21 -4 -5 1 -5 10 -2 28 10 51 -2 37 -19 -20 -24 0 -29 21 -6 23 24 35
27 45 12 3 -5 14 -10 23 -10 15 0 15 2 2 10 -12 8 -9 10 13 10 27 0 38 22 17
35 -5 3 -10 12 -9 18 0 9 2 9 5 0 7 -15 34 -5 34 13 0 8 6 11 17 7 14 -6 14
-8 -5 -24 -12 -9 -22 -22 -22 -28 0 -15 9 -14 26 4 9 8 24 15 35 15 10 0 19 5
19 11 0 5 -5 7 -10 4 -6 -4 -8 3 -6 17 7 35 7 35 15 8 6 -21 13 -25 42 -24 36
0 55 -12 54 -36 -1 -8 3 -20 8 -27 5 -7 5 -18 1 -24 -4 -7 -3 -9 2 -6 6 3 16
1 24 -4 12 -8 12 -12 3 -16 -15 -5 -18 -33 -4 -33 6 0 13 4 16 10 4 6 11 5 19
-3 8 -6 12 -16 9 -20 -3 -5 27 -7 66 -6 65 2 74 0 102 -25 23 -21 37 -26 55
-22 17 5 33 0 51 -14 32 -25 38 -25 76 2 22 16 32 18 35 9 3 -9 9 -8 24 5 19
18 48 28 47 16 -4 -26 2 -34 15 -22 31 25 139 -11 121 -40 -6 -9 -2 -9 16 0
27 13 30 17 -71 -87 -22 -23 -40 -50 -40 -60 0 -11 -5 -24 -12 -31 -24 -24 10
-12 41 14 29 24 34 25 68 13 21 -6 52 -18 68 -26 30 -15 30 -15 -5 17 -73 66
49 -5 181 -107 l57 -43 99 105 c111 116 129 124 179 78 22 -20 25 -28 14 -31
-8 -3 -33 -17 -55 -32 -22 -15 -52 -35 -67 -44 -31 -18 -36 -51 -14 -81 12
-17 16 -18 32 -5 17 14 -36 -57 -101 -135 l-24 -30 20 40 c21 43 22 76 2 82
-7 3 -41 -24 -76 -59 -66 -66 -79 -99 -51 -129 14 -15 14 -20 0 -47 -9 -17
-20 -34 -26 -37 -5 -3 -10 -21 -10 -40 0 -25 7 -39 28 -56 26 -21 33 -21 167
-15 194 9 191 7 236 96 20 41 35 78 32 83 -2 4 1 40 8 80 6 39 13 83 14 97 1
14 9 59 18 100 9 41 18 88 19 104 2 16 9 31 16 34 19 6 16 -171 -4 -238 -10
-34 -14 -71 -10 -98 3 -23 2 -50 -3 -60 -5 -9 -14 -28 -20 -42 -7 -14 -23 -43
-36 -65 -30 -51 -30 -55 -1 -55 35 0 56 10 56 27 0 8 4 12 10 8 5 -3 7 -12 3
-20 -3 -10 1 -15 16 -15 26 0 55 -42 46 -70 -6 -17 -8 -18 -21 -6 -12 13 -21
13 -60 1 -25 -7 -56 -20 -69 -29 -29 -19 -157 -46 -222 -47 -27 -1 -73 -9
-103 -19 -92 -30 -211 -27 -224 6 -9 22 5 74 19 74 34 0 24 121 -15 188 -19
32 -19 34 -2 52 10 11 26 42 36 70 12 32 40 75 75 113 31 33 51 58 45 54 -13
-7 -169 46 -193 66 -39 34 -42 27 -4 -9 24 -22 49 -41 56 -41 14 0 77 -43 77
-53 0 -9 -40 -41 -40 -32 0 4 -5 0 -10 -9 -6 -10 -26 -16 -57 -18 -26 -1 -49
-3 -50 -4 -1 -2 4 -21 12 -42 22 -61 20 -66 -17 -53 -58 19 -60 34 -5 28 23
-2 20 28 -5 44 -13 8 -22 6 -37 -8 -12 -11 -21 -25 -21 -33 0 -7 -9 -13 -19
-13 -11 0 -23 -4 -26 -10 -3 -5 -10 -10 -14 -10 -9 0 -41 66 -41 85 0 29 -25
66 -57 86 -38 24 -87 22 -125 -5 l-21 -15 29 -11 c47 -18 73 -49 72 -84 0 -17
2 -49 6 -72 6 -35 4 -43 -20 -67 -15 -15 -31 -27 -36 -27 -5 0 -22 -10 -38
-21 -16 -12 -36 -19 -44 -16 -9 4 -16 2 -16 -3 0 -6 4 -10 8 -10 12 0 65 -52
80 -78 16 -29 11 -37 -40 -63 -30 -15 -38 -24 -33 -37 13 -31 23 -66 36 -124
6 -32 16 -58 21 -58 18 0 7 -17 -19 -30 -49 -25 -53 -29 -42 -57 8 -23 8 -24
-6 -13 -8 7 -15 21 -15 31 0 31 -16 29 -32 -4 -12 -26 -26 -36 -68 -49 -29
-10 -57 -15 -61 -12 -10 6 31 105 47 111 7 2 10 11 7 19 -6 16 -39 19 -48 4
-4 -6 -25 -22 -48 -37 -23 -14 -49 -33 -58 -43 -16 -16 -14 -19 17 -44 65 -51
34 -46 -48 8 -57 39 -86 53 -97 47 -9 -5 -40 -11 -69 -15 -57 -7 -102 -24
-102 -38 0 -4 6 -8 13 -8 6 -1 21 -9 32 -18 19 -17 27 -27 63 -84 18 -29 62
-43 204 -68 75 -13 191 0 225 25 17 14 17 14 -7 15 -14 0 -42 -5 -63 -11 -39
-10 -109 -3 -88 10 18 11 -17 51 -45 51 -13 0 -24 5 -24 10 0 11 30 8 72 -9
15 -5 44 -13 65 -16 21 -3 64 -11 95 -18 l57 -12 -32 -22 c-18 -12 -57 -32
-87 -45 -30 -12 -98 -46 -151 -74 -125 -67 -263 -108 -339 -101 -69 7 -44 -11
28 -20 57 -6 168 21 285 72 42 18 77 32 77 30 0 -2 -21 -16 -47 -31 -27 -15
-91 -53 -143 -84 -52 -32 -113 -67 -135 -79 l-40 -21 39 6 c30 5 37 4 31 -6
-11 -18 31 -4 78 27 39 25 61 27 32 3 -8 -7 -15 -16 -15 -21 0 -28 96 15 154
70 l38 36 -21 -42 c-12 -23 -21 -58 -21 -78 0 -42 15 -39 23 4 6 28 65 106 74
97 2 -2 -5 -23 -17 -46 -12 -23 -19 -44 -17 -47 3 -2 33 30 67 72 35 41 64 74
66 73 1 -2 -7 -41 -17 -87 -19 -79 -20 -111 -2 -111 4 0 25 16 46 35 l37 34
-6 -27 c-4 -15 -11 -35 -15 -44 -18 -34 -8 -32 26 5 18 20 38 37 44 37 5 0 11
14 13 32 3 28 8 33 37 39 19 4 46 2 60 -4 14 -5 29 -11 33 -11 7 -1 65 -76 85
-110 12 -19 13 -17 13 20 0 61 -11 134 -21 134 -5 0 -9 -9 -9 -21 0 -11 -5
-17 -10 -14 -6 3 -7 17 -4 31 4 15 0 34 -10 49 -18 28 -20 44 -7 64 8 12 12
12 25 2 17 -15 15 -19 35 56 14 50 46 67 68 37 11 -15 13 -37 8 -94 -8 -88
-19 -119 -47 -141 -20 -15 -21 -21 -11 -55 6 -22 15 -61 20 -89 10 -60 30 -66
48 -12 30 87 55 87 55 0 1 -51 3 -64 11 -50 6 10 22 17 39 17 24 0 30 4 30 23
0 12 -9 39 -20 59 -18 35 -19 41 -6 80 8 24 16 75 19 113 4 66 4 68 -9 35 -7
-19 -13 -44 -13 -55 -2 -28 -48 -125 -61 -125 -5 0 -10 9 -10 19 0 11 -5 23
-10 26 -5 3 -10 34 -10 68 0 76 25 133 80 188 22 22 43 51 46 64 6 24 27 34
38 17 2 -4 -2 -32 -10 -61 -7 -30 -12 -56 -10 -58 1 -2 17 23 34 54 24 44 41
63 71 77 68 32 71 26 71 -131 0 -76 4 -156 9 -178 5 -22 12 -80 14 -130 5 -69
4 -80 -3 -46 -16 74 -22 60 -18 -39 3 -77 8 -102 26 -130 l22 -35 0 112 c0 61
-7 147 -15 190 -36 188 -29 333 18 333 11 0 17 3 14 7 -9 8 64 34 81 28 6 -2
12 -11 12 -20 0 -30 31 -66 51 -60 12 4 21 1 25 -8 3 -8 13 -13 24 -10 10 3
21 0 25 -7 5 -8 10 -8 21 1 11 9 14 8 14 -5 0 -18 22 -21 51 -5 18 9 19 13 7
27 -8 9 -27 39 -42 66 -23 39 -26 53 -18 71 12 26 71 43 83 23 9 -15 28 28 26
58 -1 13 4 19 18 19 30 0 35 -59 14 -161 -10 -48 -16 -90 -13 -95 10 -16 24
-9 34 15 5 13 21 33 37 44 20 14 35 39 47 77 20 65 15 101 -15 110 -17 6 -20
14 -17 53 l3 46 40 0 c39 1 39 1 60 61 14 41 20 81 18 128 -2 63 0 69 22 79
20 9 22 13 12 29 -16 25 0 50 37 60 32 9 58 28 51 39 -7 12 41 40 68 40 14 0
36 9 50 20 14 11 28 20 32 20 3 0 13 7 21 15 9 8 24 15 34 15 17 0 19 5 13 33
-9 50 -22 68 -23 32 0 -23 -3 -26 -10 -15 -11 18 -32 20 -43 5 -4 -5 -5 5 -2
24 5 29 1 39 -27 68 -35 36 -19 47 19 11 13 -12 23 -17 23 -11 0 15 -76 63
-99 63 -40 0 -30 28 19 55 11 6 10 3 -2 -12 -25 -27 -23 -31 17 -39 19 -3 39
-12 46 -20 6 -8 18 -14 25 -14 8 0 32 -12 54 -26 39 -26 40 -28 40 -83 -1 -55
-1 -56 -15 -26 -13 29 -13 29 -14 5 -1 -33 10 -49 38 -53 12 -2 33 -16 45 -32
l23 -29 23 27 24 27 25 -24 c14 -13 51 -32 81 -42 85 -27 117 -43 124 -59 3
-8 1 -15 -5 -15 -6 0 -6 -7 1 -19 16 -30 13 -81 -5 -81 -26 0 -16 -18 18 -30
17 -7 27 -14 20 -17 -7 -2 -21 0 -32 6 -22 12 -98 15 -87 4 4 -5 29 -13 54
-19 37 -9 41 -12 19 -13 -16 0 -26 -4 -24 -8 3 -5 -26 -8 -64 -8 -38 0 -73 -5
-80 -12 -8 -8 7 -11 62 -10 76 2 113 -8 88 -23 -8 -6 -2 -13 22 -23 35 -15 91
-67 71 -67 -6 0 -14 5 -18 11 -5 8 -33 10 -90 5 -86 -6 -103 0 -59 24 47 25
16 22 -37 -4 -86 -41 -238 -54 -276 -23 -20 16 -137 10 -173 -9 -25 -12 -29
-18 -18 -25 8 -5 24 -9 37 -9 12 0 59 -13 105 -29 45 -15 112 -31 149 -35 60
-7 66 -9 53 -23 -8 -8 -15 -23 -15 -34 0 -12 -9 -21 -27 -25 -28 -7 -43 -20
-43 -38 0 -5 9 -1 20 9 17 15 24 16 46 7 32 -15 34 -15 34 3 0 8 7 15 15 15
11 0 15 -11 15 -36 0 -19 10 -57 21 -85 18 -41 19 -52 8 -65 -11 -13 -10 -17
4 -25 9 -6 17 -16 17 -23 0 -16 -27 -29 -41 -20 -5 3 -21 -2 -36 -10 -91 -49
-205 -53 -211 -8 -2 13 1 36 7 53 5 16 9 29 7 29 -2 0 -23 -7 -47 -16 -34 -12
-65 -14 -131 -10 -49 3 -88 2 -88 -2 0 -4 12 -7 28 -8 124 -1 172 -5 167 -13
-3 -5 -36 -19 -73 -32 -80 -26 -91 -34 -85 -59 3 -12 -2 -22 -15 -29 -18 -9
-19 -16 -12 -42 5 -18 17 -40 26 -50 10 -11 15 -28 11 -44 -3 -20 4 -36 32
-68 20 -23 46 -43 59 -44 12 -2 32 -4 44 -5 17 -2 24 3 28 22 8 40 37 75 52
63 7 -5 33 -15 58 -22 91 -26 94 -51 5 -51 -53 0 -63 -3 -59 -15 4 -8 14 -15
23 -16 11 0 12 -2 3 -6 -23 -9 36 -61 88 -78 76 -25 105 -75 44 -75 -14 0 -27
-7 -30 -15 -4 -8 -17 -15 -31 -15 -21 0 -23 3 -14 14 10 12 3 16 -44 21 -52 7
-61 12 -133 80 -42 41 -78 72 -81 70 -6 -7 40 -78 75 -115 17 -19 42 -59 54
-88 15 -35 33 -58 51 -68 17 -8 31 -26 35 -42 4 -15 13 -38 22 -51 13 -22 13
-26 -4 -38 -17 -12 -17 -13 4 -13 12 0 22 -4 22 -10 0 -5 -3 -10 -7 -10 -11 0
-4 -597 7 -685 6 -45 7 46 4 250 -3 176 -2 334 3 350 7 28 8 27 14 -20 5 -47
6 -45 7 23 1 40 -3 82 -9 94 -13 23 -4 37 13 20 17 -17 31 -15 25 3 -4 8 -2
17 3 20 6 4 10 -4 10 -17 0 -22 4 -23 42 -20 38 4 40 6 23 18 -17 13 -16 17
23 71 23 32 62 88 87 126 31 44 60 74 85 87 20 10 40 17 44 15 3 -3 4 -2 1 1
-7 10 13 41 53 86 20 23 41 54 47 70 5 17 13 28 17 26 3 -1 19 8 34 22 39 36
-170 -274 -234 -345 -29 -34 -63 -76 -75 -94 l-21 -34 40 27 c23 14 56 47 75
72 19 26 49 57 67 69 38 26 117 117 162 187 26 39 80 89 80 73 0 -2 -18 -34
-40 -70 l-40 -66 40 23 c24 14 44 34 50 53 6 17 25 42 43 57 32 28 30 38 -7
51 -14 5 25 67 54 86 15 10 21 11 16 3 -10 -17 11 -42 35 -42 12 0 21 10 25
28 10 46 13 52 28 52 7 0 17 -7 20 -16 6 -15 -1 -29 -39 -80 -5 -7 -7 -16 -3
-19 7 -8 76 61 81 83 3 10 5 5 6 -11 1 -33 -28 -94 -68 -139 -15 -18 -35 -47
-44 -64 -9 -17 -32 -50 -51 -73 -20 -24 -36 -51 -36 -61 0 -10 -12 -26 -27
-35 l-28 -18 24 27 24 26 -64 -31 c-35 -17 -79 -42 -96 -55 -31 -24 -41 -23
-25 2 4 7 29 23 57 36 37 17 54 33 68 61 15 33 22 38 46 35 28 -2 61 16 61 33
0 5 -11 14 -25 19 -30 11 -31 21 -6 44 12 11 27 15 43 11 33 -8 60 20 29 30
-12 3 -21 11 -21 16 0 19 -20 7 -69 -41 -62 -60 -131 -111 -141 -105 -5 3 -19
-9 -31 -27 -23 -32 -90 -101 -212 -217 -58 -55 -70 -76 -39 -67 9 2 33 8 52
12 33 6 34 6 19 -12 -28 -34 -40 -73 -29 -94 15 -27 48 -49 69 -43 10 2 32 -7
50 -23 60 -50 53 -7 -14 81 -21 28 -29 42 -18 32 11 -9 22 -15 25 -12 6 6 88
-160 88 -178 1 -20 38 -93 39 -76 1 15 -31 96 -81 207 -11 25 -18 59 -16 80 3
40 -8 35 123 60 28 6 61 13 74 18 22 6 23 5 18 -18 -4 -15 -1 -37 7 -53 12
-24 13 -31 1 -49 -11 -17 -11 -31 -2 -71 6 -27 13 -52 16 -55 21 -19 53 -110
67 -190 9 -52 21 -101 26 -108 8 -9 8 -20 0 -37 -10 -22 -9 -25 12 -31 34 -8
61 -1 61 16 0 8 -10 16 -22 18 -25 4 -30 17 -12 28 6 3 15 0 21 -7 7 -11 12
-10 25 8 8 13 26 23 39 23 19 0 24 6 26 28 0 17 3 11 7 -18 4 -27 1 -64 -7
-93 -7 -26 -10 -52 -7 -56 9 -16 -33 -114 -66 -154 -36 -44 -96 -77 -139 -77
-17 0 -56 -13 -87 -30 -31 -16 -62 -30 -70 -30 -8 0 -13 -6 -10 -12 2 -7 13
-12 23 -10 36 5 49 8 64 14 27 11 116 19 102 10 -10 -7 -6 -12 15 -20 49 -19
68 -22 82 -13 19 12 -5 38 -33 36 -15 -2 -15 -1 -3 2 9 2 22 13 27 24 9 15 22
19 69 19 63 0 124 16 115 31 -3 5 -17 7 -32 3 -19 -4 -14 1 14 14 57 27 61 39
19 56 -19 8 -35 22 -35 31 0 10 -5 13 -12 9 -10 -5 -10 -4 -1 6 10 11 16 10
33 -5 18 -16 20 -16 20 -2 0 9 13 32 30 50 16 19 28 36 25 38 -2 2 4 14 13 26
23 29 102 44 102 19 0 -9 -12 -28 -27 -41 -16 -13 -25 -26 -22 -29 8 -8 109
44 109 56 0 6 8 4 18 -5 10 -10 25 -17 34 -17 35 0 50 -35 48 -117 -2 -82 6
-139 22 -149 12 -8 6 153 -7 180 -6 14 -5 17 3 12 6 -4 17 -24 23 -44 6 -20
26 -55 45 -76 l34 -39 -6 49 c-4 27 -16 65 -28 84 -11 19 -20 40 -18 46 1 5
-15 45 -37 87 l-38 78 43 25 c92 54 134 126 134 231 0 90 -23 118 -119 147
-51 15 -56 15 -102 -5 -27 -12 -54 -27 -60 -35 -16 -19 -26 -17 -32 6 -3 14 3
30 19 47 13 14 24 31 24 37 0 20 62 74 108 94 46 20 71 47 72 74 0 9 16 35 35
58 19 23 63 99 97 168 45 93 63 121 65 105 3 -13 11 -23 18 -23 19 0 49 -46
40 -61 -5 -7 -15 0 -27 20 -22 35 -27 36 -52 18 -19 -14 -23 -42 -11 -71 6
-14 5 -17 -3 -12 -7 4 -12 2 -12 -3 0 -6 -4 -10 -10 -8 -14 3 -92 -140 -81
-147 5 -4 21 7 34 24 18 21 35 30 56 30 18 0 31 -5 31 -12 0 -25 -60 -118 -90
-140 -29 -21 -39 -38 -22 -38 29 0 112 108 159 208 17 35 33 29 33 -13 0 -33
16 -3 29 56 11 55 12 55 49 56 25 0 31 -2 18 -6 -36 -14 3 -23 62 -16 77 9
118 38 132 92 11 46 30 58 30 20 0 -24 -65 -117 -81 -117 -5 0 -9 -4 -9 -10 0
-19 27 -10 55 20 35 36 42 37 57 5 7 -17 20 -25 37 -26 28 -1 25 -2 -84 -27
-22 -6 -34 -10 -26 -11 11 -1 115 -47 129 -57 2 -2 -1 -18 -7 -37 -9 -26 -17
-34 -35 -34 -19 0 -26 7 -31 31 l-7 31 -12 -45 -12 -44 -10 34 c-11 38 -31 46
-90 35 -23 -4 -31 -10 -28 -20 3 -7 -4 -22 -15 -32 -20 -17 -29 -43 -14 -43 3
0 14 7 23 15 15 14 20 13 44 -10 15 -14 32 -24 38 -22 20 4 21 -36 2 -50 -14
-10 -15 -16 -6 -25 8 -8 16 -3 29 20 10 19 24 30 31 27 7 -3 22 0 33 5 15 9
19 7 19 -8 0 -22 34 -26 51 -6 6 8 15 14 19 14 10 0 1 -40 -13 -58 -16 -20 2
-28 21 -9 12 12 18 39 20 92 2 41 8 75 12 75 9 0 50 -96 50 -116 0 -8 -7 -14
-15 -14 -15 0 -22 -19 -7 -21 4 0 16 -2 27 -4 10 -2 25 1 31 6 9 7 15 6 21 -4
10 -17 52 -41 75 -43 16 -1 16 1 -2 26 -11 16 -20 31 -20 35 0 4 -29 34 -65
67 -75 69 -89 99 -17 38 119 -102 255 -153 349 -131 l38 9 -46 1 c-25 1 -49 5
-55 9 -5 5 -35 14 -66 21 -31 7 -67 20 -80 30 -13 10 -43 28 -68 41 -25 12
-59 33 -77 46 -18 14 -36 23 -40 22 -11 -3 -53 21 -53 30 0 4 48 9 107 11 129
3 151 11 31 11 -96 0 -148 8 -148 22 0 6 34 7 88 3 74 -6 101 -3 180 18 56 15
104 34 121 48 15 13 8 5 -15 -18 -52 -52 -43 -56 15 -7 26 23 40 42 37 51 -3
8 -1 24 5 35 19 34 2 31 -59 -11 -35 -25 -65 -39 -74 -36 -9 4 -19 2 -23 -4
-3 -6 -11 -11 -17 -11 -6 0 -3 12 6 26 13 18 14 25 4 23 -33 -4 -50 4 -85 40
-21 22 -50 43 -66 46 -43 11 -107 110 -90 139 10 15 5 50 -13 105 -24 71 -30
78 -44 51 -10 -18 -14 -20 -21 -9 -8 11 -15 8 -34 -16 -14 -16 -25 -39 -25
-51 0 -24 -39 -64 -62 -64 -18 0 -88 -64 -103 -93 -10 -22 -53 -50 -92 -62
-18 -5 -24 -1 -29 20 -8 34 11 100 37 126 10 10 30 19 44 19 14 0 25 4 25 10
0 5 -6 7 -13 4 -23 -8 -68 14 -65 32 2 11 -8 21 -31 29 -19 6 -36 16 -39 23
-2 6 -37 28 -78 48 -41 21 -74 43 -74 49 0 14 -32 31 -86 45 -23 5 -53 21 -68
35 -15 14 -33 25 -41 25 -31 0 -105 44 -105 62 0 23 -70 57 -116 58 -37 0 -54
16 -54 50 0 59 60 67 136 18 78 -49 195 -118 229 -134 60 -28 100 -55 135 -91
73 -76 159 -140 234 -172 42 -19 78 -32 79 -30 62 93 77 122 71 141 -4 13 -9
17 -13 9 -8 -13 -24 2 -55 53 -14 22 -20 26 -27 15 -7 -11 -12 -12 -28 -2 -15
10 -21 10 -24 0 -5 -14 -67 40 -67 58 0 6 -14 24 -31 41 -17 16 -35 39 -40 51
-5 13 -21 31 -37 40 -16 10 -27 23 -25 29 7 21 -56 102 -85 109 -40 9 -77 42
-64 58 16 19 -60 79 -91 72 -18 -5 -28 0 -40 18 -31 47 -31 72 -1 96 15 11 35
21 45 21 14 0 19 7 19 26 0 14 4 23 10 19 6 -3 7 -17 4 -31 -4 -16 -1 -31 11
-44 17 -19 18 -19 69 7 28 14 59 32 69 41 15 14 19 13 36 -2 14 -13 24 -14 45
-6 15 5 44 10 65 10 20 0 42 5 48 11 7 7 28 6 71 -5 85 -23 230 -31 273 -17
25 8 54 8 100 1 153 -23 286 -32 305 -21 16 9 11 10 -27 11 -25 0 -68 6 -95
14 -27 8 -77 17 -111 21 -37 4 -60 11 -57 17 3 5 23 7 44 3 21 -4 62 -8 92
-10 29 -2 121 -13 203 -24 83 -12 182 -21 222 -21 80 0 103 -6 103 -26 0 -37
213 -49 338 -19 12 3 36 -2 54 -11 52 -27 200 -12 363 35 39 11 126 32 195 46
69 14 134 30 145 35 61 28 395 64 395 42 0 -7 11 -19 26 -28 22 -15 33 -16 97
-4 40 7 99 19 132 27 68 16 144 17 183 1 37 -14 190 -13 238 2 114 36 198 83
251 141 30 32 62 61 72 64 32 10 113 95 107 112 -5 11 -10 12 -19 5 -7 -6 -23
-9 -36 -5 -17 4 -23 1 -28 -15 -7 -28 -30 -35 -36 -11 -3 13 3 29 19 44 13 13
24 34 24 45 0 17 4 20 23 15 18 -6 20 -5 10 6 -17 17 -55 22 -64 7 -5 -7 -13
3 -23 27 -9 20 -16 40 -16 44 0 22 -44 86 -75 111 -37 30 -75 40 -75 20 0 -5
0 -13 0 -17 0 -5 4 -8 9 -8 5 0 13 -4 18 -9 4 -5 3 -6 -4 -2 -6 3 -14 2 -18
-4 -3 -5 -23 -10 -44 -10 -30 0 -50 -9 -90 -41 -53 -42 -66 -65 -31 -56 22 6
37 -8 20 -18 -16 -10 -12 -21 13 -32 21 -10 20 -11 -22 -31 -32 -16 -48 -19
-62 -12 -10 6 -29 10 -43 10 -14 0 -27 4 -31 10 -3 5 -11 7 -18 4 -8 -3 -33 4
-58 15 -32 14 -38 20 -21 20 14 1 22 7 22 19 0 11 9 27 21 38 17 15 23 16 41
5 17 -11 23 -10 42 7 11 10 40 24 63 30 45 13 93 61 93 93 0 19 1 19 42 -2 33
-17 40 -18 29 -5 -11 13 -11 16 0 16 20 0 -28 31 -50 33 -16 1 -18 7 -14 37 8
47 13 51 13 10 0 -54 16 -27 23 40 2 17 9 25 21 23 10 0 15 4 12 12 -3 8 2 12
12 10 9 -1 27 1 39 6 17 6 23 4 28 -12 4 -10 11 -16 17 -13 9 6 27 0 89 -31
23 -11 29 -10 42 6 15 16 14 18 -5 21 -12 2 -23 8 -25 15 -6 17 35 27 52 13 8
-7 15 -8 15 -3 0 15 -44 47 -48 35 -2 -7 -13 -12 -25 -12 -22 0 -22 1 2 19 18
14 21 20 10 24 -11 4 -11 6 2 6 8 1 26 12 39 26 27 29 25 57 -20 255 -41 184
-102 356 -185 525 -82 169 -145 269 -250 400 -313 391 -696 613 -1130 655
-143 14 -214 32 -255 66 -16 14 -51 65 -76 112 -112 208 -219 355 -367 505
-279 281 -652 480 -1027 547 -132 24 -393 33 -540 20z m-1406 -1389 c-12 -23
-25 -32 -62 -40 -26 -5 -70 -19 -96 -31 -27 -11 -51 -18 -54 -15 -10 9 69 74
83 69 18 -7 97 15 90 26 -3 5 7 11 22 13 16 2 29 5 30 6 1 0 -5 -12 -13 -28z
m66 -35 c0 -2 -9 -6 -20 -9 -11 -3 -20 -1 -20 4 0 5 9 9 20 9 11 0 20 -2 20
-4z m160 -78 c0 -24 4 -49 9 -57 10 -15 -9 -41 -30 -41 -8 0 -8 4 1 15 9 11
11 32 6 70 -4 35 -2 55 4 55 5 0 10 -19 10 -42z m-460 9 c0 -1 -30 -32 -67
-67 -37 -36 -62 -58 -55 -50 20 23 14 35 -8 15 -12 -10 -18 -25 -15 -33 3 -7
-8 -32 -24 -55 -15 -23 -33 -55 -39 -72 -6 -16 -11 -23 -11 -15 -1 16 20 61
53 115 15 24 11 22 -17 -10 -43 -47 -49 -38 -10 14 46 61 94 109 88 86 -4 -13
7 -6 32 21 32 34 48 46 71 53 1 1 2 0 2 -2z m180 -14 c0 -5 -15 -16 -33 -26
l-32 -19 24 26 c24 26 41 33 41 19z m117 -15 c-3 -8 -6 -5 -6 6 -1 11 2 17 5
13 3 -3 4 -12 1 -19z m-58 -52 c11 -11 21 -24 21 -29 0 -6 -8 -3 -18 6 -16 15
-17 13 -14 -28 2 -24 10 -49 18 -56 8 -6 14 -17 14 -23 0 -18 38 -46 61 -46
28 0 19 -23 -12 -31 -15 -5 1 -8 46 -9 39 -2 79 -4 90 -5 11 -1 41 -2 68 -3
35 -2 47 -6 47 -17 0 -17 -32 -34 -37 -19 -2 5 -50 8 -110 6 -89 -3 -111 -6
-123 -21 -28 -33 -78 -61 -109 -61 -17 0 -31 4 -31 8 0 5 -8 17 -18 28 -35 37
-52 71 -46 90 5 16 4 16 -5 4 -14 -19 -14 -50 -1 -50 17 0 11 -40 -10 -67 -25
-32 -81 -178 -82 -214 -1 -24 -5 -28 -45 -34 -25 -4 -47 -4 -51 -1 -7 8 16
137 36 201 8 28 22 55 30 61 8 6 12 16 8 22 -3 6 13 61 37 121 32 79 40 111
31 111 -8 0 -14 3 -14 6 0 13 35 33 58 34 12 0 25 6 27 13 4 8 22 11 56 9 l50
-4 -6 29 c-4 22 -4 24 4 8 5 -11 18 -29 30 -39z m567 20 c17 -13 15 -14 -19
-6 -47 10 -59 20 -26 20 14 0 34 -6 45 -14z m-514 -28 c-8 -8 -9 -4 -5 13 4
13 8 18 11 10 2 -7 -1 -18 -6 -23z m366 -2 c3 -11 0 -16 -7 -12 -6 4 -11 0
-11 -9 0 -11 5 -15 15 -11 20 7 33 -23 15 -34 -17 -10 -4 -30 21 -30 10 0 19
-4 19 -10 0 -5 -7 -7 -15 -4 -22 9 -19 -26 6 -56 14 -16 19 -19 15 -7 -8 26 1
21 37 -20 18 -20 31 -44 29 -52 -2 -14 -2 -14 8 -1 9 13 11 13 20 0 15 -22 12
-40 -5 -34 -22 9 -19 -23 3 -35 15 -8 19 -22 19 -73 0 -55 -2 -59 -11 -35 -6
17 -15 26 -24 22 -7 -3 -17 -5 -22 -5 -5 0 -7 -17 -4 -37 3 -26 -4 -14 -20 37
-14 41 -31 86 -39 100 -8 14 -12 31 -10 38 3 7 -4 23 -15 35 -10 12 -30 44
-43 70 -13 27 -39 67 -59 90 -19 23 -29 38 -22 33 6 -4 12 -3 12 3 0 6 -9 15
-20 21 -30 16 -24 27 18 37 46 12 86 2 90 -21z m-743 -36 c-10 -11 -20 -18
-23 -15 -7 6 18 35 31 35 5 0 2 -9 -8 -20z m55 -70 c-8 -5 -22 -10 -30 -10
-13 0 -13 1 0 10 8 5 22 10 30 10 13 0 13 -1 0 -10z m-241 -130 c-17 -39 -27
-74 -24 -79 3 -5 -5 -26 -17 -47 -21 -36 -39 -33 -20 3 6 10 19 45 30 78 33
97 41 115 51 115 5 0 -4 -32 -20 -70z m196 60 c-3 -5 -10 -10 -16 -10 -5 0 -9
5 -9 10 0 6 7 10 16 10 8 0 12 -4 9 -10z m465 0 c0 -5 -9 -10 -21 -10 -11 0
-17 5 -14 10 3 6 13 10 21 10 8 0 14 -4 14 -10z m583 -32 c9 -21 13 -38 8 -38
-7 0 -31 58 -31 75 0 13 7 3 23 -37z m-1127 -35 c-5 -12 -10 -13 -18 -5 -8 8
-8 15 3 28 15 18 25 4 15 -23z m10 -33 c-14 -17 -26 -29 -26 -25 0 10 44 63
49 59 2 -2 -8 -17 -23 -34z m539 10 c3 -5 1 -10 -4 -10 -6 0 -11 5 -11 10 0 6
2 10 4 10 3 0 8 -4 11 -10z m43 -93 c17 -20 1 -34 -45 -42 -24 -4 -43 -11 -43
-16 0 -20 -20 -7 -26 16 -11 43 1 55 54 55 28 0 54 -6 60 -13z m-308 -17 c0
-5 -7 -10 -15 -10 -8 0 -15 -9 -15 -20 0 -16 6 -20 33 -19 17 0 26 3 19 6 -19
7 -4 23 23 23 12 0 25 7 29 15 4 11 20 15 56 15 48 0 50 -1 50 -29 0 -21 -6
-30 -22 -35 -35 -9 -76 -7 -83 4 -4 6 -15 4 -30 -6 -29 -19 -84 -15 -99 8 -8
13 -6 22 8 37 20 22 46 28 46 11z m368 -1 c-10 -5 -18 -19 -18 -30 0 -12 -5
-19 -12 -17 -10 4 -14 29 -9 53 1 3 13 5 29 5 23 -1 24 -2 10 -11z m115 -6 c4
-2 7 -15 7 -29 0 -20 -5 -24 -27 -24 -51 0 -73 11 -73 35 0 13 6 26 13 28 12
6 65 -1 80 -10z m-783 -17 c0 -3 -4 -8 -10 -11 -5 -3 -10 -1 -10 4 0 6 5 11
10 11 6 0 10 -2 10 -4z m970 -50 c-14 -14 -24 0 -16 21 6 15 8 15 16 3 6 -9 5
-19 0 -24z m-330 -21 c0 -26 -14 -33 -25 -15 -9 14 1 40 15 40 5 0 10 -11 10
-25z m153 8 c4 -2 7 -13 7 -24 0 -17 -6 -20 -37 -17 -33 3 -38 6 -41 31 -3 28
-2 29 30 22 18 -4 36 -9 41 -12z m-339 -9 c4 -9 4 -19 2 -21 -2 -3 -39 -7 -80
-10 -68 -5 -76 -4 -76 12 0 14 3 15 15 5 12 -10 15 -9 15 4 0 12 6 15 24 10
13 -3 27 -1 30 5 11 17 63 13 70 -5z m136 -4 c0 -18 -7 -20 -55 -20 -48 0 -55
2 -55 20 0 18 7 20 55 20 48 0 55 -2 55 -20z m-312 -23 c2 -10 -3 -17 -12 -17
-10 0 -16 9 -16 21 0 24 23 21 28 -4z m695 -8 c21 0 21 -1 2 -8 -25 -10 -35
-5 -34 17 0 11 3 12 6 5 2 -7 14 -13 26 -14z m-523 -18 c0 -4 -30 -11 -67 -14
-143 -14 -199 -3 -66 12 97 12 133 12 133 2z m265 -1 c-29 -12 -208 -12 -200
0 4 6 52 10 113 9 69 0 100 -3 87 -9z m305 6 c0 -3 -4 -8 -10 -11 -5 -3 -10
-1 -10 4 0 6 5 11 10 11 6 0 10 -2 10 -4z m-1212 -69 c-2 -14 -10 -22 -23 -22
-26 0 -31 31 -9 56 16 17 19 18 27 4 4 -9 7 -26 5 -38z m362 3 c0 -5 -7 -10
-16 -10 -8 0 -12 5 -9 10 3 6 10 10 16 10 5 0 9 -4 9 -10z m-159 -49 c-29 -22
-41 -104 -21 -142 8 -15 14 -69 15 -144 2 -126 20 -218 36 -180 4 11 8 35 8
54 2 65 23 0 26 -80 2 -48 25 -129 56 -194 23 -48 24 -65 4 -112 -19 -45 -29
-37 -62 45 -22 54 -23 55 -20 20 6 -75 -37 -24 -48 57 -3 28 -16 68 -28 90
-21 38 -22 50 -19 235 2 107 0 216 -3 242 -6 45 -8 47 -28 36 -12 -6 -26 -17
-30 -25 -5 -7 -13 -11 -18 -8 -5 4 -7 11 -4 16 4 5 -4 9 -17 9 -22 1 -21 2 6
16 32 18 22 40 -13 29 -19 -6 -21 -14 -21 -88 0 -98 24 -270 47 -347 9 -30 17
-78 17 -105 1 -40 8 -62 33 -100 18 -28 33 -46 33 -41 0 5 9 1 20 -9 20 -19
28 -41 10 -30 -32 20 23 -57 104 -145 38 -41 30 -36 -28 20 -62 59 -72 66 -46
32 53 -70 145 -153 207 -189 67 -38 64 -44 -5 -9 -62 32 -160 118 -222 195
-51 64 -67 99 -29 65 14 -12 8 2 -16 41 -47 74 -49 77 -41 43 8 -36 0 -36 -18
1 -19 35 -56 217 -61 294 -2 21 -6 41 -10 45 -9 10 -46 -40 -40 -55 5 -15 -11
-17 -20 -3 -9 15 -25 2 -18 -15 3 -10 20 -15 47 -16 37 -1 39 -1 14 -9 -16 -5
-38 -7 -50 -6 -19 2 -23 -3 -24 -24 -1 -20 6 -30 28 -39 16 -7 40 -11 54 -8
13 2 24 0 24 -4 0 -5 -9 -9 -21 -9 -11 0 -29 -5 -40 -11 -17 -8 -24 -6 -41 13
-20 22 -20 22 -14 2 10 -33 -41 -51 -93 -34 -22 7 -43 10 -47 8 -5 -3 -18 -2
-29 3 -17 6 -17 8 -2 8 9 1 16 4 16 9 -5 33 5 53 39 73 20 13 62 41 92 64 31
22 73 47 93 55 36 13 38 16 33 50 -3 19 -8 93 -12 164 -5 108 -4 128 7 124 8
-3 25 -1 39 5 33 14 118 34 150 35 l25 2 -24 -19z m-3626 -181 c3 -5 1 -10 -4
-10 -6 0 -11 5 -11 10 0 6 2 10 4 10 3 0 8 -4 11 -10z m4095 -20 c0 -5 -5 -10
-11 -10 -5 0 -7 5 -4 10 3 6 8 10 11 10 2 0 4 -4 4 -10z m-3970 -19 c0 -5 -7
-11 -15 -15 -9 -3 -15 0 -15 9 0 8 7 15 15 15 8 0 15 -4 15 -9z m3870 -16 c0
-11 -59 -34 -65 -25 -3 6 4 14 17 19 26 11 48 13 48 6z m600 -90 c5 -7 3 -27
-6 -50 -12 -32 -14 -34 -10 -11 2 16 -1 42 -6 58 -6 16 -7 40 -2 56 8 27 8 27
12 -8 2 -19 8 -40 12 -45z m-1101 -3 c1 -7 -3 -10 -9 -7 -5 3 -10 21 -9 38 1
31 1 31 9 7 4 -14 8 -31 9 -38z m-3069 18 c0 -5 -5 -10 -11 -10 -5 0 -7 5 -4
10 3 6 8 10 11 10 2 0 4 -4 4 -10z m3619 -47 c2 -2 0 -13 -6 -26 -6 -12 -14
-30 -17 -39 -8 -28 -33 -21 -44 11 -8 23 -7 31 4 35 8 3 14 17 14 32 0 27 0
27 23 8 12 -10 24 -20 26 -21z m271 17 c0 -5 -4 -10 -9 -10 -6 0 -13 5 -16 10
-3 6 1 10 9 10 9 0 16 -4 16 -10z m-3835 -20 c3 -5 1 -10 -4 -10 -6 0 -11 5
-11 10 0 6 2 10 4 10 3 0 8 -4 11 -10z m-75 -10 c0 -5 -2 -10 -4 -10 -3 0 -8
5 -11 10 -3 6 -1 10 4 10 6 0 11 -4 11 -10z m155 -11 c11 -17 -1 -21 -15 -4
-8 9 -8 15 -2 15 6 0 14 -5 17 -11z m3239 -53 c2 -20 -1 -36 -5 -36 -5 0 -9
19 -9 42 0 49 10 45 14 -6z m4876 29 c0 -7 -61 -37 -66 -32 -3 2 10 12 28 20
37 19 38 19 38 12z m-130 -9 c0 -2 -9 -6 -20 -9 -11 -3 -18 -1 -14 4 5 9 34
13 34 5z m-7930 -16 c0 -5 -4 -10 -10 -10 -5 0 -10 5 -10 10 0 6 5 10 10 10 6
0 10 -4 10 -10z m3315 -10 c4 -6 -5 -10 -19 -10 -14 0 -26 5 -26 10 0 6 9 10
19 10 11 0 23 -4 26 -10z m675 0 c0 -5 -5 -10 -11 -10 -5 0 -7 5 -4 10 3 6 8
10 11 10 2 0 4 -4 4 -10z m-3880 -15 c0 -8 -4 -15 -9 -15 -13 0 -22 16 -14 24
11 11 23 6 23 -9z m185 -35 c-3 -5 -10 -10 -16 -10 -5 0 -9 5 -9 10 0 6 7 10
16 10 8 0 12 -4 9 -10z m44 -22 c12 -15 11 -18 -3 -18 -10 0 -16 8 -16 22 0
12 1 19 3 17 1 -2 9 -12 16 -21z m2811 -19 c0 -6 -4 -7 -10 -4 -5 3 -10 11
-10 16 0 6 5 7 10 4 6 -3 10 -11 10 -16z m4455 11 c-3 -5 -13 -10 -21 -10 -8
0 -12 5 -9 10 3 6 13 10 21 10 8 0 12 -4 9 -10z m165 0 c0 -5 -5 -10 -11 -10
-5 0 -7 5 -4 10 3 6 8 10 11 10 2 0 4 -4 4 -10z m-7385 -20 c3 -5 -1 -10 -10
-10 -9 0 -13 5 -10 10 3 6 8 10 10 10 2 0 7 -4 10 -10z m3594 -127 c1 -49 -3
-83 -9 -83 -5 0 -10 10 -11 23 -1 13 -6 4 -13 -23 l-13 -45 -5 50 c-2 28 -3
56 0 63 6 18 20 15 25 -5 3 -10 6 20 7 67 3 108 18 71 19 -47z m3721 117 c-8
-5 -19 -10 -25 -10 -5 0 -3 5 5 10 8 5 20 10 25 10 6 0 3 -5 -5 -10z m-7274
-27 c-7 -7 -26 7 -26 19 0 6 6 6 15 -2 9 -7 13 -15 11 -17z m7176 -10 c-32
-14 -72 -17 -72 -4 0 4 11 6 24 4 15 -3 31 2 43 14 12 12 21 15 25 9 5 -7 -4
-16 -20 -23z m-3681 -55 c-8 -18 -10 -12 -9 32 0 50 1 52 9 23 6 -19 5 -40 0
-55z m4299 72 c0 -5 -2 -10 -4 -10 -3 0 -8 5 -11 10 -3 6 -1 10 4 10 6 0 11
-4 11 -10z m-4667 -25 c9 -23 -11 -28 -23 -5 -8 16 -8 20 4 20 7 0 16 -7 19
-15z m-683 -84 c0 -23 -1 -23 -13 -7 -10 14 -17 15 -41 6 -19 -7 -26 -15 -22
-25 9 -24 -7 -18 -34 13 -24 26 -24 28 -7 45 16 16 17 16 17 0 0 -15 2 -15 18
-1 40 37 82 21 82 -31z m-2221 8 c7 -12 7 -19 1 -19 -5 0 -10 4 -10 9 0 5 -9
13 -20 16 -11 3 -20 13 -20 21 0 11 4 12 19 3 10 -7 23 -20 30 -30z m2081 -16
c8 -10 1 -13 -32 -13 -47 0 -84 17 -59 27 7 3 21 13 30 23 15 17 17 17 33 -4
10 -11 23 -27 28 -33z m5500 36 c0 -5 -7 -9 -15 -9 -15 0 -20 12 -9 23 8 8 24
-1 24 -14z m-5067 -24 c-3 -9 -8 -14 -10 -11 -3 3 -2 9 2 15 9 16 15 13 8 -4z
m5112 5 c-3 -5 -10 -10 -16 -10 -5 0 -9 5 -9 10 0 6 7 10 16 10 8 0 12 -4 9
-10z m41 -35 c9 -40 -4 -27 -16 15 -6 20 -6 30 -1 24 5 -5 13 -22 17 -39z
m-7626 20 c0 -8 -2 -15 -4 -15 -2 0 -6 7 -10 15 -3 8 -1 15 4 15 6 0 10 -7 10
-15z m7504 -26 c14 -28 14 -34 1 -52 -14 -21 -15 -21 -15 -2 0 16 -2 17 -9 6
-5 -8 -67 -34 -138 -58 -172 -60 -173 -60 -173 -35 0 17 15 25 83 47 111 36
215 86 223 108 7 23 10 22 28 -14z m-5634 -26 c0 -8 -5 -11 -12 -7 -8 5 -9 0
-6 -14 5 -16 2 -22 -10 -22 -10 0 -26 -3 -38 -6 -14 -4 -21 -1 -21 10 0 8 4
13 9 10 4 -3 18 5 30 19 23 26 48 31 48 10z m5044 -83 c3 -14 -3 -7 -13 15
-11 22 -20 45 -20 50 0 15 26 -37 33 -65z m-4154 34 c14 -36 -7 -65 -27 -38
-10 14 -13 14 -14 3 0 -8 -4 -4 -9 9 -5 12 -7 29 -4 37 10 25 43 18 54 -11z
m108 -9 l20 -25 14 22 c18 27 48 18 48 -15 0 -19 -8 -25 -45 -35 -60 -16 -82
-15 -89 3 -3 8 -11 14 -18 13 -8 -2 -14 9 -16 27 l-2 30 13 -24 14 -24 7 27
c8 33 29 33 54 1z m4743 -9 c-9 -10 -8 -25 4 -57 22 -59 45 -142 41 -146 -3
-4 -42 104 -55 155 -8 30 8 97 17 71 2 -5 -1 -16 -7 -23z m-4621 5 c0 -11 -4
-23 -10 -26 -6 -4 -10 5 -10 19 0 14 5 26 10 26 6 0 10 -9 10 -19z m-2500 -11
c0 -5 -4 -10 -10 -10 -5 0 -10 5 -10 10 0 6 5 10 10 10 6 0 10 -4 10 -10z
m2041 -67 c-9 -16 -10 -16 -11 -1 0 9 3 25 7 35 7 16 8 17 11 1 2 -10 -1 -25
-7 -35z m4829 37 c-8 -5 -19 -10 -25 -10 -5 0 -3 5 5 10 8 5 20 10 25 10 6 0
3 -5 -5 -10z m-5700 -15 c-7 -8 -17 -15 -23 -15 -6 0 -2 7 9 15 25 19 30 19
14 0z m2310 -69 c5 -21 5 -35 0 -30 -5 5 -11 32 -13 59 -3 28 -3 41 0 30 2
-11 8 -37 13 -59z m-2390 29 c8 0 20 4 27 8 6 4 -4 -19 -24 -52 -34 -58 -35
-59 -73 -54 -47 7 -149 -36 -157 -66 -4 -16 -9 -18 -30 -10 -15 6 -31 5 -43
-1 -12 -6 -21 -7 -25 0 -3 5 -11 7 -18 5 -19 -7 -46 19 -44 43 1 14 8 22 20
22 10 0 16 3 14 8 -6 8 13 26 31 30 7 1 12 -3 12 -9 0 -8 4 -8 13 -1 7 6 29 9
49 8 20 -2 42 1 50 5 10 7 10 9 -2 9 -9 1 -5 6 10 14 21 12 26 12 37 -3 11
-14 12 -14 13 7 0 17 6 22 25 22 14 0 25 5 25 10 0 6 11 8 25 4 18 -4 27 -1
32 12 5 14 8 15 12 3 3 -8 13 -14 21 -14z m445 -12 c-11 -3 -24 -9 -29 -14 -6
-5 -15 -9 -20 -9 -6 0 -2 7 8 15 11 8 29 14 40 14 20 -1 21 -1 1 -6z m4955
-62 c0 -33 -5 -61 -10 -63 -6 -2 4 -36 25 -80 19 -42 35 -81 35 -85 0 -11 64
-43 86 -43 8 0 12 -4 9 -10 -3 -5 -15 -10 -26 -10 -10 0 -18 -4 -16 -9 1 -5
-10 -20 -25 -34 -30 -28 -36 -47 -15 -48 23 -1 -28 -17 -79 -23 -52 -8 -122
-42 -110 -54 4 -3 23 -5 42 -3 25 2 48 -6 84 -29 56 -36 120 -103 120 -126 0
-15 -21 -15 -85 3 -20 6 -20 5 -1 -16 11 -11 15 -21 10 -22 -21 -3 -60 4 -69
11 -6 5 -50 12 -99 16 -83 7 -88 6 -84 -12 2 -13 14 -21 38 -24 19 -3 -41 -9
-134 -13 -143 -6 -171 -5 -178 7 -6 11 -22 13 -67 9 -68 -6 -175 16 -250 53
-69 33 -165 56 -246 59 -38 2 -117 6 -176 10 -104 7 -231 -5 -272 -27 -18 -9
-18 -11 3 -30 16 -15 20 -29 18 -56 -3 -34 -6 -37 -43 -45 -47 -10 -57 -10
-110 -8 -22 2 -67 2 -100 1 -137 -3 -306 20 -388 52 -16 6 -101 11 -195 12
l-167 1 -3 31 c-5 48 29 127 60 142 24 11 27 17 21 45 -7 42 -40 117 -50 117
-22 0 -69 -43 -74 -67 -5 -25 -7 -26 -13 -8 -4 11 -20 48 -37 83 -34 74 -35
83 -9 107 20 18 20 18 -17 36 -47 21 -39 25 10 4 20 -8 42 -12 51 -9 32 12
107 -50 91 -76 -10 -17 97 -40 237 -51 79 -6 177 -21 231 -35 245 -64 204 -61
450 -37 163 16 239 19 287 13 36 -5 160 -13 275 -19 116 -5 254 -17 309 -26
138 -22 143 -13 5 13 -63 12 -89 18 -59 15 63 -8 169 -8 176 0 3 3 0 14 -7 25
-10 16 -10 23 0 36 7 8 10 19 7 24 -3 5 6 8 19 6 22 -2 24 0 14 18 -6 12 -7
18 -1 14 5 -3 17 5 26 18 17 27 52 28 50 2 -1 -8 2 -13 7 -10 5 3 9 0 9 -6 0
-6 4 -9 9 -6 5 3 7 15 4 26 -4 16 -2 19 12 13 14 -5 16 -3 10 8 -5 8 2 5 15
-6 l23 -20 -7 22 c-4 12 -2 24 4 28 6 3 8 11 5 16 -4 5 5 9 19 9 17 0 26 5 26
16 0 13 -3 14 -14 5 -10 -9 -15 -8 -20 4 -5 13 5 20 27 16 4 0 7 4 7 9 0 6 6
5 14 -2 7 -7 11 -19 9 -25 -3 -7 -2 -24 1 -38 6 -22 9 -24 27 -14 11 6 23 8
27 5 3 -3 0 -6 -6 -6 -14 0 -12 -22 3 -32 5 -4 20 0 33 8 12 8 26 12 31 9 12
-7 24 26 13 37 -11 11 -44 -1 -36 -13 9 -15 -3 -10 -17 8 -8 9 -9 14 -3 10 18
-10 40 21 26 35 -7 7 -12 16 -12 22 0 5 8 -1 19 -12 25 -29 35 -28 27 4 -5 20
-3 24 11 22 10 -2 18 3 19 10 1 6 2 17 3 22 0 6 9 10 19 10 15 1 15 2 -2 15
-11 8 -16 16 -10 16 5 1 20 2 34 4 14 1 31 3 39 3 9 1 12 11 9 27 -3 14 -1 25
3 25 5 0 9 -27 9 -59z m149 44 c-21 -21 -119 -58 -119 -45 0 6 8 13 18 16 9 3
33 14 52 24 46 24 71 26 49 5z m-3777 -19 c25 16 -5 -17 -35 -37 l-32 -23 19
22 c11 12 16 22 11 22 -4 0 -1 7 6 16 8 10 15 12 17 5 2 -6 9 -8 14 -5z m-187
-16 c3 -5 1 -10 -4 -10 -6 0 -11 5 -11 10 0 6 2 10 4 10 3 0 8 -4 11 -10z
m4715 0 c0 -5 -7 -10 -16 -10 -8 0 -12 5 -9 10 3 6 10 10 16 10 5 0 9 -4 9
-10z m-5300 -63 c19 -9 27 -16 18 -16 -34 -2 -108 40 -108 61 0 5 12 0 28 -10
15 -11 43 -27 62 -35z m630 -3 c-18 -33 -42 -41 -30 -9 5 13 15 33 22 45 11
18 14 18 16 4 2 -9 -2 -27 -8 -40z m-30 34 c0 -7 -4 -18 -8 -24 -9 -14 -52
-37 -52 -28 0 9 44 63 53 63 4 1 7 -5 7 -11z m-1175 -8 c-8 -13 8 -13 22 1 7
7 25 8 54 2 34 -7 44 -13 44 -28 0 -15 -8 -21 -33 -23 -18 -2 -39 2 -47 8 -11
9 -16 4 -26 -29 -7 -22 -15 -38 -19 -36 -14 9 -20 68 -9 82 10 11 8 12 -7 7
-18 -6 -17 -5 1 9 23 19 29 21 20 7z m2073 -23 c27 3 32 1 32 -16 0 -12 5 -21
11 -21 5 0 7 -4 4 -10 -8 -13 -52 -13 -61 1 -3 6 -15 8 -26 6 -14 -4 -18 -2
-14 9 3 9 1 25 -5 37 -11 21 -11 21 7 6 12 -10 31 -15 52 -12z m2655 16 c-7
-2 -19 -2 -25 0 -7 3 -2 5 12 5 14 0 19 -2 13 -5z m-4058 -73 c16 -7 13 -9
-17 -9 -20 -1 -40 4 -43 9 -7 12 32 12 60 0z m3917 -25 c11 -14 10 -25 -2 -25
-5 0 -14 9 -20 20 -8 16 -8 20 2 18 7 -2 16 -7 20 -13z m-4605 -82 c-3 -10 -5
-4 -5 12 0 17 2 24 5 18 2 -7 2 -21 0 -30z m4468 -13 c3 -5 2 -10 -4 -10 -5 0
-13 5 -16 10 -3 6 -2 10 4 10 5 0 13 -4 16 -10z m-4171 -67 c-17 -27 -34 -27
-34 0 0 27 19 40 35 25 6 -5 6 -14 -1 -25z m2504 30 c-10 -2 -28 -2 -40 0 -13
2 -5 4 17 4 22 1 32 -1 23 -4z m1064 -47 c12 -21 37 -21 46 2 5 12 18 17 44
17 33 0 37 -2 33 -22 -3 -19 1 -23 20 -23 19 0 23 4 18 18 -6 15 -5 15 11 3 9
-8 34 -18 54 -22 27 -5 11 -7 -57 -8 -113 -1 -285 19 -256 30 19 6 19 7 2 14
-13 5 -15 11 -7 20 13 16 78 -4 92 -29z m-3516 18 c-4 -10 1 -22 11 -31 17
-13 17 -14 -2 -11 -22 3 -36 58 -15 58 7 0 9 -7 6 -16z m3554 -11 c0 -13 -3
-13 -15 -3 -8 7 -12 16 -9 21 8 13 24 1 24 -18z m-207 -10 c-7 -2 -19 -2 -25
0 -7 3 -2 5 12 5 14 0 19 -2 13 -5z m50 0 c-7 -2 -19 -2 -25 0 -7 3 -2 5 12 5
14 0 19 -2 13 -5z m1507 -23 c-20 -13 -53 -13 -45 0 3 6 18 10 33 10 21 0 24
-2 12 -10z m-1852 -7 c-10 -2 -28 -2 -40 0 -13 2 -5 4 17 4 22 1 32 -1 23 -4z
m819 1 c-3 -3 -12 -4 -19 -1 -8 3 -5 6 6 6 11 1 17 -2 13 -5z m1218 -75 c15
-14 -7 -10 -35 7 l-25 15 25 -7 c14 -3 29 -10 35 -15z m-3559 -146 c-5 -5 -76
139 -76 153 1 5 19 -26 41 -70 22 -43 38 -80 35 -83z m-219 115 c-3 -8 -6 -5
-6 6 -1 11 2 17 5 13 3 -3 4 -12 1 -19z m-1517 -7 c-12 -23 -30 -36 -30 -22 0
10 27 41 36 41 3 0 0 -9 -6 -19z m5460 -11 c0 -5 -4 -10 -10 -10 -5 0 -10 5
-10 10 0 6 5 10 10 10 6 0 10 -4 10 -10z m-5214 -21 c19 -22 19 -22 -3 -8 -13
8 -23 17 -23 21 0 12 6 9 26 -13z m1261 -1 c-3 -8 -6 -5 -6 6 -1 11 2 17 5 13
3 -3 4 -12 1 -19z m-1023 5 c4 -4 17 -8 29 -8 19 0 22 -5 20 -35 -3 -54 -21
-96 -35 -82 -9 9 -9 21 0 48 13 43 9 54 -19 54 -10 0 -19 7 -19 15 0 16 12 20
24 8z m942 -14 c-14 -11 -26 -28 -27 -37 0 -11 -2 -13 -6 -4 -7 18 24 62 44
62 11 0 8 -6 -11 -21z m4004 1 c0 -5 -6 -10 -14 -10 -8 0 -18 5 -21 10 -3 6 3
10 14 10 12 0 21 -4 21 -10z m-5454 -27 c-10 -10 -19 5 -10 18 6 11 8 11 12 0
2 -7 1 -15 -2 -18z m5408 -39 c31 -26 56 -48 56 -49 0 -2 -9 -1 -20 2 -11 3
-32 1 -47 -4 -15 -5 -41 -7 -58 -3 -16 3 -46 0 -65 -6 -25 -9 -36 -9 -39 -1
-5 12 44 57 63 57 7 0 18 11 24 25 6 14 16 25 21 25 5 0 34 -21 65 -46z m163
24 c-3 -8 -6 -5 -6 6 -1 11 2 17 5 13 3 -3 4 -12 1 -19z m-4957 -37 c-1 -14
-3 -13 -15 3 -12 16 -15 17 -15 4 0 -8 -7 -21 -15 -28 -19 -16 -19 -1 0 27 17
24 45 21 45 -6z m-637 0 c-3 -11 -11 -17 -17 -15 -7 3 -20 -12 -31 -36 -10
-22 -20 -39 -22 -37 -6 6 19 71 35 90 20 23 41 22 35 -2z m1593 -36 c-27 -40
-36 -28 -13 15 14 25 23 34 25 24 2 -8 -4 -26 -12 -39z m-43 18 c-7 -2 -21 -2
-30 0 -10 3 -4 5 12 5 17 0 24 -2 18 -5z m-138 -41 c-15 -16 -16 -15 -4 12 7
15 15 23 17 16 3 -7 -3 -19 -13 -28z m-742 -7 c-3 -9 -8 -14 -10 -11 -3 3 -2
9 2 15 9 16 15 13 8 -4z m-1223 -39 c0 -2 -8 -10 -17 -17 -16 -13 -17 -12 -4
4 13 16 21 21 21 13z m470 -56 c-31 -43 -46 -48 -18 -6 13 20 27 36 31 36 5 0
-1 -13 -13 -30z m50 -1 c0 -6 -4 -7 -10 -4 -5 3 -10 11 -10 16 0 6 5 7 10 4 6
-3 10 -11 10 -16z m1610 -9 c13 -8 13 -10 -2 -10 -9 0 -20 5 -23 10 -8 13 5
13 25 0z m100 -94 c11 -23 20 -51 20 -62 0 -28 -34 -96 -59 -116 -31 -26 -37
-1 -7 29 14 14 27 35 27 47 4 48 -4 102 -16 116 -6 8 -15 26 -18 38 -5 23 -5
23 13 7 11 -10 29 -36 40 -59z m207 22 c-3 -8 -6 -5 -6 6 -1 11 2 17 5 13 3
-3 4 -12 1 -19z m-2877 -3 c16 -9 19 -14 9 -15 -8 0 -24 7 -35 15 -24 18 -7
19 26 0z m3560 -2 c84 -5 98 -8 70 -14 -19 -5 -51 -5 -70 -2 -19 3 -60 7 -90
8 -158 5 -176 7 -145 16 17 4 53 6 80 3 28 -2 97 -7 155 -11z m-2399 -20 c-12
-20 -14 -14 -5 12 4 9 9 14 11 11 3 -2 0 -13 -6 -23z m-1141 -69 c0 -8 10 -14
24 -14 29 0 42 -16 27 -34 -7 -8 -27 -10 -66 -6 -63 7 -85 21 -66 44 6 7 10
19 9 24 -2 6 6 18 17 26 18 14 21 14 38 -5 9 -12 17 -27 17 -35z m1037 14 c-3
-8 -6 -5 -6 6 -1 11 2 17 5 13 3 -3 4 -12 1 -19z m1303 -35 c0 -7 -4 -13 -10
-13 -5 0 -10 12 -10 28 0 21 2 24 10 12 5 -8 10 -21 10 -27z m-1462 -34 c1 -9
-8 -20 -22 -27 -21 -9 -24 -8 -29 13 -2 14 -2 27 2 30 11 11 46 0 49 -16z
m1538 -47 c16 -11 15 -11 -6 -1 -32 15 -60 39 -60 52 0 5 10 -1 23 -14 13 -13
32 -30 43 -37z m-1766 -36 c0 -25 5 -48 10 -51 17 -11 1 -25 -28 -25 -32 0
-95 -30 -128 -61 -19 -18 -30 -20 -61 -15 -21 4 -63 9 -93 11 -30 3 -75 10
-99 18 l-43 13 54 46 c62 54 121 77 198 79 30 0 80 7 110 14 83 19 80 20 80
-29z m205 2 c-4 -17 -13 -38 -20 -45 -7 -7 -16 -31 -20 -53 -10 -61 -21 -48
-19 23 2 76 2 75 14 57 7 -11 10 -7 10 18 0 26 4 32 21 32 18 0 20 -4 14 -32z
m1785 -79 c0 -5 -4 -9 -10 -9 -5 0 -10 7 -10 16 0 8 5 12 10 9 6 -3 10 -10 10
-16z m17 -16 c-3 -10 -5 -4 -5 12 0 17 2 24 5 18 2 -7 2 -21 0 -30z m-1817 -7
c0 -3 -4 -8 -10 -11 -5 -3 -10 -1 -10 4 0 6 5 11 10 11 6 0 10 -2 10 -4z m733
-25 c36 -1 34 -16 -4 -30 -24 -8 -37 -7 -59 4 -16 8 -36 15 -44 15 -8 0 -17 4
-20 8 -3 5 18 8 47 6 29 -1 64 -3 80 -3z m-1403 -25 c0 -15 -88 -84 -165 -131
-62 -38 -105 -57 -139 -61 -46 -7 -48 -6 -41 15 4 14 1 31 -10 47 -16 25 -16
25 4 15 42 -23 138 -9 101 14 -7 4 -7 13 0 25 8 16 15 18 35 10 43 -16 164 18
195 54 12 16 20 20 20 12z m637 -28 c-3 -7 -5 -2 -5 12 0 14 2 19 5 13 2 -7 2
-19 0 -25z m1193 13 c112 -19 110 -19 101 -44 -4 -12 -6 -28 -4 -34 3 -8 -3
-13 -14 -13 -18 0 -33 -20 -46 -60 -3 -8 -6 6 -6 32 -1 26 -5 50 -11 53 -5 3
-10 11 -10 17 0 7 5 7 14 -1 10 -9 15 -8 19 3 7 18 -1 20 -110 36 -49 7 -80
16 -77 22 7 10 34 8 144 -11z m-285 -17 c-22 -8 -49 -13 -60 -11 -18 3 -18 5
5 15 14 6 41 11 60 11 l35 0 -40 -15z m-1235 -51 c0 -28 -4 -33 -24 -33 -23 0
-66 40 -66 61 0 13 44 11 58 -3 9 -9 12 -7 12 13 0 19 2 21 10 9 5 -8 10 -30
10 -47z m344 21 c3 -8 2 -12 -4 -9 -6 3 -10 10 -10 16 0 14 7 11 14 -7z m2189
-37 c10 10 47 -28 47 -48 0 -43 -37 -18 -75 51 -7 12 -6 13 7 3 8 -7 18 -10
21 -6z m-2926 -29 c-3 -7 -5 -2 -5 12 0 14 2 19 5 13 2 -7 2 -19 0 -25z m2455
-48 c-2 -8 -7 -39 -11 -69 l-9 -56 -1 73 c-1 55 2 73 12 69 6 -2 11 -10 9 -17z
m-2761 -5 c23 -10 28 -14 14 -14 -25 0 -86 27 -64 28 9 1 32 -6 50 -14z m-311
-25 c13 -9 13 -10 0 -9 -8 0 -24 4 -35 9 l-20 9 20 0 c11 0 27 -4 35 -9z
m2550 -47 c-11 -17 -11 -17 -6 0 3 10 7 26 7 35 1 15 2 15 6 0 2 -10 -1 -25
-7 -35z m710 2 c13 -14 21 -25 18 -25 -2 0 -15 11 -28 25 -13 14 -21 25 -18
25 2 0 15 -11 28 -25z m-929 -95 c15 0 31 -4 34 -10 3 -6 -4 -10 -17 -10 -43
0 -94 20 -119 46 l-24 26 49 -26 c27 -14 62 -26 77 -26z m169 15 c0 -2 -10 -9
-22 -15 -22 -11 -22 -10 -4 4 21 17 26 19 26 11z m590 -59 c0 -28 -16 -8 -24
29 -7 29 -7 29 8 10 8 -11 16 -29 16 -39z m294 24 c22 -11 43 -17 47 -14 5 2
15 -10 24 -27 22 -42 8 -57 -34 -36 -20 10 -33 12 -37 5 -8 -12 -192 -4 -205
9 -5 5 -6 24 -3 41 4 18 9 30 12 28 2 -3 14 1 26 10 27 19 114 10 170 -16z
m336 -15 c7 -9 10 -19 6 -22 -8 -9 -38 9 -44 25 -5 17 23 15 38 -3z m-660 -5
c0 -5 -4 -10 -10 -10 -5 0 -10 5 -10 10 0 6 5 10 10 10 6 0 10 -4 10 -10z
m-581 -56 c-6 -7 -15 -11 -20 -8 -5 3 -3 11 4 18 16 18 31 8 16 -10z m-424 -2
c-3 -3 -11 0 -18 7 -9 10 -8 11 6 5 10 -3 15 -9 12 -12z m-89 -37 c7 -19 14
-36 14 -38 0 -3 -18 -7 -39 -11 -22 -3 -47 -9 -56 -12 -14 -6 -16 -3 -10 17 8
26 53 79 67 79 5 0 16 -16 24 -35z m1117 18 c-7 -2 -19 -2 -25 0 -7 3 -2 5 12
5 14 0 19 -2 13 -5z m114 1 c-3 -3 -12 -4 -19 -1 -8 3 -5 6 6 6 11 1 17 -2 13
-5z m93 -95 c0 -6 -4 -7 -10 -4 -5 3 -10 11 -10 16 0 6 5 7 10 4 6 -3 10 -11
10 -16z m130 -141 c-12 -57 -28 -116 -35 -133 -7 -16 -23 -60 -35 -96 -11 -36
-36 -90 -55 -120 -37 -58 -41 -69 -25 -69 6 0 10 6 10 13 0 10 69 119 87 137
2 3 -5 -19 -16 -48 -25 -64 -25 -63 -3 -56 9 3 2 -4 -15 -16 -18 -12 -30 -26
-27 -31 3 -5 -9 -9 -25 -9 -37 0 -37 0 -11 68 21 55 11 72 -14 25 -21 -39 -20
-27 4 35 11 29 20 71 21 95 1 55 13 96 22 80 4 -7 3 -40 -3 -75 -12 -74 -12
-91 0 -62 4 11 11 47 15 80 11 89 25 100 19 14 -4 -55 -3 -71 5 -60 6 8 11 24
11 36 0 11 8 45 18 75 11 30 22 86 26 124 3 39 9 85 12 103 6 32 7 32 21 13
12 -18 11 -33 -7 -123z m-1460 111 c0 -8 4 -8 14 0 10 9 16 9 21 1 5 -8 11 -8
21 1 20 16 47 -8 41 -37 -3 -19 1 -24 27 -27 24 -3 21 -4 -13 -5 -29 -1 -51 4
-62 14 -10 9 -30 17 -44 17 -20 0 -25 5 -25 23 0 13 5 24 10 24 6 0 10 -5 10
-11z m217 -23 c-4 -9 -10 -15 -14 -14 -4 1 -23 -2 -40 -6 -40 -9 -53 -2 -46
25 5 17 11 20 32 16 15 -3 33 -2 41 3 19 12 35 -3 27 -24z m33 19 c0 -8 -4
-15 -10 -15 -5 0 -10 7 -10 15 0 8 5 15 10 15 6 0 10 -7 10 -15z m1071 -6 c14
-27 22 -99 10 -99 -12 0 -31 56 -31 91 0 35 5 36 21 8z m-203 -99 c-5 -22 -62
-20 -66 3 -3 15 3 17 33 15 26 -1 35 -6 33 -18z m983 -30 l-21 -29 31 11 c48
16 43 4 -7 -19 l-46 -21 7 26 c3 15 15 33 25 41 11 7 20 21 21 30 0 12 2 12 6
3 3 -8 -4 -27 -16 -42z m-495 -46 c-16 -46 -76 -149 -106 -184 -22 -25 -17 -8
5 20 7 8 24 47 39 87 25 67 63 129 72 120 2 -2 -2 -21 -10 -43z m-76 -45 c-32
-76 -59 -117 -45 -69 9 35 66 152 71 147 2 -2 -10 -37 -26 -78z m-20 34 c0 -7
-71 -113 -76 -113 -7 0 10 37 35 77 24 39 41 54 41 36z m415 -23 c-3 -5 -12
-10 -18 -10 -7 0 -6 4 3 10 19 12 23 12 15 0z m-246 -42 c16 -9 17 -16 8 -35
-13 -29 -22 -29 -41 -1 -11 16 -13 25 -4 35 13 16 14 16 37 1z m-228 -121
c-10 -9 -11 -8 -5 6 3 10 9 15 12 12 3 -3 0 -11 -7 -18z m-772 -6 c9 -6 10
-11 2 -15 -16 -10 -13 -26 4 -26 9 0 21 -12 27 -26 15 -31 0 -44 -53 -44 -43
0 -53 8 -36 28 8 11 9 16 1 19 -6 2 -9 16 -6 31 7 39 31 52 61 33z m751 -32
c-7 -11 -14 -18 -17 -15 -3 3 0 12 7 21 18 21 23 19 10 -6z m-974 -41 c-1 -23
-22 -45 -33 -34 -8 8 14 56 25 56 5 0 8 -10 8 -22z m781 -240 c-3 -8 -6 -5 -6
6 -1 11 2 17 5 13 3 -3 4 -12 1 -19z m-302 -35 c-13 -54 -45 -67 -45 -19 0 25
17 46 38 46 10 0 12 -7 7 -27z m530 -33 c18 -11 35 -26 38 -34 11 -29 -11 -38
-102 -44 -102 -5 -114 3 -63 50 56 52 79 58 127 28z m-188 -32 c-3 -7 -5 -2
-5 12 0 14 2 19 5 13 2 -7 2 -19 0 -25z m-340 -30 c-3 -8 -6 -5 -6 6 -1 11 2
17 5 13 3 -3 4 -12 1 -19z m168 -68 c-27 -12 -43 -12 -25 0 8 5 22 9 30 9 10
0 8 -3 -5 -9z m-140 -20 c3 -5 2 -10 -4 -10 -5 0 -13 5 -16 10 -3 6 -2 10 4
10 5 0 13 -4 16 -10z m375 -203 c12 -17 12 -17 -14 -6 -18 9 -23 15 -14 20 7
4 13 7 13 6 0 -1 7 -10 15 -20z"/>
<path d="M4942 7938 c-16 -16 -15 -28 3 -28 8 0 15 2 15 4 0 2 3 11 6 20 7 19
-7 21 -24 4z"/>
<path d="M4906 7873 c-8 -19 8 -38 23 -29 16 10 13 46 -3 46 -8 0 -17 -8 -20
-17z"/>
<path d="M4876 7765 c-9 -26 -7 -32 5 -12 6 10 9 21 6 23 -2 3 -7 -2 -11 -11z"/>
<path d="M4923 7765 c-3 -9 -3 -18 -1 -21 3 -3 8 4 11 16 6 23 -1 27 -10 5z"/>
<path d="M4853 7695 c-3 -9 -3 -18 -1 -21 3 -3 8 4 11 16 6 23 -1 27 -10 5z"/>
<path d="M4886 7645 c-3 -8 -1 -15 4 -15 6 0 10 7 10 15 0 8 -2 15 -4 15 -2 0
-6 -7 -10 -15z"/>
<path d="M4877 7603 c-4 -3 -7 -13 -7 -22 1 -13 3 -13 11 2 11 19 8 33 -4 20z"/>
<path d="M4827 7580 c-3 -11 -2 -20 3 -20 4 0 10 9 13 20 3 11 2 20 -3 20 -4
0 -10 -9 -13 -20z"/>
<path d="M5545 7998 c14 -23 36 -62 48 -85 17 -35 26 -43 49 -43 34 0 37 17 6
29 -34 13 -58 44 -72 93 -10 32 -19 44 -36 46 l-22 4 27 -44z"/>
<path d="M5656 7835 c-23 -17 -16 -27 19 -31 28 -3 31 4 13 29 -12 14 -15 14
-32 2z"/>
<path d="M5666 7757 c9 -31 18 -39 38 -31 25 10 15 36 -17 45 -25 7 -27 5 -21
-14z"/>
<path d="M5720 7773 c0 -4 5 -15 10 -23 8 -13 10 -13 10 2 0 9 -4 20 -10 23
-5 3 -10 3 -10 -2z"/>
<path d="M5270 7730 c0 -12 27 -12 55 0 16 7 13 9 -17 9 -21 1 -38 -3 -38 -9z"/>
<path d="M5147 7713 c-15 -14 -6 -23 22 -23 16 0 31 6 35 15 4 11 -2 15 -23
15 -15 0 -31 -3 -34 -7z"/>
<path d="M5455 7710 c-3 -6 1 -12 9 -15 9 -3 23 -7 32 -10 24 -8 37 4 23 21
-13 16 -55 19 -64 4z"/>
<path d="M5505 7630 c3 -5 8 -10 11 -10 2 0 4 5 4 10 0 6 -5 10 -11 10 -5 0
-7 -4 -4 -10z"/>
<path d="M4350 6960 c0 -5 5 -10 11 -10 5 0 7 5 4 10 -3 6 -8 10 -11 10 -2 0
-4 -4 -4 -10z"/>
<path d="M4790 6821 c0 -42 14 -46 17 -5 2 19 -2 34 -7 34 -6 0 -10 -13 -10
-29z"/>
<path d="M4710 6741 c0 -5 5 -13 10 -16 6 -3 10 -2 10 4 0 5 -4 13 -10 16 -5
3 -10 2 -10 -4z"/>
<path d="M9386 6375 c-3 -8 4 -21 16 -29 28 -20 32 -15 17 18 -14 29 -24 33
-33 11z"/>
<path d="M9052 6261 c-11 -7 -11 -9 1 -14 9 -3 21 1 27 9 10 11 10 14 -1 14
-8 0 -20 -4 -27 -9z"/>
<path d="M8903 6093 c9 -2 25 -2 35 0 9 3 1 5 -18 5 -19 0 -27 -2 -17 -5z"/>
<path d="M8260 6180 c20 -13 33 -13 25 0 -3 6 -14 10 -23 10 -15 0 -15 -2 -2
-10z"/>
<path d="M1106 7219 c2 -4 -4 -14 -14 -21 -10 -7 -22 -22 -26 -33 -4 -12 7 -4
28 19 41 44 41 43 21 43 -8 0 -12 -4 -9 -8z"/>
<path d="M1160 7189 c0 -11 7 -19 15 -19 8 0 15 5 15 11 0 5 5 7 11 3 7 -4 10
-1 7 7 -7 22 -48 20 -48 -2z"/>
<path d="M1226 7162 c-3 -5 1 -9 9 -9 8 0 12 4 9 9 -3 4 -7 8 -9 8 -2 0 -6 -4
-9 -8z"/>
<path d="M1280 7110 c0 -5 5 -10 10 -10 6 0 10 5 10 10 0 6 -4 10 -10 10 -5 0
-10 -4 -10 -10z"/>
<path d="M1330 7094 c0 -8 5 -12 10 -9 6 4 8 11 5 16 -9 14 -15 11 -15 -7z"/>
<path d="M1105 7090 c-3 -5 -1 -10 4 -10 6 0 11 5 11 10 0 6 -2 10 -4 10 -3 0
-8 -4 -11 -10z"/>
<path d="M1480 7040 c0 -19 3 -21 12 -12 9 9 9 15 0 24 -9 9 -12 7 -12 -12z"/>
<path d="M1416 7035 c-3 -8 -1 -15 4 -15 6 0 10 7 10 15 0 8 -2 15 -4 15 -2 0
-6 -7 -10 -15z"/>
<path d="M1660 7034 c8 -10 15 -20 16 -22 1 -2 4 1 7 5 3 5 -4 15 -16 23 -21
12 -21 12 -7 -6z"/>
<path d="M706 6682 c-2 -4 -14 -48 -25 -97 -53 -231 -81 -581 -64 -814 l8
-114 79 -23 c44 -13 105 -26 135 -28 31 -2 67 -8 81 -13 49 -19 156 -51 225
-68 39 -10 84 -24 102 -31 17 -8 55 -19 83 -24 28 -5 56 -12 61 -15 26 -17
182 -57 229 -60 30 -1 94 -14 142 -28 159 -46 258 -58 521 -64 136 -3 247 -8
247 -10 0 -3 -9 -17 -20 -33 l-19 -27 29 1 c25 1 32 7 41 33 6 18 30 57 55 86
24 30 53 80 64 113 11 32 27 68 35 80 13 20 12 23 -1 28 -27 10 -39 7 -22 -6
13 -12 13 -17 -6 -49 -18 -31 -26 -35 -61 -36 -22 0 -67 -6 -99 -12 -82 -15
-204 -4 -217 20 -11 22 16 40 76 49 34 5 40 9 38 28 -3 28 30 37 95 27 26 -4
71 -8 100 -9 51 -2 53 -2 28 11 -28 15 -36 29 -11 19 9 -3 19 3 26 16 8 15 13
17 19 8 8 -13 30 39 30 71 0 12 16 25 48 39 45 21 46 22 23 31 -13 5 -39 7
-57 3 l-34 -6 0 51 c0 44 -3 51 -19 51 -11 0 -22 4 -25 9 -3 5 -25 7 -48 6
-24 -2 -110 -6 -193 -9 -82 -4 -156 -9 -163 -11 -7 -3 -21 1 -32 7 -22 14 -70
-3 -70 -25 0 -23 -70 -46 -131 -45 -51 2 -59 5 -78 33 -11 17 -21 36 -21 43 0
6 -9 17 -21 25 -13 9 -16 17 -10 22 30 18 -19 115 -57 115 -25 0 -112 76 -101
87 14 14 -94 50 -171 58 -47 5 -52 4 -36 -7 50 -35 68 -52 82 -81 13 -28 9
-26 -28 16 -39 43 -70 64 -52 36 3 -6 1 -14 -5 -18 -8 -6 -6 -15 9 -32 l20
-24 -10 28 c-13 37 4 34 27 -6 l20 -33 -26 2 c-14 1 -29 2 -33 3 -12 2 -128
113 -128 122 0 20 36 7 69 -23 20 -18 28 -24 18 -12 -9 11 -17 25 -17 30 0 12
-79 44 -110 44 l-25 0 25 -20 c35 -26 18 -37 -18 -11 -17 12 -32 21 -35 21 -3
0 -16 -18 -28 -40 -18 -32 -25 -37 -40 -30 -10 6 -24 10 -31 10 -16 -1 42 -50
59 -50 6 0 15 -4 18 -10 4 -6 -1 -7 -10 -3 -10 3 1 -17 24 -48 23 -30 41 -57
41 -61 0 -10 -58 -20 -71 -13 -6 4 -27 8 -47 10 -31 2 -38 6 -40 26 -11 89
-78 189 -127 189 -11 0 -44 11 -72 25 -29 13 -53 22 -53 19 0 -3 7 -16 16 -30
24 -36 10 -41 -30 -10 -31 23 -40 42 -85 184 -27 86 -57 183 -65 215 -8 31
-18 62 -21 67 -7 12 -22 13 -29 2z m723 -543 c24 -22 41 -42 39 -45 -3 -2 -22
11 -43 31 -22 19 -43 35 -47 35 -4 0 -8 5 -8 10 0 18 14 10 59 -31z m800 -328
c21 -13 -5 -24 -29 -11 -11 6 -20 13 -20 15 0 8 34 5 49 -4z m67 -26 c24 -18
7 -19 -26 0 -16 9 -19 14 -9 15 8 0 24 -7 35 -15z m199 -130 c20 -16 19 -16
-5 -10 -14 4 -35 7 -47 7 -15 0 -25 9 -32 29 l-10 29 37 -19 c20 -11 46 -27
57 -36z m-715 -1 c0 -2 -9 0 -20 6 -11 6 -20 13 -20 16 0 2 9 0 20 -6 11 -6
20 -13 20 -16z m17 -36 c-3 -8 -6 -5 -6 6 -1 11 2 17 5 13 3 -3 4 -12 1 -19z
m-750 -34 c-3 -3 -12 -4 -19 -1 -8 3 -5 6 6 6 11 1 17 -2 13 -5z m139 -13 c-6
-10 -66 -33 -66 -26 0 3 15 11 33 19 40 18 39 18 33 7z m605 -19 c-14 -27
-108 -112 -123 -111 -7 0 -4 6 7 12 11 7 43 35 70 64 56 58 60 60 46 35z
m-164 -128 c-3 -3 -12 -4 -19 -1 -8 3 -5 6 6 6 11 1 17 -2 13 -5z"/>
<path d="M2931 6569 c-12 -12 -20 -23 -17 -26 2 -3 17 7 33 21 15 14 23 26 17
26 -5 0 -20 -9 -33 -21z"/>
<path d="M2925 6480 c3 -5 11 -10 16 -10 6 0 7 5 4 10 -3 6 -11 10 -16 10 -6
0 -7 -4 -4 -10z"/>
<path d="M3106 6453 c6 -4 14 -15 17 -23 5 -11 6 -9 4 4 -1 11 -9 21 -17 23
-10 3 -11 2 -4 -4z"/>
<path d="M3475 6410 c-3 -5 1 -10 9 -10 9 0 16 5 16 10 0 6 -4 10 -9 10 -6 0
-13 -4 -16 -10z"/>
<path d="M3306 6394 c-17 -12 -17 -14 -4 -14 9 0 20 5 23 11 11 17 2 18 -19 3z"/>
<path d="M880 6260 c0 -5 5 -10 10 -10 6 0 10 5 10 10 0 6 -4 10 -10 10 -5 0
-10 -4 -10 -10z"/>
<path d="M3490 6170 c-8 -5 -10 -10 -5 -10 6 0 17 5 25 10 8 5 11 10 5 10 -5
0 -17 -5 -25 -10z"/>
<path d="M3820 6135 c0 -2 18 -14 40 -25 49 -25 53 -19 6 9 -33 21 -46 25 -46
16z"/>
<path d="M3349 5905 c-14 -7 -57 -21 -95 -29 -96 -22 -147 -38 -159 -52 -5 -6
-33 -14 -62 -17 -59 -7 -95 -26 -111 -61 -10 -22 -8 -25 15 -31 14 -3 31 -1
36 4 16 16 79 13 102 -5 27 -20 9 -47 -36 -54 -31 -5 -28 -7 38 -24 40 -10 88
-27 107 -37 l33 -18 11 25 c7 13 16 24 22 24 6 0 10 30 10 74 0 91 21 126 75
126 40 0 71 36 60 70 -7 23 -11 24 -46 5z"/>
<path d="M2953 5663 c9 -2 25 -2 35 0 9 3 1 5 -18 5 -19 0 -27 -2 -17 -5z"/>
<path d="M2919 5600 c-9 -5 -20 -21 -23 -35 -4 -14 -11 -25 -16 -25 -14 0 -12
-44 2 -58 6 -6 11 -34 11 -62 0 -27 3 -50 8 -50 5 0 9 4 9 9 0 10 99 52 182
77 38 12 55 21 51 30 -3 8 2 17 11 20 35 14 4 64 -40 64 -14 0 -23 -4 -19 -9
3 -5 1 -12 -5 -16 -16 -10 -12 -22 13 -30 19 -7 16 -9 -17 -12 -41 -5 -105
-43 -72 -43 10 0 14 -4 11 -10 -9 -15 -105 -13 -105 2 0 6 9 22 21 34 l21 22
-21 7 c-26 8 -26 17 0 41 11 10 25 27 30 36 8 15 6 18 -13 18 -13 0 -30 -5
-39 -10z"/>
<path d="M5010 5560 c-8 -5 -12 -12 -9 -15 8 -8 39 5 39 16 0 11 -11 11 -30
-1z"/>
<path d="M5115 5561 c-3 -5 -1 -12 3 -15 14 -8 82 5 76 15 -7 12 -71 11 -79 0z"/>
<path d="M3218 5398 c-2 -15 -9 -22 -21 -22 -27 3 -17 -27 15 -46 35 -19 46
-7 40 48 -4 45 -28 59 -34 20z"/>
<path d="M4748 5343 c7 -3 16 -2 19 1 4 3 -2 6 -13 5 -11 0 -14 -3 -6 -6z"/>
<path d="M4711 5301 c-65 -11 -81 -36 -81 -130 0 -128 42 -178 159 -188 81 -8
122 2 158 37 43 42 64 91 66 156 2 50 -1 58 -26 79 -15 14 -44 29 -65 34 -56
14 -161 20 -211 12z"/>
<path d="M2450 5190 c-23 -23 -28 -49 -6 -31 12 10 13 8 9 -8 -8 -31 4 -25 23
10 15 30 15 32 -1 25 -15 -5 -16 -4 -5 9 18 22 3 18 -20 -5z"/>
<path d="M5156 5097 c3 -10 9 -15 12 -12 3 3 0 11 -7 18 -10 9 -11 8 -5 -6z"/>
<path d="M2800 5086 c0 -2 7 -7 16 -10 8 -3 12 -2 9 4 -6 10 -25 14 -25 6z"/>
<path d="M7158 5043 c6 -2 18 -2 25 0 6 3 1 5 -13 5 -14 0 -19 -2 -12 -5z"/>
<path d="M2970 4940 c-18 -12 -2 -12 25 0 13 6 15 9 5 9 -8 0 -22 -4 -30 -9z"/>
<path d="M2878 4913 c6 -2 18 -2 25 0 6 3 1 5 -13 5 -14 0 -19 -2 -12 -5z"/>
<path d="M4280 4910 c0 -5 7 -7 15 -4 8 4 15 8 15 10 0 2 -7 4 -15 4 -8 0 -15
-4 -15 -10z"/>
<path d="M4340 4895 c17 -20 4 -35 -30 -35 -26 0 -29 -4 -35 -42 -3 -24 -7
-64 -9 -89 -1 -29 -11 -58 -26 -79 -30 -42 -37 -25 -20 46 18 74 5 80 -15 8
-34 -127 -38 -139 -42 -126 -3 7 0 65 7 129 6 63 9 117 7 119 -3 3 -13 -39
-22 -93 -9 -54 -23 -118 -30 -143 -19 -62 -24 -345 -7 -362 10 -10 17 -10 32
0 11 7 20 9 20 5 0 -5 -14 -16 -31 -25 -26 -15 -28 -20 -19 -38 9 -16 15 -18
30 -10 25 13 30 13 30 -5 0 -7 -7 -18 -15 -22 -8 -5 -17 -24 -20 -43 l-6 -35
16 34 c22 48 28 33 8 -19 -14 -35 -15 -44 -4 -48 9 -3 4 -13 -14 -33 -27 -27
-29 -62 -3 -57 17 4 18 -53 1 -74 -8 -9 -13 -25 -11 -36 2 -14 -11 -31 -44
-56 -85 -65 -84 -71 35 -196 l79 -83 28 22 c16 11 34 21 39 21 5 0 28 -21 50
-48 34 -40 101 -93 101 -79 0 14 -35 69 -46 74 -15 6 -18 50 -8 103 5 23 15
35 35 42 16 5 29 13 29 17 0 4 13 6 28 3 25 -3 33 2 60 45 21 33 32 62 32 86
0 28 6 40 25 53 13 8 29 13 35 9 5 -3 10 0 10 7 0 29 140 141 192 153 14 4 36
18 49 31 l22 24 -23 0 c-13 0 -48 -19 -79 -42 -31 -23 -76 -57 -101 -75 -24
-19 -50 -31 -57 -29 -7 3 -13 1 -13 -4 0 -23 -28 -8 -33 18 -7 33 15 69 50 83
14 5 43 28 64 51 29 32 37 37 32 20 -8 -32 2 -27 27 14 20 32 24 34 39 20 19
-17 58 -21 79 -7 10 6 6 10 -15 16 l-28 7 33 17 c30 16 32 19 17 31 -12 10
-13 15 -4 21 15 9 1 29 -42 60 l-27 19 2 -34 c3 -33 2 -34 -17 -24 -16 8 -22
8 -25 -1 -2 -6 -8 -8 -14 -5 -6 4 -14 1 -18 -6 -6 -9 -15 -8 -41 6 -29 15 -32
15 -21 1 8 -9 35 -24 60 -33 52 -19 82 -40 44 -31 -15 3 -25 0 -29 -9 -7 -18
-23 -18 -23 1 0 14 -29 35 -48 35 -13 0 -3 -40 13 -60 11 -13 7 -22 -26 -60
-21 -25 -39 -39 -39 -31 0 11 -4 9 -14 -5 -13 -17 -14 -13 -10 41 2 33 9 96
15 140 6 44 9 102 7 130 -3 46 -6 51 -39 67 -54 25 -132 117 -164 193 -19 43
-33 64 -42 61 -7 -3 -17 3 -23 14 -16 29 -12 42 10 35 18 -6 20 -2 20 34 0 22
4 42 9 46 5 3 12 18 16 34 3 16 15 37 26 47 30 27 23 41 -27 48 -72 9 -79 9
-64 -9z m-195 -715 c3 -5 1 -10 -4 -10 -6 0 -11 5 -11 10 0 6 2 10 4 10 3 0 8
-4 11 -10z m344 -139 c19 -12 7 -84 -21 -129 -14 -23 -18 -42 -14 -63 12 -63
-62 -57 -233 18 -90 39 -52 35 68 -8 121 -42 141 -41 141 7 0 13 5 24 10 24 6
0 10 20 10 45 0 40 11 58 23 38 2 -5 2 -1 0 7 -18 67 -15 80 16 61z m-173 -95
c16 -8 25 -15 21 -16 -13 0 -141 51 -152 61 -12 12 94 -24 131 -45z m75 -31
c19 -8 27 -14 19 -14 -14 0 -72 28 -59 29 4 0 22 -7 40 -15z"/>
<path d="M3855 4859 c-24 -30 -25 -33 -9 -50 9 -11 27 -19 39 -19 11 0 27 -6
34 -12 10 -11 11 -5 5 27 -5 22 -8 50 -9 63 0 32 -28 28 -60 -9z"/>
<path d="M2815 4808 c-16 -5 -79 -16 -140 -23 l-110 -14 124 3 c107 3 121 1
100 -10 -13 -7 -18 -13 -11 -14 15 0 99 47 108 61 7 12 -32 10 -71 -3z"/>
<path d="M7265 4780 c11 -5 29 -8 40 -8 16 0 15 2 -5 8 -34 11 -60 11 -35 0z"/>
<path d="M7388 4763 c28 -2 76 -2 105 0 28 2 5 3 -53 3 -58 0 -81 -1 -52 -3z"/>
<path d="M4670 4738 c0 -7 5 -20 10 -28 8 -12 10 -11 10 7 0 12 -4 25 -10 28
-5 3 -10 0 -10 -7z"/>
<path d="M7346 4735 c-15 -8 -40 -15 -55 -16 -23 0 -21 -2 15 -17 44 -19 180
-97 205 -119 13 -11 18 -11 26 -1 17 21 36 139 25 150 -18 18 -183 20 -216 3z
m144 -63 c-8 -1 -42 1 -74 5 -69 9 -90 33 -29 33 21 0 45 5 53 10 11 7 22 2
40 -18 19 -21 22 -28 10 -30z"/>
<path d="M2962 4708 c-17 -17 -15 -28 6 -28 24 0 32 8 25 26 -6 17 -15 18 -31
2z"/>
<path d="M4580 4705 c0 -11 -8 -13 -30 -8 -17 3 -30 1 -30 -4 0 -21 68 -103
193 -233 90 -93 137 -151 152 -186 23 -50 86 -116 93 -96 5 16 -26 70 -67 116
-21 22 -48 57 -61 76 -25 38 -43 58 -114 134 -35 38 -46 58 -46 82 0 18 4 34
10 36 6 2 6 8 0 18 -8 13 -10 13 -10 -2 0 -12 -6 -15 -22 -11 -33 8 -52 25
-38 33 8 5 8 14 -1 33 -13 29 -29 36 -29 12z m-6 -71 c3 -8 2 -12 -4 -9 -6 3
-10 10 -10 16 0 14 7 11 14 -7z"/>
<path d="M3948 4655 c3 -33 11 -73 18 -90 19 -44 16 -5 -6 80 l-18 70 6 -60z"/>
<path d="M7664 4661 c4 -6 -1 -14 -10 -18 -16 -6 -16 -7 2 -13 40 -15 60 11
23 31 -15 8 -19 8 -15 0z"/>
<path d="M7785 4603 c-14 -15 -25 -36 -25 -45 0 -10 -4 -18 -8 -18 -5 0 -14
-11 -20 -25 -10 -21 -9 -26 9 -36 19 -9 19 -9 10 10 -15 27 -14 31 7 31 33 -1
83 -36 100 -70 9 -19 21 -33 27 -31 5 2 20 -19 32 -45 l23 -49 -6 65 c-4 36
-17 85 -30 111 -13 26 -20 49 -17 53 10 10 -41 76 -59 76 -9 0 -29 -12 -43
-27z"/>
<path d="M3915 4568 c14 -61 39 -101 73 -115 40 -16 42 -2 6 34 -14 14 -31 40
-36 57 -21 61 -55 80 -43 24z"/>
<path d="M7626 4561 c-7 -10 49 -61 67 -61 6 0 -4 16 -23 35 -38 39 -37 38
-44 26z"/>
<path d="M6827 4366 c-28 -45 -62 -140 -46 -130 17 10 41 66 35 80 -3 8 -2 13
2 10 12 -7 38 26 46 57 10 40 -5 33 -37 -17z"/>
<path d="M6735 4328 c-15 -24 -41 -63 -57 -87 -16 -24 -28 -45 -26 -46 7 -7
84 37 99 56 13 17 26 119 15 119 -2 0 -16 -19 -31 -42z"/>
<path d="M7871 4325 c12 -22 29 -47 37 -55 22 -23 -12 39 -39 70 -20 24 -20
23 2 -15z"/>
<path d="M6689 4328 c-20 -7 -26 -14 -22 -29 3 -12 -2 -29 -14 -42 -41 -47
-43 -60 -3 -17 46 48 75 89 69 94 -2 2 -16 -1 -30 -6z"/>
<path d="M4680 4316 c0 -9 -7 -12 -20 -9 -27 7 -27 -26 0 -55 26 -27 34 -28
20 -2 -8 16 -8 18 4 14 23 -9 39 31 20 50 -19 20 -24 20 -24 2z"/>
<path d="M6520 4234 c-44 -28 -49 -34 -25 -28 43 10 63 22 75 44 14 25 15 26
-50 -16z"/>
<path d="M7364 4235 c11 -8 31 -15 45 -15 l26 1 -25 14 c-14 8 -34 14 -45 14
-20 0 -20 0 -1 -14z"/>
<path d="M7408 4193 c7 -3 16 -2 19 1 4 3 -2 6 -13 5 -11 0 -14 -3 -6 -6z"/>
<path d="M7410 4115 c5 -6 8 -14 5 -16 -2 -3 4 -5 13 -5 9 -1 44 -9 77 -18 32
-9 91 -15 130 -15 53 1 63 3 40 9 -16 4 -56 8 -87 9 -32 0 -86 11 -123 25 -36
13 -61 18 -55 11z"/>
<path d="M5103 4095 c-17 -19 -16 -25 2 -25 8 0 15 9 15 20 0 23 -1 24 -17 5z"/>
<path d="M5241 4099 c-62 -12 -63 -19 -4 -19 36 0 53 4 57 15 3 8 2 15 -2 14
-4 -1 -27 -5 -51 -10z"/>
<path d="M5166 4082 c-2 -4 -1 -14 5 -22 7 -12 9 -10 9 8 0 23 -5 28 -14 14z"/>
<path d="M5157 3951 c-4 -52 -6 -164 -5 -250 l1 -156 8 218 c4 119 9 223 12
230 2 6 1 21 -3 32 -4 11 -9 -20 -13 -74z"/>
<path d="M4741 3875 c-24 -19 -48 -35 -53 -35 -9 0 -68 -63 -63 -68 5 -5 60
23 68 35 4 7 14 13 22 13 13 0 95 73 95 84 0 15 -29 3 -69 -29z"/>
<path d="M5064 3755 c0 -60 1 -84 3 -52 2 32 2 81 0 110 -2 29 -3 3 -3 -58z"/>
<path d="M5585 3795 c60 -170 94 -253 95 -228 0 15 -73 204 -89 229 -12 18
-12 18 -6 -1z"/>
<path d="M5123 3705 c0 -38 2 -53 4 -32 2 20 2 52 0 70 -2 17 -4 1 -4 -38z"/>
<path d="M5520 3761 c0 -5 7 -15 17 -22 15 -13 15 -12 4 9 -12 23 -21 28 -21
13z"/>
<path d="M3990 3670 c0 -5 5 -10 11 -10 5 0 7 5 4 10 -3 6 -8 10 -11 10 -2 0
-4 -4 -4 -10z"/>
<path d="M4457 3584 c-3 -3 -3 -22 0 -42 5 -35 5 -36 -10 -17 -16 20 -16 20
-18 -5 -2 -40 2 -74 12 -93 16 -28 172 -98 245 -108 37 -5 70 -12 75 -15 5 -3
9 -3 9 0 0 3 -28 19 -62 34 -108 49 -148 79 -169 128 -20 44 -39 58 -39 28 0
-8 -4 -12 -10 -9 -5 3 -10 26 -10 50 0 41 -10 62 -23 49z m126 -198 c9 -7 17
-16 17 -19 0 -8 -62 11 -74 23 -15 15 36 12 57 -4z"/>
<path d="M5874 3545 c-18 -15 -18 -15 10 -13 16 2 31 9 34 16 5 17 -20 15 -44
-3z"/>
<path d="M6129 3538 c-12 -23 -12 -23 10 -4 23 21 26 26 11 26 -5 0 -15 -10
-21 -22z"/>
<path d="M5691 3519 c-1 -8 6 -24 15 -35 15 -19 15 -19 6 1 -5 11 -12 27 -15
35 -5 13 -6 13 -6 -1z"/>
<path d="M5912 3503 c-26 -37 -27 -42 -6 -39 20 3 36 31 32 54 -3 13 -8 10
-26 -15z"/>
<path d="M5123 3450 c0 -41 2 -58 4 -37 2 20 2 54 0 75 -2 20 -4 3 -4 -38z"/>
<path d="M6310 3510 c0 -6 7 -13 15 -16 18 -7 20 -25 3 -21 -8 1 -14 -10 -16
-25 -4 -32 -21 -37 -29 -8 -6 22 -23 17 -23 -6 0 -8 4 -12 10 -9 5 3 13 -12
16 -35 5 -30 9 -38 16 -28 10 13 3 -102 -9 -152 -4 -18 -2 -22 5 -15 6 6 19
42 29 80 10 39 22 73 27 77 19 13 4 146 -18 160 -16 11 -26 10 -26 -2z"/>
<path d="M6156 3435 c8 -47 11 -53 20 -32 3 8 -2 28 -10 44 l-16 28 6 -40z"/>
<path d="M5152 3425 c0 -16 2 -22 5 -12 2 9 2 23 0 30 -3 6 -5 -1 -5 -18z"/>
<path d="M4265 3431 c-3 -2 -5 -12 -5 -22 0 -10 -12 -26 -26 -35 -24 -16 -24
-18 -7 -27 10 -6 28 -21 40 -34 12 -12 26 -23 30 -23 8 0 47 70 57 103 3 10
10 15 16 12 5 -3 10 -2 10 3 0 6 -8 13 -17 18 -20 9 -91 13 -98 5z"/>
<path d="M5073 3405 c0 -22 2 -30 4 -17 2 12 2 30 0 40 -3 9 -5 -1 -4 -23z"/>
<path d="M3887 3389 c-22 -11 -37 -23 -34 -25 5 -6 87 33 87 41 0 9 -14 4 -53
-16z"/>
<path d="M4466 3356 c3 -8 -9 -20 -33 -31 -40 -19 -83 -53 -83 -67 0 -15 -38
-46 -61 -50 -17 -2 -25 -12 -30 -35 -3 -18 -2 -30 2 -27 5 3 9 0 9 -6 0 -14
53 -4 58 11 2 5 19 9 37 9 27 0 43 10 82 50 l49 50 59 -10 c32 -5 61 -7 64 -4
9 9 -23 24 -54 24 -47 0 -64 16 -24 23 29 4 44 -2 93 -39 47 -35 69 -44 103
-45 67 -2 68 -3 65 -27 -2 -16 2 -22 16 -22 13 0 18 -7 18 -21 -1 -12 7 -26
17 -33 15 -9 22 -7 38 13 10 13 19 32 19 43 0 10 4 17 10 13 5 -3 27 6 50 20
22 14 40 20 40 14 0 -6 7 -3 16 5 8 9 20 13 26 10 6 -4 5 2 -1 15 -11 19 -10
20 14 11 33 -12 65 -13 65 -1 0 5 -10 9 -22 10 -69 4 -86 7 -85 15 1 5 -59 10
-133 11 -116 2 -235 18 -317 41 -15 4 -23 2 -23 -6 0 -7 -13 2 -29 19 -29 31
-65 43 -55 17z m414 -146 c0 -5 -2 -10 -4 -10 -3 0 -8 5 -11 10 -3 6 -1 10 4
10 6 0 11 -4 11 -10z m5 -59 c3 -5 1 -12 -5 -16 -5 -3 -10 1 -10 9 0 18 6 21
15 7z"/>
<path d="M4112 3324 c-23 -27 -31 -97 -12 -109 14 -8 59 45 59 70 0 11 -5 30
-12 42 l-12 22 -23 -25z"/>
<path d="M6426 3340 c-6 -20 -26 -223 -22 -228 8 -7 40 115 40 151 1 20 4 37
8 37 12 0 10 14 -6 36 -12 16 -15 16 -20 4z"/>
<path d="M6482 3273 c-13 -24 -35 -133 -29 -140 9 -9 25 31 36 91 12 63 9 80
-7 49z"/>
<path d="M5869 3263 c-9 -10 -2 -13 35 -13 51 0 55 15 6 22 -18 3 -35 -1 -41
-9z"/>
<path d="M3819 3253 c-13 -16 -12 -17 4 -4 16 13 21 21 13 21 -2 0 -10 -8 -17
-17z"/>
<path d="M5162 3220 c-16 -26 -17 -24 33 -38 22 -6 50 -14 62 -17 15 -5 28 0
42 14 30 30 26 38 -21 45 -24 4 -56 9 -73 12 -23 4 -33 0 -43 -16z"/>
<path d="M4590 3210 c0 -5 5 -10 10 -10 6 0 10 5 10 10 0 6 -4 10 -10 10 -5 0
-10 -4 -10 -10z"/>
<path d="M5769 3180 c68 -38 74 -38 31 0 -19 16 -46 29 -60 29 -20 1 -14 -5
29 -29z"/>
<path d="M3790 3189 c0 -5 5 -7 10 -4 6 3 10 8 10 11 0 2 -4 4 -10 4 -5 0 -10
-5 -10 -11z"/>
<path d="M4077 3086 c-8 -21 45 -41 72 -26 19 10 20 13 7 25 -19 19 -72 19
-79 1z"/>
<path d="M3965 2980 c3 -5 8 -10 11 -10 2 0 4 5 4 10 0 6 -5 10 -11 10 -5 0
-7 -4 -4 -10z"/>
<path d="M3998 2893 c6 -2 18 -2 25 0 6 3 1 5 -13 5 -14 0 -19 -2 -12 -5z"/>
</g>
</svg>
